<svg width="705" height="705" viewBox="0 0 705 705" fill="none" xmlns="http://www.w3.org/2000/svg">
<rect x="0.456177" y="0.514648" width="704.485" height="704.485" fill="url(#paint0_linear_91_4583)"/>
<path d="M352.698 668.563C286.77 668.563 230.335 655.405 183.394 629.088C136.453 602.505 100.456 565.555 75.4035 518.238C50.3507 470.654 260.925 413.9 260.925 351.165C260.925 288.429 50.3507 234.998 75.4035 187.68C100.456 140.097 136.453 103.147 183.394 76.8302C230.335 50.2474 286.77 36.9561 352.698 36.9561C418.626 36.9561 475.061 50.2474 522.002 76.8302C568.943 103.147 604.939 140.097 629.992 187.68C655.045 234.998 444.47 288.429 444.47 351.165C444.47 413.9 655.045 470.654 629.992 518.238C604.939 565.555 568.943 602.505 522.002 629.088C475.061 655.405 418.626 668.563 352.698 668.563ZM354.28 505.877C372.74 505.877 388.695 499.63 402.144 487.136C415.593 474.642 426.01 456.831 433.394 433.704C440.778 410.577 444.47 383.064 444.47 351.165C444.47 319 440.778 291.486 433.394 268.625C426.01 245.498 415.593 227.688 402.144 215.194C388.695 202.7 372.74 196.453 354.28 196.453C334.765 196.453 318.019 202.7 304.043 215.194C290.066 227.688 279.386 245.498 272.002 268.625C264.618 291.486 260.925 319 260.925 351.165C260.925 383.064 264.618 410.577 272.002 433.704C279.386 456.831 290.066 474.642 304.043 487.136C318.019 499.63 334.765 505.877 354.28 505.877Z" fill="black"/>
<defs>
<linearGradient id="paint0_linear_91_4583" x1="352.699" y1="0.514648" x2="352.699" y2="705" gradientUnits="userSpaceOnUse">
<stop stop-color="#FF5601"/>
<stop offset="0.5" stop-color="#D9D9D9"/>
<stop offset="1" stop-color="white"/>
</linearGradient>
</defs>
</svg>
