<svg width="1280" height="832" viewBox="0 0 1280 832" fill="none" xmlns="http://www.w3.org/2000/svg">
<g clip-path="url(#clip0_122_305)">
<rect width="1280" height="832" fill="white"/>
<rect x="220" width="840.992" height="840.992" fill="url(#paint0_linear_122_305)"/>
<path d="M640.495 797.495C561.792 797.495 494.422 781.787 438.385 750.37C382.349 718.637 339.377 674.527 309.47 618.041C279.563 561.237 530.939 493.486 530.939 418.594C530.939 343.703 279.563 279.918 309.47 223.432C339.377 166.629 382.349 122.519 438.385 91.1024C494.422 59.3688 561.792 43.502 640.495 43.502C719.198 43.502 786.568 59.3688 842.605 91.1024C898.641 122.519 941.613 166.629 971.52 223.432C1001.43 279.918 750.05 343.703 750.05 418.594C750.05 493.486 1001.43 561.237 971.52 618.041C941.613 674.527 898.641 718.637 842.605 750.37C786.568 781.787 719.198 797.495 640.495 797.495ZM642.384 603.285C664.421 603.285 683.467 595.827 699.522 580.912C715.578 565.997 728.013 544.736 736.827 517.128C745.642 489.519 750.05 456.675 750.05 418.594C750.05 380.197 745.642 347.352 736.827 320.061C728.013 292.453 715.578 271.191 699.522 256.276C683.467 241.362 664.421 233.904 642.384 233.904C619.088 233.904 599.097 241.362 582.412 256.276C565.727 271.191 552.977 292.453 544.162 320.061C535.348 347.352 530.939 380.197 530.939 418.594C530.939 456.675 535.348 489.519 544.162 517.128C552.977 544.736 565.727 565.997 582.412 580.912C599.097 595.827 619.088 603.285 642.384 603.285Z" fill="black"/>
</g>
<defs>
<linearGradient id="paint0_linear_122_305" x1="640.496" y1="0" x2="640.496" y2="840.992" gradientUnits="userSpaceOnUse">
<stop stop-color="#FF5601"/>
<stop offset="0.5" stop-color="#D9D9D9"/>
<stop offset="1" stop-color="white"/>
</linearGradient>
<clipPath id="clip0_122_305">
<rect width="1280" height="832" fill="white"/>
</clipPath>
</defs>
</svg>
