<?xml version="1.0" encoding="UTF-8"?>
<svg id="Layer_2" data-name="Layer 2" xmlns="http://www.w3.org/2000/svg" viewBox="0 0 382.86 481.43">
  <defs>
    <style>
      .cls-1 {
        fill: #e0b661;
      }

      .cls-2 {
        fill: #df0038;
      }

      .cls-3 {
        fill: #f5c153;
      }

      .cls-4, .cls-5, .cls-6 {
        stroke-miterlimit: 10;
      }

      .cls-4, .cls-7 {
        opacity: .6;
      }

      .cls-4, .cls-6 {
        fill: #ff7bac;
        stroke: #fbb03b;
      }

      .cls-8 {
        fill: #ed1c24;
      }

      .cls-5 {
        stroke: #fff;
        stroke-width: .25px;
      }

      .cls-9 {
        fill: #ffe975;
      }

      .cls-10 {
        fill: #fff;
      }

      .cls-11 {
        fill: #ffdac2;
      }
    </style>
  </defs>
  <g id="Spilscene">
    <g>
      <path class="cls-11" d="M264.36,136.44l-10.3,2.57c-8.14,0-18.02-17.6-18.02-25.74l-.43-23.68c0-8.14,6.66-14.8,14.8-14.8h0c8.14,0,14.8,6.66,14.8,14.8v23.17c0,8.14,7.29,23.68-.85,23.68Z"/>
      <path class="cls-2" d="M333.95,351.4c-12.25-2.08-33.49-30.46-50.99-29.51-27.17,1.47-49.2,8.15-64.36,14.16,2.15-30.03,4.29-60.07,6.44-90.1,9.04-4.63,25.65-11.68,47.63-12.87,22.08-1.2,39.42,4.07,48.91,7.72,2.15,27.89,10.23,82.71,12.38,110.6Z"/>
      <g>
        <rect class="cls-11" x="311.85" y="35.37" width="33.47" height="14.16" rx="5.18" ry="5.18" transform="translate(4.23 -25.09) rotate(4.4)"/>
        <rect class="cls-11" x="50.26" y="115.97" width="33.47" height="14.16" rx="5.18" ry="5.18" transform="translate(-20.29 13.45) rotate(-9.97)"/>
        <g>
          <g>
            <polygon class="cls-4" points="37 52.96 32.24 58.05 72.56 112.7 45.11 50.33 37 52.96"/>
            <polygon class="cls-4" points="24.09 61.73 19.36 68.35 72.56 112.7 32.24 58.05 24.09 61.73"/>
          </g>
          <polyline class="cls-4" points="72.61 114.31 74.71 46.47 67.29 45 59.27 47.75 72.61 114.31"/>
          <polyline class="cls-4" points="72.61 114.31 59.27 47.75 51.82 47.12 45.11 50.33 72.61 114.31"/>
          <g>
            <polygon class="cls-4" points="1.19 103.29 2.63 110.83 71.49 115.33 5.21 96.67 1.19 103.29"/>
            <polygon class="cls-4" points=".52 118.89 2.43 126.8 71.49 115.33 2.63 110.83 .52 118.89"/>
          </g>
          <polyline class="cls-4" points="71.67 111.35 19.36 68.35 12.88 74.24 11.64 82.51 71.67 111.35"/>
          <polyline class="cls-4" points="71.49 111.47 11.64 82.51 5.35 87.92 5.21 96.67 71.49 115.33"/>
          <g class="cls-7">
            <polygon class="cls-6" points="135.85 99.72 130.06 92.8 74.07 115.33 135.21 106.96 135.85 99.72"/>
            <polygon class="cls-6" points="131.01 84.88 124.91 78.65 72.78 115.33 130.62 93.01 131.01 84.88"/>
          </g>
          <polyline class="cls-4" points="66.99 114.69 137.52 138.29 135.08 131.03 133.92 122.41 76 117.26"/>
          <polyline class="cls-4" points="72.78 116.62 133.92 122.41 137.34 115.58 135.21 106.96 72.78 115.33"/>
          <g class="cls-7">
            <polygon class="cls-6" points="97.45 51.34 88.87 51.61 72.78 114.04 104.32 56.76 97.45 51.34"/>
            <polygon class="cls-6" points="83.72 46.47 74.71 46.47 72.78 114.04 88.87 51.61 83.72 46.47"/>
          </g>
          <polyline class="cls-4" points="71.49 115.33 124.91 78.65 122.11 70.64 115.9 65.77 71.49 115.33"/>
          <polyline class="cls-4" points="71.49 115.33 115.9 65.77 111.06 59.61 104.32 56.76 71.49 115.33"/>
        </g>
        <path class="cls-5" d="M282.83,43.3c.62-1.21,1.16-2.52,1.62-3.9.13-.35.24-.7.33-1.06,1.72-5.64,2.3-12.27,2.3-17.62,0-11.73-18.23-20.6-29.61-20.6-8.92,0-16.54,5.87-19.38,14.07-.14.4-.28.81-.39,1.24h0c-.24-.12-.5-.22-.76-.31-1.43-.54-2.96-.84-4.57-.84-1.44,0-2.82.23-4.12.67-.8.27-1.56.6-2.28,1.02-4.25,2.39-7.12,7.08-7.12,12.47,0,1.93.37,3.78,1.06,5.46h0c-9.99,12.81-4.89,28.09-2.34,37.02,1.47,5.15,4.51,8.73,8.53,11.22,9.82,6.1,25.5,5.69,38.56,5.55,1.51-.03,2.97-.04,4.39-.04,18.84,0,20.6-4.54,20.6-24.46,0-6.23-2.64-13.23-6.83-19.9ZM272.94,50.33c-2.81,0-6.42-1.06-10.27-2.82-3.91-9.27-8.52-14.38-16.76-14.38-.26,0-.51,0-.77.03h0c.5-1.47.77-3.05.77-4.71,0-.41-.02-.8-.05-1.2-.08-1.04-.28-2.04-.57-3-.06-.2-.12-.41-.19-.61-.03-.09-.07-.18-.11-.28-.23-.63-.49-1.23-.8-1.81,0,0,0,0,0-.01h0l23.38,9.68c-.6.1-1.12.4-1.61.77-.31.24-.6.51-.91.81.09.24.26.45.49.57-.23.12-.45.18-.63.4.7,1.22,1.38,2.01,2.79,2.32-.76,1.07-.67,2.2-.48,3.51.26.06.53.05.75-.08-.04.26-.12.48-.04.75.84.08,1.54.08,2.2-.14-.03.03-.05.05-.08.08.7,1.22,1.38,2.01,2.79,2.32-.76,1.07-.67,2.2-.48,3.51.26.06.53.05.75-.08-.04.26-.12.48-.04.75,1.42.14,2.47.04,3.55-.98.89,1.08,2.05,1.25,3.42,1.35.12-.23.15-.5.09-.75.19.09.36.18.58.19-1.98,2.36-4.53,3.81-7.77,3.81Z"/>
        <path class="cls-11" d="M269.77,73.71c-.23,5.23-2.18,10.03-5.08,13.98-4.78,6.51-12.15,10.74-18.78,10.74-8.44,0-15.83-6.55-19.78-16.28-1.96-4.81-3.08-10.41-3.08-16.37,0-9.19,2.65-17.48,6.93-23.4,3.49-4.83,8.03-8.1,13.09-8.98.68-.13,1.36-.21,2.07-.23.26-.03.51-.03.77-.03,8.24,0,12.85,5.11,16.76,14.38,1.87,4.44,3.58,9.82,5.46,16.05.21.72.44,1.47.66,2.21.81,2.72,1.11,5.38.99,7.94Z"/>
        <path d="M280.71,46.52c-1.98,2.36-4.53,3.81-7.77,3.81-2.81,0-6.42-1.06-10.27-2.82-3.91-9.27-8.52-14.38-16.76-14.38-.26,0-.51,0-.77.03.5-1.47.77-3.05.77-4.71s-.28-3.31-.81-4.81c-.24-.73-.55-1.43-.91-2.1l23.38,9.68c-.6.1-1.12.4-1.61.77-.31.24-.6.51-.91.81.09.24.26.45.49.57-.23.12-.45.18-.63.4.7,1.22,1.38,2.01,2.79,2.32-.76,1.07-.67,2.2-.48,3.51.26.06.53.05.75-.08-.04.26-.12.48-.04.75.84.08,1.54.08,2.2-.14-.03.03-.05.05-.08.08.7,1.22,1.38,2.01,2.79,2.32-.76,1.07-.67,2.2-.48,3.51.26.06.53.05.75-.08-.04.26-.12.48-.04.75,1.42.14,2.47.04,3.55-.98.89,1.08,2.05,1.25,3.42,1.35.12-.23.15-.5.09-.75.19.09.36.18.58.19Z"/>
        <path class="cls-3" d="M248.45,21.61c.55,1.02,1.02,2.08,1.39,3.2l-2.74-1.1-9.18-3.69-.51-.2-3.6-1.45-.63-.25-.63-.25-1.33-.53-5.11-2.06-5.32-2.14-9.85-3.94c-.16-.08-.39-.2-.49-.49l.49-1.47c.08-.18.31-1.08.7-.88l12.61,5.23,9.49,3.92,2.09.88,1.8.75,10.26,4.23.55.24Z"/>
        <path class="cls-3" d="M294.5,44.74l-.33.95c-.07.17-.23.26-.37.19l-6.98-3.42-2.96-1.44-3.76-1.85-1.02-.5-.69-.34-3.91-1.92-1.25-.6-11.72-5.75c.67-.62,1.37-1.12,2.2-1.29l10.73,5.43.6.3.33.17.62.32.18.09,1.81.93,9.29,4.69,7.09,3.6c.14.06.21.28.14.45Z"/>
        <path class="cls-2" d="M292.76,451.8c-8.53,7.11-38.76,30.5-82.38,29.61-26.22-.54-46.13-9.63-56.64-15.45,20.59-75.94,41.19-151.89,61.78-227.83h66.93c3.43,71.22,6.87,142.45,10.3,213.67Z"/>
        <path class="cls-2" d="M382.86,462.09c-14.05,1.38-32.12,1.78-52.77-1.29-14.4-2.14-26.93-5.5-37.33-9.01-20.17-78.95-49.34-157.89-69.51-236.84l24.46-6.44c20.97,33.41,52.58,76.74,73.37,117.13,24.71,48.02,45.03,93.88,61.78,136.44Z"/>
        <path class="cls-9" d="M242.56,381c-4.5-1.31-12.91-3.11-23.17-1.29-13.46,2.39-22.23,9.62-25.74,12.87,7.29-57.07,14.59-114.13,21.88-171.2l16.73-6.44c-2.14,30.39-2.41,65.52,1.29,104.26,2.12,22.22,5.29,42.87,9.01,61.78Z"/>
        <path class="cls-9" d="M321.08,244.56c-12.25-2.08-27.55-3.52-45.05-2.57-27.17,1.47-49.2,8.15-64.36,14.16,2.15-30.03,4.29-60.07,6.44-90.1,9.04-4.63,25.65-11.68,47.63-12.87,22.08-1.2,39.42,4.07,48.91,7.72,2.15,27.89,4.29,55.78,6.44,83.67Z"/>
        <path class="cls-8" d="M237.93,14.08c.26.13.37.33.53.53.06-.25.23-.46.45-.6,1.25.83,2.24,1.61,2.37,3.26,1.37-.39,2.35-.03,3.53.71-.06.28-.22.45-.36.65.26,0,.51.09.7.26-.44,1.4-.91,2.55-2.39,3.14.06.08.12.17.18.26.93,1.39.82,2.5.34,3.94-.29.01-.49-.11-.72-.2.07.25.03.51-.1.74-1.37-.1-2.53-.27-3.42-1.34-1.08,1.01-2.13,1.12-3.55.98-.08-.28,0-.5.04-.75-.23.12-.5.14-.74.07-.2-1.31-.29-2.44.47-3.52-1.41-.3-2.1-1.09-2.79-2.31.18-.22.4-.29.63-.4-.23-.11-.4-.32-.49-.56,1.07-1.04,2.04-1.83,3.67-1.62-.01-1.45.62-2.3,1.66-3.24Z"/>
        <path class="cls-8" d="M277.57,32.76c-.21.66-.42,1.26-.73,1.78-.09.13-.17.24-.26.35-.01.03-.03.04-.04.05-.28.35-.64.63-1.11.85-.08.05-.15.08-.24.12.05.08.12.17.18.26.93,1.39.81,2.5.33,3.94-.28.01-.49-.1-.72-.21.06.24.03.51-.09.75-1.38-.1-2.54-.27-3.42-1.35-.44.41-.89.68-1.35.84-.66.22-1.36.22-2.2.14-.08-.27,0-.49.04-.75-.22.13-.49.14-.75.08-.19-1.31-.28-2.45.48-3.51-1.42-.31-2.1-1.09-2.79-2.32.18-.22.4-.28.63-.4-.23-.12-.4-.32-.49-.57.31-.3.6-.57.91-.81.49-.37,1-.67,1.61-.77.35-.08.72-.09,1.15-.04-.01-1.3.49-2.12,1.35-2.96.1-.09.21-.19.31-.28.26.14.37.33.53.53.06-.24.23-.45.45-.59,1.25.84,2.23,1.61,2.37,3.26,1.36-.39,2.34-.03,3.53.72-.05.28-.22.44-.36.64.26,0,.5.1.7.27Z"/>
        <path class="cls-10" d="M281.62,41.44c-.32.36-.73.67-1.29.89.05.08.12.17.18.26.86,1.3.82,2.34.42,3.66-.03.09-.06.18-.09.28-.05,0-.1,0-.14-.01-.22-.01-.39-.1-.58-.19.06.24.03.51-.09.75-1.38-.1-2.54-.27-3.42-1.35-1.08,1.02-2.14,1.12-3.55.98-.08-.27,0-.49.04-.75-.22.13-.49.14-.75.08-.19-1.31-.28-2.45.48-3.51-1.42-.31-2.1-1.09-2.79-2.32.03-.03.05-.05.08-.08.17-.15.35-.22.55-.32-.23-.12-.4-.32-.49-.57,1.07-1.03,2.05-1.83,3.67-1.62-.01-.91.23-1.58.67-2.19.24-.33.54-.64.89-.97.04-.03.06-.06.1-.09.14.08.24.17.33.27.06.08.13.17.19.26.01-.05.04-.1.05-.15.04-.08.1-.17.17-.23.06-.08.14-.14.23-.21.12.08.24.15.35.23.45.32.85.63,1.16,1,.4.42.68.94.8,1.6.03.13.05.27.06.42.23-.06.46-.12.68-.13,1.03-.12,1.87.23,2.84.85-.01.1-.05.18-.09.26-.08.14-.18.26-.27.39.26,0,.5.1.7.27-.27.88-.57,1.65-1.09,2.25Z"/>
        <path class="cls-10" d="M230.46,16.35c.26.13.37.33.53.53.06-.25.23-.46.45-.6,1.25.83,2.24,1.61,2.37,3.26,1.37-.39,2.35-.03,3.53.71-.06.28-.22.45-.36.65.26,0,.51.09.7.26-.44,1.4-.91,2.55-2.39,3.14.06.08.12.17.18.26.93,1.39.82,2.5.34,3.94-.29.01-.49-.11-.72-.2.07.25.03.51-.1.74-1.37-.1-2.53-.27-3.42-1.34-1.08,1.01-2.13,1.12-3.55.98-.08-.28,0-.5.04-.75-.23.12-.5.14-.74.07-.2-1.31-.29-2.44.47-3.52-1.41-.3-2.1-1.09-2.79-2.31.18-.22.4-.29.63-.4-.23-.11-.4-.32-.49-.56,1.07-1.04,2.04-1.83,3.67-1.62-.01-1.45.62-2.3,1.66-3.24Z"/>
        <path class="cls-2" d="M363.04,87.66c-.8-18.4-14.25-47.19-19.31-46.34-2.66.45,1.53,5.05-3.43,6.3-4.68,1.18-12.43-1.57-15.88-1.16-4.08.49-8.3,10.99-9.98,51.36l-48.8,6.43-10.73,24.59-18.87-20.73-54.39,15.91c-.03-.54-8.64,3.94-8.68,3.4-11,3.95-19.63,9.75-39.05,3.99-32.85-9.73-39.13-7.96-49.61-11.01.24-.86-.09-1.77-1.87-.58-2.86,1.9-13.08,9.27-12.87,10.3,2.42,11.85,15.45,45.05,23.17,50.2-3.02,72.2-5.24,214.06,29.56,221.52,1.34.29,2.74.38,4.22.25,12.79-2.76,30.32-8.22,48.6-19.68,8.75-5.49,16-11.31,21.88-16.73-4.05-63.86-8.11-127.73-12.16-191.59,22.35-7.14,47.83-14.6,75.24-16.94,16.32-1.39,31.77,2.3,46.2,5.06-5.21,43.58-10.95,95.41-16.59,148.11,1.75,3.78,8.85,17.95,25.74,25.74,17.51,8.08,33.47,3.74,37.33,2.57-3.56-81.95,13.86-169.05,10.3-251Z"/>
      </g>
      <path class="cls-1" d="M70.76,117.69l16.73,5.15c2.61-3.1,2.57-5.99,2.57-10.3,0-9.95-8.36-18.02-18.66-18.02s-18.66,8.07-18.66,18.02c0,2.84.7,5.51,1.91,7.9l16.11-2.75Z"/>
    </g>
  </g>
</svg>