<?xml version="1.0" encoding="UTF-8"?>
<svg id="Layer_2" data-name="Layer 2" xmlns="http://www.w3.org/2000/svg" viewBox="0 0 380.45 280.21">
  <defs>
    <style>
      .cls-1 {
        fill: #c1272d;
      }

      .cls-2 {
        fill: #ffdb70;
      }
    </style>
  </defs>
  <g id="Spilscene">
    <g id="Layer_1-2" data-name="Layer 1-2">
      <g>
        <g>
          <path class="cls-2" d="M36.01,275.89l3.94,4.28c1.14.21,1.99-.33,2.5-.72L380.01,11.86c.51-.39.6-1.13.2-1.63l-2.19-2.8c-.39-.51-1.13-.6-1.63-.2L34.36,272.03c-1.36.93,1.22,3.3,1.65,3.86Z"/>
          <path class="cls-2" d="M1.67,228.35l3.42,4.7c1.11.34,2.02-.1,2.57-.44L373.47,5.18c.55-.34.72-1.05.38-1.6l-1.85-3.03c-.34-.55-1.05-.72-1.6-.38L.48,224.33c-1.46.77.83,3.42,1.21,4.02h-.01Z"/>
        </g>
        <polygon class="cls-1" points="73.52 241.72 79.89 249.77 50.13 273.37 43.49 264.97 73.52 241.72"/>
        <polygon class="cls-1" points="43.6 198.09 48.65 207.05 18.21 226 12.38 217.01 43.6 198.09"/>
      </g>
    </g>
  </g>
</svg>