<svg width="2050" height="129" viewBox="0 0 2050 129" fill="none" xmlns="http://www.w3.org/2000/svg">
<path d="M43.75 61.9629V96.2891C42.2526 97.5911 40.2507 98.6816 37.7441 99.5605C35.2376 100.439 32.194 100.879 28.6133 100.879C25.0326 100.879 21.9889 100.081 19.4824 98.4863C16.6504 96.7611 15.2344 94.3197 15.2344 91.1621V59.7168H3.85742C1.51367 56.3639 0.341797 52.7018 0.341797 48.7305C0.341797 46.0286 0.764974 43.6849 1.61133 41.6992C2.49023 39.681 3.56445 38.1185 4.83398 37.0117H55.3223C56.2663 38.4766 57.0475 40.2507 57.666 42.334C58.2845 44.4173 58.5938 46.4844 58.5938 48.5352C58.5938 52.3763 57.7474 55.2083 56.0547 57.0312C54.362 58.8216 52.0833 59.7168 49.2188 59.7168H34.9121C34.8145 59.9447 34.7656 60.1888 34.7656 60.4492C34.7656 61.0352 35.1074 61.4258 35.791 61.6211C36.5072 61.849 38.0371 61.9629 40.3809 61.9629H43.75ZM111.768 75.8301C111.768 78.1738 112.028 80.0618 112.549 81.4941C113.07 82.9264 113.981 84.0495 115.283 84.8633C115.316 85.026 115.332 85.3353 115.332 85.791V86.6699C115.332 91.1621 114.03 94.6615 111.426 97.168C108.854 99.6419 105.518 100.879 101.416 100.879C97.347 100.879 94.043 99.7233 91.5039 97.4121C88.5417 94.7754 87.0605 90.7715 87.0605 85.4004C87.0605 83.1217 87.1582 81.1198 87.3535 79.3945C87.5814 77.6367 87.7279 76.3835 87.793 75.6348C87.8906 74.8861 87.9883 74.1862 88.0859 73.5352C88.1836 72.8841 88.2324 71.9238 88.2324 70.6543C88.2324 69.3848 88.0534 68.4733 87.6953 67.9199C87.3698 67.3665 86.8978 67.0898 86.2793 67.0898C85.6934 67.0898 85.1725 67.2201 84.7168 67.4805L85.3516 75.4395C84.7656 78.7272 84.4727 82.2103 84.4727 85.8887C84.4727 89.5671 85.3027 92.9199 86.9629 95.9473C83.7728 99.235 79.2969 100.879 73.5352 100.879C70.2474 100.879 67.3991 100.016 64.9902 98.291C62.1908 96.3379 60.791 93.75 60.791 90.5273V33.5449C62.3535 32.6335 64.2253 31.8848 66.4062 31.2988C68.6198 30.7129 70.8496 30.4199 73.0957 30.4199C76.8392 30.4199 79.9316 31.1523 82.373 32.6172C85.14 34.3424 86.5234 36.8164 86.5234 40.0391V44.6777C83.6914 44.8405 80.9733 45.6543 78.3691 47.1191C76.123 48.4212 75 49.6094 75 50.6836C75 51.0417 75.1302 51.3672 75.3906 51.6602C75.651 51.9206 75.9603 52.0833 76.3184 52.1484C77.6855 50.5534 79.6061 49.2188 82.0801 48.1445C84.5866 47.0703 87.5488 46.5332 90.9668 46.5332C94.3848 46.5332 97.4609 47.054 100.195 48.0957C103.646 49.3978 106.364 51.3835 108.35 54.0527C110.726 57.3079 111.914 61.3932 111.914 66.3086L111.768 75.8301ZM145.264 101.514C136.247 101.514 129.134 99.0072 123.926 93.9941C118.587 88.9486 115.918 82.0475 115.918 73.291C115.918 64.502 118.669 57.5358 124.17 52.3926C129.248 47.6074 135.677 45.2148 143.457 45.2148C151.237 45.2148 157.471 47.3633 162.158 51.6602C166.878 55.9245 169.238 61.1816 169.238 67.4316C169.238 72.998 167.301 77.1973 163.428 80.0293C159.847 82.6986 154.964 84.0332 148.779 84.0332C144.157 84.0332 140.251 83.0729 137.061 81.1523C136.8 81.3477 136.67 81.7057 136.67 82.2266C136.67 83.2031 137.956 84.0983 140.527 84.9121C143.099 85.791 146.012 86.2305 149.268 86.2305C152.555 86.2305 155.534 85.8236 158.203 85.0098C160.905 84.1634 163.07 83.1706 164.697 82.0312C165.479 82.7148 166.097 83.9844 166.553 85.8398C167.041 87.6628 167.285 89.3392 167.285 90.8691C167.285 92.3665 167.139 93.7012 166.846 94.873C164.307 97.0215 161.702 98.5514 159.033 99.4629C155.257 100.83 150.667 101.514 145.264 101.514ZM144.629 68.457C146.257 68.457 147.07 67.8385 147.07 66.6016C147.07 65.4297 146.208 64.8438 144.482 64.8438C142.757 64.8438 141.764 65.7715 141.504 67.627C142.415 68.1803 143.457 68.457 144.629 68.457ZM221.484 82.2266C222.559 82.0312 223.096 81.4941 223.096 80.6152C223.096 79.7038 222.803 78.6947 222.217 77.5879C221.663 76.4486 220.833 75.3743 219.727 74.3652C216.829 71.7611 212.907 70.459 207.959 70.459C205.518 70.459 203.239 70.8659 201.123 71.6797C198.877 70.5404 197.087 68.7337 195.752 66.2598C194.417 63.7858 193.75 61.1165 193.75 58.252C193.75 50.765 196.875 44.987 203.125 40.918C208.496 37.4349 215.12 35.6934 222.998 35.6934C228.857 35.6934 233.789 36.3281 237.793 37.5977C241.797 38.8346 245.068 40.4297 247.607 42.3828C248.356 44.5312 248.73 46.7611 248.73 49.0723C248.73 51.3835 248.421 53.4831 247.803 55.3711C247.184 57.2591 246.289 58.7728 245.117 59.9121C244.01 59.0983 242.008 58.2682 239.111 57.4219C236.214 56.5755 233.577 56.1523 231.201 56.1523C228.825 56.1523 227.23 56.2988 226.416 56.5918C225.635 56.8848 225.244 57.3405 225.244 57.959C225.244 58.252 225.293 58.5286 225.391 58.7891C226.53 58.4961 227.995 58.3496 229.785 58.3496C236.133 58.3496 241.309 59.847 245.312 62.8418C250.033 66.4225 252.393 71.7936 252.393 78.9551C252.393 85.2702 249.837 90.5111 244.727 94.6777C239.193 99.1374 231.755 101.367 222.412 101.367C217.269 101.367 212.809 100.977 209.033 100.195C205.257 99.4466 201.579 98.112 197.998 96.1914C195.557 92.6432 194.336 89.0462 194.336 85.4004C194.336 81.722 195.589 78.6784 198.096 76.2695C200.602 73.8607 203.678 72.6562 207.324 72.6562C211.003 72.6562 213.997 73.4049 216.309 74.9023C218.652 76.3997 220.378 78.8411 221.484 82.2266ZM280.762 78.7109C281.152 78.7109 281.576 78.5482 282.031 78.2227C281.706 77.1484 281.543 75.472 281.543 73.1934V49.0723C284.993 46.9889 289.144 45.9473 293.994 45.9473C296.729 45.9473 299.121 46.3216 301.172 47.0703C303.255 47.7865 304.85 48.7467 305.957 49.9512V75.3906C305.957 80.2409 307.129 83.3984 309.473 84.8633C309.505 85.026 309.521 85.3353 309.521 85.791V86.6699C309.521 91.4225 308.268 95.0195 305.762 97.4609C303.483 99.7396 300.342 100.879 296.338 100.879C293.831 100.879 291.553 100.309 289.502 99.1699C287.484 98.0306 285.97 96.3704 284.961 94.1895C283.854 94.1895 283.301 94.7266 283.301 95.8008C283.301 96.5495 283.675 97.2982 284.424 98.0469C283.382 98.8932 282.129 99.5768 280.664 100.098C279.199 100.618 277.035 100.879 274.17 100.879C271.338 100.879 268.571 100.293 265.869 99.1211C262.516 97.6888 259.945 95.4915 258.154 92.5293C255.973 89.0137 254.883 84.554 254.883 79.1504V66.8945C253.223 63.9974 252.393 60.8073 252.393 57.3242C252.393 55.5339 252.62 53.6784 253.076 51.7578C253.532 49.8372 254.264 48.1283 255.273 46.6309H266.016C270.052 46.6309 273.21 47.5911 275.488 49.5117C277.799 51.3997 278.955 54.2806 278.955 58.1543V73.9746C278.955 77.1322 279.557 78.7109 280.762 78.7109ZM337.646 61.7188C336.8 61.9792 336.377 62.4837 336.377 63.2324V63.4766C336.377 63.6393 336.393 63.737 336.426 63.7695C336.784 63.737 337.256 63.7207 337.842 63.7207H339.014C342.725 63.7207 346.191 64.2904 349.414 65.4297C352.669 66.5365 355.322 68.3268 357.373 70.8008C359.652 73.6003 360.791 77.1322 360.791 81.3965C360.791 88.0371 358.496 93.0501 353.906 96.4355C349.316 99.821 343.18 101.514 335.498 101.514C327.816 101.514 321.794 100.244 317.432 97.7051C313.102 95.166 310.938 91.4388 310.938 86.5234C310.938 84.7005 311.328 83.0404 312.109 81.543C312.891 80.013 313.77 78.9388 314.746 78.3203C316.536 79.8177 319.124 81.1198 322.51 82.2266C325.928 83.3008 329.541 83.8379 333.35 83.8379C334.88 83.8379 335.645 83.4147 335.645 82.5684C335.645 82.1777 335.596 81.8522 335.498 81.5918C335.27 81.6243 334.993 81.6406 334.668 81.6406H334.131C327.23 81.6406 321.712 80.2734 317.578 77.5391C312.891 74.4466 310.547 70.0846 310.547 64.4531C310.547 58.8216 312.646 54.2643 316.846 50.7812C321.501 46.9401 327.897 45.0195 336.035 45.0195C340.039 45.0195 343.766 45.4427 347.217 46.2891C350.7 47.1354 353.678 48.2585 356.152 49.6582C356.771 50.9928 357.08 52.9622 357.08 55.5664C357.08 59.5378 355.99 62.5814 353.809 64.6973C352.148 63.7858 350.114 63.0371 347.705 62.4512C345.329 61.8327 343.18 61.5234 341.26 61.5234C339.339 61.5234 338.135 61.5885 337.646 61.7188ZM414.502 75.8301C414.502 78.1738 414.762 80.0618 415.283 81.4941C415.804 82.9264 416.715 84.0495 418.018 84.8633C418.05 85.026 418.066 85.3353 418.066 85.791V86.6699C418.066 91.1621 416.764 94.6615 414.16 97.168C411.589 99.6419 408.252 100.879 404.15 100.879C400.081 100.879 396.777 99.7233 394.238 97.4121C391.276 94.7754 389.795 90.7715 389.795 85.4004C389.795 83.1217 389.893 81.1198 390.088 79.3945C390.316 77.6367 390.462 76.3835 390.527 75.6348C390.625 74.8861 390.723 74.1862 390.82 73.5352C390.918 72.8841 390.967 71.9238 390.967 70.6543C390.967 69.3848 390.788 68.4733 390.43 67.9199C390.104 67.3665 389.632 67.0898 389.014 67.0898C388.428 67.0898 387.907 67.2201 387.451 67.4805L388.086 75.4395C387.5 78.7272 387.207 82.2103 387.207 85.8887C387.207 89.5671 388.037 92.9199 389.697 95.9473C386.507 99.235 382.031 100.879 376.27 100.879C372.982 100.879 370.133 100.016 367.725 98.291C364.925 96.3379 363.525 93.75 363.525 90.5273V33.5449C365.088 32.6335 366.96 31.8848 369.141 31.2988C371.354 30.7129 373.584 30.4199 375.83 30.4199C379.574 30.4199 382.666 31.1523 385.107 32.6172C387.874 34.3424 389.258 36.8164 389.258 40.0391V44.6777C386.426 44.8405 383.708 45.6543 381.104 47.1191C378.857 48.4212 377.734 49.6094 377.734 50.6836C377.734 51.0417 377.865 51.3672 378.125 51.6602C378.385 51.9206 378.695 52.0833 379.053 52.1484C380.42 50.5534 382.34 49.2188 384.814 48.1445C387.321 47.0703 390.283 46.5332 393.701 46.5332C397.119 46.5332 400.195 47.054 402.93 48.0957C406.38 49.3978 409.098 51.3835 411.084 54.0527C413.46 57.3079 414.648 61.3932 414.648 66.3086L414.502 75.8301ZM444.824 56.0547V75.3906C444.824 80.2409 445.996 83.3984 448.34 84.8633C448.372 85.026 448.389 85.3353 448.389 85.791V86.6699C448.389 91.4551 447.087 95.0521 444.482 97.4609C442.074 99.7396 438.851 100.879 434.814 100.879C430.811 100.879 427.507 99.7396 424.902 97.4609C421.615 94.5638 419.971 90.332 419.971 84.7656V53.0273C420.557 52.6042 421.191 52.2624 421.875 52.002C422.559 51.7415 423.275 51.416 424.023 51.0254C422.624 50.3092 421.354 49.0723 420.215 47.3145C419.076 45.5241 418.506 43.4408 418.506 41.0645C418.506 36.9629 419.857 33.61 422.559 31.0059C425.26 28.4017 428.564 27.0996 432.471 27.0996C436.41 27.0996 439.697 28.4342 442.334 31.1035C445.003 33.7402 446.338 37.0605 446.338 41.0645C446.338 44.2871 445.329 47.1191 443.311 49.5605C441.292 51.9694 438.835 53.4831 435.938 54.1016C435.938 55.3385 436.41 55.957 437.354 55.957C439.014 55.957 440.706 55.306 442.432 54.0039C443.734 55.013 444.531 55.6966 444.824 56.0547ZM505.273 59.3262H534.229C536.084 62.028 537.012 65.3158 537.012 69.1895C537.012 73.0306 536.214 76.1556 534.619 78.5645H532.617V93.2129C526.204 98.7793 517.741 101.562 507.227 101.562C500.814 101.562 495.117 100.423 490.137 98.1445C484.701 95.7031 480.485 92.1387 477.49 87.4512C474.202 82.3079 472.559 75.9928 472.559 68.5059C472.559 57.8613 475.749 49.6257 482.129 43.7988C488.184 38.2324 496.387 35.4492 506.738 35.4492C511.849 35.4492 516.667 36.2142 521.191 37.7441C525.749 39.2741 529.346 41.1784 531.982 43.457C531.982 45.4102 531.738 47.8027 531.25 50.6348C530.794 53.4668 530.208 55.6315 529.492 57.1289H503.76C502.718 58.2357 501.725 59.8307 500.781 61.9141C499.87 63.9974 499.414 66.39 499.414 69.0918C499.414 72.8027 500.342 75.7161 502.197 77.832C503.825 79.7526 505.908 80.7129 508.447 80.7129C509.489 80.7129 510.01 80.3548 510.01 79.6387V78.5156H509.473C507.324 78.5156 505.534 77.6855 504.102 76.0254C502.702 74.3327 502.002 71.9238 502.002 68.7988C502.002 64.8926 503.092 61.735 505.273 59.3262ZM587.061 75.8301C587.061 78.1738 587.321 80.0618 587.842 81.4941C588.363 82.9264 589.274 84.0495 590.576 84.8633C590.609 85.026 590.625 85.3353 590.625 85.791V86.6699C590.625 91.2923 589.225 94.8893 586.426 97.4609C583.952 99.7396 580.892 100.879 577.246 100.879C574.772 100.879 572.51 100.293 570.459 99.1211C568.408 97.9492 566.943 96.2565 566.064 94.043C564.958 94.043 564.404 94.5801 564.404 95.6543C564.404 96.5658 564.974 97.5911 566.113 98.7305C563.997 100.163 560.807 100.879 556.543 100.879C550.521 100.879 545.703 99.2513 542.09 95.9961C538.509 92.7083 536.719 88.1348 536.719 82.2754C536.719 76.3835 538.623 71.8262 542.432 68.6035C545.915 65.7064 550.423 64.2578 555.957 64.2578C557.845 64.2578 559.668 64.388 561.426 64.6484C562.598 64.8763 563.232 65.0065 563.33 65.0391C563.428 64.7135 563.477 64.4368 563.477 64.209C563.477 63.3626 562.76 62.793 561.328 62.5C559.896 62.207 558.024 62.0605 555.713 62.0605C550.798 62.0605 546.598 63.0534 543.115 65.0391C541.52 62.3372 540.723 58.9193 540.723 54.7852C540.723 52.4414 541.016 50.6999 541.602 49.5605C543.945 48.4863 546.924 47.5423 550.537 46.7285C554.15 45.8822 557.959 45.459 561.963 45.459C570.231 45.459 576.481 47.2656 580.713 50.8789C584.945 54.4922 587.061 59.6191 587.061 66.2598V75.8301ZM561.719 78.2227C560.352 78.2227 559.668 78.8411 559.668 80.0781C559.668 81.25 560.465 81.8359 562.061 81.8359C563.167 81.8359 563.981 81.5755 564.502 81.0547C565.023 80.5013 565.283 79.5573 565.283 78.2227C565.283 78.2227 564.095 78.2227 561.719 78.2227ZM671.729 75.8301C671.729 78.2064 671.989 80.1432 672.51 81.6406C673.031 83.138 673.942 84.2936 675.244 85.1074C675.277 85.2702 675.293 85.5469 675.293 85.9375V86.6699C675.293 91.1296 673.991 94.6126 671.387 97.1191C668.783 99.6257 665.413 100.879 661.279 100.879C657.178 100.879 653.874 99.7559 651.367 97.5098C648.405 94.9056 646.924 90.918 646.924 85.5469V70.1172C646.924 67.9362 646.208 66.8457 644.775 66.8457C644.222 66.8457 643.783 66.9759 643.457 67.2363L644.336 74.5117V85.5469C644.336 89.974 645.068 93.3268 646.533 95.6055C644.971 97.2656 643.018 98.5677 640.674 99.5117C638.363 100.423 636.003 100.879 633.594 100.879C629.688 100.879 626.66 99.9349 624.512 98.0469C621.908 95.7682 620.605 92.1712 620.605 87.2559V70.1172C620.605 67.9362 619.889 66.8457 618.457 66.8457C617.904 66.8457 617.464 66.9759 617.139 67.2363L618.018 74.5117V87.4512C618.018 91.097 618.506 93.9128 619.482 95.8984C616.292 99.1862 611.816 100.83 606.055 100.83C602.637 100.83 599.756 99.9674 597.412 98.2422C594.71 96.2565 593.359 93.5872 593.359 90.2344V66.8945C591.439 64.1927 590.479 60.8724 590.479 56.9336C590.479 52.9622 591.439 49.528 593.359 46.6309H605.127C607.438 46.6309 609.408 47.4935 611.035 49.2188C609.603 50.5534 608.887 51.6602 608.887 52.5391C608.887 53.5482 609.456 54.0527 610.596 54.0527C612.028 51.5788 613.997 49.6094 616.504 48.1445C619.434 46.4844 622.868 45.6543 626.807 45.6543C629.801 45.6543 632.422 46.2891 634.668 47.5586C636.947 48.8281 638.639 50.293 639.746 51.9531C641.276 49.8698 643.262 48.3073 645.703 47.2656C648.177 46.1914 650.749 45.6543 653.418 45.6543C659.31 45.6543 663.883 47.4772 667.139 51.123C670.329 54.7689 671.924 59.7656 671.924 66.1133L671.729 75.8301ZM705.225 101.514C696.208 101.514 689.095 99.0072 683.887 93.9941C678.548 88.9486 675.879 82.0475 675.879 73.291C675.879 64.502 678.63 57.5358 684.131 52.3926C689.209 47.6074 695.638 45.2148 703.418 45.2148C711.198 45.2148 717.432 47.3633 722.119 51.6602C726.839 55.9245 729.199 61.1816 729.199 67.4316C729.199 72.998 727.262 77.1973 723.389 80.0293C719.808 82.6986 714.925 84.0332 708.74 84.0332C704.118 84.0332 700.212 83.0729 697.021 81.1523C696.761 81.3477 696.631 81.7057 696.631 82.2266C696.631 83.2031 697.917 84.0983 700.488 84.9121C703.06 85.791 705.973 86.2305 709.229 86.2305C712.516 86.2305 715.495 85.8236 718.164 85.0098C720.866 84.1634 723.031 83.1706 724.658 82.0312C725.439 82.7148 726.058 83.9844 726.514 85.8398C727.002 87.6628 727.246 89.3392 727.246 90.8691C727.246 92.3665 727.1 93.7012 726.807 94.873C724.268 97.0215 721.663 98.5514 718.994 99.4629C715.218 100.83 710.628 101.514 705.225 101.514ZM704.59 68.457C706.217 68.457 707.031 67.8385 707.031 66.6016C707.031 65.4297 706.169 64.8438 704.443 64.8438C702.718 64.8438 701.725 65.7715 701.465 67.627C702.376 68.1803 703.418 68.457 704.59 68.457Z" fill="black"/>
<path d="M832.75 61.9629V96.2891C831.253 97.5911 829.251 98.6816 826.744 99.5605C824.238 100.439 821.194 100.879 817.613 100.879C814.033 100.879 810.989 100.081 808.482 98.4863C805.65 96.7611 804.234 94.3197 804.234 91.1621V59.7168H792.857C790.514 56.3639 789.342 52.7018 789.342 48.7305C789.342 46.0286 789.765 43.6849 790.611 41.6992C791.49 39.681 792.564 38.1185 793.834 37.0117H844.322C845.266 38.4766 846.048 40.2507 846.666 42.334C847.285 44.4173 847.594 46.4844 847.594 48.5352C847.594 52.3763 846.747 55.2083 845.055 57.0312C843.362 58.8216 841.083 59.7168 838.219 59.7168H823.912C823.814 59.9447 823.766 60.1888 823.766 60.4492C823.766 61.0352 824.107 61.4258 824.791 61.6211C825.507 61.849 827.037 61.9629 829.381 61.9629H832.75ZM900.768 75.8301C900.768 78.1738 901.028 80.0618 901.549 81.4941C902.07 82.9264 902.981 84.0495 904.283 84.8633C904.316 85.026 904.332 85.3353 904.332 85.791V86.6699C904.332 91.1621 903.03 94.6615 900.426 97.168C897.854 99.6419 894.518 100.879 890.416 100.879C886.347 100.879 883.043 99.7233 880.504 97.4121C877.542 94.7754 876.061 90.7715 876.061 85.4004C876.061 83.1217 876.158 81.1198 876.354 79.3945C876.581 77.6367 876.728 76.3835 876.793 75.6348C876.891 74.8861 876.988 74.1862 877.086 73.5352C877.184 72.8841 877.232 71.9238 877.232 70.6543C877.232 69.3848 877.053 68.4733 876.695 67.9199C876.37 67.3665 875.898 67.0898 875.279 67.0898C874.693 67.0898 874.173 67.2201 873.717 67.4805L874.352 75.4395C873.766 78.7272 873.473 82.2103 873.473 85.8887C873.473 89.5671 874.303 92.9199 875.963 95.9473C872.773 99.235 868.297 100.879 862.535 100.879C859.247 100.879 856.399 100.016 853.99 98.291C851.191 96.3379 849.791 93.75 849.791 90.5273V33.5449C851.354 32.6335 853.225 31.8848 855.406 31.2988C857.62 30.7129 859.85 30.4199 862.096 30.4199C865.839 30.4199 868.932 31.1523 871.373 32.6172C874.14 34.3424 875.523 36.8164 875.523 40.0391V44.6777C872.691 44.8405 869.973 45.6543 867.369 47.1191C865.123 48.4212 864 49.6094 864 50.6836C864 51.0417 864.13 51.3672 864.391 51.6602C864.651 51.9206 864.96 52.0833 865.318 52.1484C866.686 50.5534 868.606 49.2188 871.08 48.1445C873.587 47.0703 876.549 46.5332 879.967 46.5332C883.385 46.5332 886.461 47.054 889.195 48.0957C892.646 49.3978 895.364 51.3835 897.35 54.0527C899.726 57.3079 900.914 61.3932 900.914 66.3086L900.768 75.8301ZM934.264 101.514C925.247 101.514 918.134 99.0072 912.926 93.9941C907.587 88.9486 904.918 82.0475 904.918 73.291C904.918 64.502 907.669 57.5358 913.17 52.3926C918.248 47.6074 924.677 45.2148 932.457 45.2148C940.237 45.2148 946.471 47.3633 951.158 51.6602C955.878 55.9245 958.238 61.1816 958.238 67.4316C958.238 72.998 956.301 77.1973 952.428 80.0293C948.847 82.6986 943.964 84.0332 937.779 84.0332C933.157 84.0332 929.251 83.0729 926.061 81.1523C925.8 81.3477 925.67 81.7057 925.67 82.2266C925.67 83.2031 926.956 84.0983 929.527 84.9121C932.099 85.791 935.012 86.2305 938.268 86.2305C941.555 86.2305 944.534 85.8236 947.203 85.0098C949.905 84.1634 952.07 83.1706 953.697 82.0312C954.479 82.7148 955.097 83.9844 955.553 85.8398C956.041 87.6628 956.285 89.3392 956.285 90.8691C956.285 92.3665 956.139 93.7012 955.846 94.873C953.307 97.0215 950.702 98.5514 948.033 99.4629C944.257 100.83 939.667 101.514 934.264 101.514ZM933.629 68.457C935.257 68.457 936.07 67.8385 936.07 66.6016C936.07 65.4297 935.208 64.8438 933.482 64.8438C931.757 64.8438 930.764 65.7715 930.504 67.627C931.415 68.1803 932.457 68.457 933.629 68.457ZM1010.48 82.2266C1011.56 82.0312 1012.1 81.4941 1012.1 80.6152C1012.1 79.7038 1011.8 78.6947 1011.22 77.5879C1010.66 76.4486 1009.83 75.3743 1008.73 74.3652C1005.83 71.7611 1001.91 70.459 996.959 70.459C994.518 70.459 992.239 70.8659 990.123 71.6797C987.877 70.5404 986.087 68.7337 984.752 66.2598C983.417 63.7858 982.75 61.1165 982.75 58.252C982.75 50.765 985.875 44.987 992.125 40.918C997.496 37.4349 1004.12 35.6934 1012 35.6934C1017.86 35.6934 1022.79 36.3281 1026.79 37.5977C1030.8 38.8346 1034.07 40.4297 1036.61 42.3828C1037.36 44.5312 1037.73 46.7611 1037.73 49.0723C1037.73 51.3835 1037.42 53.4831 1036.8 55.3711C1036.18 57.2591 1035.29 58.7728 1034.12 59.9121C1033.01 59.0983 1031.01 58.2682 1028.11 57.4219C1025.21 56.5755 1022.58 56.1523 1020.2 56.1523C1017.82 56.1523 1016.23 56.2988 1015.42 56.5918C1014.63 56.8848 1014.24 57.3405 1014.24 57.959C1014.24 58.252 1014.29 58.5286 1014.39 58.7891C1015.53 58.4961 1016.99 58.3496 1018.79 58.3496C1025.13 58.3496 1030.31 59.847 1034.31 62.8418C1039.03 66.4225 1041.39 71.7936 1041.39 78.9551C1041.39 85.2702 1038.84 90.5111 1033.73 94.6777C1028.19 99.1374 1020.75 101.367 1011.41 101.367C1006.27 101.367 1001.81 100.977 998.033 100.195C994.257 99.4466 990.579 98.112 986.998 96.1914C984.557 92.6432 983.336 89.0462 983.336 85.4004C983.336 81.722 984.589 78.6784 987.096 76.2695C989.602 73.8607 992.678 72.6562 996.324 72.6562C1000 72.6562 1003 73.4049 1005.31 74.9023C1007.65 76.3997 1009.38 78.8411 1010.48 82.2266ZM1069.76 78.7109C1070.15 78.7109 1070.58 78.5482 1071.03 78.2227C1070.71 77.1484 1070.54 75.472 1070.54 73.1934V49.0723C1073.99 46.9889 1078.14 45.9473 1082.99 45.9473C1085.73 45.9473 1088.12 46.3216 1090.17 47.0703C1092.26 47.7865 1093.85 48.7467 1094.96 49.9512V75.3906C1094.96 80.2409 1096.13 83.3984 1098.47 84.8633C1098.51 85.026 1098.52 85.3353 1098.52 85.791V86.6699C1098.52 91.4225 1097.27 95.0195 1094.76 97.4609C1092.48 99.7396 1089.34 100.879 1085.34 100.879C1082.83 100.879 1080.55 100.309 1078.5 99.1699C1076.48 98.0306 1074.97 96.3704 1073.96 94.1895C1072.85 94.1895 1072.3 94.7266 1072.3 95.8008C1072.3 96.5495 1072.68 97.2982 1073.42 98.0469C1072.38 98.8932 1071.13 99.5768 1069.66 100.098C1068.2 100.618 1066.03 100.879 1063.17 100.879C1060.34 100.879 1057.57 100.293 1054.87 99.1211C1051.52 97.6888 1048.94 95.4915 1047.15 92.5293C1044.97 89.0137 1043.88 84.554 1043.88 79.1504V66.8945C1042.22 63.9974 1041.39 60.8073 1041.39 57.3242C1041.39 55.5339 1041.62 53.6784 1042.08 51.7578C1042.53 49.8372 1043.26 48.1283 1044.27 46.6309H1055.02C1059.05 46.6309 1062.21 47.5911 1064.49 49.5117C1066.8 51.3997 1067.96 54.2806 1067.96 58.1543V73.9746C1067.96 77.1322 1068.56 78.7109 1069.76 78.7109ZM1126.65 61.7188C1125.8 61.9792 1125.38 62.4837 1125.38 63.2324V63.4766C1125.38 63.6393 1125.39 63.737 1125.43 63.7695C1125.78 63.737 1126.26 63.7207 1126.84 63.7207H1128.01C1131.72 63.7207 1135.19 64.2904 1138.41 65.4297C1141.67 66.5365 1144.32 68.3268 1146.37 70.8008C1148.65 73.6003 1149.79 77.1322 1149.79 81.3965C1149.79 88.0371 1147.5 93.0501 1142.91 96.4355C1138.32 99.821 1132.18 101.514 1124.5 101.514C1116.82 101.514 1110.79 100.244 1106.43 97.7051C1102.1 95.166 1099.94 91.4388 1099.94 86.5234C1099.94 84.7005 1100.33 83.0404 1101.11 81.543C1101.89 80.013 1102.77 78.9388 1103.75 78.3203C1105.54 79.8177 1108.12 81.1198 1111.51 82.2266C1114.93 83.3008 1118.54 83.8379 1122.35 83.8379C1123.88 83.8379 1124.64 83.4147 1124.64 82.5684C1124.64 82.1777 1124.6 81.8522 1124.5 81.5918C1124.27 81.6243 1123.99 81.6406 1123.67 81.6406H1123.13C1116.23 81.6406 1110.71 80.2734 1106.58 77.5391C1101.89 74.4466 1099.55 70.0846 1099.55 64.4531C1099.55 58.8216 1101.65 54.2643 1105.85 50.7812C1110.5 46.9401 1116.9 45.0195 1125.04 45.0195C1129.04 45.0195 1132.77 45.4427 1136.22 46.2891C1139.7 47.1354 1142.68 48.2585 1145.15 49.6582C1145.77 50.9928 1146.08 52.9622 1146.08 55.5664C1146.08 59.5378 1144.99 62.5814 1142.81 64.6973C1141.15 63.7858 1139.11 63.0371 1136.71 62.4512C1134.33 61.8327 1132.18 61.5234 1130.26 61.5234C1128.34 61.5234 1127.13 61.5885 1126.65 61.7188ZM1203.5 75.8301C1203.5 78.1738 1203.76 80.0618 1204.28 81.4941C1204.8 82.9264 1205.72 84.0495 1207.02 84.8633C1207.05 85.026 1207.07 85.3353 1207.07 85.791V86.6699C1207.07 91.1621 1205.76 94.6615 1203.16 97.168C1200.59 99.6419 1197.25 100.879 1193.15 100.879C1189.08 100.879 1185.78 99.7233 1183.24 97.4121C1180.28 94.7754 1178.79 90.7715 1178.79 85.4004C1178.79 83.1217 1178.89 81.1198 1179.09 79.3945C1179.32 77.6367 1179.46 76.3835 1179.53 75.6348C1179.62 74.8861 1179.72 74.1862 1179.82 73.5352C1179.92 72.8841 1179.97 71.9238 1179.97 70.6543C1179.97 69.3848 1179.79 68.4733 1179.43 67.9199C1179.1 67.3665 1178.63 67.0898 1178.01 67.0898C1177.43 67.0898 1176.91 67.2201 1176.45 67.4805L1177.09 75.4395C1176.5 78.7272 1176.21 82.2103 1176.21 85.8887C1176.21 89.5671 1177.04 92.9199 1178.7 95.9473C1175.51 99.235 1171.03 100.879 1165.27 100.879C1161.98 100.879 1159.13 100.016 1156.72 98.291C1153.93 96.3379 1152.53 93.75 1152.53 90.5273V33.5449C1154.09 32.6335 1155.96 31.8848 1158.14 31.2988C1160.35 30.7129 1162.58 30.4199 1164.83 30.4199C1168.57 30.4199 1171.67 31.1523 1174.11 32.6172C1176.87 34.3424 1178.26 36.8164 1178.26 40.0391V44.6777C1175.43 44.8405 1172.71 45.6543 1170.1 47.1191C1167.86 48.4212 1166.73 49.6094 1166.73 50.6836C1166.73 51.0417 1166.86 51.3672 1167.12 51.6602C1167.39 51.9206 1167.69 52.0833 1168.05 52.1484C1169.42 50.5534 1171.34 49.2188 1173.81 48.1445C1176.32 47.0703 1179.28 46.5332 1182.7 46.5332C1186.12 46.5332 1189.2 47.054 1191.93 48.0957C1195.38 49.3978 1198.1 51.3835 1200.08 54.0527C1202.46 57.3079 1203.65 61.3932 1203.65 66.3086L1203.5 75.8301ZM1233.82 56.0547V75.3906C1233.82 80.2409 1235 83.3984 1237.34 84.8633C1237.37 85.026 1237.39 85.3353 1237.39 85.791V86.6699C1237.39 91.4551 1236.09 95.0521 1233.48 97.4609C1231.07 99.7396 1227.85 100.879 1223.81 100.879C1219.81 100.879 1216.51 99.7396 1213.9 97.4609C1210.61 94.5638 1208.97 90.332 1208.97 84.7656V53.0273C1209.56 52.6042 1210.19 52.2624 1210.88 52.002C1211.56 51.7415 1212.27 51.416 1213.02 51.0254C1211.62 50.3092 1210.35 49.0723 1209.21 47.3145C1208.08 45.5241 1207.51 43.4408 1207.51 41.0645C1207.51 36.9629 1208.86 33.61 1211.56 31.0059C1214.26 28.4017 1217.56 27.0996 1221.47 27.0996C1225.41 27.0996 1228.7 28.4342 1231.33 31.1035C1234 33.7402 1235.34 37.0605 1235.34 41.0645C1235.34 44.2871 1234.33 47.1191 1232.31 49.5605C1230.29 51.9694 1227.83 53.4831 1224.94 54.1016C1224.94 55.3385 1225.41 55.957 1226.35 55.957C1228.01 55.957 1229.71 55.306 1231.43 54.0039C1232.73 55.013 1233.53 55.6966 1233.82 56.0547ZM1294.27 59.3262H1323.23C1325.08 62.028 1326.01 65.3158 1326.01 69.1895C1326.01 73.0306 1325.21 76.1556 1323.62 78.5645H1321.62V93.2129C1315.2 98.7793 1306.74 101.562 1296.23 101.562C1289.81 101.562 1284.12 100.423 1279.14 98.1445C1273.7 95.7031 1269.49 92.1387 1266.49 87.4512C1263.2 82.3079 1261.56 75.9928 1261.56 68.5059C1261.56 57.8613 1264.75 49.6257 1271.13 43.7988C1277.18 38.2324 1285.39 35.4492 1295.74 35.4492C1300.85 35.4492 1305.67 36.2142 1310.19 37.7441C1314.75 39.2741 1318.35 41.1784 1320.98 43.457C1320.98 45.4102 1320.74 47.8027 1320.25 50.6348C1319.79 53.4668 1319.21 55.6315 1318.49 57.1289H1292.76C1291.72 58.2357 1290.73 59.8307 1289.78 61.9141C1288.87 63.9974 1288.41 66.39 1288.41 69.0918C1288.41 72.8027 1289.34 75.7161 1291.2 77.832C1292.82 79.7526 1294.91 80.7129 1297.45 80.7129C1298.49 80.7129 1299.01 80.3548 1299.01 79.6387V78.5156H1298.47C1296.32 78.5156 1294.53 77.6855 1293.1 76.0254C1291.7 74.3327 1291 71.9238 1291 68.7988C1291 64.8926 1292.09 61.735 1294.27 59.3262ZM1376.06 75.8301C1376.06 78.1738 1376.32 80.0618 1376.84 81.4941C1377.36 82.9264 1378.27 84.0495 1379.58 84.8633C1379.61 85.026 1379.62 85.3353 1379.62 85.791V86.6699C1379.62 91.2923 1378.23 94.8893 1375.43 97.4609C1372.95 99.7396 1369.89 100.879 1366.25 100.879C1363.77 100.879 1361.51 100.293 1359.46 99.1211C1357.41 97.9492 1355.94 96.2565 1355.06 94.043C1353.96 94.043 1353.4 94.5801 1353.4 95.6543C1353.4 96.5658 1353.97 97.5911 1355.11 98.7305C1353 100.163 1349.81 100.879 1345.54 100.879C1339.52 100.879 1334.7 99.2513 1331.09 95.9961C1327.51 92.7083 1325.72 88.1348 1325.72 82.2754C1325.72 76.3835 1327.62 71.8262 1331.43 68.6035C1334.91 65.7064 1339.42 64.2578 1344.96 64.2578C1346.85 64.2578 1348.67 64.388 1350.43 64.6484C1351.6 64.8763 1352.23 65.0065 1352.33 65.0391C1352.43 64.7135 1352.48 64.4368 1352.48 64.209C1352.48 63.3626 1351.76 62.793 1350.33 62.5C1348.9 62.207 1347.02 62.0605 1344.71 62.0605C1339.8 62.0605 1335.6 63.0534 1332.12 65.0391C1330.52 62.3372 1329.72 58.9193 1329.72 54.7852C1329.72 52.4414 1330.02 50.6999 1330.6 49.5605C1332.95 48.4863 1335.92 47.5423 1339.54 46.7285C1343.15 45.8822 1346.96 45.459 1350.96 45.459C1359.23 45.459 1365.48 47.2656 1369.71 50.8789C1373.94 54.4922 1376.06 59.6191 1376.06 66.2598V75.8301ZM1350.72 78.2227C1349.35 78.2227 1348.67 78.8411 1348.67 80.0781C1348.67 81.25 1349.47 81.8359 1351.06 81.8359C1352.17 81.8359 1352.98 81.5755 1353.5 81.0547C1354.02 80.5013 1354.28 79.5573 1354.28 78.2227C1354.28 78.2227 1353.1 78.2227 1350.72 78.2227ZM1460.73 75.8301C1460.73 78.2064 1460.99 80.1432 1461.51 81.6406C1462.03 83.138 1462.94 84.2936 1464.24 85.1074C1464.28 85.2702 1464.29 85.5469 1464.29 85.9375V86.6699C1464.29 91.1296 1462.99 94.6126 1460.39 97.1191C1457.78 99.6257 1454.41 100.879 1450.28 100.879C1446.18 100.879 1442.87 99.7559 1440.37 97.5098C1437.4 94.9056 1435.92 90.918 1435.92 85.5469V70.1172C1435.92 67.9362 1435.21 66.8457 1433.78 66.8457C1433.22 66.8457 1432.78 66.9759 1432.46 67.2363L1433.34 74.5117V85.5469C1433.34 89.974 1434.07 93.3268 1435.53 95.6055C1433.97 97.2656 1432.02 98.5677 1429.67 99.5117C1427.36 100.423 1425 100.879 1422.59 100.879C1418.69 100.879 1415.66 99.9349 1413.51 98.0469C1410.91 95.7682 1409.61 92.1712 1409.61 87.2559V70.1172C1409.61 67.9362 1408.89 66.8457 1407.46 66.8457C1406.9 66.8457 1406.46 66.9759 1406.14 67.2363L1407.02 74.5117V87.4512C1407.02 91.097 1407.51 93.9128 1408.48 95.8984C1405.29 99.1862 1400.82 100.83 1395.05 100.83C1391.64 100.83 1388.76 99.9674 1386.41 98.2422C1383.71 96.2565 1382.36 93.5872 1382.36 90.2344V66.8945C1380.44 64.1927 1379.48 60.8724 1379.48 56.9336C1379.48 52.9622 1380.44 49.528 1382.36 46.6309H1394.13C1396.44 46.6309 1398.41 47.4935 1400.04 49.2188C1398.6 50.5534 1397.89 51.6602 1397.89 52.5391C1397.89 53.5482 1398.46 54.0527 1399.6 54.0527C1401.03 51.5788 1403 49.6094 1405.5 48.1445C1408.43 46.4844 1411.87 45.6543 1415.81 45.6543C1418.8 45.6543 1421.42 46.2891 1423.67 47.5586C1425.95 48.8281 1427.64 50.293 1428.75 51.9531C1430.28 49.8698 1432.26 48.3073 1434.7 47.2656C1437.18 46.1914 1439.75 45.6543 1442.42 45.6543C1448.31 45.6543 1452.88 47.4772 1456.14 51.123C1459.33 54.7689 1460.92 59.7656 1460.92 66.1133L1460.73 75.8301ZM1494.22 101.514C1485.21 101.514 1478.1 99.0072 1472.89 93.9941C1467.55 88.9486 1464.88 82.0475 1464.88 73.291C1464.88 64.502 1467.63 57.5358 1473.13 52.3926C1478.21 47.6074 1484.64 45.2148 1492.42 45.2148C1500.2 45.2148 1506.43 47.3633 1511.12 51.6602C1515.84 55.9245 1518.2 61.1816 1518.2 67.4316C1518.2 72.998 1516.26 77.1973 1512.39 80.0293C1508.81 82.6986 1503.93 84.0332 1497.74 84.0332C1493.12 84.0332 1489.21 83.0729 1486.02 81.1523C1485.76 81.3477 1485.63 81.7057 1485.63 82.2266C1485.63 83.2031 1486.92 84.0983 1489.49 84.9121C1492.06 85.791 1494.97 86.2305 1498.23 86.2305C1501.52 86.2305 1504.49 85.8236 1507.16 85.0098C1509.87 84.1634 1512.03 83.1706 1513.66 82.0312C1514.44 82.7148 1515.06 83.9844 1515.51 85.8398C1516 87.6628 1516.25 89.3392 1516.25 90.8691C1516.25 92.3665 1516.1 93.7012 1515.81 94.873C1513.27 97.0215 1510.66 98.5514 1507.99 99.4629C1504.22 100.83 1499.63 101.514 1494.22 101.514ZM1493.59 68.457C1495.22 68.457 1496.03 67.8385 1496.03 66.6016C1496.03 65.4297 1495.17 64.8438 1493.44 64.8438C1491.72 64.8438 1490.73 65.7715 1490.46 67.627C1491.38 68.1803 1492.42 68.457 1493.59 68.457Z" fill="black"/>
<path d="M1621.75 61.9629V96.2891C1620.25 97.5911 1618.25 98.6816 1615.74 99.5605C1613.24 100.439 1610.19 100.879 1606.61 100.879C1603.03 100.879 1599.99 100.081 1597.48 98.4863C1594.65 96.7611 1593.23 94.3197 1593.23 91.1621V59.7168H1581.86C1579.51 56.3639 1578.34 52.7018 1578.34 48.7305C1578.34 46.0286 1578.76 43.6849 1579.61 41.6992C1580.49 39.681 1581.56 38.1185 1582.83 37.0117H1633.32C1634.27 38.4766 1635.05 40.2507 1635.67 42.334C1636.28 44.4173 1636.59 46.4844 1636.59 48.5352C1636.59 52.3763 1635.75 55.2083 1634.05 57.0312C1632.36 58.8216 1630.08 59.7168 1627.22 59.7168H1612.91C1612.81 59.9447 1612.77 60.1888 1612.77 60.4492C1612.77 61.0352 1613.11 61.4258 1613.79 61.6211C1614.51 61.849 1616.04 61.9629 1618.38 61.9629H1621.75ZM1689.77 75.8301C1689.77 78.1738 1690.03 80.0618 1690.55 81.4941C1691.07 82.9264 1691.98 84.0495 1693.28 84.8633C1693.32 85.026 1693.33 85.3353 1693.33 85.791V86.6699C1693.33 91.1621 1692.03 94.6615 1689.43 97.168C1686.85 99.6419 1683.52 100.879 1679.42 100.879C1675.35 100.879 1672.04 99.7233 1669.5 97.4121C1666.54 94.7754 1665.06 90.7715 1665.06 85.4004C1665.06 83.1217 1665.16 81.1198 1665.35 79.3945C1665.58 77.6367 1665.73 76.3835 1665.79 75.6348C1665.89 74.8861 1665.99 74.1862 1666.09 73.5352C1666.18 72.8841 1666.23 71.9238 1666.23 70.6543C1666.23 69.3848 1666.05 68.4733 1665.7 67.9199C1665.37 67.3665 1664.9 67.0898 1664.28 67.0898C1663.69 67.0898 1663.17 67.2201 1662.72 67.4805L1663.35 75.4395C1662.77 78.7272 1662.47 82.2103 1662.47 85.8887C1662.47 89.5671 1663.3 92.9199 1664.96 95.9473C1661.77 99.235 1657.3 100.879 1651.54 100.879C1648.25 100.879 1645.4 100.016 1642.99 98.291C1640.19 96.3379 1638.79 93.75 1638.79 90.5273V33.5449C1640.35 32.6335 1642.23 31.8848 1644.41 31.2988C1646.62 30.7129 1648.85 30.4199 1651.1 30.4199C1654.84 30.4199 1657.93 31.1523 1660.37 32.6172C1663.14 34.3424 1664.52 36.8164 1664.52 40.0391V44.6777C1661.69 44.8405 1658.97 45.6543 1656.37 47.1191C1654.12 48.4212 1653 49.6094 1653 50.6836C1653 51.0417 1653.13 51.3672 1653.39 51.6602C1653.65 51.9206 1653.96 52.0833 1654.32 52.1484C1655.69 50.5534 1657.61 49.2188 1660.08 48.1445C1662.59 47.0703 1665.55 46.5332 1668.97 46.5332C1672.38 46.5332 1675.46 47.054 1678.2 48.0957C1681.65 49.3978 1684.36 51.3835 1686.35 54.0527C1688.73 57.3079 1689.91 61.3932 1689.91 66.3086L1689.77 75.8301ZM1723.26 101.514C1714.25 101.514 1707.13 99.0072 1701.93 93.9941C1696.59 88.9486 1693.92 82.0475 1693.92 73.291C1693.92 64.502 1696.67 57.5358 1702.17 52.3926C1707.25 47.6074 1713.68 45.2148 1721.46 45.2148C1729.24 45.2148 1735.47 47.3633 1740.16 51.6602C1744.88 55.9245 1747.24 61.1816 1747.24 67.4316C1747.24 72.998 1745.3 77.1973 1741.43 80.0293C1737.85 82.6986 1732.96 84.0332 1726.78 84.0332C1722.16 84.0332 1718.25 83.0729 1715.06 81.1523C1714.8 81.3477 1714.67 81.7057 1714.67 82.2266C1714.67 83.2031 1715.96 84.0983 1718.53 84.9121C1721.1 85.791 1724.01 86.2305 1727.27 86.2305C1730.56 86.2305 1733.53 85.8236 1736.2 85.0098C1738.9 84.1634 1741.07 83.1706 1742.7 82.0312C1743.48 82.7148 1744.1 83.9844 1744.55 85.8398C1745.04 87.6628 1745.29 89.3392 1745.29 90.8691C1745.29 92.3665 1745.14 93.7012 1744.85 94.873C1742.31 97.0215 1739.7 98.5514 1737.03 99.4629C1733.26 100.83 1728.67 101.514 1723.26 101.514ZM1722.63 68.457C1724.26 68.457 1725.07 67.8385 1725.07 66.6016C1725.07 65.4297 1724.21 64.8438 1722.48 64.8438C1720.76 64.8438 1719.76 65.7715 1719.5 67.627C1720.42 68.1803 1721.46 68.457 1722.63 68.457ZM1799.48 82.2266C1800.56 82.0312 1801.1 81.4941 1801.1 80.6152C1801.1 79.7038 1800.8 78.6947 1800.22 77.5879C1799.66 76.4486 1798.83 75.3743 1797.73 74.3652C1794.83 71.7611 1790.91 70.459 1785.96 70.459C1783.52 70.459 1781.24 70.8659 1779.12 71.6797C1776.88 70.5404 1775.09 68.7337 1773.75 66.2598C1772.42 63.7858 1771.75 61.1165 1771.75 58.252C1771.75 50.765 1774.88 44.987 1781.12 40.918C1786.5 37.4349 1793.12 35.6934 1801 35.6934C1806.86 35.6934 1811.79 36.3281 1815.79 37.5977C1819.8 38.8346 1823.07 40.4297 1825.61 42.3828C1826.36 44.5312 1826.73 46.7611 1826.73 49.0723C1826.73 51.3835 1826.42 53.4831 1825.8 55.3711C1825.18 57.2591 1824.29 58.7728 1823.12 59.9121C1822.01 59.0983 1820.01 58.2682 1817.11 57.4219C1814.21 56.5755 1811.58 56.1523 1809.2 56.1523C1806.82 56.1523 1805.23 56.2988 1804.42 56.5918C1803.63 56.8848 1803.24 57.3405 1803.24 57.959C1803.24 58.252 1803.29 58.5286 1803.39 58.7891C1804.53 58.4961 1805.99 58.3496 1807.79 58.3496C1814.13 58.3496 1819.31 59.847 1823.31 62.8418C1828.03 66.4225 1830.39 71.7936 1830.39 78.9551C1830.39 85.2702 1827.84 90.5111 1822.73 94.6777C1817.19 99.1374 1809.75 101.367 1800.41 101.367C1795.27 101.367 1790.81 100.977 1787.03 100.195C1783.26 99.4466 1779.58 98.112 1776 96.1914C1773.56 92.6432 1772.34 89.0462 1772.34 85.4004C1772.34 81.722 1773.59 78.6784 1776.1 76.2695C1778.6 73.8607 1781.68 72.6562 1785.32 72.6562C1789 72.6562 1792 73.4049 1794.31 74.9023C1796.65 76.3997 1798.38 78.8411 1799.48 82.2266ZM1858.76 78.7109C1859.15 78.7109 1859.58 78.5482 1860.03 78.2227C1859.71 77.1484 1859.54 75.472 1859.54 73.1934V49.0723C1862.99 46.9889 1867.14 45.9473 1871.99 45.9473C1874.73 45.9473 1877.12 46.3216 1879.17 47.0703C1881.26 47.7865 1882.85 48.7467 1883.96 49.9512V75.3906C1883.96 80.2409 1885.13 83.3984 1887.47 84.8633C1887.51 85.026 1887.52 85.3353 1887.52 85.791V86.6699C1887.52 91.4225 1886.27 95.0195 1883.76 97.4609C1881.48 99.7396 1878.34 100.879 1874.34 100.879C1871.83 100.879 1869.55 100.309 1867.5 99.1699C1865.48 98.0306 1863.97 96.3704 1862.96 94.1895C1861.85 94.1895 1861.3 94.7266 1861.3 95.8008C1861.3 96.5495 1861.68 97.2982 1862.42 98.0469C1861.38 98.8932 1860.13 99.5768 1858.66 100.098C1857.2 100.618 1855.03 100.879 1852.17 100.879C1849.34 100.879 1846.57 100.293 1843.87 99.1211C1840.52 97.6888 1837.94 95.4915 1836.15 92.5293C1833.97 89.0137 1832.88 84.554 1832.88 79.1504V66.8945C1831.22 63.9974 1830.39 60.8073 1830.39 57.3242C1830.39 55.5339 1830.62 53.6784 1831.08 51.7578C1831.53 49.8372 1832.26 48.1283 1833.27 46.6309H1844.02C1848.05 46.6309 1851.21 47.5911 1853.49 49.5117C1855.8 51.3997 1856.96 54.2806 1856.96 58.1543V73.9746C1856.96 77.1322 1857.56 78.7109 1858.76 78.7109ZM1915.65 61.7188C1914.8 61.9792 1914.38 62.4837 1914.38 63.2324V63.4766C1914.38 63.6393 1914.39 63.737 1914.43 63.7695C1914.78 63.737 1915.26 63.7207 1915.84 63.7207H1917.01C1920.72 63.7207 1924.19 64.2904 1927.41 65.4297C1930.67 66.5365 1933.32 68.3268 1935.37 70.8008C1937.65 73.6003 1938.79 77.1322 1938.79 81.3965C1938.79 88.0371 1936.5 93.0501 1931.91 96.4355C1927.32 99.821 1921.18 101.514 1913.5 101.514C1905.82 101.514 1899.79 100.244 1895.43 97.7051C1891.1 95.166 1888.94 91.4388 1888.94 86.5234C1888.94 84.7005 1889.33 83.0404 1890.11 81.543C1890.89 80.013 1891.77 78.9388 1892.75 78.3203C1894.54 79.8177 1897.12 81.1198 1900.51 82.2266C1903.93 83.3008 1907.54 83.8379 1911.35 83.8379C1912.88 83.8379 1913.64 83.4147 1913.64 82.5684C1913.64 82.1777 1913.6 81.8522 1913.5 81.5918C1913.27 81.6243 1912.99 81.6406 1912.67 81.6406H1912.13C1905.23 81.6406 1899.71 80.2734 1895.58 77.5391C1890.89 74.4466 1888.55 70.0846 1888.55 64.4531C1888.55 58.8216 1890.65 54.2643 1894.85 50.7812C1899.5 46.9401 1905.9 45.0195 1914.04 45.0195C1918.04 45.0195 1921.77 45.4427 1925.22 46.2891C1928.7 47.1354 1931.68 48.2585 1934.15 49.6582C1934.77 50.9928 1935.08 52.9622 1935.08 55.5664C1935.08 59.5378 1933.99 62.5814 1931.81 64.6973C1930.15 63.7858 1928.11 63.0371 1925.71 62.4512C1923.33 61.8327 1921.18 61.5234 1919.26 61.5234C1917.34 61.5234 1916.13 61.5885 1915.65 61.7188ZM1992.5 75.8301C1992.5 78.1738 1992.76 80.0618 1993.28 81.4941C1993.8 82.9264 1994.72 84.0495 1996.02 84.8633C1996.05 85.026 1996.07 85.3353 1996.07 85.791V86.6699C1996.07 91.1621 1994.76 94.6615 1992.16 97.168C1989.59 99.6419 1986.25 100.879 1982.15 100.879C1978.08 100.879 1974.78 99.7233 1972.24 97.4121C1969.28 94.7754 1967.79 90.7715 1967.79 85.4004C1967.79 83.1217 1967.89 81.1198 1968.09 79.3945C1968.32 77.6367 1968.46 76.3835 1968.53 75.6348C1968.62 74.8861 1968.72 74.1862 1968.82 73.5352C1968.92 72.8841 1968.97 71.9238 1968.97 70.6543C1968.97 69.3848 1968.79 68.4733 1968.43 67.9199C1968.1 67.3665 1967.63 67.0898 1967.01 67.0898C1966.43 67.0898 1965.91 67.2201 1965.45 67.4805L1966.09 75.4395C1965.5 78.7272 1965.21 82.2103 1965.21 85.8887C1965.21 89.5671 1966.04 92.9199 1967.7 95.9473C1964.51 99.235 1960.03 100.879 1954.27 100.879C1950.98 100.879 1948.13 100.016 1945.72 98.291C1942.93 96.3379 1941.53 93.75 1941.53 90.5273V33.5449C1943.09 32.6335 1944.96 31.8848 1947.14 31.2988C1949.35 30.7129 1951.58 30.4199 1953.83 30.4199C1957.57 30.4199 1960.67 31.1523 1963.11 32.6172C1965.87 34.3424 1967.26 36.8164 1967.26 40.0391V44.6777C1964.43 44.8405 1961.71 45.6543 1959.1 47.1191C1956.86 48.4212 1955.73 49.6094 1955.73 50.6836C1955.73 51.0417 1955.86 51.3672 1956.12 51.6602C1956.39 51.9206 1956.69 52.0833 1957.05 52.1484C1958.42 50.5534 1960.34 49.2188 1962.81 48.1445C1965.32 47.0703 1968.28 46.5332 1971.7 46.5332C1975.12 46.5332 1978.2 47.054 1980.93 48.0957C1984.38 49.3978 1987.1 51.3835 1989.08 54.0527C1991.46 57.3079 1992.65 61.3932 1992.65 66.3086L1992.5 75.8301ZM2022.82 56.0547V75.3906C2022.82 80.2409 2024 83.3984 2026.34 84.8633C2026.37 85.026 2026.39 85.3353 2026.39 85.791V86.6699C2026.39 91.4551 2025.09 95.0521 2022.48 97.4609C2020.07 99.7396 2016.85 100.879 2012.81 100.879C2008.81 100.879 2005.51 99.7396 2002.9 97.4609C1999.61 94.5638 1997.97 90.332 1997.97 84.7656V53.0273C1998.56 52.6042 1999.19 52.2624 1999.88 52.002C2000.56 51.7415 2001.27 51.416 2002.02 51.0254C2000.62 50.3092 1999.35 49.0723 1998.21 47.3145C1997.08 45.5241 1996.51 43.4408 1996.51 41.0645C1996.51 36.9629 1997.86 33.61 2000.56 31.0059C2003.26 28.4017 2006.56 27.0996 2010.47 27.0996C2014.41 27.0996 2017.7 28.4342 2020.33 31.1035C2023 33.7402 2024.34 37.0605 2024.34 41.0645C2024.34 44.2871 2023.33 47.1191 2021.31 49.5605C2019.29 51.9694 2016.83 53.4831 2013.94 54.1016C2013.94 55.3385 2014.41 55.957 2015.35 55.957C2017.01 55.957 2018.71 55.306 2020.43 54.0039C2021.73 55.013 2022.53 55.6966 2022.82 56.0547ZM2083.27 59.3262H2112.23C2114.08 62.028 2115.01 65.3158 2115.01 69.1895C2115.01 73.0306 2114.21 76.1556 2112.62 78.5645H2110.62V93.2129C2104.2 98.7793 2095.74 101.562 2085.23 101.562C2078.81 101.562 2073.12 100.423 2068.14 98.1445C2062.7 95.7031 2058.49 92.1387 2055.49 87.4512C2052.2 82.3079 2050.56 75.9928 2050.56 68.5059C2050.56 57.8613 2053.75 49.6257 2060.13 43.7988C2066.18 38.2324 2074.39 35.4492 2084.74 35.4492C2089.85 35.4492 2094.67 36.2142 2099.19 37.7441C2103.75 39.2741 2107.35 41.1784 2109.98 43.457C2109.98 45.4102 2109.74 47.8027 2109.25 50.6348C2108.79 53.4668 2108.21 55.6315 2107.49 57.1289H2081.76C2080.72 58.2357 2079.73 59.8307 2078.78 61.9141C2077.87 63.9974 2077.41 66.39 2077.41 69.0918C2077.41 72.8027 2078.34 75.7161 2080.2 77.832C2081.82 79.7526 2083.91 80.7129 2086.45 80.7129C2087.49 80.7129 2088.01 80.3548 2088.01 79.6387V78.5156H2087.47C2085.32 78.5156 2083.53 77.6855 2082.1 76.0254C2080.7 74.3327 2080 71.9238 2080 68.7988C2080 64.8926 2081.09 61.735 2083.27 59.3262ZM2165.06 75.8301C2165.06 78.1738 2165.32 80.0618 2165.84 81.4941C2166.36 82.9264 2167.27 84.0495 2168.58 84.8633C2168.61 85.026 2168.62 85.3353 2168.62 85.791V86.6699C2168.62 91.2923 2167.23 94.8893 2164.43 97.4609C2161.95 99.7396 2158.89 100.879 2155.25 100.879C2152.77 100.879 2150.51 100.293 2148.46 99.1211C2146.41 97.9492 2144.94 96.2565 2144.06 94.043C2142.96 94.043 2142.4 94.5801 2142.4 95.6543C2142.4 96.5658 2142.97 97.5911 2144.11 98.7305C2142 100.163 2138.81 100.879 2134.54 100.879C2128.52 100.879 2123.7 99.2513 2120.09 95.9961C2116.51 92.7083 2114.72 88.1348 2114.72 82.2754C2114.72 76.3835 2116.62 71.8262 2120.43 68.6035C2123.91 65.7064 2128.42 64.2578 2133.96 64.2578C2135.85 64.2578 2137.67 64.388 2139.43 64.6484C2140.6 64.8763 2141.23 65.0065 2141.33 65.0391C2141.43 64.7135 2141.48 64.4368 2141.48 64.209C2141.48 63.3626 2140.76 62.793 2139.33 62.5C2137.9 62.207 2136.02 62.0605 2133.71 62.0605C2128.8 62.0605 2124.6 63.0534 2121.12 65.0391C2119.52 62.3372 2118.72 58.9193 2118.72 54.7852C2118.72 52.4414 2119.02 50.6999 2119.6 49.5605C2121.95 48.4863 2124.92 47.5423 2128.54 46.7285C2132.15 45.8822 2135.96 45.459 2139.96 45.459C2148.23 45.459 2154.48 47.2656 2158.71 50.8789C2162.94 54.4922 2165.06 59.6191 2165.06 66.2598V75.8301ZM2139.72 78.2227C2138.35 78.2227 2137.67 78.8411 2137.67 80.0781C2137.67 81.25 2138.47 81.8359 2140.06 81.8359C2141.17 81.8359 2141.98 81.5755 2142.5 81.0547C2143.02 80.5013 2143.28 79.5573 2143.28 78.2227C2143.28 78.2227 2142.1 78.2227 2139.72 78.2227ZM2249.73 75.8301C2249.73 78.2064 2249.99 80.1432 2250.51 81.6406C2251.03 83.138 2251.94 84.2936 2253.24 85.1074C2253.28 85.2702 2253.29 85.5469 2253.29 85.9375V86.6699C2253.29 91.1296 2251.99 94.6126 2249.39 97.1191C2246.78 99.6257 2243.41 100.879 2239.28 100.879C2235.18 100.879 2231.87 99.7559 2229.37 97.5098C2226.4 94.9056 2224.92 90.918 2224.92 85.5469V70.1172C2224.92 67.9362 2224.21 66.8457 2222.78 66.8457C2222.22 66.8457 2221.78 66.9759 2221.46 67.2363L2222.34 74.5117V85.5469C2222.34 89.974 2223.07 93.3268 2224.53 95.6055C2222.97 97.2656 2221.02 98.5677 2218.67 99.5117C2216.36 100.423 2214 100.879 2211.59 100.879C2207.69 100.879 2204.66 99.9349 2202.51 98.0469C2199.91 95.7682 2198.61 92.1712 2198.61 87.2559V70.1172C2198.61 67.9362 2197.89 66.8457 2196.46 66.8457C2195.9 66.8457 2195.46 66.9759 2195.14 67.2363L2196.02 74.5117V87.4512C2196.02 91.097 2196.51 93.9128 2197.48 95.8984C2194.29 99.1862 2189.82 100.83 2184.05 100.83C2180.64 100.83 2177.76 99.9674 2175.41 98.2422C2172.71 96.2565 2171.36 93.5872 2171.36 90.2344V66.8945C2169.44 64.1927 2168.48 60.8724 2168.48 56.9336C2168.48 52.9622 2169.44 49.528 2171.36 46.6309H2183.13C2185.44 46.6309 2187.41 47.4935 2189.04 49.2188C2187.6 50.5534 2186.89 51.6602 2186.89 52.5391C2186.89 53.5482 2187.46 54.0527 2188.6 54.0527C2190.03 51.5788 2192 49.6094 2194.5 48.1445C2197.43 46.4844 2200.87 45.6543 2204.81 45.6543C2207.8 45.6543 2210.42 46.2891 2212.67 47.5586C2214.95 48.8281 2216.64 50.293 2217.75 51.9531C2219.28 49.8698 2221.26 48.3073 2223.7 47.2656C2226.18 46.1914 2228.75 45.6543 2231.42 45.6543C2237.31 45.6543 2241.88 47.4772 2245.14 51.123C2248.33 54.7689 2249.92 59.7656 2249.92 66.1133L2249.73 75.8301ZM2283.22 101.514C2274.21 101.514 2267.1 99.0072 2261.89 93.9941C2256.55 88.9486 2253.88 82.0475 2253.88 73.291C2253.88 64.502 2256.63 57.5358 2262.13 52.3926C2267.21 47.6074 2273.64 45.2148 2281.42 45.2148C2289.2 45.2148 2295.43 47.3633 2300.12 51.6602C2304.84 55.9245 2307.2 61.1816 2307.2 67.4316C2307.2 72.998 2305.26 77.1973 2301.39 80.0293C2297.81 82.6986 2292.93 84.0332 2286.74 84.0332C2282.12 84.0332 2278.21 83.0729 2275.02 81.1523C2274.76 81.3477 2274.63 81.7057 2274.63 82.2266C2274.63 83.2031 2275.92 84.0983 2278.49 84.9121C2281.06 85.791 2283.97 86.2305 2287.23 86.2305C2290.52 86.2305 2293.49 85.8236 2296.16 85.0098C2298.87 84.1634 2301.03 83.1706 2302.66 82.0312C2303.44 82.7148 2304.06 83.9844 2304.51 85.8398C2305 87.6628 2305.25 89.3392 2305.25 90.8691C2305.25 92.3665 2305.1 93.7012 2304.81 94.873C2302.27 97.0215 2299.66 98.5514 2296.99 99.4629C2293.22 100.83 2288.63 101.514 2283.22 101.514ZM2282.59 68.457C2284.22 68.457 2285.03 67.8385 2285.03 66.6016C2285.03 65.4297 2284.17 64.8438 2282.44 64.8438C2280.72 64.8438 2279.73 65.7715 2279.46 67.627C2280.38 68.1803 2281.42 68.457 2282.59 68.457Z" fill="black"/>
</svg>
