<?xml version="1.0" encoding="UTF-8"?>
<svg id="Layer_2" data-name="Layer 2" xmlns="http://www.w3.org/2000/svg" viewBox="0 0 1938 1080">
  <defs>
    <style>
      .cls-1, .cls-2, .cls-3, .cls-4, .cls-5 {
        fill: none;
      }

      .cls-6 {
        fill: #e0b661;
      }

      .cls-7 {
        fill: #402827;
      }

      .cls-8 {
        fill: #ffe7e0;
      }

      .cls-2 {
        stroke: #ffe7e0;
        stroke-width: 4px;
      }

      .cls-2, .cls-3, .cls-9, .cls-5, .cls-10 {
        stroke-miterlimit: 10;
      }

      .cls-3 {
        stroke: #d0992d;
      }

      .cls-3, .cls-5 {
        stroke-width: 3px;
      }

      .cls-11 {
        fill: #dedcdb;
      }

      .cls-12 {
        fill: #ff1523;
      }

      .cls-13 {
        fill: #26050f;
      }

      .cls-13, .cls-4 {
        opacity: .2;
      }

      .cls-14 {
        fill: #c7312c;
      }

      .cls-15 {
        fill: #f0ebd3;
      }

      .cls-16 {
        fill: #141414;
      }

      .cls-17 {
        fill: #eccdd3;
      }

      .cls-18 {
        fill: #b0d925;
      }

      .cls-19 {
        fill: #ebf9ff;
      }

      .cls-20 {
        fill: #cf74aa;
      }

      .cls-21 {
        fill: #e9b2cb;
      }

      .cls-22 {
        fill: #ffd969;
      }

      .cls-23 {
        fill: #c1272d;
      }

      .cls-24 {
        fill: #d0cfcb;
      }

      .cls-9 {
        stroke: #000;
      }

      .cls-5, .cls-10 {
        stroke: #fbb03b;
      }

      .cls-25 {
        fill: #080a16;
      }

      .cls-26 {
        fill: #333;
      }

      .cls-27 {
        fill: #f1ded8;
      }

      .cls-10 {
        fill: #ff7bac;
      }
    </style>
  </defs>
  <g id="Spilscene">
    <g>
      <rect class="cls-8" x="0" width="1938" height="1080"/>
      <g>
        <rect class="cls-3" x="159.26" y="123.09" width="1561.34" height="841.4"/>
        <line class="cls-3" x1="303.6" y1="123.09" x2="303.81" y2="964.69"/>
        <line class="cls-3" x1="1577.35" y1="123.29" x2="1577.14" y2="964.48"/>
      </g>
      <rect class="cls-6" x="1535.1" y="123.8" width="184.83" height="184.83"/>
      <rect class="cls-6" x="160.34" y="779.49" width="184.83" height="184.83"/>
      <path class="cls-12" d="M231.5,466.74c-.87,2.08-1.82,4.33-3.03,8.05-2.77,8.83-12.81,39.9-16.53,48.64l-7.79.26c4.33-9.95,14.37-41.29,16.96-50.46,1.13-3.98,1.47-5.97,1.73-8.31l8.66,1.82ZM247.95,495.73c6.06,8.83,15.58,26.31,19.13,35.23l-7.18,3.2c-3.46-9.35-12.29-27.35-18.52-35.57l6.58-2.86ZM200.78,521.61c12.46-.61,43.45-4.07,54.62-5.71l1.9,6.75c-12.03,1.56-43.88,5.02-56.09,6.23-2.16.17-4.76.52-7.18.87l-1.38-7.96c2.6.09,5.63,0,8.14-.17Z"/>
      <path class="cls-12" d="M192.64,437.37c2.68.26,7.18.52,12.12.52h47.43c4.33,0,7.36-.35,9.35-.52v8.48c-1.82-.09-5.45-.35-9.26-.35h-47.52c-4.76,0-9.35.17-12.12.35v-8.48Z"/>
      <path class="cls-12" d="M250.73,345.15c2.16,3.12,5.28,8.31,7.01,11.86l-4.67,2.08c-1.64-3.46-4.59-8.74-6.92-11.94l4.59-1.99ZM260.16,341.69c2.34,3.12,5.63,8.57,7.27,11.77l-4.59,2.08c-1.9-3.81-4.76-8.65-7.18-11.94l4.5-1.9ZM219.31,348.27c-.69,1.99-1.56,4.33-2.16,6.15-1.38,3.9-3.29,9.17-5.71,13.94-3.46,6.75-9.78,15.58-15.23,20.08l-6.84-4.15c6.23-4.41,12.46-13.33,15.41-18.61,2.42-4.33,3.89-8.74,4.93-12.12.69-2.16,1.13-4.59,1.3-6.84l8.31,1.56ZM208.49,363.15h46.22c2.16,0,5.63-.09,8.14-.52v7.44c-2.77-.17-6.15-.17-8.14-.17h-47.17l.95-6.75ZM240.25,366.79c-.78,26.66-10.65,41.98-26.14,51.85l-7.36-5.02c2.42-.95,5.11-2.51,7.01-4.07,8.92-6.66,18.7-18.78,19.13-42.76h7.36Z"/>
      <path class="cls-12" d="M192.56,251.83h65.26v6.23h-65.26v-6.23ZM193.08,267.15h52.19v5.8h-52.19v-5.8ZM255.23,251.83h6.49v64.31c0,4.5-.87,6.75-3.89,7.96-3.03,1.13-8.48,1.21-16.19,1.21-.35-1.99-1.3-5.19-2.34-7.1,6.06.17,11.94.17,13.76.09,1.64-.09,2.16-.52,2.16-2.16v-64.31ZM198.62,282.3h6.32v34.1h-6.32v-34.1ZM203.81,282.3h35.49v27.7h-35.49v-5.71h29.08v-16.19h-29.08v-5.8Z"/>
      <path class="cls-12" d="M194.55,156.91h67.68v5.63h-67.68v-5.63ZM198.02,169.64h60.85v5.45h-60.85v-5.45ZM189.45,182.7h77.47v5.71h-77.47v-5.71ZM190.92,197.16h74.61v5.71h-74.61v-5.71ZM244.5,187.64h6.58v33.32c0,3.81-.87,5.71-3.64,6.75-2.94,1.04-7.7,1.04-14.97,1.04-.35-1.82-1.38-4.41-2.25-6.32,5.8.17,10.91.17,12.38.09,1.56,0,1.9-.43,1.9-1.64v-33.24ZM223.46,149.38l7.1.78c-4.67,35.92-13.59,60.24-36.27,75.04-1.04-1.38-3.98-4.07-5.71-5.28,22.5-13.07,30.81-36.53,34.88-70.54ZM212.56,209.71l5.37-3.38c4.24,3.89,9.43,9.43,11.94,12.98l-5.63,3.81c-2.34-3.64-7.44-9.35-11.68-13.42Z"/>
      <path class="cls-18" d="M1604.57,724.28h89.01v7.13h-89.01v-7.13ZM1644.59,714.61h7.94v93.6h-7.94v-93.6ZM1642.25,772.96l6.42,2.85c-9.57,12.83-26.38,24.75-41.25,30.86-1.22-1.94-3.56-4.89-5.4-6.42,14.87-5.19,31.57-16.09,40.23-27.29ZM1655.08,773.07c8.76,11.2,25.77,22.1,40.84,27.19-1.83,1.53-4.18,4.48-5.4,6.62-15.07-6.01-32.08-18.23-41.66-30.96l6.21-2.85ZM1620.96,761.56v9.78h56.63v-9.78h-56.63ZM1620.96,746.08v9.68h56.63v-9.68h-56.63ZM1613.53,740.07h71.8v37.38h-71.8v-37.38ZM1604.46,854.57h88.91v7.33h-88.91v-7.33ZM1644.59,842.76h8.05v15.68h-8.05v-15.68ZM1624.53,877.99v16.7h49.09v-16.7h-49.09ZM1616.99,871.27h64.67v30.25h-64.67v-30.25ZM1667.81,910.89l6.93-3.36c6.82,6.62,15.28,15.99,19.45,22l-7.43,3.87c-3.77-5.91-12.02-15.68-18.94-22.51ZM1644.69,898.67h7.94v28.92c0,4.48-1.02,6.62-4.58,7.74-3.46,1.12-9.27,1.22-18.33,1.12-.41-2.04-1.53-5.09-2.55-7.13,6.93.2,13.34.1,15.18,0,1.83,0,2.34-.41,2.34-1.83v-28.82ZM1621.27,907.43l7.74,2.44c-4.89,8.05-12.73,17.11-20.37,22.81-1.53-1.43-4.28-3.46-6.01-4.48,7.33-5.3,14.87-13.75,18.64-20.78Z"/>
      <g>
        <path class="cls-26" d="M227.27,899.74l1.71,6.06c.97,3.41,1.91,5.42,5.23,7,6.43,3.04,19.56,6.08,33.89,1,5.35-1.89,6.36-4.69,7.31-8.41l1.37-5.34"/>
        <path class="cls-9" d="M252.03,880.89c-34.11,0-61.86-11.01-62.69-24.72.82,29.84,29.66,53.49,63.4,53.49s60.69-23.57,61.93-53.05c-1.39,13.5-28.9,24.28-62.65,24.28Z"/>
        <path class="cls-10" d="M251.08,831.25c-34.45,0-62.4,11.23-62.7,25.13,0,.28,0,.57.01.85.83,13.71,28.57,24.72,62.69,24.72s61.26-10.77,62.65-24.28c.02-.52.04-1.04.04-1.56-.65-13.77-28.46-24.86-62.69-24.86Z"/>
      </g>
      <path class="cls-5" d="M252.01,830.61c-34.45,0-62.4,11.19-62.7,25.04,0,.28,0,.57.01.85.83,13.66,28.57,24.64,62.69,24.64s61.26-10.74,62.65-24.19c.02-.52.04-1.03.04-1.55-.65-13.73-28.46-24.77-62.69-24.77Z"/>
      <g>
        <path class="cls-26" d="M1602.9,240.52l1.71,6.06c.97,3.41,1.91,5.42,5.23,7,6.43,3.04,19.56,6.08,33.89,1,5.35-1.89,6.36-4.69,7.31-8.41l1.37-5.34"/>
        <path class="cls-9" d="M1627.67,221.67c-34.11,0-61.86-11.01-62.69-24.72.82,29.84,29.66,53.49,63.4,53.49s60.69-23.57,61.93-53.05c-1.39,13.5-28.9,24.28-62.65,24.28Z"/>
        <path class="cls-10" d="M1626.71,172.03c-34.45,0-62.4,11.23-62.7,25.13,0,.28,0,.57.01.85.83,13.71,28.57,24.72,62.69,24.72s61.26-10.77,62.65-24.28c.02-.52.04-1.04.04-1.56-.65-13.77-28.46-24.86-62.69-24.86Z"/>
      </g>
      <path class="cls-5" d="M1627.64,171.4c-34.45,0-62.4,11.19-62.7,25.04,0,.28,0,.57.01.85.83,13.66,28.57,24.64,62.69,24.64s61.26-10.74,62.65-24.19c.02-.52.04-1.03.04-1.55-.65-13.73-28.46-24.77-62.69-24.77Z"/>
      <path d="M359.87,170.77v24.94c-1.09.95-2.54,1.74-4.36,2.38-1.82.64-4.03.96-6.63.96s-4.81-.58-6.64-1.74c-2.06-1.25-3.09-3.03-3.09-5.32v-22.85h-8.27c-1.7-2.44-2.56-5.1-2.56-7.98,0-1.96.31-3.67.92-5.11.64-1.47,1.42-2.6,2.34-3.41h36.69c.69,1.06,1.25,2.35,1.7,3.87.45,1.51.67,3.02.67,4.51,0,2.79-.61,4.85-1.84,6.17-1.23,1.3-2.89,1.95-4.97,1.95h-10.4c-.07.17-.11.34-.11.53,0,.43.25.71.75.85.52.17,1.63.25,3.34.25h2.45ZM415.4,160.8v35.27c-2.65,1.99-6.04,2.98-10.18,2.98-3.19,0-5.72-.65-7.59-1.95-1.96-1.32-2.94-3.24-2.94-5.75v-7.03h2.52c.97,0,1.57-.12,1.81-.35.26-.26.39-.67.39-1.24h-11.14c0,.57.11.98.32,1.24.21.24.72.35,1.53.35h2.7v11.74c-1.82,1.18-3.55,1.98-5.18,2.38-1.63.4-3.3.6-5,.6-3.19,0-5.72-.65-7.59-1.95-1.96-1.32-2.94-3.24-2.94-5.75v-35.3c1.23-1.3,2.74-2.29,4.54-2.98,1.82-.71,3.71-1.06,5.68-1.06,2.86,0,5.29.71,7.27,2.13,2.15,1.61,3.23,3.83,3.23,6.67v6.32h4.51c0-.62-.12-1.03-.36-1.24-.21-.24-.57-.35-1.06-.35h-1.21v-9.47c1.23-1.3,2.74-2.29,4.54-2.98,1.82-.71,3.71-1.06,5.68-1.06,2.86,0,5.29.71,7.27,2.13,2.15,1.61,3.23,3.83,3.23,6.67ZM434.03,152.64h20.47c.69,1.14,1.19,2.38,1.53,3.73.33,1.32.5,2.52.5,3.58,0,2.39-.47,4.19-1.42,5.39-.92,1.21-2.22,1.81-3.9,1.81h-14.3c-.88,0-1.31.34-1.31,1.03v.28c0,.14.02.24.07.28h16.96c.43.73.79,1.66,1.1,2.77.28,1.21.43,2.28.43,3.23,0,2.81-.52,5.01-1.56,6.6h-7.7c-3.6,0-6.03.14-7.31.43-1.28.26-2.07.48-2.38.67-.31.21-.46.48-.46.82s.17.59.5.78c1.23-.4,2.52-.69,3.87-.85,1.77-.17,3.7-.25,5.78-.25h9.97c1.44,2.03,2.16,4.48,2.16,7.34,0,1.61-.2,3.15-.6,4.61-.4,1.47-1.01,2.65-1.81,3.55h-26.58c-2.93,0-5.29-.71-7.06-2.13-1.94-1.51-2.91-3.74-2.91-6.67v-33.74c0-1.14,1.3-1.96,3.9-2.48,2.6-.52,6.62-.78,12.06-.78ZM493.64,185.5c.78-.14,1.17-.53,1.17-1.17s-.21-1.4-.64-2.2c-.4-.83-1.01-1.61-1.81-2.34-2.1-1.89-4.95-2.84-8.55-2.84-1.77,0-3.43.3-4.97.89-1.63-.83-2.93-2.14-3.9-3.94-.97-1.8-1.46-3.74-1.46-5.82,0-5.44,2.27-9.64,6.81-12.6,3.9-2.53,8.72-3.8,14.44-3.8,4.26,0,7.84.46,10.75,1.38,2.91.9,5.29,2.06,7.13,3.48.54,1.56.82,3.18.82,4.86s-.22,3.21-.67,4.58c-.45,1.37-1.1,2.47-1.95,3.3-.8-.59-2.26-1.19-4.36-1.81-2.11-.62-4.02-.92-5.75-.92s-2.89.11-3.48.32c-.57.21-.85.54-.85.99,0,.21.04.41.11.6.83-.21,1.89-.32,3.19-.32,4.61,0,8.37,1.09,11.28,3.26,3.43,2.6,5.14,6.51,5.14,11.71,0,4.59-1.86,8.4-5.57,11.43-4.02,3.24-9.43,4.86-16.21,4.86-3.74,0-6.98-.28-9.72-.85-2.74-.54-5.42-1.51-8.02-2.91-1.77-2.58-2.66-5.19-2.66-7.84s.91-4.88,2.73-6.64c1.82-1.75,4.06-2.63,6.71-2.63s4.85.54,6.53,1.63c1.7,1.09,2.96,2.86,3.76,5.32ZM548.49,152c2.84,0,5.3.77,7.38,2.31,2.08,1.54,3.12,3.73,3.12,6.56v19.73c0,6.01-1.83,10.64-5.5,13.91-3.67,3.24-8.74,4.86-15.22,4.86s-11.48-1.6-15.08-4.79c-3.67-3.19-5.5-7.85-5.5-13.98v-25.3c2.79-2.22,6.02-3.34,9.69-3.34,3.07,0,5.51.82,7.31,2.45,1.8,1.61,2.7,4.06,2.7,7.34v20.69c.26.19.56.28.89.28.36,0,.6-.08.75-.25.17-.19.25-.53.25-1.03v-19.73c0-1.49-.07-2.67-.21-3.55-.14-.88-.43-1.75-.85-2.63,2.84-2.37,6.27-3.55,10.29-3.55ZM580.71,185.5c.78-.14,1.17-.53,1.17-1.17s-.21-1.4-.64-2.2c-.4-.83-1.01-1.61-1.81-2.34-2.11-1.89-4.96-2.84-8.55-2.84-1.77,0-3.43.3-4.97.89-1.63-.83-2.93-2.14-3.9-3.94-.97-1.8-1.45-3.74-1.45-5.82,0-5.44,2.27-9.64,6.81-12.6,3.9-2.53,8.72-3.8,14.44-3.8,4.26,0,7.84.46,10.75,1.38,2.91.9,5.29,2.06,7.13,3.48.54,1.56.82,3.18.82,4.86s-.23,3.21-.67,4.58c-.45,1.37-1.1,2.47-1.95,3.3-.8-.59-2.26-1.19-4.36-1.81-2.11-.62-4.02-.92-5.75-.92s-2.89.11-3.48.32c-.57.21-.85.54-.85.99,0,.21.04.41.11.6.83-.21,1.89-.32,3.19-.32,4.61,0,8.37,1.09,11.28,3.26,3.43,2.6,5.14,6.51,5.14,11.71,0,4.59-1.86,8.4-5.57,11.43-4.02,3.24-9.43,4.86-16.22,4.86-3.74,0-6.98-.28-9.72-.85-2.74-.54-5.42-1.51-8.02-2.91-1.77-2.58-2.66-5.19-2.66-7.84s.91-4.88,2.73-6.64c1.82-1.75,4.06-2.63,6.71-2.63s4.85.54,6.53,1.63c1.7,1.09,2.96,2.86,3.76,5.32ZM648.3,160.8v35.27c-2.65,1.99-6.04,2.98-10.18,2.98-3.19,0-5.72-.65-7.59-1.95-1.96-1.32-2.94-3.24-2.94-5.75v-7.03h2.52c.97,0,1.57-.12,1.81-.35.26-.26.39-.67.39-1.24h-11.14c0,.57.11.98.32,1.24.21.24.72.35,1.53.35h2.7v11.74c-1.82,1.18-3.55,1.98-5.18,2.38-1.63.4-3.3.6-5,.6-3.19,0-5.72-.65-7.59-1.95-1.96-1.32-2.94-3.24-2.94-5.75v-35.3c1.23-1.3,2.74-2.29,4.54-2.98,1.82-.71,3.71-1.06,5.68-1.06,2.86,0,5.29.71,7.27,2.13,2.15,1.61,3.23,3.83,3.23,6.67v6.32h4.51c0-.62-.12-1.03-.35-1.24-.21-.24-.57-.35-1.06-.35h-1.21v-9.47c1.23-1.3,2.74-2.29,4.54-2.98,1.82-.71,3.71-1.06,5.68-1.06,2.86,0,5.29.71,7.27,2.13,2.15,1.61,3.23,3.83,3.23,6.67ZM671.68,159.06v36.65c-1.09.95-2.54,1.74-4.36,2.38-1.82.64-4.03.96-6.64.96s-4.81-.58-6.64-1.74c-2.06-1.25-3.09-3.03-3.09-5.32v-36.65c1.09-.95,2.54-1.74,4.36-2.38,1.82-.64,4.02-.96,6.6-.96s4.81.57,6.71,1.7c2.03,1.3,3.05,3.09,3.05,5.36ZM714.4,168.85h21.04c1.35,1.96,2.02,4.35,2.02,7.17s-.58,5.06-1.74,6.81h-1.45v10.64c-4.66,4.04-10.81,6.07-18.45,6.07-4.66,0-8.8-.83-12.42-2.48-3.95-1.77-7.01-4.36-9.19-7.77-2.39-3.74-3.58-8.33-3.58-13.77,0-7.74,2.32-13.72,6.95-17.95,4.4-4.04,10.36-6.07,17.88-6.07,3.71,0,7.21.56,10.5,1.67,3.31,1.11,5.93,2.5,7.84,4.15,0,1.42-.18,3.16-.53,5.22-.33,2.06-.76,3.63-1.28,4.72h-18.7c-.76.8-1.48,1.96-2.16,3.48-.66,1.51-.99,3.25-.99,5.22,0,2.7.67,4.81,2.02,6.35,1.18,1.4,2.7,2.09,4.54,2.09.76,0,1.14-.26,1.14-.78v-.82h-.39c-1.56,0-2.86-.6-3.9-1.81-1.02-1.23-1.53-2.98-1.53-5.25,0-2.84.79-5.13,2.38-6.88ZM759.64,175.1c.19.19.49.28.89.28s.74-.08,1.03-.25c-.62-3.6-1.03-5.72-1.24-6.39-.26-.69-.65-1.03-1.17-1.03-.24,0-.52.07-.85.21l1.35,7.17ZM752.62,185.74c-.24.33-.36.64-.36.92,0,.69.64,1.27,1.92,1.74,1.3.45,2.87.73,4.72.85.31,3.41.64,5.35.99,5.82-.45.88-1.69,1.76-3.73,2.66-2.03.88-4.33,1.31-6.88,1.31-3.38,0-6.28-.72-8.69-2.16-2.41-1.47-3.62-3.35-3.62-5.64,0-.62.06-1.16.18-1.63l7.56-33.78c1.89-1.21,4.15-2.15,6.78-2.84,2.63-.69,5.36-1.03,8.2-1.03,4.07,0,7.55.69,10.43,2.06,3.29,1.56,5.29,3.82,6,6.78l8.09,33.46c-2.46,3.19-6.47,4.79-12.03,4.79-2.7,0-4.98-.48-6.85-1.45-1.87-.97-2.96-2.35-3.26-4.15l-.78-4.33c1.42-.02,2.79-.3,4.12-.82,1.33-.52,1.99-1.06,1.99-1.63,0-.38-.15-.69-.46-.92-.9.64-2,1.12-3.3,1.45-1.3.33-2.51.5-3.62.5-3.19,0-5.65-.65-7.38-1.95ZM825.25,199.05c-3.24,0-5.78-.53-7.63-1.6-1.99-1.11-3.06-2.68-3.23-4.72l-.32-3.34c2.18-.52,4.01-1.87,5.5-4.04.4-.62.6-1.15.6-1.6,0-.62-.31-.92-.92-.92h-.11s-.07.04-.14.04c-1.66,3.48-4.34,5.22-8.05,5.22-1.89,0-3.51-.41-4.86-1.24-1.32-.83-2.54-2.26-3.65-4.29h-.21c-.64,0-.96.27-.96.82,0,.38.14.8.43,1.28.95,1.58,2.13,2.83,3.55,3.73,1.11.76,2.28,1.21,3.51,1.35l-.28,6.71c-1.42.92-2.92,1.58-4.51,1.99-1.56.43-3.8.64-6.71.64s-5.46-.57-7.73-1.7c-2.79-1.4-4.19-3.34-4.19-5.82,0-3.1.62-10.75,1.85-22.96.66-6.36,1.19-10.81,1.6-13.34,2.44-2.18,6.03-3.26,10.79-3.26,3.45,0,6.32.64,8.59,1.92l1.95,6.53-1.24,5.22c-.09.35-.14.7-.14,1.03,0,.83.47,1.25,1.42,1.28l3.37-14.02c.97-.52,2.24-.97,3.8-1.35,1.56-.4,3.26-.6,5.11-.6,3.45,0,6.01.59,7.66,1.77,1.68,1.16,2.67,3.12,2.98,5.89.07.52.18,1.38.32,2.59,2.15,18.5,3.23,29.39,3.23,32.68-2.63,2.77-6.41,4.15-11.35,4.15ZM854.34,152.64h20.47c.69,1.14,1.19,2.38,1.53,3.73.33,1.32.5,2.52.5,3.58,0,2.39-.47,4.19-1.42,5.39-.92,1.21-2.22,1.81-3.9,1.81h-14.3c-.87,0-1.31.34-1.31,1.03v.28c0,.14.02.24.07.28h16.96c.43.73.79,1.66,1.1,2.77.28,1.21.43,2.28.43,3.23,0,2.81-.52,5.01-1.56,6.6h-7.7c-3.6,0-6.03.14-7.31.43-1.28.26-2.07.48-2.38.67-.31.21-.46.48-.46.82s.17.59.5.78c1.23-.4,2.52-.69,3.87-.85,1.77-.17,3.7-.25,5.78-.25h9.97c1.44,2.03,2.16,4.48,2.16,7.34,0,1.61-.2,3.15-.6,4.61-.4,1.47-1,2.65-1.81,3.55h-26.58c-2.93,0-5.29-.71-7.06-2.13-1.94-1.51-2.91-3.74-2.91-6.67v-33.74c0-1.14,1.3-1.96,3.9-2.48,2.6-.52,6.62-.78,12.06-.78Z"/>
      <path d="M1126.14,918.72c.24,0,.45-.06.64-.18v-3.23c1.61-1.09,3.86-1.97,6.74-2.66,2.91-.69,5.74-1.03,8.48-1.03,1.25,1.28,2.29,3.19,3.12,5.75.85,2.53,1.3,4.83,1.35,6.88-.47.95-1.28,1.96-2.41,3.05-1.11,1.09-2.46,2.09-4.04,3.02-3.93,2.32-8.43,3.48-13.52,3.48-7.29,0-13.02-2.12-17.21-6.35-4.33-4.28-6.49-10.21-6.49-17.78s2.37-13.55,7.1-17.88c2.08-1.94,4.51-3.39,7.27-4.36,2.77-.99,5.68-1.49,8.73-1.49,5.96,0,10.85,1.44,14.65,4.33,3.81,2.89,5.71,6.45,5.71,10.68,0,3.19-.98,5.56-2.94,7.1-1.96,1.51-4.62,2.27-7.98,2.27-1.85,0-3.7-.45-5.57-1.35-1.87-.92-2.98-1.79-3.34-2.59,0-1.94.04-3.47.11-4.58-.05-.02-.13-.04-.25-.04h-.25c-.35,0-.64.11-.85.32-.19.19-.37.6-.53,1.24-.14.64-.21,2.38-.21,5.22,0,6.79.57,10.18,1.7,10.18ZM1171.8,908.36c0-2.37-.11-3.99-.32-4.86-.21-.9-.6-1.35-1.17-1.35-.35,0-.67.12-.96.36.05.43.12.99.21,1.7.09.71.14,2.22.14,4.54v2.31c0,1.61-.04,2.78-.11,3.51-.07.73-.13,1.36-.18,1.88-.02.28-.05.57-.07.85.28.24.6.35.96.35.57,0,.96-.44,1.17-1.31.21-.9.32-2.53.32-4.9v-3.09ZM1170.38,933.98c-4.21,0-8.08-.86-11.6-2.59-3.5-1.75-6.33-4.41-8.48-7.98-2.15-3.6-3.23-8.08-3.23-13.45,0-7.78,2.34-13.86,7.03-18.24,4.16-3.86,9.52-5.78,16.07-5.78,7.12,0,12.75,2.21,16.89,6.64,4.16,4.4,6.24,10.2,6.24,17.39,0,8-2.22,14.1-6.67,18.31-4.04,3.81-9.46,5.71-16.25,5.71ZM1215.09,909.03c.09.07.37.11.82.11s.79-.18,1.03-.53c.24-.35.36-.93.36-1.74v-2.7c0-.85-.11-1.46-.32-1.81-.19-.38-.52-.57-.99-.57s-.76.05-.92.14c.02.12.04.32.04.6v6.49ZM1215.98,925.07v5.43c-1.04.87-2.51,1.6-4.4,2.16-1.89.54-3.87.82-5.93.82-2.93,0-5.33-.57-7.2-1.7-2.13-1.3-3.19-3.18-3.19-5.64v-33.71c0-.76.51-1.51,1.53-2.27,1.04-.76,2.47-1.44,4.29-2.06,3.9-1.32,8.36-1.99,13.38-1.99,6.93,0,12.45,1.73,16.57,5.18,4.12,3.45,6.17,8.1,6.17,13.94s-1.86,10.35-5.57,13.59c-3.57,3.08-8.53,4.61-14.87,4.61-1.44,0-2.99-.17-4.65-.5-1.63-.36-2.73-.66-3.3-.92-.19.19-.28.45-.28.78,0,1.21,2.48,1.96,7.45,2.27ZM1254.73,887.07h20.47c.69,1.14,1.19,2.38,1.53,3.73.33,1.32.5,2.52.5,3.58,0,2.39-.47,4.19-1.42,5.39-.92,1.21-2.22,1.81-3.9,1.81h-14.3c-.88,0-1.31.34-1.31,1.03v.28c0,.14.02.24.07.28h16.96c.43.73.79,1.66,1.1,2.77.28,1.21.43,2.28.43,3.23,0,2.81-.52,5.01-1.56,6.6h-7.7c-3.6,0-6.03.14-7.31.43-1.28.26-2.07.49-2.38.67-.31.21-.46.49-.46.82s.17.59.5.78c1.23-.4,2.52-.69,3.87-.85,1.77-.17,3.7-.25,5.78-.25h9.97c1.44,2.03,2.16,4.48,2.16,7.34,0,1.61-.2,3.15-.6,4.61-.4,1.47-1,2.65-1.81,3.55h-26.58c-2.93,0-5.29-.71-7.06-2.13-1.94-1.51-2.91-3.74-2.91-6.67v-33.74c0-1.14,1.3-1.96,3.9-2.48,2.6-.52,6.62-.78,12.06-.78ZM1279.49,926.28v-35.55c0-1.23.98-2.25,2.95-3.05,1.99-.83,4.32-1.24,6.99-1.24,1.51,0,2.93.19,4.26.57,1.35.36,2.38.82,3.09,1.38.97,1.23,1.86,2.48,2.66,3.76.8,1.28,2.61,4.26,5.43,8.94.26,0,.5-.08.71-.25.21-.17.32-.41.32-.75,0-.35-.3-1.03-.89-2.02l-3.83-6.6v-1.95c1.21-.99,2.67-1.76,4.4-2.31s3.51-.82,5.36-.82c3,0,5.43.54,7.27,1.63,2.15,1.3,3.23,3.34,3.23,6.1v33.6c0,2.03-.97,3.51-2.91,4.44-1.66.83-3.87,1.24-6.63,1.24-1.54,0-3.04-.17-4.51-.5-1.44-.33-2.58-.76-3.41-1.28-1.68-2.15-3.35-4.57-5-7.24l-3.62-6.03c-.69.1-1.03.46-1.03,1.1,0,.4.34,1.17,1.03,2.31l4.44,7.17v1.88c-2.74,1.77-5.84,2.66-9.3,2.66s-6.13-.63-8.09-1.88c-1.94-1.25-2.91-3.03-2.91-5.32ZM1367.38,895.23v35.27c-2.65,1.99-6.04,2.98-10.18,2.98-3.19,0-5.72-.65-7.59-1.95-1.96-1.33-2.94-3.24-2.94-5.75v-7.03h2.52c.97,0,1.57-.12,1.81-.35.26-.26.39-.67.39-1.24h-11.14c0,.57.11.98.32,1.24.21.24.72.35,1.53.35h2.7v11.74c-1.82,1.18-3.55,1.97-5.18,2.38-1.63.4-3.3.6-5,.6-3.19,0-5.73-.65-7.59-1.95-1.96-1.33-2.94-3.24-2.94-5.75v-35.31c1.23-1.3,2.74-2.29,4.54-2.98,1.82-.71,3.71-1.06,5.68-1.06,2.86,0,5.29.71,7.27,2.13,2.15,1.61,3.23,3.83,3.23,6.67v6.32h4.51c0-.61-.12-1.03-.35-1.24-.21-.24-.57-.36-1.06-.36h-1.21v-9.47c1.23-1.3,2.74-2.29,4.54-2.98,1.82-.71,3.71-1.06,5.68-1.06,2.86,0,5.29.71,7.27,2.13,2.15,1.61,3.23,3.83,3.23,6.67ZM1391.72,909.53c.19.19.49.28.89.28s.74-.08,1.03-.25c-.62-3.6-1.03-5.72-1.24-6.39-.26-.69-.65-1.03-1.17-1.03-.24,0-.52.07-.85.21l1.35,7.17ZM1384.7,920.17c-.24.33-.36.64-.36.92,0,.69.64,1.27,1.92,1.74,1.3.45,2.87.73,4.72.85.31,3.41.64,5.35.99,5.82-.45.88-1.69,1.76-3.73,2.66-2.03.87-4.33,1.31-6.88,1.31-3.38,0-6.28-.72-8.69-2.16-2.41-1.47-3.62-3.35-3.62-5.64,0-.61.06-1.16.18-1.63l7.56-33.78c1.89-1.21,4.15-2.15,6.78-2.84,2.63-.69,5.36-1.03,8.2-1.03,4.07,0,7.55.69,10.43,2.06,3.29,1.56,5.29,3.82,6,6.78l8.09,33.46c-2.46,3.19-6.47,4.79-12.03,4.79-2.7,0-4.98-.49-6.85-1.45-1.87-.97-2.96-2.35-3.26-4.15l-.78-4.33c1.42-.02,2.79-.3,4.12-.82,1.33-.52,1.99-1.06,1.99-1.63,0-.38-.15-.69-.46-.92-.9.64-2,1.12-3.3,1.45-1.3.33-2.51.5-3.62.5-3.19,0-5.65-.65-7.38-1.95ZM1438.88,903.29h21.04c1.35,1.96,2.02,4.35,2.02,7.17s-.58,5.06-1.74,6.81h-1.46v10.64c-4.66,4.04-10.81,6.07-18.45,6.07-4.66,0-8.8-.83-12.42-2.48-3.95-1.77-7.01-4.36-9.19-7.77-2.39-3.74-3.58-8.33-3.58-13.77,0-7.74,2.32-13.72,6.96-17.95,4.4-4.04,10.36-6.07,17.88-6.07,3.71,0,7.21.56,10.5,1.67,3.31,1.11,5.93,2.5,7.84,4.15,0,1.42-.18,3.16-.53,5.22-.33,2.06-.76,3.63-1.28,4.72h-18.7c-.76.8-1.48,1.96-2.16,3.48-.66,1.51-.99,3.25-.99,5.22,0,2.7.67,4.81,2.02,6.35,1.18,1.4,2.7,2.09,4.54,2.09.76,0,1.14-.26,1.14-.78v-.82h-.39c-1.56,0-2.86-.6-3.9-1.81-1.02-1.23-1.53-2.98-1.53-5.25,0-2.84.79-5.13,2.38-6.88ZM1479.32,887.07h20.47c.69,1.14,1.19,2.38,1.53,3.73.33,1.32.5,2.52.5,3.58,0,2.39-.47,4.19-1.42,5.39-.92,1.21-2.22,1.81-3.9,1.81h-14.3c-.88,0-1.31.34-1.31,1.03v.28c0,.14.02.24.07.28h16.96c.43.73.79,1.66,1.1,2.77.28,1.21.43,2.28.43,3.23,0,2.81-.52,5.01-1.56,6.6h-7.7c-3.6,0-6.03.14-7.31.43-1.28.26-2.07.49-2.38.67-.31.21-.46.49-.46.82s.17.59.5.78c1.23-.4,2.52-.69,3.87-.85,1.77-.17,3.7-.25,5.78-.25h9.97c1.44,2.03,2.16,4.48,2.16,7.34,0,1.61-.2,3.15-.6,4.61-.4,1.47-1.01,2.65-1.81,3.55h-26.58c-2.93,0-5.29-.71-7.06-2.13-1.94-1.51-2.91-3.74-2.91-6.67v-33.74c0-1.14,1.3-1.96,3.9-2.48,2.6-.52,6.62-.78,12.06-.78ZM1504.09,926.28v-35.55c0-1.23.98-2.25,2.94-3.05,1.99-.83,4.32-1.24,6.99-1.24,1.51,0,2.93.19,4.26.57,1.35.36,2.38.82,3.09,1.38.97,1.23,1.86,2.48,2.66,3.76.8,1.28,2.61,4.26,5.43,8.94.26,0,.5-.08.71-.25.21-.17.32-.41.32-.75,0-.35-.3-1.03-.89-2.02l-3.83-6.6v-1.95c1.21-.99,2.67-1.76,4.4-2.31s3.51-.82,5.36-.82c3,0,5.43.54,7.27,1.63,2.15,1.3,3.23,3.34,3.23,6.1v33.6c0,2.03-.97,3.51-2.91,4.44-1.66.83-3.87,1.24-6.64,1.24-1.54,0-3.04-.17-4.51-.5-1.44-.33-2.58-.76-3.41-1.28-1.68-2.15-3.35-4.57-5-7.24l-3.62-6.03c-.69.1-1.03.46-1.03,1.1,0,.4.34,1.17,1.03,2.31l4.44,7.17v1.88c-2.74,1.77-5.84,2.66-9.3,2.66s-6.13-.63-8.09-1.88c-1.94-1.25-2.91-3.03-2.91-5.32Z"/>
      <path class="cls-15" d="M831.32,434.07c0,.16-.04.31-.09.45l.09-.45Z"/>
      <path class="cls-15" d="M1160.01,544.23c-.03-1.43-.07-2.86-.13-4.29-.03-.67-.06-1.34-.09-2-1.03-21.2-5.06-41.6-11.66-60.82-.19-.03-.38-.07-.57-.1-.09-.02-.19-.03-.28-.05-.57-.1-1.15-.19-1.74-.28-1.2-.18-2.43-.36-3.68-.56-.26-.04-.52-.09-.79-.13-.58-.1-1.16-.2-1.74-.31-.33-.06-.65-.12-.98-.19-.57-.12-1.13-.23-1.7-.37-.32-.07-.63-.15-.95-.23-.4-.1-.81-.21-1.21-.32-.4-.11-.81-.23-1.21-.36-4.99-11.66-7.32-17.09-22.58-14.65-5.25.84-9.61,5.69-14.04,7.93.61-18.92-14.53-26.24-28.99-26.24-18.03,0-32.65,14.62-32.65,32.65,0,2.97.4,5.85,1.15,8.59-3.16-1.01-11.7-2.79-15.18-2.79-17.09,0-23.6,15.02-25.02,31.74-1.93-.35-6.22-1.22-8.24-1.22-11.31,0-21.27,5.75-27.13,14.49l-1.16-.84c-7.31-4.27-16.36-4.35-23.7-.13-5.24,3.01-11.06,7.38-17.01,12.08-3.88-7.82-12.51-13.38-22.54-13.38s-19.54,7.12-23.5,14.65c-.91-11.55-10.44-22.58-23.5-22.58-.96,0-1.82-.09-2.75,0,.04-.55,0-.96,0-1.53,0-12.3-11.07-22.28-24.72-22.28-7.67,0-11.03,4.22-15.56,9.15-.96-.1-5.43-1.22-6.41-1.22-13.32,0-24.17,9.5-24.69,21.38-1.87-.4-3.82-.63-5.82-.63-13.65,0-24.72,9.98-24.72,22.28,0,1.17.1,2.31.29,3.42-.6-.04-1.2-.07-1.81-.07-10.78,0-19.94,6.23-23.33,14.9-.24.13-.47.26-.7.39-.09.05-.18.11-.27.16-.06.04-.12.07-.18.11,0,0,0,0-.01,0,.34,6.54.96,13.02,1.86,19.4h0c.95,6.79,2.99,13.66,4.55,20.22l.61.61c.23,0-.85,0-.61,0,1.65,6.91,3.81,12.88,6.1,19.53.08.24.52.98.61,1.22.38,1.12.81,2.56,1.22,3.66.04.11-.66-.11-.61,0,8.44,22.92,23.94,44.23,39.06,62.86l339.49-.07c14.99-18.47,27.05-39.41,35.48-62.1.12-.3.23-.6.34-.9.49-1.35.98-2.7,1.44-4.06.09-.23.16-.46.24-.7,1.97-5.76,3.7-11.64,5.19-17.61,1.02-4.08,1.93-8.2,2.71-12.35.21-1.08.4-2.16.59-3.25,1.77-10.17,2.84-20.58,3.17-31.18.02-.69.04-1.38.05-2.07.04-1.62.05-3.24.05-4.86s-.02-3.14-.05-4.71Z"/>
      <path class="cls-1" d="M939.99,765.23h-.86c-35.17,0-68.42-8.04-97.94-22.37-.02,0-.04-.02-.05-.02h0s-.02-.01-.02-.01c-.7-.34-1.39-.68-2.08-1.03-1.61.78-1.74,3.18-.02,4.06.76.38,1.46.76,2.1,1.12-28.22-13.99-53.01-33.83-72.79-57.94,12.76,15.36,30.76,28.63,49.44,39.86.02.02.05.04.07.04,7.04,4.61,14.37,8.83,21.95,12.63l-.26.06c-.09.02.76.34,1.37.49.48.24.95.48,1.43.71,0,0,.02,0,.02,0h0s.04.02.05.03c29.42,14.27,62.54,22.31,97.58,22.37Z"/>
      <path class="cls-16" d="M1148.05,620.95c-.46,1.36-.95,2.71-1.44,4.06-.1.3-.22.6-.34.9-3.53,9.51-7.7,18.71-12.46,27.54-6.59,12.26-14.32,23.83-23.03,34.56h-2.46c-13.66,15.93-29.64,29.9-47.43,41.42-2.22,1.44-4.47,2.84-6.74,4.2-33.28,19.91-72.35,31.44-114.17,31.6-35.04-.05-68.16-8.09-97.58-22.37-.02,0-.04-.02-.05-.02h0s-.02-.01-.02-.01c-.48-.23-.96-.46-1.43-.71-.6-.16-1.45-.48-1.37-.49l.26-.06c-7.59-3.8-14.91-8.01-21.95-12.63-.02,0-.05-.02-.07-.04-17.45-11.41-33.15-25.2-46.6-40.88-.83-.96-1.65-1.93-2.46-2.92-15.12-18.24-27.26-38.92-35.7-61.37-.05-.1-.09-.21-.12-.31-.31-.82-.61-1.64-.9-2.47h416.08Z"/>
      <path class="cls-24" d="M1148.12,477.12c-.28-.05-.57-.1-.85-.15-.57-.1-1.15-.19-1.74-.28-1.2-.18-2.43-.36-3.68-.56-.26-.04-.52-.09-.79-.13-.58-.1-1.16-.2-1.74-.31-.33-.06-.65-.12-.98-.19-.57-.12-1.13-.23-1.7-.37-.31-.07-.63-.15-.95-.23-.4-.1-.81-.21-1.21-.32-.4-.11-.81-.23-1.21-.36-4.99-11.66-7.32-17.09-22.58-14.65-5.25.84-9.61,5.69-14.04,7.93.61-18.92-14.53-26.24-28.99-26.24-18.03,0-32.65,14.62-32.65,32.65,0,2.97.4,5.85,1.15,8.59-3.16-1.01-11.7-2.79-15.18-2.79-17.09,0-23.6,15.02-25.02,31.74-1.93-.35-6.22-1.22-8.24-1.22-11.31,0-21.27,5.75-27.13,14.49-.45.67-.87,1.35-1.27,2.05-2.72,4.77-4.26,10.28-4.25,16.17,0,5.8,1.57,11.27,4.28,16.01,5.6,9.79,16.11,16.48,28.08,16.58,6.77.06,13.06-1.95,18.3-5.41,5.44,10.47,16.37,17.62,28.99,17.62,8.39,0,16.04-3.17,21.82-8.37.23-.21.45-.42.67-.62.12.38.24.76.38,1.14.69,2,1.57,3.91,2.62,5.7,5.66,9.69,16.17,16.2,28.21,16.2,4.8,0,9.34-1.04,13.45-2.9.52,2.12,1.24,4.16,2.15,6.09,3.33,7.09,9.14,12.79,16.31,15.98,4.05,1.8,8.53,2.8,13.25,2.8s9.19-1,13.24-2.8c.49-.22.99-.45,1.47-.7,1.97-5.76,3.7-11.64,5.19-17.61,1.02-4.08,1.93-8.2,2.71-12.35.21-1.08.4-2.16.59-3.25,2.15-12.38,3.28-25.11,3.28-38.11,0-25.14-4.2-49.3-11.94-71.81ZM1105.13,539c.15.81.32,1.62.52,2.41-.41-.26-.84-.51-1.27-.75.26-.55.51-1.1.74-1.66Z"/>
      <path class="cls-24" d="M920.9,545.03c0,3.44-.87,6.67-2.41,9.54-3.98,7.41-12.47,12.43-22.31,12.43-2.69,0-5.27-.39-7.68-1.1.03.46.05.93.05,1.4,0,12.3-11.07,22.28-24.72,22.28-3.95,0-7.68-.84-10.99-2.31-2.04,3.57-5.12,6.57-8.88,8.7-1.24.7-2.56,1.31-3.94,1.8-.07.02-.14.05-.21.08-2.77.97-5.79,1.5-8.94,1.5-4.79,0-9.26-1.23-13.05-3.36-.08-.04-.15-.08-.23-.12-.09.07-.19.14-.28.21-.71.53-1.45,1.03-2.22,1.48-3.08,1.82-6.63,3.03-10.45,3.45-1.01.12-2.03.18-3.08.18-5.76,0-11.05-1.78-15.25-4.74-3.22,1.65-6.9,2.67-10.81,2.87-.46.02-.93.04-1.41.04h-.11c-2.42-.01-4.75-.33-6.95-.92-.57-.15,9.97,2.59,8.42,1.65.02.34.12,1.15,0,2-1.28,9.49-24.82,15.91-34.83,18.88-2.11.63-4.29.97-6.5.97-1.28,0-1.34-.2-2.51-.36-.09-.24-.53-.98-.61-1.22-2.25-6.52-4.4-12.57-6.03-19.35-.05-.19.11-.36.3-.34.92.11,2.35.33.85.16h-.61c-1.56-6.56-4.2-14.04-5.16-20.82h0c-.9-6.39-1.53-12.87-1.86-19.41h0c.06-.04.13-.08.19-.12.09-.05.18-.1.27-.16.23-.13.46-.26.7-.39,3.38-8.67,12.54-14.9,23.33-14.9.61,0,1.21.03,1.81.07-.19-1.12-.29-2.26-.29-3.42,0-12.3,11.06-22.28,24.72-22.28,2,0,3.95.23,5.82.63.52-11.88,11.38-21.38,24.69-21.38.98,0,5.45,1.12,6.41,1.22,4.53-4.94,7.89-9.15,15.56-9.15,13.65,0,24.72,9.98,24.72,22.28,0,.57.04.98,0,1.53.92-.09,1.79,0,2.75,0,13.05,0,22.59,11.03,23.5,22.58,3.96-7.53,13.63-14.65,23.5-14.65s18.67,5.56,22.54,13.38c.54,1.09.98,2.22,1.32,3.39.56,1.86.85,3.81.85,5.81Z"/>
      <path class="cls-11" d="M1153.48,602.65c-1.49,5.97-3.22,11.85-5.19,17.61-.08.23-.16.46-.24.7-.46,1.36-.95,2.71-1.44,4.06l-413.76-.4c-.41-1.1-1.45-3.16-1.83-4.27-.09-.24,1.3-.37,1.22-.61-2.29-6.65-5.67-12-7.32-18.92,8.84.14,20.55-.29,35.29-1.68,1.82-.17,3.67-.36,5.56-.57.43-.05,3.2-.37,4.17-.49.84-.1,1.7-.21,2.55-.32,4.64-.6,9.47-1.32,14.44-2.18,32.24-5.56,70.79-16.89,108.18-39.42,8.4-5.06,16.75-10.69,24.94-16.94,1.54-1.18,3.09-2.38,4.62-3.6,0,0,14.37-19.88,34.65-8.84,3.17,1.72,6.48,4.19,9.9,7.62,5.81,5.81,16.73,10.39,21.97,14.04,6.12,4.25,15.73,9.33,22.51,12.35h.01c.88.4,1.73.76,2.5,1.07,11.18,4.58,12.38,4.99,26.24,10.99,5.15,2.23,9.78,4.42,14.09,6.53.35.17.7.34,1.05.51,2.83,1.4,5.52,2.76,8.15,4.08,13.16,6.59,24.66,12.12,42.46,15.49.3.05.6.12.9.16,16.76,3.12,32.19,4.4,44.37,3.03Z"/>
      <path class="cls-13" d="M1130.98,579.68l-15.12-6.46c-5.27-.4-30.36,6.54-48.12,11.74-1.95.57-3.8,1.11-5.53,1.62-6.25,1.86-10.89,3.28-12.27,3.72l-13.96.76c-.29.01-.57.05-.85.12-1.24.3-2.43.76-3.55,1.35l-23.72,9.25c-1.23.48-2.54.76-3.86.84l-8.99.5-6.01,2.51c-.86.35-1.79.49-2.72.4l-15.68-2.91c.09.46.07.87,0,1.22-.48,2.47-3.94,4.29-8.54,4.88l-6.1-2.44-12.57,3.75c-4.84-.24-11.57-1.1-19.16-3.75-7.66-2.67-13.5-6.23-17.45-9.07-2.93,1.19-5.86,2.39-8.79,3.58l-7.36-2.45c-1.17-.39-2.42-.43-3.61-.1l-11.61,3.17c-.78.07-1.6.07-2.44,0-6.49-.57-10.86-5.58-12.5-7.71-.71-.37-2.12-.98-4-1.02-1.37-.03-2.75.24-4.03.83l-6.46,2.96-3.94,1.8-.2.09h-.02s-3.54-2.67-3.54-2.67c-.81-.6-1.89-.68-2.77-.2l-5.27,2.87-6.62-1.65c-1.24-.31-2.53-.38-3.79-.22-.17.02-.34.05-.51.09-.63.12-1.26.29-1.86.52-.07.25-.19.58-.35.95-.37.84-1.02,1.89-2.12,2.75-2.22,1.73-5.42,1.97-8.32.7-.07-.02-.15-.05-.22-.09-5.83-1.78-11.67-3.55-17.51-5.33-2.67-.82-5.35-1.63-8.03-2.45-1.68-.51-3.43-.74-5.19-.69l-9.87.3c-18.31-11.35-40.55-29-43.98-32.74.98,5.68.93,12.6.51,19.98h0c.95,6.79,3.6,14.27,5.16,20.83h3.66c.23,0-4.51,0-4.27,0,1.65,6.91,4.42,12.88,6.71,19.53.08.24-.09.98,0,1.22.38,1.12.2.12.61,1.22.04.11,1.17,1.11,1.22,1.22l41.39,1.39,309.39.43,62.03.09c.12-.3.23-.6.34-.9.49-1.35.98-2.7,1.44-4.06.09-.23.16-.46.24-.7,1.97-5.76,3.7-11.64,5.19-17.61,1.02-4.08,1.93-8.2,2.71-12.35l-27.21-11.62ZM785.33,603.25s-.23-.04-.6-.13c-1.06-.27-2.23-.67-3.51-1.17,2.38.73,3.98,1.23,4.11,1.31Z"/>
      <path class="cls-4" d="M1166.06,594.51c-.09.92-.23,1.84-.4,2.73-.1-.21-.23-.41-.38-.6l-3.27-3.7-.24-.27.27.11,4.03,1.73Z"/>
      <path class="cls-19" d="M1017.74,561.54l-4.03-.75h-.01s-33.49-6.27-33.49-6.27l-20.85,4.44-7.83,1.67-32.35-6.1-.69.05-23.38,1.59-3.49.24c8.1-4.99,17.75-13.18,27.11-20.57,5.94-4.7,11.77-9.06,17.01-12.08,7.34-4.22,16.39-4.14,23.7.13l1.16.84,16.56,12.1,40.58,24.72Z"/>
      <path class="cls-1" d="M1161.76,592.67l-5.57-2.37c.21-1.08.4-2.16.59-3.25l4.97,5.62Z"/>
      <path d="M831.32,434.07c0,.16-.04.31-.09.45l.09-.45Z"/>
      <path class="cls-25" d="M840.89,742.12c-.6-.16-1.45-.48-1.37-.49l.26-.06.53-.12c1.62.84,1.26.85.58.68Z"/>
      <path class="cls-15" d="M971.13,334.89c-10.44-1.48-21.13-2.25-31.99-2.25-70.38,0-133.07,32.22-173.52,82.41-25.82,33.3-42.68,74.13-46.87,118.72-.03.28-.05.57-.08.85,0,.05,0,.09-.01.13-.18,2.94-.31,5.88-.38,8.84-.04,1.78-.06,3.56-.06,5.35,0,1.92.02,3.82.08,5.72.04,1.98.12,3.95.23,5.93h0s0,0,.01,0c.05-.04.12-.07.18-.11.09-.05.18-.1.27-.16.23-.13.46-.26.7-.39,3.38-8.67,12.54-14.9,23.33-14.9.61,0,1.21.03,1.81.07-.19-1.12-.29-2.26-.29-3.42,0-12.3,11.06-22.28,24.72-22.28,2,0,3.95.23,5.82.63.52-11.88,11.38-21.38,24.69-21.38.98,0,5.45,1.12,6.41,1.22,4.53-4.94,7.89-9.15,15.56-9.15,13.65,0,24.72,9.98,24.72,22.28,0,.57.04.98,0,1.53.92-.09,1.79,0,2.75,0,13.05,0,22.59,11.03,23.5,22.58,3.96-7.53,13.63-14.65,23.5-14.65s18.67,5.56,22.54,13.38c5.94-4.7,11.77-9.06,17.01-12.08,7.34-4.22,16.39-4.14,23.7.13l1.16.84c5.86-8.74,15.83-14.49,27.13-14.49,2.02,0,6.31.87,8.24,1.22,1.42-16.72,7.93-31.74,25.02-31.74,3.48,0,12.03,1.78,15.18,2.79-.74-2.73-1.15-5.61-1.15-8.59,0-18.03,14.62-32.65,32.65-32.65,14.46,0,29.6,7.32,28.99,26.24,4.43-2.25,8.79-7.09,14.04-7.93,15.26-2.44,17.59,2.98,22.58,14.65.4.13.81.25,1.21.36.4.12.81.23,1.21.32.32.08.63.16.95.23.57.13,1.13.25,1.7.37.33.07.65.13.98.19.58.11,1.16.21,1.74.31.26.04.52.09.79.13,1.25.2,2.48.38,3.68.56.59.09,1.17.18,1.74.28.09.02.19.03.28.05-26.85-74.61-94.32-130.48-176.42-142.13ZM831.23,434.52l.09-.45c0,.16-.04.31-.09.45Z"/>
      <path class="cls-1" d="M1148.12,477.12c-.19-.03-.38-.07-.57-.1-26.85-74.61-94.32-130.48-176.42-142.13-10.44-1.48-21.13-2.25-31.99-2.25-70.38,0-133.07,32.22-173.52,82.41,40.94-52.83,104.45-86.74,175.74-86.74,10.09,0,20.04.68,29.78,2,82.69,11.99,150.54,69.78,177,146.81Z"/>
      <path class="cls-1" d="M1151.54,477.86c-.32-.09-.65-.16-.98-.24-.33-.07-.67-.15-1.01-.22-.47-.09-.95-.18-1.43-.27-26.46-77.03-94.31-134.82-177-146.81,83.49,11.3,152.42,69.42,180.42,147.55Z"/>
      <path class="cls-1" d="M718.21,548.94c0,3.91.1,7.79.31,11.64h0c-.25.15-.5.29-.74.44-.04-1.78-.06-3.56-.06-5.34,0-7.06.32-14.04.94-20.93-.29,4.69-.45,9.42-.45,14.19Z"/>
      <path class="cls-27" d="M831.32,434.07c0,.16-.04.31-.09.45l.09-.45Z"/>
      <path class="cls-2" d="M1161.28,548.94c0,1.62-.02,3.25-.05,4.86-.02.69-.04,1.38-.05,2.07-.34,10.33-1.4,20.47-3.17,30.38-.04.22-.08.45-.12.67-.15.84-.31,1.68-.47,2.51-.78,4.07-1.69,8.1-2.71,12.09-1.49,5.85-3.22,11.6-5.19,17.24-.08.23-.16.45-.24.68-.18.51-.35,1.01-.54,1.51-.29.82-.6,1.64-.9,2.47-.1.29-.22.59-.34.88-3.83,10.09-8.41,19.83-13.68,29.15-6.32,11.19-13.63,21.78-21.81,31.64-.81.98-1.63,1.95-2.46,2.92-13.66,15.93-29.64,29.9-47.43,41.42-2.22,1.44-4.47,2.84-6.74,4.2-33.51,20.05-72.89,31.6-115.03,31.6h-.36c-35.04-.05-68.16-8.09-97.58-22.37-.02,0-.04-.02-.05-.02h0s-.02-.01-.02-.01c-.48-.23-.96-.46-1.43-.71-.22-.1-.43-.21-.65-.32-.15-.08-.31-.15-.46-.24-7.59-3.8-14.91-8.01-21.95-12.63-.02,0-.05-.02-.07-.04-17.45-11.41-33.15-25.2-46.6-40.88-.83-.96-1.65-1.93-2.46-2.92-15.12-18.24-27.26-38.92-35.7-61.37-.05-.1-.09-.21-.12-.31-.31-.82-.61-1.64-.9-2.47-.1-.27-.2-.53-.29-.8-.09-.24-.17-.47-.25-.71-2.26-6.43-4.22-12.98-5.86-19.66-.02-.09-.04-.18-.07-.27-.05-.19-.1-.38-.14-.58-.01-.05-.03-.12-.04-.17-1.54-6.37-2.78-12.85-3.73-19.42h0c-.88-6.18-1.51-12.44-1.85-18.76,0-.08,0-.16-.01-.24h0c-.1-1.9-.18-3.79-.23-5.69-.05-1.9-.08-3.8-.08-5.72,0-1.79.02-3.57.06-5.35.08-2.86.2-5.71.38-8.54,0-.04,0-.09.01-.13.02-.38.05-.76.08-1.15,3.16-44.67,20.18-85.61,46.87-118.72,40.45-50.19,103.14-82.41,173.52-82.41,10.86,0,21.55.77,31.99,2.25,82.1,11.66,149.57,67.52,176.42,142.13.2.53.38,1.07.57,1.61,6.58,18.74,10.6,38.64,11.66,59.31.03.67.06,1.33.09,2,.05,1.43.1,2.86.13,4.29.03,1.56.05,3.13.05,4.71Z"/>
      <circle class="cls-14" cx="1041.45" cy="351.06" r="56.02"/>
      <g>
        <ellipse class="cls-7" cx="966.14" cy="472.75" rx="1.16" ry="1.24" transform="translate(-103.9 363.49) rotate(-20.24)"/>
        <path class="cls-21" d="M977.98,453.27c.44.22.63.56.89.9.11-.42.39-.78.76-1.01,2.11,1.41,3.78,2.73,4.01,5.51,2.32-.67,3.98-.04,5.97,1.2-.09.48-.37.76-.61,1.1.43-.01.86.16,1.18.45-.75,2.37-1.54,4.31-4.03,5.32.1.14.21.28.31.43,1.57,2.36,1.39,4.23.57,6.66-.49.02-.82-.18-1.22-.34.11.42.04.87-.16,1.25-2.31-.17-4.27-.45-5.79-2.27-1.82,1.71-3.61,1.89-5.99,1.65-.13-.47,0-.84.06-1.26-.38.2-.84.23-1.26.12-.33-2.21-.49-4.12.79-5.94-2.38-.51-3.55-1.85-4.72-3.91.31-.38.68-.49,1.06-.68-.39-.19-.68-.55-.82-.95,1.81-1.75,3.45-3.1,6.2-2.75-.02-2.46,1.04-3.89,2.81-5.48Z"/>
        <path class="cls-17" d="M978.75,459.55c.2.1.29.26.41.41.05-.19.18-.36.35-.46.97.65,1.74,1.25,1.84,2.53,1.07-.31,1.83-.02,2.74.55-.04.22-.17.35-.28.51.2,0,.39.07.54.21-.35,1.09-.71,1.98-1.85,2.44.05.06.09.13.14.2.72,1.08.64,1.94.26,3.06-.23,0-.38-.08-.56-.16.05.19.02.4-.07.57-1.06-.08-1.96-.21-2.66-1.04-.84.79-1.66.87-2.75.76-.06-.22,0-.39.03-.58-.18.09-.39.11-.58.05-.15-1.02-.22-1.9.36-2.73-1.09-.23-1.63-.85-2.17-1.79.14-.17.31-.23.49-.31-.18-.09-.31-.25-.38-.44.83-.81,1.59-1.42,2.85-1.26,0-1.13.48-1.79,1.29-2.52Z"/>
        <path class="cls-17" d="M972.76,454.2c.2.1.29.26.41.41.05-.19.18-.36.35-.46.97.65,1.74,1.25,1.84,2.53,1.07-.31,1.83-.02,2.74.55-.04.22-.17.35-.28.51.2,0,.39.07.54.21-.35,1.09-.71,1.98-1.85,2.44.05.06.09.13.14.2.72,1.08.64,1.94.26,3.06-.23,0-.38-.08-.56-.16.05.19.02.4-.07.57-1.06-.08-1.96-.21-2.66-1.04-.84.79-1.66.87-2.75.76-.06-.22,0-.39.03-.58-.18.09-.39.11-.58.05-.15-1.02-.22-1.9.36-2.73-1.09-.23-1.63-.85-2.17-1.79.14-.17.31-.23.49-.31-.18-.09-.31-.25-.38-.44.83-.81,1.59-1.42,2.85-1.26,0-1.13.48-1.79,1.29-2.52Z"/>
        <ellipse class="cls-7" cx="973.14" cy="459.4" rx="1.16" ry="1.24" transform="translate(-98.85 365.09) rotate(-20.24)"/>
        <path d="M736.57,297.5s4.35,1.91,8.95,5.29c-2.66-3.46-5.8-6.08-8.95-5.29Z"/>
        <path d="M789.57,337.5l-1.83-1.47c-2.26-.36,1.83,1.47,1.83,1.47Z"/>
        <path d="M884.42,433.25c.1-.24.15-.48.15-.74l-.15.74Z"/>
        <path d="M878.07,550s-1.18,1.66-2.51,3.59c1.51-1.36,2.51-2.62,2.51-3.59Z"/>
        <path class="cls-25" d="M744.37,300.58c.62.65,1.23,1.37,1.82,2.13-.6-.44-1.19-.85-1.76-1.23-.08-.06-.17-.12-.25-.17h0c-3.78-2.51-6.95-3.9-6.95-3.9.04-.01.08-.02.12-.03,2.42-.54,4.83.92,7.02,3.2Z"/>
        <path class="cls-25" d="M788.41,335.95l1.82,1.46s-1.39-.62-2.11-1.07c0,0-.01,0-.02-.01-.18-.11-.32-.22-.36-.29-.1-.14.07-.19.67-.09Z"/>
        <path class="cls-25" d="M876.22,553.5c1.33-1.93,2.51-3.59,2.51-3.59,0,.97-1,2.23-2.51,3.59Z"/>
        <path class="cls-25" d="M885.23,432.41c0,.27-.05.52-.15.76l.15-.76Z"/>
        <path d="M983.73,467.91l-.59.15-3.05.76-.26.07-.1.02-.45.45-2.55,2.55-.74.37-2.16,1.08-1.1.55s-1.49.75-2.54,1.6c-.17.13-.32.26-.46.4-.55.55-1.7.8-2.63.91-.57.07-1.05.08-1.26.09h-.11s-.07.07-.19.12c-.03.01-.06.02-.09.02-.36.09-1.04-.11-1.72-2.14,0,0-.14-.14-.39-.36-.91-.8-3.26-2.64-5.61-2.64h-4.94c-.68,0-1.33.27-1.81.75l-.96.96c-.19.19-.42.36-.66.48l-5.63,2.81c-2,1-2,2-6,3-.1.03-.21.05-.31.08-2.38.64-4.05,1.61-5.93,1.76-.99.08-2.05-.07-3.3-.63h0c-.15-.06-.3-.13-.45-.21-.15-.08-.3-.15-.44-.25-1.77-1.01-3.12-2.6-4.04-3.98-.48-.71-.85-1.37-1.09-1.86-.29-.56-.43-.91-.43-.91,0,0-.17,0-.47-.02-.62-.03-1.8-.12-3.26-.41-1.53-.3-3.36-.82-5.17-1.7-.66-.32-1.31-.7-1.95-1.13,0,0,0,0,0,0,0,0,0,0,0-.01-.16-.11-.32-.2-.48-.32-.01,0-.02-.02-.02-.02-.38-.26-.74-.56-1.09-.88-.19-.16-.37-.33-.55-.51h-5l.59.74,2.9,3.62.51.64s.33.46.94,1.07c.32.31.71.67,1.18,1.03.29.21.6.43.94.64.02.01.03.02.05.03.18.11.36.21.55.31.42.23.88.44,1.38.61.37.14.76.25,1.16.33.31.07.63.12.97.16,1,.11,2.1.06,3.27-.23.81-.19,1.64-.5,2.52-.93-.16.11-.93.57-2.4,1.12-.9.35-2.06.73-3.5,1.08-.1.03-.2.05-.31.08-.14.03-.29.07-.44.1-.6.13-1.24.26-1.93.38-.44.08-.9.15-1.38.22,0,0-.01,0-.02-.01-.04-.03-.15-.11-.32-.23-.36-.26-.98-.74-1.73-1.4-.22-.2-.46-.41-.7-.64-.8-.76-1.69-1.71-2.54-2.8-.17-.24-.35-.48-.53-.73-.64-.92-1.24-1.93-1.71-3.03-.11-.24-.21-.48-.3-.73-.05-.14-.1-.29-.15-.43l-17.92-5.97c-.05-.02-.1-.03-.16-.05-.88-.23-9.62-2.57-16.74-7.29-3.14-2.08-5.97-4.62-7.66-7.65-.4-.72-1.14-1.17-1.95-1.26s-1.99-.15-3.27-.06c-2.81.2-6.23,1.16-8.31,4.27-2.01,3.01-4.01,6.27-6.53,9.03-1.66,1.83-3.55,3.44-5.82,4.59-1.12.58-2.33,1.05-3.65,1.38,0,0-1.53.42-3.77.74-.88.12-1.87.23-2.92.29-3.41.2-7.43-.11-10.31-2.03-4.72-3.15-6.96,1.75-7.71,3.98-.25.76-.83,1.38-1.6,1.63-1.05.36-2.54.54-3.7-.62-1.41-1.41-.83-2.32-2.12-2.74-1.46-.47-2.98.56-3.21,2.07-.83,5.45-3.34,19.58-8.64,32.86-1.74,4.37-4.26,8.38-7.46,11.84-4.65,5.04-12.09,12.37-17.82,14.69-.53.22-.96.63-1.23,1.13-1.33,2.52-4.82,10.03-1.53,14.15,4,5-2,33,12,30,12.07-2.59,19.68-6.66,21.55-7.73.31-.18.64-.29,1-.33l26.02-2.89.43-.05,5.92.66,6.37.71,3.31.36,1.57.18c.54.06,1.09-.05,1.56-.32l.4-.23,5.21-2.97c.43-.25.92-.36,1.42-.33l3.32.2,4.16.24,1.6.1,6.44.38c.48.03.95-.08,1.37-.31,1.54-.84,5.57-3.09,9.23-5.56,1.71-1.16,3.35-2.36,4.61-3.5-.42.6-.85,1.24-1.26,1.85-1.08,1.6-.05,3.78,1.87,3.97l5.9.59.14-.1,3.86-2.9-3.77,3.77-.23.23-9.09-.91c-.59-.06-1.18.09-1.67.42l-.86.57-.68.46-5.99,3.99c-.46.31-1.01.46-1.56.42l-6.92-.38-3.32-.19-5.03-.28-1.88-.1-.22.13-6.27,3.58c-.34.2-.73.31-1.12.33-.36.02-.88.05-1.5.07-3.83.14-11.8.14-14.83-2.07-.02-.01-.04-.03-.06-.04-3.83-2.87-16.8,6.16-25.8,4.32-.77-.16-1.56.03-2.15.54-2.08,1.76-7.59,5.9-16.51,8.96-.35.12-.68.31-.94.57-4.16,4.02-38.4,37.81-18.77,40.18,1.85.22,3.92,6.02,2.93,7.6-8.07,12.82,38.69,59.24,16,59-2.3-.02-41.61-63.52-41-64l13.15-42.2c.43-.34.74-.8.89-1.34.93-3.35,2.91-16.43-13.29-39.76,0,0-7.2-10.01,13.9-21.19,19.47-10.31,15.87-35.79,15.19-39.68-.06-.33-.18-.64-.36-.92l-11.42-18.08c-.21-.33-.34-.71-.38-1.09l-4.07-38.22c-.55-5.22,1.1-10.44,4.56-14.39l6.78-7.76c1.05-1.2,2.33-2.19,3.76-2.89,2.75-1.36,8.97-4.81,22.04-13.49.65-.43,1.24-.98,1.73-1.6l7.23-9.2c1.96-2.5,3.03-5.58,3.03-8.75v-8.45s.09-.18.28-.5c.79-1.3,3.34-4.85,8.72-7.16,0,0,4.21-2.81-3.83-6.65-1.56-.75-3.57-1.54-6.17-2.35-.93-.29-1.77-.55-2.54-.78-.81-.25-1.53-.46-2.17-.64-2.14-.62-3.42-.93-4.11-1.04l-.09-.07-5.29-4.23-.07-.06-2.34-1.87c-.26-.2-.55-.36-.86-.45l-4.93-1.48-2.3-.69-.09-.03-3.97-1.19-7.53-2.26c-.46-.14-.87-.4-1.19-.77l-6.24-7.13c-.18-.21-.32-.43-.43-.69-.41-.98-1.62-3.75-3.34-6.83-.92-1.64-1.98-3.37-3.15-4.96-.13-.18-.27-.36-.4-.54.2.15.4.3.6.45,2.12,1.62,4.26,3.55,6,5.76,1.39,1.74,2.52,3.65,3.21,5.72.17.5.46.95.87,1.27l4.92,3.81c.32.25.7.42,1.1.49l6.53,1.21,1.39.26,4.62.85,1.03.19,2.24.42.73.13s.02,0,.02,0l.78.15,2.94,2.2,1.06.8-.32-4.54-.16-2.23-.38-5.27-.14-1.96s-2.6-1.23,12.25-14.35c.56-.49.87-1.19.87-1.93,0-1.33.05-3.7.43-6.4.34-2.49.96-5.27,2.06-7.78,3.23-7.43,10.61-12.5,27.35-.98,1.11.76,2.62.56,3.46-.48,2.76-3.44,9.23-10.13,16.88-8.55.56.12,1.12.27,1.69.48,0,0-2.02-6.02-1.1-10.78.22-1.12.6-2.17,1.21-3.06.77-1.1,1.88-1.95,3.47-2.34.09-.04.18-.06.27-.07.07-.02.13-.04.2-.05.85-.16,1.62-.32,2.33-.46,1.07-.22,1.98-.43,2.77-.62,3.02-.74,4.2-1.24,4.62-1.47.07-.04.12-.07.15-.09.03-.02.05-.04.07-.04-.02.03-.04.07-.07.13h0c-.33.63-1.16,2.71,4.57-1.62.37-.28.76-.58,1.19-.91.06-.05.12-.1.19-.15.33-.26.68-.54,1.05-.84.1-.08.21-.17.33-.27.52-.42,1.08-.88,1.67-1.38.36-.3.78-.49,1.24-.56.7-.11,1.89-.33,3.29-.75.99-.29,2.08-.69,3.18-1.22.7-.34,1.41-.73,2.1-1.19.41-.27.81-.57,1.2-.89.74-.61,1.43-1.31,2.03-2.11.88-1.18,1.56-2.58,1.93-4.24.02-.11.04-.21.06-.32.25-1.35.3-2.86.07-4.56l.98,5.84v.02l-.19.39-1.66,3.36-.02.03-2.32,2.14-.7.63c-.14.12-.28.23-.44.32l-.73.42-1.88,1.09-.84.48c-.15.09-.3.16-.47.21l-2.1.7-3.27,1.09c-.26.09-.5.21-.72.38l-1.96,1.46-5.92,4.41c-.4.3-.88.47-1.38.5l-6.41.38s-.07.02-.2.07c-.22.08-.6.24-1.07.46-.17.08-.36.17-.56.27-.96.51-2.11,1.26-2.96,2.24-.71.82-1.21,1.81-1.21,2.96v8.59h0c0,1.47-1.24,2.67-2.7,2.55-.33-.03-.7-.04-1.11-.03-1.3.03-3,.26-5.19.89-6.41,1.83-8.63,7.85-8.96,8.86-.04.11-.08.22-.13.32l-.56,1.11c-.69,1.39-2.45,1.85-3.72.97-4.22-2.91-13.25-8.26-20.04-6.29-2.6.75-4.87,2.56-6.42,5.99-.42.91-.78,1.95-1.08,3.11-.64,2.4-1.02,5.34-1.08,8.92-.01.33-.01.67-.01,1.01l-10.25,10.25c-.48.48-.75,1.13-.75,1.81v16.12c0,.46-.13.91-.36,1.31-.06.09-.11.2-.16.31-.18.37-.3.84-.18,1.37.17.81.91,1.74,2.91,2.54.24.1.51.2.79.29,1.83.61,3.67.66,5.33.44,3.78-.51,6.67-2.44,6.67-2.44,0,0,5-4,9,5,2.61,5.87,3.51,9.61,3.83,11.5.18,1.09,1.01,1.94,2.1,2.13,1.86.32,4.96.18,8.75-2.58.75-.54,1.14-1.47,1-2.38-.4-2.78.11-9.21,12.3-12.42.65-.17,1.21-.57,1.56-1.15,1.54-2.54,6-9.83,8.46-13.1,3-4,4,1,9-5s19.72-12.56,19.72-12.56l5.42-2.11c.56-.22,1.17-.23,1.73-.04l5.12,1.71,6.72,2.44-11.92-2.29c-.53-.1-1.07-.04-1.55.19-3.99,1.84-22.53,10.64-22.53,15.1,0,1.31-.27,2.14-.74,2.7-1.98,2.36-4.73,1.78-7.26,3.3-5.39,3.24-2.08,13.47-7,16-.72.38-1.8.68-3.41.41-1.02-.17-2.07.26-2.63,1.13-3.57,5.56-3.6,8.91-2.68,11.03.82,1.87-1.94,3.46-2.77,3.89-.14.07-.29.13-.44.17-1.19.33-7.14,2-12.22,3.49-4.78,1.41-8.99,4.28-12.05,8.22l-2.45,3.14c-.05.06-.09.12-.13.19l-18.21,28.23c-1.28,1.99-3,3.66-5.03,4.89-4.95,3-14.34,9.09-15.33,12.76-1.37,5.02-3.11,3.89,4.76,3.95,7.09.06,6.17,7.37,5.92,8.82-.03.16-.07.31-.13.46l-9.22,23.96c-.4,1.04-.08,2.23.8,2.92,1.08.84,2.57,2.11,3.86,3.57,1.13,1.29,3.23,1.08,4.08-.41,1.28-2.26,3.35-3.97,6.56-3.26,5.89,1.31,9.64,3.47,11.52,4.81.9.64,2.09.65,2.99,0,2.51-1.81,7.6-4.88,11.25-2.95.08.04.16.08.24.13,1.05.63,2.1,1.26,3.15,1.86.01.01.02.01.03.02.96.55,1.91,1.07,2.86,1.54.03.02.06.03.08.04.15.08.3.15.44.22.24.12.47.23.7.33h0c.48.23.96.44,1.44.62,2.09.84,4.19,1.37,6.29,1.37.31,0,.64-.06.99-.17.43-.13.88-.35,1.35-.63.44-.25.89-.56,1.35-.92,1.02-.79,2.08-1.79,3.12-2.89,3.46-3.64,6.78-8.34,7.84-9.88.24-.35.57-.63.95-.82,2.13-1.06,9.48-4.38,15.4-2.69,5.85,1.67,12.4-4.34,14.39-6.36.41-.41.93-.66,1.51-.73,2.57-.3,9.81-1.38,10.95-4.15l-.19.93c-.11.55-.39,1.04-.81,1.41-.67.59-1.71,1.4-2.35,1.4-.78,0-5.26.62-7.15.88-.55.08-1.06.33-1.45.72l-3.15,3.15c-.16.16-.34.3-.54.41l-4.88,2.79c-1.06.6-1.54,1.87-1.16,3.03l.12.36c.14.43.39.81.73,1.11l1.68,1.49,2.28,2.03.66.59s.01.01.02.01l.24.22,3.28,2.91c.23.21.5.37.79.48,1.17.43,4.46,1.42,8.84.89.6-.07,1.2.04,1.71.36l8.83,5.47c.11.07.22.13.34.18l2.69,1.15,3.52,1.51c.39.17.82.24,1.24.2.5-.05,1.28-.11,2.2-.14.46-.02.95-.04,1.47-.04,1.06-.01,2.23.03,3.37.16,1.39.14,2.76.41,3.87.88.1.04.19.08.27.12.07.03.13.06.19.09,1.97.98,3.7,1.73,4.94,2.23,1.02.4,1.72.65,1.96.74.07.02.13.04.2.06l.96.24,1.08.27.86.21.07.02.93.23,2.93-.73.66-.17,4.41-1.1.52.05,2.16.22,7.32.73h-9.68c-.21,0-.42.03-.62.08l-3.88.97-1.52.38-2.29.57s.03.06.07.18c.06.12.14.3.26.52.29.58.78,1.45,1.47,2.32.99,1.26,2.39,2.53,4.2,2.98.11.03.22.05.33.07,3.57.75,7.8-.74,8.55-1.02.08-.03.12-.05.12-.05l5.87-3.91c.09-.06.18-.11.27-.16l5.41-2.71c.25-.12.47-.28.67-.48.58-.6,2.36-1.96,6.07-1.2.53.1,1.1.26,1.71.46,1.73.58,3.05,1.15,4.04,1.68,0,0,0,.01.01.01,1.14.61,1.86,1.15,2.3,1.56.33.3.59.68.7,1.11.19.73,1.06,2.2,4.94.64.12-.05.23-.09.34-.14,1.48-.61,2.59-1.22,3.41-1.77,1.8-1.19,2.25-2.09,2.25-2.09l1.27-.95.98-.74.12-.09h.01l1.09-.82.53-.4h4Z"/>
        <path class="cls-21" d="M919.48,460.58c.44.22.63.56.89.9.11-.42.39-.78.76-1.01,2.11,1.41,3.78,2.73,4.01,5.51,2.32-.67,3.98-.04,5.97,1.2-.09.48-.37.76-.61,1.1.43-.01.86.16,1.18.45-.75,2.37-1.54,4.31-4.03,5.32.1.14.21.28.31.43,1.57,2.36,1.39,4.23.57,6.66-.49.02-.82-.18-1.22-.34.11.42.04.87-.16,1.25-2.31-.17-4.27-.45-5.79-2.27-1.82,1.71-3.61,1.89-5.99,1.65-.13-.47,0-.84.06-1.26-.38.2-.84.23-1.26.12-.33-2.21-.49-4.12.79-5.94-2.38-.51-3.55-1.85-4.72-3.91.31-.38.68-.49,1.06-.68-.39-.19-.68-.55-.82-.95,1.81-1.75,3.45-3.1,6.2-2.75-.02-2.46,1.04-3.89,2.81-5.48Z"/>
        <path class="cls-17" d="M920.25,466.86c.2.1.29.26.41.41.05-.19.18-.36.35-.46.97.65,1.74,1.25,1.84,2.53,1.07-.31,1.83-.02,2.74.55-.04.22-.17.35-.28.51.2,0,.39.07.54.21-.35,1.09-.71,1.98-1.85,2.44.05.06.09.13.14.2.72,1.08.64,1.94.26,3.06-.23,0-.38-.08-.56-.16.05.19.02.4-.07.57-1.06-.08-1.96-.21-2.66-1.04-.84.79-1.66.87-2.75.76-.06-.22,0-.39.03-.58-.18.09-.39.11-.58.05-.15-1.02-.22-1.9.36-2.73-1.09-.23-1.63-.85-2.17-1.79.14-.17.31-.23.49-.31-.18-.09-.31-.25-.38-.44.83-.81,1.59-1.42,2.85-1.26,0-1.13.48-1.79,1.29-2.52Z"/>
        <ellipse class="cls-7" cx="920.64" cy="472.07" rx="1.16" ry="1.24" transform="translate(-106.47 347.71) rotate(-20.24)"/>
        <path class="cls-21" d="M842.36,572.53c.44.22.63.56.89.9.11-.42.39-.78.76-1.01,2.11,1.41,3.78,2.73,4.01,5.51,2.32-.67,3.98-.04,5.97,1.2-.09.48-.37.76-.61,1.1.43-.01.86.16,1.18.45-.75,2.37-1.54,4.31-4.03,5.32.1.14.21.28.31.43,1.57,2.36,1.39,4.23.57,6.66-.49.02-.82-.18-1.22-.34.11.42.04.87-.16,1.25-2.31-.17-4.27-.45-5.79-2.27-1.82,1.71-3.61,1.89-5.99,1.65-.13-.47,0-.84.06-1.26-.38.2-.84.23-1.26.12-.33-2.21-.49-4.12.79-5.94-2.38-.51-3.55-1.85-4.72-3.91.31-.38.68-.49,1.06-.68-.39-.19-.68-.55-.82-.95,1.81-1.75,3.45-3.1,6.2-2.75-.02-2.46,1.04-3.89,2.81-5.48Z"/>
        <path class="cls-17" d="M843.13,578.81c.2.1.29.26.41.41.05-.19.18-.36.35-.46.97.65,1.74,1.25,1.84,2.53,1.07-.31,1.83-.02,2.74.55-.04.22-.17.35-.28.51.2,0,.39.07.54.21-.35,1.09-.71,1.98-1.85,2.44.05.06.09.13.14.2.72,1.08.64,1.94.26,3.06-.23,0-.38-.08-.56-.16.05.19.02.4-.07.57-1.06-.08-1.96-.21-2.66-1.04-.84.79-1.66.87-2.75.76-.06-.22,0-.39.03-.58-.18.09-.39.11-.58.05-.15-1.02-.22-1.9.36-2.73-1.09-.23-1.63-.85-2.17-1.79.14-.17.31-.23.49-.31-.18-.09-.31-.25-.38-.44.83-.81,1.59-1.42,2.85-1.26,0-1.13.48-1.79,1.29-2.52Z"/>
        <ellipse class="cls-7" cx="843.52" cy="584.02" rx="1.16" ry="1.24" transform="translate(-149.97 327.94) rotate(-20.24)"/>
        <path class="cls-21" d="M843.36,545.53c.44.22.63.56.89.9.11-.42.39-.78.76-1.01,2.11,1.41,3.78,2.73,4.01,5.51,2.32-.67,3.98-.04,5.97,1.2-.09.48-.37.76-.61,1.1.43-.01.86.16,1.18.45-.75,2.37-1.54,4.31-4.03,5.32.1.14.21.28.31.43,1.57,2.36,1.39,4.23.57,6.66-.49.02-.82-.18-1.22-.34.11.42.04.87-.16,1.25-2.31-.17-4.27-.45-5.79-2.27-1.82,1.71-3.61,1.89-5.99,1.65-.13-.47,0-.84.06-1.26-.38.2-.84.23-1.26.12-.33-2.21-.49-4.12.79-5.94-2.38-.51-3.55-1.85-4.72-3.91.31-.38.68-.49,1.06-.68-.39-.19-.68-.55-.82-.95,1.81-1.75,3.45-3.1,6.2-2.75-.02-2.46,1.04-3.89,2.81-5.48Z"/>
        <path class="cls-17" d="M844.13,551.81c.2.1.29.26.41.41.05-.19.18-.36.35-.46.97.65,1.74,1.25,1.84,2.53,1.07-.31,1.83-.02,2.74.55-.04.22-.17.35-.28.51.2,0,.39.07.54.21-.35,1.09-.71,1.98-1.85,2.44.05.06.09.13.14.2.72,1.08.64,1.94.26,3.06-.23,0-.38-.08-.56-.16.05.19.02.4-.07.57-1.06-.08-1.96-.21-2.66-1.04-.84.79-1.66.87-2.75.76-.06-.22,0-.39.03-.58-.18.09-.39.11-.58.05-.15-1.02-.22-1.9.36-2.73-1.09-.23-1.63-.85-2.17-1.79.14-.17.31-.23.49-.31-.18-.09-.31-.25-.38-.44.83-.81,1.59-1.42,2.85-1.26,0-1.13.48-1.79,1.29-2.52Z"/>
        <ellipse class="cls-7" cx="844.52" cy="557.02" rx="1.16" ry="1.24" transform="translate(-140.57 326.61) rotate(-20.24)"/>
        <path class="cls-21" d="M850.36,560.53c.44.22.63.56.89.9.11-.42.39-.78.76-1.01,2.11,1.41,3.78,2.73,4.01,5.51,2.32-.67,3.98-.04,5.97,1.2-.09.48-.37.76-.61,1.1.43-.01.86.16,1.18.45-.75,2.37-1.54,4.31-4.03,5.32.1.14.21.28.31.43,1.57,2.36,1.39,4.23.57,6.66-.49.02-.82-.18-1.22-.34.11.42.04.87-.16,1.25-2.31-.17-4.27-.45-5.79-2.27-1.82,1.71-3.61,1.89-5.99,1.65-.13-.47,0-.84.06-1.26-.38.2-.84.23-1.26.12-.33-2.21-.49-4.12.79-5.94-2.38-.51-3.55-1.85-4.72-3.91.31-.38.68-.49,1.06-.68-.39-.19-.68-.55-.82-.95,1.81-1.75,3.45-3.1,6.2-2.75-.02-2.46,1.04-3.89,2.81-5.48Z"/>
        <path class="cls-17" d="M851.13,566.81c.2.1.29.26.41.41.05-.19.18-.36.35-.46.97.65,1.74,1.25,1.84,2.53,1.07-.31,1.83-.02,2.74.55-.04.22-.17.35-.28.51.2,0,.39.07.54.21-.35,1.09-.71,1.98-1.85,2.44.05.06.09.13.14.2.72,1.08.64,1.94.26,3.06-.23,0-.38-.08-.56-.16.05.19.02.4-.07.57-1.06-.08-1.96-.21-2.66-1.04-.84.79-1.66.87-2.75.76-.06-.22,0-.39.03-.58-.18.09-.39.11-.58.05-.15-1.02-.22-1.9.36-2.73-1.09-.23-1.63-.85-2.17-1.79.14-.17.31-.23.49-.31-.18-.09-.31-.25-.38-.44.83-.81,1.59-1.42,2.85-1.26,0-1.13.48-1.79,1.29-2.52Z"/>
        <ellipse class="cls-7" cx="851.52" cy="572.02" rx="1.16" ry="1.24" transform="translate(-145.32 329.96) rotate(-20.24)"/>
        <path class="cls-21" d="M888.36,541.53c.44.22.63.56.89.9.11-.42.39-.78.76-1.01,2.11,1.41,3.78,2.73,4.01,5.51,2.32-.67,3.98-.04,5.97,1.2-.09.48-.37.76-.61,1.1.43-.01.86.16,1.18.45-.75,2.37-1.54,4.31-4.03,5.32.1.14.21.28.31.43,1.57,2.36,1.39,4.23.57,6.66-.49.02-.82-.18-1.22-.34.11.42.04.87-.16,1.25-2.31-.17-4.27-.45-5.79-2.27-1.82,1.71-3.61,1.89-5.99,1.65-.13-.47,0-.84.06-1.26-.38.2-.84.23-1.26.12-.33-2.21-.49-4.12.79-5.94-2.38-.51-3.55-1.85-4.72-3.91.31-.38.68-.49,1.06-.68-.39-.19-.68-.55-.82-.95,1.81-1.75,3.45-3.1,6.2-2.75-.02-2.46,1.04-3.89,2.81-5.48Z"/>
        <path class="cls-17" d="M889.13,547.81c.2.1.29.26.41.41.05-.19.18-.36.35-.46.97.65,1.74,1.25,1.84,2.53,1.07-.31,1.83-.02,2.74.55-.04.22-.17.35-.28.51.2,0,.39.07.54.21-.35,1.09-.71,1.98-1.85,2.44.05.06.09.13.14.2.72,1.08.64,1.94.26,3.06-.23,0-.38-.08-.56-.16.05.19.02.4-.07.57-1.06-.08-1.96-.21-2.66-1.04-.84.79-1.66.87-2.75.76-.06-.22,0-.39.03-.58-.18.09-.39.11-.58.05-.15-1.02-.22-1.9.36-2.73-1.09-.23-1.63-.85-2.17-1.79.14-.17.31-.23.49-.31-.18-.09-.31-.25-.38-.44.83-.81,1.59-1.42,2.85-1.26,0-1.13.48-1.79,1.29-2.52Z"/>
        <ellipse class="cls-7" cx="889.52" cy="553.02" rx="1.16" ry="1.24" transform="translate(-136.4 341.94) rotate(-20.24)"/>
        <path class="cls-21" d="M899.36,469.53c.44.22.63.56.89.9.11-.42.39-.78.76-1.01,2.11,1.41,3.78,2.73,4.01,5.51,2.32-.67,3.98-.04,5.97,1.2-.09.48-.37.76-.61,1.1.43-.01.86.16,1.18.45-.75,2.37-1.54,4.31-4.03,5.32.1.14.21.28.31.43,1.57,2.36,1.39,4.23.57,6.66-.49.02-.82-.18-1.22-.34.11.42.04.87-.16,1.25-2.31-.17-4.27-.45-5.79-2.27-1.82,1.71-3.61,1.89-5.99,1.65-.13-.47,0-.84.06-1.26-.38.2-.84.23-1.26.12-.33-2.21-.49-4.12.79-5.94-2.38-.51-3.55-1.85-4.72-3.91.31-.38.68-.49,1.06-.68-.39-.19-.68-.55-.82-.95,1.81-1.75,3.45-3.1,6.2-2.75-.02-2.46,1.04-3.89,2.81-5.48Z"/>
        <path class="cls-17" d="M900.13,475.81c.2.1.29.26.41.41.05-.19.18-.36.35-.46.97.65,1.74,1.25,1.84,2.53,1.07-.31,1.83-.02,2.74.55-.04.22-.17.35-.28.51.2,0,.39.07.54.21-.35,1.09-.71,1.98-1.85,2.44.05.06.09.13.14.2.72,1.08.64,1.94.26,3.06-.23,0-.38-.08-.56-.16.05.19.02.4-.07.57-1.06-.08-1.96-.21-2.66-1.04-.84.79-1.66.87-2.75.76-.06-.22,0-.39.03-.58-.18.09-.39.11-.58.05-.15-1.02-.22-1.9.36-2.73-1.09-.23-1.63-.85-2.17-1.79.14-.17.31-.23.49-.31-.18-.09-.31-.25-.38-.44.83-.81,1.59-1.42,2.85-1.26,0-1.13.48-1.79,1.29-2.52Z"/>
        <ellipse class="cls-7" cx="900.52" cy="481.02" rx="1.16" ry="1.24" transform="translate(-110.81 341.3) rotate(-20.24)"/>
        <path class="cls-21" d="M952.55,489.72c-.19.45-.52.66-.83.95.43.08.8.34,1.06.68-1.25,2.2-2.46,3.96-5.22,4.38.83,2.27.32,3.97-.78,6.04-.49-.06-.78-.31-1.14-.54.04.43-.1.87-.36,1.21-2.42-.58-4.41-1.24-5.58-3.65-.13.11-.26.22-.41.34-2.24,1.73-4.12,1.68-6.6,1.03-.06-.49.12-.83.25-1.24-.41.14-.87.1-1.26-.07,0-2.32.15-4.29,1.86-5.93-1.83-1.7-2.14-3.47-2.07-5.86.46-.16.84-.06,1.26-.02-.23-.37-.29-.82-.21-1.24,2.18-.49,4.08-.77,5.98.37.34-2.41,1.6-3.67,3.57-4.98.4.28.54.65.75,1.01.17-.4.5-.71.89-.89,1.88,1.69,3.33,3.23,3.17,5.99,2.45-.19,3.95.77,5.66,2.42Z"/>
        <path class="cls-17" d="M946.33,490.93c-.09.21-.24.3-.38.44.2.04.37.15.49.31-.58,1.01-1.13,1.82-2.4,2.01.38,1.04.15,1.82-.36,2.78-.22-.03-.36-.14-.53-.25.02.2-.05.4-.17.55-1.11-.27-2.03-.57-2.57-1.68-.06.05-.12.1-.19.16-1.03.8-1.89.77-3.03.48-.03-.22.06-.38.12-.57-.19.07-.4.05-.58-.03,0-1.07.07-1.97.85-2.73-.84-.78-.98-1.59-.95-2.69.21-.07.38-.03.58-.01-.11-.17-.13-.38-.09-.57,1-.22,1.87-.36,2.75.17.16-1.11.73-1.69,1.64-2.29.18.13.25.3.35.47.08-.18.23-.33.41-.41.86.78,1.53,1.48,1.46,2.75,1.13-.09,1.82.35,2.6,1.11Z"/>
        <ellipse class="cls-7" cx="941.17" cy="491.68" rx="1.24" ry="1.16" transform="translate(-118.89 429.93) rotate(-24.25)"/>
        <path class="cls-21" d="M942.21,470.27c-.19.45-.52.66-.83.95.43.08.8.34,1.06.68-1.25,2.2-2.46,3.96-5.22,4.38.83,2.27.32,3.97-.78,6.04-.49-.06-.78-.31-1.14-.54.04.43-.1.87-.36,1.21-2.42-.58-4.41-1.24-5.58-3.65-.13.11-.26.22-.41.34-2.24,1.73-4.12,1.68-6.6,1.03-.06-.49.12-.83.25-1.24-.41.14-.87.1-1.26-.07,0-2.32.15-4.29,1.86-5.93-1.83-1.7-2.14-3.47-2.07-5.86.46-.16.84-.06,1.26-.02-.23-.37-.29-.82-.21-1.24,2.18-.49,4.08-.77,5.98.37.34-2.41,1.6-3.67,3.57-4.98.4.28.54.65.75,1.01.17-.4.5-.71.89-.89,1.88,1.69,3.33,3.23,3.17,5.99,2.45-.19,3.95.77,5.66,2.42Z"/>
        <path class="cls-17" d="M936,471.48c-.09.21-.24.3-.38.44.2.04.37.15.49.31-.58,1.01-1.13,1.82-2.4,2.01.38,1.04.15,1.82-.36,2.78-.22-.03-.36-.14-.53-.25.02.2-.05.4-.17.55-1.11-.27-2.03-.57-2.57-1.68-.06.05-.12.1-.19.16-1.03.8-1.89.77-3.03.48-.03-.22.06-.38.12-.57-.19.07-.4.05-.58-.03,0-1.07.07-1.97.85-2.73-.84-.78-.98-1.59-.95-2.69.21-.07.38-.03.58-.01-.11-.17-.13-.38-.09-.57,1-.22,1.87-.36,2.75.17.16-1.11.73-1.69,1.64-2.29.18.13.25.3.35.47.08-.18.23-.33.41-.41.86.78,1.53,1.48,1.46,2.75,1.13-.09,1.82.35,2.6,1.11Z"/>
        <ellipse class="cls-7" cx="930.84" cy="472.23" rx="1.24" ry="1.16" transform="translate(-111.82 423.97) rotate(-24.25)"/>
        <path class="cls-21" d="M916.47,456.83c-.19.45-.52.66-.83.95.43.08.8.34,1.06.68-1.25,2.2-2.46,3.96-5.22,4.38.83,2.27.32,3.97-.78,6.04-.49-.06-.78-.31-1.14-.54.04.43-.1.87-.36,1.21-2.42-.58-4.41-1.24-5.58-3.65-.13.11-.26.22-.41.34-2.24,1.73-4.12,1.68-6.6,1.03-.06-.49.12-.83.25-1.24-.41.14-.87.1-1.26-.07,0-2.32.15-4.29,1.86-5.93-1.83-1.7-2.14-3.47-2.07-5.86.46-.16.84-.06,1.26-.02-.23-.37-.29-.82-.21-1.24,2.18-.49,4.08-.77,5.98.37.34-2.41,1.6-3.67,3.57-4.98.4.28.54.65.75,1.01.17-.4.5-.71.89-.89,1.88,1.69,3.33,3.23,3.17,5.99,2.45-.19,3.95.77,5.66,2.42Z"/>
        <path class="cls-17" d="M910.25,458.04c-.09.21-.24.3-.38.44.2.04.37.15.49.31-.58,1.01-1.13,1.82-2.4,2.01.38,1.04.15,1.82-.36,2.78-.22-.03-.36-.14-.53-.25.02.2-.05.4-.17.55-1.11-.27-2.03-.57-2.57-1.68-.06.05-.12.1-.19.16-1.03.8-1.89.77-3.03.48-.03-.22.06-.38.12-.57-.19.07-.4.05-.58-.03,0-1.07.07-1.97.85-2.73-.84-.78-.98-1.59-.95-2.69.21-.07.38-.03.58-.01-.11-.17-.13-.38-.09-.57,1-.22,1.87-.36,2.75.17.16-1.11.73-1.69,1.64-2.29.18.13.25.3.35.47.08-.18.23-.33.41-.41.86.78,1.53,1.48,1.46,2.75,1.13-.09,1.82.35,2.6,1.11Z"/>
        <ellipse class="cls-7" cx="905.09" cy="458.79" rx="1.24" ry="1.16" transform="translate(-108.57 412.21) rotate(-24.25)"/>
        <path class="cls-21" d="M906.13,437.38c-.19.45-.52.66-.83.95.43.08.8.34,1.06.68-1.25,2.2-2.46,3.96-5.22,4.38.83,2.27.32,3.97-.78,6.04-.49-.06-.78-.31-1.14-.54.04.43-.1.87-.36,1.21-2.42-.58-4.41-1.24-5.58-3.65-.13.11-.26.22-.41.34-2.24,1.73-4.12,1.68-6.6,1.03-.06-.49.12-.83.25-1.24-.41.14-.87.1-1.26-.07,0-2.32.15-4.29,1.86-5.93-1.83-1.7-2.14-3.47-2.07-5.86.46-.16.84-.06,1.26-.02-.23-.37-.29-.82-.21-1.24,2.18-.49,4.08-.77,5.98.37.34-2.41,1.6-3.67,3.57-4.98.4.28.54.65.75,1.01.17-.4.5-.71.89-.89,1.88,1.69,3.33,3.23,3.17,5.99,2.45-.19,3.95.77,5.66,2.42Z"/>
        <path class="cls-17" d="M899.92,438.59c-.09.21-.24.3-.38.44.2.04.37.15.49.31-.58,1.01-1.13,1.82-2.4,2.01.38,1.04.15,1.82-.36,2.78-.22-.03-.36-.14-.53-.25.02.2-.05.4-.17.55-1.11-.27-2.03-.57-2.57-1.68-.06.05-.12.1-.19.16-1.03.8-1.89.77-3.03.48-.03-.22.06-.38.12-.57-.19.07-.4.05-.58-.03,0-1.07.07-1.97.85-2.73-.84-.78-.98-1.59-.95-2.69.21-.07.38-.03.58-.01-.11-.17-.13-.38-.09-.57,1-.22,1.87-.36,2.75.17.16-1.11.73-1.69,1.64-2.29.18.13.25.3.35.47.08-.18.23-.33.41-.41.86.78,1.53,1.48,1.46,2.75,1.13-.09,1.82.35,2.6,1.11Z"/>
        <ellipse class="cls-7" cx="894.75" cy="439.34" rx="1.24" ry="1.16" transform="translate(-101.49 406.25) rotate(-24.25)"/>
        <path class="cls-21" d="M964.98,461.27c.44.22.63.56.89.9.11-.42.39-.78.76-1.01,2.11,1.41,3.78,2.73,4.01,5.51,2.32-.67,3.98-.04,5.97,1.2-.09.48-.37.76-.61,1.1.43-.01.86.16,1.18.45-.75,2.37-1.54,4.31-4.03,5.32.1.14.21.28.31.43,1.57,2.36,1.39,4.23.57,6.66-.49.02-.82-.18-1.22-.34.11.42.04.87-.16,1.25-2.31-.17-4.27-.45-5.79-2.27-1.82,1.71-3.61,1.89-5.99,1.65-.13-.47,0-.84.06-1.26-.38.2-.84.23-1.26.12-.33-2.21-.49-4.12.79-5.94-2.38-.51-3.55-1.85-4.72-3.91.31-.38.68-.49,1.06-.68-.39-.19-.68-.55-.82-.95,1.81-1.75,3.45-3.1,6.2-2.75-.02-2.46,1.04-3.89,2.81-5.48Z"/>
        <path class="cls-17" d="M965.75,467.55c.2.1.29.26.41.41.05-.19.18-.36.35-.46.97.65,1.74,1.25,1.84,2.53,1.07-.31,1.83-.02,2.74.55-.04.22-.17.35-.28.51.2,0,.39.07.54.21-.35,1.09-.71,1.98-1.85,2.44.05.06.09.13.14.2.72,1.08.64,1.94.26,3.06-.23,0-.38-.08-.56-.16.05.19.02.4-.07.57-1.06-.08-1.96-.21-2.66-1.04-.84.79-1.66.87-2.75.76-.06-.22,0-.39.03-.58-.18.09-.39.11-.58.05-.15-1.02-.22-1.9.36-2.73-1.09-.23-1.63-.85-2.17-1.79.14-.17.31-.23.49-.31-.18-.09-.31-.25-.38-.44.83-.81,1.59-1.42,2.85-1.26,0-1.13.48-1.79,1.29-2.52Z"/>
        <path class="cls-21" d="M957.98,443.27c.44.22.63.56.89.9.11-.42.39-.78.76-1.01,2.11,1.41,3.78,2.73,4.01,5.51,2.32-.67,3.98-.04,5.97,1.2-.09.48-.37.76-.61,1.1.43-.01.86.16,1.18.45-.75,2.37-1.54,4.31-4.03,5.32.1.14.21.28.31.43,1.57,2.36,1.39,4.23.57,6.66-.49.02-.82-.18-1.22-.34.11.42.04.87-.16,1.25-2.31-.17-4.27-.45-5.79-2.27-1.82,1.71-3.61,1.89-5.99,1.65-.13-.47,0-.84.06-1.26-.38.2-.84.23-1.26.12-.33-2.21-.49-4.12.79-5.94-2.38-.51-3.55-1.85-4.72-3.91.31-.38.68-.49,1.06-.68-.39-.19-.68-.55-.82-.95,1.81-1.75,3.45-3.1,6.2-2.75-.02-2.46,1.04-3.89,2.81-5.48Z"/>
        <path class="cls-17" d="M958.75,449.55c.2.1.29.26.41.41.05-.19.18-.36.35-.46.97.65,1.74,1.25,1.84,2.53,1.07-.31,1.83-.02,2.74.55-.04.22-.17.35-.28.51.2,0,.39.07.54.21-.35,1.09-.71,1.98-1.85,2.44.05.06.09.13.14.2.72,1.08.64,1.94.26,3.06-.23,0-.38-.08-.56-.16.05.19.02.4-.07.57-1.06-.08-1.96-.21-2.66-1.04-.84.79-1.66.87-2.75.76-.06-.22,0-.39.03-.58-.18.09-.39.11-.58.05-.15-1.02-.22-1.9.36-2.73-1.09-.23-1.63-.85-2.17-1.79.14-.17.31-.23.49-.31-.18-.09-.31-.25-.38-.44.83-.81,1.59-1.42,2.85-1.26,0-1.13.48-1.79,1.29-2.52Z"/>
        <ellipse class="cls-7" cx="959.14" cy="454.75" rx="1.16" ry="1.24" transform="translate(-98.1 359.96) rotate(-20.24)"/>
        <path class="cls-21" d="M779.01,338.47c.44.22.63.56.89.9.11-.42.39-.78.76-1.01,2.11,1.41,3.78,2.73,4.01,5.51,2.32-.67,3.98-.04,5.97,1.2-.09.48-.37.76-.61,1.1.43-.01.86.16,1.18.45-.75,2.37-1.54,4.31-4.03,5.32.1.14.21.28.31.43,1.57,2.36,1.39,4.23.57,6.66-.49.02-.82-.18-1.22-.34.11.42.04.87-.16,1.25-2.31-.17-4.27-.45-5.79-2.27-1.82,1.71-3.61,1.89-5.99,1.65-.13-.47,0-.84.06-1.26-.38.2-.84.23-1.26.12-.33-2.21-.49-4.12.79-5.94-2.38-.51-3.55-1.85-4.72-3.91.31-.38.68-.49,1.06-.68-.39-.19-.68-.55-.82-.95,1.81-1.75,3.45-3.1,6.2-2.75-.02-2.46,1.04-3.89,2.81-5.48Z"/>
        <path class="cls-17" d="M779.78,344.75c.2.1.29.26.41.41.05-.19.18-.36.35-.46.97.65,1.74,1.25,1.84,2.53,1.07-.31,1.83-.02,2.74.55-.04.22-.17.35-.28.51.2,0,.39.07.54.21-.35,1.09-.71,1.98-1.85,2.44.05.06.09.13.14.2.72,1.08.64,1.94.26,3.06-.23,0-.38-.08-.56-.16.05.19.02.4-.07.57-1.06-.08-1.96-.21-2.66-1.04-.84.79-1.66.87-2.75.76-.06-.22,0-.39.03-.58-.18.09-.39.11-.58.05-.15-1.02-.22-1.9.36-2.73-1.09-.23-1.63-.85-2.17-1.79.14-.17.31-.23.49-.31-.18-.09-.31-.25-.38-.44.83-.81,1.59-1.42,2.85-1.26,0-1.13.48-1.79,1.29-2.52Z"/>
        <ellipse class="cls-7" cx="780.17" cy="349.95" rx="1.16" ry="1.24" transform="translate(-72.9 291.56) rotate(-20.24)"/>
        <path class="cls-21" d="M772.01,320.47c.44.22.63.56.89.9.11-.42.39-.78.76-1.01,2.11,1.41,3.78,2.73,4.01,5.51,2.32-.67,3.98-.04,5.97,1.2-.09.48-.37.76-.61,1.1.43-.01.86.16,1.18.45-.75,2.37-1.54,4.31-4.03,5.32.1.14.21.28.31.43,1.57,2.36,1.39,4.23.57,6.66-.49.02-.82-.18-1.22-.34.11.42.04.87-.16,1.25-2.31-.17-4.27-.45-5.79-2.27-1.82,1.71-3.61,1.89-5.99,1.65-.13-.47,0-.84.06-1.26-.38.2-.84.23-1.26.12-.33-2.21-.49-4.12.79-5.94-2.38-.51-3.55-1.85-4.72-3.91.31-.38.68-.49,1.06-.68-.39-.19-.68-.55-.82-.95,1.81-1.75,3.45-3.1,6.2-2.75-.02-2.46,1.04-3.89,2.81-5.48Z"/>
        <path class="cls-17" d="M772.78,326.75c.2.1.29.26.41.41.05-.19.18-.36.35-.46.97.65,1.74,1.25,1.84,2.53,1.07-.31,1.83-.02,2.74.55-.04.22-.17.35-.28.51.2,0,.39.07.54.21-.35,1.09-.71,1.98-1.85,2.44.05.06.09.13.14.2.72,1.08.64,1.94.26,3.06-.23,0-.38-.08-.56-.16.05.19.02.4-.07.57-1.06-.08-1.96-.21-2.66-1.04-.84.79-1.66.87-2.75.76-.06-.22,0-.39.03-.58-.18.09-.39.11-.58.05-.15-1.02-.22-1.9.36-2.73-1.09-.23-1.63-.85-2.17-1.79.14-.17.31-.23.49-.31-.18-.09-.31-.25-.38-.44.83-.81,1.59-1.42,2.85-1.26,0-1.13.48-1.79,1.29-2.52Z"/>
        <ellipse class="cls-7" cx="773.17" cy="331.95" rx="1.16" ry="1.24" transform="translate(-67.1 288.02) rotate(-20.24)"/>
        <path class="cls-21" d="M792.01,330.47c.44.22.63.56.89.9.11-.42.39-.78.76-1.01,2.11,1.41,3.78,2.73,4.01,5.51,2.32-.67,3.98-.04,5.97,1.2-.09.48-.37.76-.61,1.1.43-.01.86.16,1.18.45-.75,2.37-1.54,4.31-4.03,5.32.1.14.21.28.31.43,1.57,2.36,1.39,4.23.57,6.66-.49.02-.82-.18-1.22-.34.11.42.04.87-.16,1.25-2.31-.17-4.27-.45-5.79-2.27-1.82,1.71-3.61,1.89-5.99,1.65-.13-.47,0-.84.06-1.26-.38.2-.84.23-1.26.12-.33-2.21-.49-4.12.79-5.94-2.38-.51-3.55-1.85-4.72-3.91.31-.38.68-.49,1.06-.68-.39-.19-.68-.55-.82-.95,1.81-1.75,3.45-3.1,6.2-2.75-.02-2.46,1.04-3.89,2.81-5.48Z"/>
        <path class="cls-17" d="M792.78,336.75c.2.1.29.26.41.41.05-.19.18-.36.35-.46.97.65,1.74,1.25,1.84,2.53,1.07-.31,1.83-.02,2.74.55-.04.22-.17.35-.28.51.2,0,.39.07.54.21-.35,1.09-.71,1.98-1.85,2.44.05.06.09.13.14.2.72,1.08.64,1.94.26,3.06-.23,0-.38-.08-.56-.16.05.19.02.4-.07.57-1.06-.08-1.96-.21-2.66-1.04-.84.79-1.66.87-2.75.76-.06-.22,0-.39.03-.58-.18.09-.39.11-.58.05-.15-1.02-.22-1.9.36-2.73-1.09-.23-1.63-.85-2.17-1.79.14-.17.31-.23.49-.31-.18-.09-.31-.25-.38-.44.83-.81,1.59-1.42,2.85-1.26,0-1.13.48-1.79,1.29-2.52Z"/>
        <ellipse class="cls-7" cx="793.17" cy="341.95" rx="1.16" ry="1.24" transform="translate(-69.33 295.56) rotate(-20.24)"/>
        <path class="cls-21" d="M851.96,256.09c.44.22.63.56.89.9.11-.42.39-.78.76-1.01,2.11,1.41,3.78,2.73,4.01,5.51,2.32-.67,3.98-.04,5.97,1.2-.09.48-.37.76-.61,1.1.43-.01.86.16,1.18.45-.75,2.37-1.54,4.31-4.03,5.32.1.14.21.28.31.43,1.57,2.36,1.39,4.23.57,6.66-.49.02-.82-.18-1.22-.34.11.42.04.87-.16,1.25-2.31-.17-4.27-.45-5.79-2.27-1.82,1.71-3.61,1.89-5.99,1.65-.13-.47,0-.84.06-1.26-.38.2-.84.23-1.26.12-.33-2.21-.49-4.12.79-5.94-2.38-.51-3.55-1.85-4.72-3.91.31-.38.68-.49,1.06-.68-.39-.19-.68-.55-.82-.95,1.81-1.75,3.45-3.1,6.2-2.75-.02-2.46,1.04-3.89,2.81-5.48Z"/>
        <path class="cls-17" d="M852.73,262.38c.2.1.29.26.41.41.05-.19.18-.36.35-.46.97.65,1.74,1.25,1.84,2.53,1.07-.31,1.83-.02,2.74.55-.04.22-.17.35-.28.51.2,0,.39.07.54.21-.35,1.09-.71,1.98-1.85,2.44.05.06.09.13.14.2.72,1.08.64,1.94.26,3.06-.23,0-.38-.08-.56-.16.05.19.02.4-.07.57-1.06-.08-1.96-.21-2.66-1.04-.84.79-1.66.87-2.75.76-.06-.22,0-.39.03-.58-.18.09-.39.11-.58.05-.15-1.02-.22-1.9.36-2.73-1.09-.23-1.63-.85-2.17-1.79.14-.17.31-.23.49-.31-.18-.09-.31-.25-.38-.44.83-.81,1.59-1.42,2.85-1.26,0-1.13.48-1.79,1.29-2.52Z"/>
        <ellipse class="cls-7" cx="853.11" cy="267.58" rx="1.16" ry="1.24" transform="translate(-39.89 311.71) rotate(-20.24)"/>
        <path class="cls-21" d="M844.96,238.09c.44.22.63.56.89.9.11-.42.39-.78.76-1.01,2.11,1.41,3.78,2.73,4.01,5.51,2.32-.67,3.98-.04,5.97,1.2-.09.48-.37.76-.61,1.1.43-.01.86.16,1.18.45-.75,2.37-1.54,4.31-4.03,5.32.1.14.21.28.31.43,1.57,2.36,1.39,4.23.57,6.66-.49.02-.82-.18-1.22-.34.11.42.04.87-.16,1.25-2.31-.17-4.27-.45-5.79-2.27-1.82,1.71-3.61,1.89-5.99,1.65-.13-.47,0-.84.06-1.26-.38.2-.84.23-1.26.12-.33-2.21-.49-4.12.79-5.94-2.38-.51-3.55-1.85-4.72-3.91.31-.38.68-.49,1.06-.68-.39-.19-.68-.55-.82-.95,1.81-1.75,3.45-3.1,6.2-2.75-.02-2.46,1.04-3.89,2.81-5.48Z"/>
        <path class="cls-17" d="M845.73,244.38c.2.1.29.26.41.41.05-.19.18-.36.35-.46.97.65,1.74,1.25,1.84,2.53,1.07-.31,1.83-.02,2.74.55-.04.22-.17.35-.28.51.2,0,.39.07.54.21-.35,1.09-.71,1.98-1.85,2.44.05.06.09.13.14.2.72,1.08.64,1.94.26,3.06-.23,0-.38-.08-.56-.16.05.19.02.4-.07.57-1.06-.08-1.96-.21-2.66-1.04-.84.79-1.66.87-2.75.76-.06-.22,0-.39.03-.58-.18.09-.39.11-.58.05-.15-1.02-.22-1.9.36-2.73-1.09-.23-1.63-.85-2.17-1.79.14-.17.31-.23.49-.31-.18-.09-.31-.25-.38-.44.83-.81,1.59-1.42,2.85-1.26,0-1.13.48-1.79,1.29-2.52Z"/>
        <ellipse class="cls-7" cx="846.11" cy="249.58" rx="1.16" ry="1.24" transform="translate(-34.09 308.18) rotate(-20.24)"/>
        <path class="cls-21" d="M864.96,248.09c.44.22.63.56.89.9.11-.42.39-.78.76-1.01,2.11,1.41,3.78,2.73,4.01,5.51,2.32-.67,3.98-.04,5.97,1.2-.09.48-.37.76-.61,1.1.43-.01.86.16,1.18.45-.75,2.37-1.54,4.31-4.03,5.32.1.14.21.28.31.43,1.57,2.36,1.39,4.23.57,6.66-.49.02-.82-.18-1.22-.34.11.42.04.87-.16,1.25-2.31-.17-4.27-.45-5.79-2.27-1.82,1.71-3.61,1.89-5.99,1.65-.13-.47,0-.84.06-1.26-.38.2-.84.23-1.26.12-.33-2.21-.49-4.12.79-5.94-2.38-.51-3.55-1.85-4.72-3.91.31-.38.68-.49,1.06-.68-.39-.19-.68-.55-.82-.95,1.81-1.75,3.45-3.1,6.2-2.75-.02-2.46,1.04-3.89,2.81-5.48Z"/>
        <path class="cls-17" d="M865.73,254.38c.2.1.29.26.41.41.05-.19.18-.36.35-.46.97.65,1.74,1.25,1.84,2.53,1.07-.31,1.83-.02,2.74.55-.04.22-.17.35-.28.51.2,0,.39.07.54.21-.35,1.09-.71,1.98-1.85,2.44.05.06.09.13.14.2.72,1.08.64,1.94.26,3.06-.23,0-.38-.08-.56-.16.05.19.02.4-.07.57-1.06-.08-1.96-.21-2.66-1.04-.84.79-1.66.87-2.75.76-.06-.22,0-.39.03-.58-.18.09-.39.11-.58.05-.15-1.02-.22-1.9.36-2.73-1.09-.23-1.63-.85-2.17-1.79.14-.17.31-.23.49-.31-.18-.09-.31-.25-.38-.44.83-.81,1.59-1.42,2.85-1.26,0-1.13.48-1.79,1.29-2.52Z"/>
        <ellipse class="cls-7" cx="866.11" cy="259.58" rx="1.16" ry="1.24" transform="translate(-36.32 315.72) rotate(-20.24)"/>
        <path class="cls-21" d="M880.94,233.52c.44.22.63.56.89.9.11-.42.39-.78.76-1.01,2.11,1.41,3.78,2.73,4.01,5.51,2.32-.67,3.98-.04,5.97,1.2-.09.48-.37.76-.61,1.1.43-.01.86.16,1.18.45-.75,2.37-1.54,4.31-4.03,5.32.1.14.21.28.31.43,1.57,2.36,1.39,4.23.57,6.66-.49.02-.82-.18-1.22-.34.11.42.04.87-.16,1.25-2.31-.17-4.27-.45-5.79-2.27-1.82,1.71-3.61,1.89-5.99,1.65-.13-.47,0-.84.06-1.26-.38.2-.84.23-1.26.12-.33-2.21-.49-4.12.79-5.94-2.38-.51-3.55-1.85-4.72-3.91.31-.38.68-.49,1.06-.68-.39-.19-.68-.55-.82-.95,1.81-1.75,3.45-3.1,6.2-2.75-.02-2.46,1.04-3.89,2.81-5.48Z"/>
        <path class="cls-17" d="M881.71,239.8c.2.1.29.26.41.41.05-.19.18-.36.35-.46.97.65,1.74,1.25,1.84,2.53,1.07-.31,1.83-.02,2.74.55-.04.22-.17.35-.28.51.2,0,.39.07.54.21-.35,1.09-.71,1.98-1.85,2.44.05.06.09.13.14.2.72,1.08.64,1.94.26,3.06-.23,0-.38-.08-.56-.16.05.19.02.4-.07.57-1.06-.08-1.96-.21-2.66-1.04-.84.79-1.66.87-2.75.76-.06-.22,0-.39.03-.58-.18.09-.39.11-.58.05-.15-1.02-.22-1.9.36-2.73-1.09-.23-1.63-.85-2.17-1.79.14-.17.31-.23.49-.31-.18-.09-.31-.25-.38-.44.83-.81,1.59-1.42,2.85-1.26,0-1.13.48-1.79,1.29-2.52Z"/>
        <ellipse class="cls-7" cx="882.09" cy="245" rx="1.16" ry="1.24" transform="translate(-30.29 320.34) rotate(-20.24)"/>
        <path class="cls-21" d="M873.94,215.52c.44.22.63.56.89.9.11-.42.39-.78.76-1.01,2.11,1.41,3.78,2.73,4.01,5.51,2.32-.67,3.98-.04,5.97,1.2-.09.48-.37.76-.61,1.1.43-.01.86.16,1.18.45-.75,2.37-1.54,4.31-4.03,5.32.1.14.21.28.31.43,1.57,2.36,1.39,4.23.57,6.66-.49.02-.82-.18-1.22-.34.11.42.04.87-.16,1.25-2.31-.17-4.27-.45-5.79-2.27-1.82,1.71-3.61,1.89-5.99,1.65-.13-.47,0-.84.06-1.26-.38.2-.84.23-1.26.12-.33-2.21-.49-4.12.79-5.94-2.38-.51-3.55-1.85-4.72-3.91.31-.38.68-.49,1.06-.68-.39-.19-.68-.55-.82-.95,1.81-1.75,3.45-3.1,6.2-2.75-.02-2.46,1.04-3.89,2.81-5.48Z"/>
        <path class="cls-17" d="M874.71,221.8c.2.1.29.26.41.41.05-.19.18-.36.35-.46.97.65,1.74,1.25,1.84,2.53,1.07-.31,1.83-.02,2.74.55-.04.22-.17.35-.28.51.2,0,.39.07.54.21-.35,1.09-.71,1.98-1.85,2.44.05.06.09.13.14.2.72,1.08.64,1.94.26,3.06-.23,0-.38-.08-.56-.16.05.19.02.4-.07.57-1.06-.08-1.96-.21-2.66-1.04-.84.79-1.66.87-2.75.76-.06-.22,0-.39.03-.58-.18.09-.39.11-.58.05-.15-1.02-.22-1.9.36-2.73-1.09-.23-1.63-.85-2.17-1.79.14-.17.31-.23.49-.31-.18-.09-.31-.25-.38-.44.83-.81,1.59-1.42,2.85-1.26,0-1.13.48-1.79,1.29-2.52Z"/>
        <ellipse class="cls-7" cx="875.09" cy="227" rx="1.16" ry="1.24" transform="translate(-24.49 316.81) rotate(-20.24)"/>
        <path class="cls-21" d="M893.94,225.52c.44.22.63.56.89.9.11-.42.39-.78.76-1.01,2.11,1.41,3.78,2.73,4.01,5.51,2.32-.67,3.98-.04,5.97,1.2-.09.48-.37.76-.61,1.1.43-.01.86.16,1.18.45-.75,2.37-1.54,4.31-4.03,5.32.1.14.21.28.31.43,1.57,2.36,1.39,4.23.57,6.66-.49.02-.82-.18-1.22-.34.11.42.04.87-.16,1.25-2.31-.17-4.27-.45-5.79-2.27-1.82,1.71-3.61,1.89-5.99,1.65-.13-.47,0-.84.06-1.26-.38.2-.84.23-1.26.12-.33-2.21-.49-4.12.79-5.94-2.38-.51-3.55-1.85-4.72-3.91.31-.38.68-.49,1.06-.68-.39-.19-.68-.55-.82-.95,1.81-1.75,3.45-3.1,6.2-2.75-.02-2.46,1.04-3.89,2.81-5.48Z"/>
        <path class="cls-17" d="M894.71,231.8c.2.1.29.26.41.41.05-.19.18-.36.35-.46.97.65,1.74,1.25,1.84,2.53,1.07-.31,1.83-.02,2.74.55-.04.22-.17.35-.28.51.2,0,.39.07.54.21-.35,1.09-.71,1.98-1.85,2.44.05.06.09.13.14.2.72,1.08.64,1.94.26,3.06-.23,0-.38-.08-.56-.16.05.19.02.4-.07.57-1.06-.08-1.96-.21-2.66-1.04-.84.79-1.66.87-2.75.76-.06-.22,0-.39.03-.58-.18.09-.39.11-.58.05-.15-1.02-.22-1.9.36-2.73-1.09-.23-1.63-.85-2.17-1.79.14-.17.31-.23.49-.31-.18-.09-.31-.25-.38-.44.83-.81,1.59-1.42,2.85-1.26,0-1.13.48-1.79,1.29-2.52Z"/>
        <ellipse class="cls-7" cx="895.09" cy="237" rx="1.16" ry="1.24" transform="translate(-26.72 324.35) rotate(-20.24)"/>
        <path class="cls-21" d="M872.94,256.52c.44.22.63.56.89.9.11-.42.39-.78.76-1.01,2.11,1.41,3.78,2.73,4.01,5.51,2.32-.67,3.98-.04,5.97,1.2-.09.48-.37.76-.61,1.1.43-.01.86.16,1.18.45-.75,2.37-1.54,4.31-4.03,5.32.1.14.21.28.31.43,1.57,2.36,1.39,4.23.57,6.66-.49.02-.82-.18-1.22-.34.11.42.04.87-.16,1.25-2.31-.17-4.27-.45-5.79-2.27-1.82,1.71-3.61,1.89-5.99,1.65-.13-.47,0-.84.06-1.26-.38.2-.84.23-1.26.12-.33-2.21-.49-4.12.79-5.94-2.38-.51-3.55-1.85-4.72-3.91.31-.38.68-.49,1.06-.68-.39-.19-.68-.55-.82-.95,1.81-1.75,3.45-3.1,6.2-2.75-.02-2.46,1.04-3.89,2.81-5.48Z"/>
        <path class="cls-17" d="M873.71,262.8c.2.1.29.26.41.41.05-.19.18-.36.35-.46.97.65,1.74,1.25,1.84,2.53,1.07-.31,1.83-.02,2.74.55-.04.22-.17.35-.28.51.2,0,.39.07.54.21-.35,1.09-.71,1.98-1.85,2.44.05.06.09.13.14.2.72,1.08.64,1.94.26,3.06-.23,0-.38-.08-.56-.16.05.19.02.4-.07.57-1.06-.08-1.96-.21-2.66-1.04-.84.79-1.66.87-2.75.76-.06-.22,0-.39.03-.58-.18.09-.39.11-.58.05-.15-1.02-.22-1.9.36-2.73-1.09-.23-1.63-.85-2.17-1.79.14-.17.31-.23.49-.31-.18-.09-.31-.25-.38-.44.83-.81,1.59-1.42,2.85-1.26,0-1.13.48-1.79,1.29-2.52Z"/>
        <ellipse class="cls-7" cx="874.09" cy="268" rx="1.16" ry="1.24" transform="translate(-38.74 319) rotate(-20.24)"/>
        <path class="cls-20" d="M885.94,248.52c.44.22.63.56.89.9.11-.42.39-.78.76-1.01,2.11,1.41,3.78,2.73,4.01,5.51,2.32-.67,3.98-.04,5.97,1.2-.09.48-.37.76-.61,1.1.43-.01.86.16,1.18.45-.75,2.37-1.54,4.31-4.03,5.32.1.14.21.28.31.43,1.57,2.36,1.39,4.23.57,6.66-.49.02-.82-.18-1.22-.34.11.42.04.87-.16,1.25-2.31-.17-4.27-.45-5.79-2.27-1.82,1.71-3.61,1.89-5.99,1.65-.13-.47,0-.84.06-1.26-.38.2-.84.23-1.26.12-.33-2.21-.49-4.12.79-5.94-2.38-.51-3.55-1.85-4.72-3.91.31-.38.68-.49,1.06-.68-.39-.19-.68-.55-.82-.95,1.81-1.75,3.45-3.1,6.2-2.75-.02-2.46,1.04-3.89,2.81-5.48Z"/>
        <path class="cls-17" d="M886.71,254.8c.2.1.29.26.41.41.05-.19.18-.36.35-.46.97.65,1.74,1.25,1.84,2.53,1.07-.31,1.83-.02,2.74.55-.04.22-.17.35-.28.51.2,0,.39.07.54.21-.35,1.09-.71,1.98-1.85,2.44.05.06.09.13.14.2.72,1.08.64,1.94.26,3.06-.23,0-.38-.08-.56-.16.05.19.02.4-.07.57-1.06-.08-1.96-.21-2.66-1.04-.84.79-1.66.87-2.75.76-.06-.22,0-.39.03-.58-.18.09-.39.11-.58.05-.15-1.02-.22-1.9.36-2.73-1.09-.23-1.63-.85-2.17-1.79.14-.17.31-.23.49-.31-.18-.09-.31-.25-.38-.44.83-.81,1.59-1.42,2.85-1.26,0-1.13.48-1.79,1.29-2.52Z"/>
        <ellipse class="cls-7" cx="887.09" cy="260" rx="1.16" ry="1.24" transform="translate(-35.17 323) rotate(-20.24)"/>
        <path class="cls-21" d="M742.94,321.52c.44.22.63.56.89.9.11-.42.39-.78.76-1.01,2.11,1.41,3.78,2.73,4.01,5.51,2.32-.67,3.98-.04,5.97,1.2-.09.48-.37.76-.61,1.1.43-.01.86.16,1.18.45-.75,2.37-1.54,4.31-4.03,5.32.1.14.21.28.31.43,1.57,2.36,1.39,4.23.57,6.66-.49.02-.82-.18-1.22-.34.11.42.04.87-.16,1.25-2.31-.17-4.27-.45-5.79-2.27-1.82,1.71-3.61,1.89-5.99,1.65-.13-.47,0-.84.06-1.26-.38.2-.84.23-1.26.12-.33-2.21-.49-4.12.79-5.94-2.38-.51-3.55-1.85-4.72-3.91.31-.38.68-.49,1.06-.68-.39-.19-.68-.55-.82-.95,1.81-1.75,3.45-3.1,6.2-2.75-.02-2.46,1.04-3.89,2.81-5.48Z"/>
        <path class="cls-17" d="M743.71,327.8c.2.1.29.26.41.41.05-.19.18-.36.35-.46.97.65,1.74,1.25,1.84,2.53,1.07-.31,1.83-.02,2.74.55-.04.22-.17.35-.28.51.2,0,.39.07.54.21-.35,1.09-.71,1.98-1.85,2.44.05.06.09.13.14.2.72,1.08.64,1.94.26,3.06-.23,0-.38-.08-.56-.16.05.19.02.4-.07.57-1.06-.08-1.96-.21-2.66-1.04-.84.79-1.66.87-2.75.76-.06-.22,0-.39.03-.58-.18.09-.39.11-.58.05-.15-1.02-.22-1.9.36-2.73-1.09-.23-1.63-.85-2.17-1.79.14-.17.31-.23.49-.31-.18-.09-.31-.25-.38-.44.83-.81,1.59-1.42,2.85-1.26,0-1.13.48-1.79,1.29-2.52Z"/>
        <ellipse class="cls-7" cx="744.09" cy="333" rx="1.16" ry="1.24" transform="translate(-69.26 278.03) rotate(-20.24)"/>
        <path class="cls-21" d="M745.94,287.52c.44.22.63.56.89.9.11-.42.39-.78.76-1.01,2.11,1.41,3.78,2.73,4.01,5.51,2.32-.67,3.98-.04,5.97,1.2-.09.48-.37.76-.61,1.1.43-.01.86.16,1.18.45-.75,2.37-1.54,4.31-4.03,5.32.1.14.21.28.31.43,1.57,2.36,1.39,4.23.57,6.66-.49.02-.82-.18-1.22-.34.11.42.04.87-.16,1.25-2.31-.17-4.27-.45-5.79-2.27-1.82,1.71-3.61,1.89-5.99,1.65-.13-.47,0-.84.06-1.26-.38.2-.84.23-1.26.12-.33-2.21-.49-4.12.79-5.94-2.38-.51-3.55-1.85-4.72-3.91.31-.38.68-.49,1.06-.68-.39-.19-.68-.55-.82-.95,1.81-1.75,3.45-3.1,6.2-2.75-.02-2.46,1.04-3.89,2.81-5.48Z"/>
        <path class="cls-17" d="M746.71,293.8c.2.1.29.26.41.41.05-.19.18-.36.35-.46.97.65,1.74,1.25,1.84,2.53,1.07-.31,1.83-.02,2.74.55-.04.22-.17.35-.28.51.2,0,.39.07.54.21-.35,1.09-.71,1.98-1.85,2.44.05.06.09.13.14.2.72,1.08.64,1.94.26,3.06-.23,0-.38-.08-.56-.16.05.19.02.4-.07.57-1.06-.08-1.96-.21-2.66-1.04-.84.79-1.66.87-2.75.76-.06-.22,0-.39.03-.58-.18.09-.39.11-.58.05-.15-1.02-.22-1.9.36-2.73-1.09-.23-1.63-.85-2.17-1.79.14-.17.31-.23.49-.31-.18-.09-.31-.25-.38-.44.83-.81,1.59-1.42,2.85-1.26,0-1.13.48-1.79,1.29-2.52Z"/>
        <ellipse class="cls-7" cx="747.09" cy="299" rx="1.16" ry="1.24" transform="translate(-57.31 276.97) rotate(-20.24)"/>
        <path class="cls-21" d="M766.94,298.52c.44.22.63.56.89.9.11-.42.39-.78.76-1.01,2.11,1.41,3.78,2.73,4.01,5.51,2.32-.67,3.98-.04,5.97,1.2-.09.48-.37.76-.61,1.1.43-.01.86.16,1.18.45-.75,2.37-1.54,4.31-4.03,5.32.1.14.21.28.31.43,1.57,2.36,1.39,4.23.57,6.66-.49.02-.82-.18-1.22-.34.11.42.04.87-.16,1.25-2.31-.17-4.27-.45-5.79-2.27-1.82,1.71-3.61,1.89-5.99,1.65-.13-.47,0-.84.06-1.26-.38.2-.84.23-1.26.12-.33-2.21-.49-4.12.79-5.94-2.38-.51-3.55-1.85-4.72-3.91.31-.38.68-.49,1.06-.68-.39-.19-.68-.55-.82-.95,1.81-1.75,3.45-3.1,6.2-2.75-.02-2.46,1.04-3.89,2.81-5.48Z"/>
        <path class="cls-17" d="M767.71,304.8c.2.1.29.26.41.41.05-.19.18-.36.35-.46.97.65,1.74,1.25,1.84,2.53,1.07-.31,1.83-.02,2.74.55-.04.22-.17.35-.28.51.2,0,.39.07.54.21-.35,1.09-.71,1.98-1.85,2.44.05.06.09.13.14.2.72,1.08.64,1.94.26,3.06-.23,0-.38-.08-.56-.16.05.19.02.4-.07.57-1.06-.08-1.96-.21-2.66-1.04-.84.79-1.66.87-2.75.76-.06-.22,0-.39.03-.58-.18.09-.39.11-.58.05-.15-1.02-.22-1.9.36-2.73-1.09-.23-1.63-.85-2.17-1.79.14-.17.31-.23.49-.31-.18-.09-.31-.25-.38-.44.83-.81,1.59-1.42,2.85-1.26,0-1.13.48-1.79,1.29-2.52Z"/>
        <ellipse class="cls-7" cx="768.09" cy="310" rx="1.16" ry="1.24" transform="translate(-59.82 284.91) rotate(-20.24)"/>
        <path class="cls-21" d="M802.94,276.52c.44.22.63.56.89.9.11-.42.39-.78.76-1.01,2.11,1.41,3.78,2.73,4.01,5.51,2.32-.67,3.98-.04,5.97,1.2-.09.48-.37.76-.61,1.1.43-.01.86.16,1.18.45-.75,2.37-1.54,4.31-4.03,5.32.1.14.21.28.31.43,1.57,2.36,1.39,4.23.57,6.66-.49.02-.82-.18-1.22-.34.11.42.04.87-.16,1.25-2.31-.17-4.27-.45-5.79-2.27-1.82,1.71-3.61,1.89-5.99,1.65-.13-.47,0-.84.06-1.26-.38.2-.84.23-1.26.12-.33-2.21-.49-4.12.79-5.94-2.38-.51-3.55-1.85-4.72-3.91.31-.38.68-.49,1.06-.68-.39-.19-.68-.55-.82-.95,1.81-1.75,3.45-3.1,6.2-2.75-.02-2.46,1.04-3.89,2.81-5.48Z"/>
        <path class="cls-17" d="M803.71,282.8c.2.1.29.26.41.41.05-.19.18-.36.35-.46.97.65,1.74,1.25,1.84,2.53,1.07-.31,1.83-.02,2.74.55-.04.22-.17.35-.28.51.2,0,.39.07.54.21-.35,1.09-.71,1.98-1.85,2.44.05.06.09.13.14.2.72,1.08.64,1.94.26,3.06-.23,0-.38-.08-.56-.16.05.19.02.4-.07.57-1.06-.08-1.96-.21-2.66-1.04-.84.79-1.66.87-2.75.76-.06-.22,0-.39.03-.58-.18.09-.39.11-.58.05-.15-1.02-.22-1.9.36-2.73-1.09-.23-1.63-.85-2.17-1.79.14-.17.31-.23.49-.31-.18-.09-.31-.25-.38-.44.83-.81,1.59-1.42,2.85-1.26,0-1.13.48-1.79,1.29-2.52Z"/>
        <ellipse class="cls-7" cx="804.09" cy="288" rx="1.16" ry="1.24" transform="translate(-49.98 296.01) rotate(-20.24)"/>
        <path class="cls-21" d="M819.94,444.52c.44.22.63.56.89.9.11-.42.39-.78.76-1.01,2.11,1.41,3.78,2.73,4.01,5.51,2.32-.67,3.98-.04,5.97,1.2-.09.48-.37.76-.61,1.1.43-.01.86.16,1.18.45-.75,2.37-1.54,4.31-4.03,5.32.1.14.21.28.31.43,1.57,2.36,1.39,4.23.57,6.66-.49.02-.82-.18-1.22-.34.11.42.04.87-.16,1.25-2.31-.17-4.27-.45-5.79-2.27-1.82,1.71-3.61,1.89-5.99,1.65-.13-.47,0-.84.06-1.26-.38.2-.84.23-1.26.12-.33-2.21-.49-4.12.79-5.94-2.38-.51-3.55-1.85-4.72-3.91.31-.38.68-.49,1.06-.68-.39-.19-.68-.55-.82-.95,1.81-1.75,3.45-3.1,6.2-2.75-.02-2.46,1.04-3.89,2.81-5.48Z"/>
        <path class="cls-17" d="M820.71,450.8c.2.1.29.26.41.41.05-.19.18-.36.35-.46.97.65,1.74,1.25,1.84,2.53,1.07-.31,1.83-.02,2.74.55-.04.22-.17.35-.28.51.2,0,.39.07.54.21-.35,1.09-.71,1.98-1.85,2.44.05.06.09.13.14.2.72,1.08.64,1.94.26,3.06-.23,0-.38-.08-.56-.16.05.19.02.4-.07.57-1.06-.08-1.96-.21-2.66-1.04-.84.79-1.66.87-2.75.76-.06-.22,0-.39.03-.58-.18.09-.39.11-.58.05-.15-1.02-.22-1.9.36-2.73-1.09-.23-1.63-.85-2.17-1.79.14-.17.31-.23.49-.31-.18-.09-.31-.25-.38-.44.83-.81,1.59-1.42,2.85-1.26,0-1.13.48-1.79,1.29-2.52Z"/>
        <ellipse class="cls-7" cx="821.09" cy="456" rx="1.16" ry="1.24" transform="translate(-107.06 312.27) rotate(-20.24)"/>
        <path class="cls-21" d="M856.94,445.52c.44.22.63.56.89.9.11-.42.39-.78.76-1.01,2.11,1.41,3.78,2.73,4.01,5.51,2.32-.67,3.98-.04,5.97,1.2-.09.48-.37.76-.61,1.1.43-.01.86.16,1.18.45-.75,2.37-1.54,4.31-4.03,5.32.1.14.21.28.31.43,1.57,2.36,1.39,4.23.57,6.66-.49.02-.82-.18-1.22-.34.11.42.04.87-.16,1.25-2.31-.17-4.27-.45-5.79-2.27-1.82,1.71-3.61,1.89-5.99,1.65-.13-.47,0-.84.06-1.26-.38.2-.84.23-1.26.12-.33-2.21-.49-4.12.79-5.94-2.38-.51-3.55-1.85-4.72-3.91.31-.38.68-.49,1.06-.68-.39-.19-.68-.55-.82-.95,1.81-1.75,3.45-3.1,6.2-2.75-.02-2.46,1.04-3.89,2.81-5.48Z"/>
        <path class="cls-17" d="M857.71,451.8c.2.1.29.26.41.41.05-.19.18-.36.35-.46.97.65,1.74,1.25,1.84,2.53,1.07-.31,1.83-.02,2.74.55-.04.22-.17.35-.28.51.2,0,.39.07.54.21-.35,1.09-.71,1.98-1.85,2.44.05.06.09.13.14.2.72,1.08.64,1.94.26,3.06-.23,0-.38-.08-.56-.16.05.19.02.4-.07.57-1.06-.08-1.96-.21-2.66-1.04-.84.79-1.66.87-2.75.76-.06-.22,0-.39.03-.58-.18.09-.39.11-.58.05-.15-1.02-.22-1.9.36-2.73-1.09-.23-1.63-.85-2.17-1.79.14-.17.31-.23.49-.31-.18-.09-.31-.25-.38-.44.83-.81,1.59-1.42,2.85-1.26,0-1.13.48-1.79,1.29-2.52Z"/>
        <ellipse class="cls-7" cx="858.09" cy="457" rx="1.16" ry="1.24" transform="translate(-105.12 325.13) rotate(-20.24)"/>
        <path class="cls-20" d="M860.05,230.56c.44.22.63.56.89.9.11-.42.39-.78.76-1.01,2.11,1.41,3.78,2.73,4.01,5.51,2.32-.67,3.98-.04,5.97,1.2-.09.48-.37.76-.61,1.1.43-.01.86.16,1.18.45-.75,2.37-1.54,4.31-4.03,5.32.1.14.21.28.31.43,1.57,2.36,1.39,4.23.57,6.66-.49.02-.82-.18-1.22-.34.11.42.04.87-.16,1.25-2.31-.17-4.27-.45-5.79-2.27-1.82,1.71-3.61,1.89-5.99,1.65-.13-.47,0-.84.06-1.26-.38.2-.84.23-1.26.12-.33-2.21-.49-4.12.79-5.94-2.38-.51-3.55-1.85-4.72-3.91.31-.38.68-.49,1.06-.68-.39-.19-.68-.55-.82-.95,1.81-1.75,3.45-3.1,6.2-2.75-.02-2.46,1.04-3.89,2.81-5.48Z"/>
        <path class="cls-17" d="M860.82,236.84c.2.1.29.26.41.41.05-.19.18-.36.35-.46.97.65,1.74,1.25,1.84,2.53,1.07-.31,1.83-.02,2.74.55-.04.22-.17.35-.28.51.2,0,.39.07.54.21-.35,1.09-.71,1.98-1.85,2.44.05.06.09.13.14.2.72,1.08.64,1.94.26,3.06-.23,0-.38-.08-.56-.16.05.19.02.4-.07.57-1.06-.08-1.96-.21-2.66-1.04-.84.79-1.66.87-2.75.76-.06-.22,0-.39.03-.58-.18.09-.39.11-.58.05-.15-1.02-.22-1.9.36-2.73-1.09-.23-1.63-.85-2.17-1.79.14-.17.31-.23.49-.31-.18-.09-.31-.25-.38-.44.83-.81,1.59-1.42,2.85-1.26,0-1.13.48-1.79,1.29-2.52Z"/>
        <ellipse class="cls-7" cx="861.21" cy="242.04" rx="1.16" ry="1.24" transform="translate(-30.55 312.94) rotate(-20.24)"/>
        <path class="cls-20" d="M778.05,310.56c.44.22.63.56.89.9.11-.42.39-.78.76-1.01,2.11,1.41,3.78,2.73,4.01,5.51,2.32-.67,3.98-.04,5.97,1.2-.09.48-.37.76-.61,1.1.43-.01.86.16,1.18.45-.75,2.37-1.54,4.31-4.03,5.32.1.14.21.28.31.43,1.57,2.36,1.39,4.23.57,6.66-.49.02-.82-.18-1.22-.34.11.42.04.87-.16,1.25-2.31-.17-4.27-.45-5.79-2.27-1.82,1.71-3.61,1.89-5.99,1.65-.13-.47,0-.84.06-1.26-.38.2-.84.23-1.26.12-.33-2.21-.49-4.12.79-5.94-2.38-.51-3.55-1.85-4.72-3.91.31-.38.68-.49,1.06-.68-.39-.19-.68-.55-.82-.95,1.81-1.75,3.45-3.1,6.2-2.75-.02-2.46,1.04-3.89,2.81-5.48Z"/>
        <path class="cls-17" d="M778.82,316.84c.2.1.29.26.41.41.05-.19.18-.36.35-.46.97.65,1.74,1.25,1.84,2.53,1.07-.31,1.83-.02,2.74.55-.04.22-.17.35-.28.51.2,0,.39.07.54.21-.35,1.09-.71,1.98-1.85,2.44.05.06.09.13.14.2.72,1.08.64,1.94.26,3.06-.23,0-.38-.08-.56-.16.05.19.02.4-.07.57-1.06-.08-1.96-.21-2.66-1.04-.84.79-1.66.87-2.75.76-.06-.22,0-.39.03-.58-.18.09-.39.11-.58.05-.15-1.02-.22-1.9.36-2.73-1.09-.23-1.63-.85-2.17-1.79.14-.17.31-.23.49-.31-.18-.09-.31-.25-.38-.44.83-.81,1.59-1.42,2.85-1.26,0-1.13.48-1.79,1.29-2.52Z"/>
        <ellipse class="cls-7" cx="779.21" cy="322.04" rx="1.16" ry="1.24" transform="translate(-63.3 289.5) rotate(-20.24)"/>
        <path class="cls-20" d="M753.05,320.56c.44.22.63.56.89.9.11-.42.39-.78.76-1.01,2.11,1.41,3.78,2.73,4.01,5.51,2.32-.67,3.98-.04,5.97,1.2-.09.48-.37.76-.61,1.1.43-.01.86.16,1.18.45-.75,2.37-1.54,4.31-4.03,5.32.1.14.21.28.31.43,1.57,2.36,1.39,4.23.57,6.66-.49.02-.82-.18-1.22-.34.11.42.04.87-.16,1.25-2.31-.17-4.27-.45-5.79-2.27-1.82,1.71-3.61,1.89-5.99,1.65-.13-.47,0-.84.06-1.26-.38.2-.84.23-1.26.12-.33-2.21-.49-4.12.79-5.94-2.38-.51-3.55-1.85-4.72-3.91.31-.38.68-.49,1.06-.68-.39-.19-.68-.55-.82-.95,1.81-1.75,3.45-3.1,6.2-2.75-.02-2.46,1.04-3.89,2.81-5.48Z"/>
        <path class="cls-17" d="M753.82,326.84c.2.1.29.26.41.41.05-.19.18-.36.35-.46.97.65,1.74,1.25,1.84,2.53,1.07-.31,1.83-.02,2.74.55-.04.22-.17.35-.28.51.2,0,.39.07.54.21-.35,1.09-.71,1.98-1.85,2.44.05.06.09.13.14.2.72,1.08.64,1.94.26,3.06-.23,0-.38-.08-.56-.16.05.19.02.4-.07.57-1.06-.08-1.96-.21-2.66-1.04-.84.79-1.66.87-2.75.76-.06-.22,0-.39.03-.58-.18.09-.39.11-.58.05-.15-1.02-.22-1.9.36-2.73-1.09-.23-1.63-.85-2.17-1.79.14-.17.31-.23.49-.31-.18-.09-.31-.25-.38-.44.83-.81,1.59-1.42,2.85-1.26,0-1.13.48-1.79,1.29-2.52Z"/>
        <ellipse class="cls-7" cx="754.21" cy="332.04" rx="1.16" ry="1.24" transform="translate(-68.3 281.47) rotate(-20.24)"/>
        <path class="cls-20" d="M789.05,338.56c.44.22.63.56.89.9.11-.42.39-.78.76-1.01,2.11,1.41,3.78,2.73,4.01,5.51,2.32-.67,3.98-.04,5.97,1.2-.09.48-.37.76-.61,1.1.43-.01.86.16,1.18.45-.75,2.37-1.54,4.31-4.03,5.32.1.14.21.28.31.43,1.57,2.36,1.39,4.23.57,6.66-.49.02-.82-.18-1.22-.34.11.42.04.87-.16,1.25-2.31-.17-4.27-.45-5.79-2.27-1.82,1.71-3.61,1.89-5.99,1.65-.13-.47,0-.84.06-1.26-.38.2-.84.23-1.26.12-.33-2.21-.49-4.12.79-5.94-2.38-.51-3.55-1.85-4.72-3.91.31-.38.68-.49,1.06-.68-.39-.19-.68-.55-.82-.95,1.81-1.75,3.45-3.1,6.2-2.75-.02-2.46,1.04-3.89,2.81-5.48Z"/>
        <path class="cls-17" d="M789.82,344.84c.2.1.29.26.41.41.05-.19.18-.36.35-.46.97.65,1.74,1.25,1.84,2.53,1.07-.31,1.83-.02,2.74.55-.04.22-.17.35-.28.51.2,0,.39.07.54.21-.35,1.09-.71,1.98-1.85,2.44.05.06.09.13.14.2.72,1.08.64,1.94.26,3.06-.23,0-.38-.08-.56-.16.05.19.02.4-.07.57-1.06-.08-1.96-.21-2.66-1.04-.84.79-1.66.87-2.75.76-.06-.22,0-.39.03-.58-.18.09-.39.11-.58.05-.15-1.02-.22-1.9.36-2.73-1.09-.23-1.63-.85-2.17-1.79.14-.17.31-.23.49-.31-.18-.09-.31-.25-.38-.44.83-.81,1.59-1.42,2.85-1.26,0-1.13.48-1.79,1.29-2.52Z"/>
        <ellipse class="cls-7" cx="790.21" cy="350.04" rx="1.16" ry="1.24" transform="translate(-72.31 295.04) rotate(-20.24)"/>
        <path class="cls-20" d="M907.05,427.56c.44.22.63.56.89.9.11-.42.39-.78.76-1.01,2.11,1.41,3.78,2.73,4.01,5.51,2.32-.67,3.98-.04,5.97,1.2-.09.48-.37.76-.61,1.1.43-.01.86.16,1.18.45-.75,2.37-1.54,4.31-4.03,5.32.1.14.21.28.31.43,1.57,2.36,1.39,4.23.57,6.66-.49.02-.82-.18-1.22-.34.11.42.04.87-.16,1.25-2.31-.17-4.27-.45-5.79-2.27-1.82,1.71-3.61,1.89-5.99,1.65-.13-.47,0-.84.06-1.26-.38.2-.84.23-1.26.12-.33-2.21-.49-4.12.79-5.94-2.38-.51-3.55-1.85-4.72-3.91.31-.38.68-.49,1.06-.68-.39-.19-.68-.55-.82-.95,1.81-1.75,3.45-3.1,6.2-2.75-.02-2.46,1.04-3.89,2.81-5.48Z"/>
        <path class="cls-17" d="M907.82,433.84c.2.1.29.26.41.41.05-.19.18-.36.35-.46.97.65,1.74,1.25,1.84,2.53,1.07-.31,1.83-.02,2.74.55-.04.22-.17.35-.28.51.2,0,.39.07.54.21-.35,1.09-.71,1.98-1.85,2.44.05.06.09.13.14.2.72,1.08.64,1.94.26,3.06-.23,0-.38-.08-.56-.16.05.19.02.4-.07.57-1.06-.08-1.96-.21-2.66-1.04-.84.79-1.66.87-2.75.76-.06-.22,0-.39.03-.58-.18.09-.39.11-.58.05-.15-1.02-.22-1.9.36-2.73-1.09-.23-1.63-.85-2.17-1.79.14-.17.31-.23.49-.31-.18-.09-.31-.25-.38-.44.83-.81,1.59-1.42,2.85-1.26,0-1.13.48-1.79,1.29-2.52Z"/>
        <ellipse class="cls-7" cx="908.21" cy="439.04" rx="1.16" ry="1.24" transform="translate(-95.81 341.37) rotate(-20.24)"/>
        <path class="cls-20" d="M909.7,463.96c.44.22.63.56.89.9.11-.42.39-.78.76-1.01,2.11,1.41,3.78,2.73,4.01,5.51,2.32-.67,3.98-.04,5.97,1.2-.09.48-.37.76-.61,1.1.43-.01.86.16,1.18.45-.75,2.37-1.54,4.31-4.03,5.32.1.14.21.28.31.43,1.57,2.36,1.39,4.23.57,6.66-.49.02-.82-.18-1.22-.34.11.42.04.87-.16,1.25-2.31-.17-4.27-.45-5.79-2.27-1.82,1.71-3.61,1.89-5.99,1.65-.13-.47,0-.84.06-1.26-.38.2-.84.23-1.26.12-.33-2.21-.49-4.12.79-5.94-2.38-.51-3.55-1.85-4.72-3.91.31-.38.68-.49,1.06-.68-.39-.19-.68-.55-.82-.95,1.81-1.75,3.45-3.1,6.2-2.75-.02-2.46,1.04-3.89,2.81-5.48Z"/>
        <path class="cls-17" d="M910.47,470.24c.2.1.29.26.41.41.05-.19.18-.36.35-.46.97.65,1.74,1.25,1.84,2.53,1.07-.31,1.83-.02,2.74.55-.04.22-.17.35-.28.51.2,0,.39.07.54.21-.35,1.09-.71,1.98-1.85,2.44.05.06.09.13.14.2.72,1.08.64,1.94.26,3.06-.23,0-.38-.08-.56-.16.05.19.02.4-.07.57-1.06-.08-1.96-.21-2.66-1.04-.84.79-1.66.87-2.75.76-.06-.22,0-.39.03-.58-.18.09-.39.11-.58.05-.15-1.02-.22-1.9.36-2.73-1.09-.23-1.63-.85-2.17-1.79.14-.17.31-.23.49-.31-.18-.09-.31-.25-.38-.44.83-.81,1.59-1.42,2.85-1.26,0-1.13.48-1.79,1.29-2.52Z"/>
        <ellipse class="cls-7" cx="910.86" cy="475.44" rx="1.16" ry="1.24" transform="translate(-108.24 344.53) rotate(-20.24)"/>
        <path class="cls-20" d="M828.7,453.96c.44.22.63.56.89.9.11-.42.39-.78.76-1.01,2.11,1.41,3.78,2.73,4.01,5.51,2.32-.67,3.98-.04,5.97,1.2-.09.48-.37.76-.61,1.1.43-.01.86.16,1.18.45-.75,2.37-1.54,4.31-4.03,5.32.1.14.21.28.31.43,1.57,2.36,1.39,4.23.57,6.66-.49.02-.82-.18-1.22-.34.11.42.04.87-.16,1.25-2.31-.17-4.27-.45-5.79-2.27-1.82,1.71-3.61,1.89-5.99,1.65-.13-.47,0-.84.06-1.26-.38.2-.84.23-1.26.12-.33-2.21-.49-4.12.79-5.94-2.38-.51-3.55-1.85-4.72-3.91.31-.38.68-.49,1.06-.68-.39-.19-.68-.55-.82-.95,1.81-1.75,3.45-3.1,6.2-2.75-.02-2.46,1.04-3.89,2.81-5.48Z"/>
        <path class="cls-17" d="M829.47,460.24c.2.1.29.26.41.41.05-.19.18-.36.35-.46.97.65,1.74,1.25,1.84,2.53,1.07-.31,1.83-.02,2.74.55-.04.22-.17.35-.28.51.2,0,.39.07.54.21-.35,1.09-.71,1.98-1.85,2.44.05.06.09.13.14.2.72,1.08.64,1.94.26,3.06-.23,0-.38-.08-.56-.16.05.19.02.4-.07.57-1.06-.08-1.96-.21-2.66-1.04-.84.79-1.66.87-2.75.76-.06-.22,0-.39.03-.58-.18.09-.39.11-.58.05-.15-1.02-.22-1.9.36-2.73-1.09-.23-1.63-.85-2.17-1.79.14-.17.31-.23.49-.31-.18-.09-.31-.25-.38-.44.83-.81,1.59-1.42,2.85-1.26,0-1.13.48-1.79,1.29-2.52Z"/>
        <ellipse class="cls-7" cx="829.86" cy="465.44" rx="1.16" ry="1.24" transform="translate(-109.79 315.89) rotate(-20.24)"/>
        <path class="cls-20" d="M971.99,447.92c.44.22.63.56.89.9.11-.42.39-.78.76-1.01,2.11,1.41,3.78,2.73,4.01,5.51,2.32-.67,3.98-.04,5.97,1.2-.09.48-.37.76-.61,1.1.43-.01.86.16,1.18.45-.75,2.37-1.54,4.31-4.03,5.32.1.14.21.28.31.43,1.57,2.36,1.39,4.23.57,6.66-.49.02-.82-.18-1.22-.34.11.42.04.87-.16,1.25-2.31-.17-4.27-.45-5.79-2.27-1.82,1.71-3.61,1.89-5.99,1.65-.13-.47,0-.84.06-1.26-.38.2-.84.23-1.26.12-.33-2.21-.49-4.12.79-5.94-2.38-.51-3.55-1.85-4.72-3.91.31-.38.68-.49,1.06-.68-.39-.19-.68-.55-.82-.95,1.81-1.75,3.45-3.1,6.2-2.75-.02-2.46,1.04-3.89,2.81-5.48Z"/>
        <path class="cls-20" d="M946.99,483.92c.44.22.63.56.89.9.11-.42.39-.78.76-1.01,2.11,1.41,3.78,2.73,4.01,5.51,2.32-.67,3.98-.04,5.97,1.2-.09.48-.37.76-.61,1.1.43-.01.86.16,1.18.45-.75,2.37-1.54,4.31-4.03,5.32.1.14.21.28.31.43,1.57,2.36,1.39,4.23.57,6.66-.49.02-.82-.18-1.22-.34.11.42.04.87-.16,1.25-2.31-.17-4.27-.45-5.79-2.27-1.82,1.71-3.61,1.89-5.99,1.65-.13-.47,0-.84.06-1.26-.38.2-.84.23-1.26.12-.33-2.21-.49-4.12.79-5.94-2.38-.51-3.55-1.85-4.72-3.91.31-.38.68-.49,1.06-.68-.39-.19-.68-.55-.82-.95,1.81-1.75,3.45-3.1,6.2-2.75-.02-2.46,1.04-3.89,2.81-5.48Z"/>
        <path class="cls-17" d="M947.76,490.2c.2.1.29.26.41.41.05-.19.18-.36.35-.46.97.65,1.74,1.25,1.84,2.53,1.07-.31,1.83-.02,2.74.55-.04.22-.17.35-.28.51.2,0,.39.07.54.21-.35,1.09-.71,1.98-1.85,2.44.05.06.09.13.14.2.72,1.08.64,1.94.26,3.06-.23,0-.38-.08-.56-.16.05.19.02.4-.07.57-1.06-.08-1.96-.21-2.66-1.04-.84.79-1.66.87-2.75.76-.06-.22,0-.39.03-.58-.18.09-.39.11-.58.05-.15-1.02-.22-1.9.36-2.73-1.09-.23-1.63-.85-2.17-1.79.14-.17.31-.23.49-.31-.18-.09-.31-.25-.38-.44.83-.81,1.59-1.42,2.85-1.26,0-1.13.48-1.79,1.29-2.52Z"/>
        <ellipse class="cls-7" cx="948.14" cy="495.4" rx="1.16" ry="1.24" transform="translate(-112.85 358.66) rotate(-20.24)"/>
        <path class="cls-20" d="M826.99,551.92c.44.22.63.56.89.9.11-.42.39-.78.76-1.01,2.11,1.41,3.78,2.73,4.01,5.51,2.32-.67,3.98-.04,5.97,1.2-.09.48-.37.76-.61,1.1.43-.01.86.16,1.18.45-.75,2.37-1.54,4.31-4.03,5.32.1.14.21.28.31.43,1.57,2.36,1.39,4.23.57,6.66-.49.02-.82-.18-1.22-.34.11.42.04.87-.16,1.25-2.31-.17-4.27-.45-5.79-2.27-1.82,1.71-3.61,1.89-5.99,1.65-.13-.47,0-.84.06-1.26-.38.2-.84.23-1.26.12-.33-2.21-.49-4.12.79-5.94-2.38-.51-3.55-1.85-4.72-3.91.31-.38.68-.49,1.06-.68-.39-.19-.68-.55-.82-.95,1.81-1.75,3.45-3.1,6.2-2.75-.02-2.46,1.04-3.89,2.81-5.48Z"/>
        <path class="cls-17" d="M827.76,558.2c.2.1.29.26.41.41.05-.19.18-.36.35-.46.97.65,1.74,1.25,1.84,2.53,1.07-.31,1.83-.02,2.74.55-.04.22-.17.35-.28.51.2,0,.39.07.54.21-.35,1.09-.71,1.98-1.85,2.44.05.06.09.13.14.2.72,1.08.64,1.94.26,3.06-.23,0-.38-.08-.56-.16.05.19.02.4-.07.57-1.06-.08-1.96-.21-2.66-1.04-.84.79-1.66.87-2.75.76-.06-.22,0-.39.03-.58-.18.09-.39.11-.58.05-.15-1.02-.22-1.9.36-2.73-1.09-.23-1.63-.85-2.17-1.79.14-.17.31-.23.49-.31-.18-.09-.31-.25-.38-.44.83-.81,1.59-1.42,2.85-1.26,0-1.13.48-1.79,1.29-2.52Z"/>
        <ellipse class="cls-7" cx="828.14" cy="563.4" rx="1.16" ry="1.24" transform="translate(-143.79 321.34) rotate(-20.24)"/>
        <path class="cls-20" d="M909.99,476.92c.44.22.63.56.89.9.11-.42.39-.78.76-1.01,2.11,1.41,3.78,2.73,4.01,5.51,2.32-.67,3.98-.04,5.97,1.2-.09.48-.37.76-.61,1.1.43-.01.86.16,1.18.45-.75,2.37-1.54,4.31-4.03,5.32.1.14.21.28.31.43,1.57,2.36,1.39,4.23.57,6.66-.49.02-.82-.18-1.22-.34.11.42.04.87-.16,1.25-2.31-.17-4.27-.45-5.79-2.27-1.82,1.71-3.61,1.89-5.99,1.65-.13-.47,0-.84.06-1.26-.38.2-.84.23-1.26.12-.33-2.21-.49-4.12.79-5.94-2.38-.51-3.55-1.85-4.72-3.91.31-.38.68-.49,1.06-.68-.39-.19-.68-.55-.82-.95,1.81-1.75,3.45-3.1,6.2-2.75-.02-2.46,1.04-3.89,2.81-5.48Z"/>
        <path class="cls-17" d="M910.76,483.2c.2.1.29.26.41.41.05-.19.18-.36.35-.46.97.65,1.74,1.25,1.84,2.53,1.07-.31,1.83-.02,2.74.55-.04.22-.17.35-.28.51.2,0,.39.07.54.21-.35,1.09-.71,1.98-1.85,2.44.05.06.09.13.14.2.72,1.08.64,1.94.26,3.06-.23,0-.38-.08-.56-.16.05.19.02.4-.07.57-1.06-.08-1.96-.21-2.66-1.04-.84.79-1.66.87-2.75.76-.06-.22,0-.39.03-.58-.18.09-.39.11-.58.05-.15-1.02-.22-1.9.36-2.73-1.09-.23-1.63-.85-2.17-1.79.14-.17.31-.23.49-.31-.18-.09-.31-.25-.38-.44.83-.81,1.59-1.42,2.85-1.26,0-1.13.48-1.79,1.29-2.52Z"/>
        <ellipse class="cls-7" cx="911.14" cy="488.4" rx="1.16" ry="1.24" transform="translate(-112.71 345.43) rotate(-20.24)"/>
        <path class="cls-20" d="M870.99,560.92c.44.22.63.56.89.9.11-.42.39-.78.76-1.01,2.11,1.41,3.78,2.73,4.01,5.51,2.32-.67,3.98-.04,5.97,1.2-.09.48-.37.76-.61,1.1.43-.01.86.16,1.18.45-.75,2.37-1.54,4.31-4.03,5.32.1.14.21.28.31.43,1.57,2.36,1.39,4.23.57,6.66-.49.02-.82-.18-1.22-.34.11.42.04.87-.16,1.25-2.31-.17-4.27-.45-5.79-2.27-1.82,1.71-3.61,1.89-5.99,1.65-.13-.47,0-.84.06-1.26-.38.2-.84.23-1.26.12-.33-2.21-.49-4.12.79-5.94-2.38-.51-3.55-1.85-4.72-3.91.31-.38.68-.49,1.06-.68-.39-.19-.68-.55-.82-.95,1.81-1.75,3.45-3.1,6.2-2.75-.02-2.46,1.04-3.89,2.81-5.48Z"/>
        <path class="cls-17" d="M871.76,567.2c.2.1.29.26.41.41.05-.19.18-.36.35-.46.97.65,1.74,1.25,1.84,2.53,1.07-.31,1.83-.02,2.74.55-.04.22-.17.35-.28.51.2,0,.39.07.54.21-.35,1.09-.71,1.98-1.85,2.44.05.06.09.13.14.2.72,1.08.64,1.94.26,3.06-.23,0-.38-.08-.56-.16.05.19.02.4-.07.57-1.06-.08-1.96-.21-2.66-1.04-.84.79-1.66.87-2.75.76-.06-.22,0-.39.03-.58-.18.09-.39.11-.58.05-.15-1.02-.22-1.9.36-2.73-1.09-.23-1.63-.85-2.17-1.79.14-.17.31-.23.49-.31-.18-.09-.31-.25-.38-.44.83-.81,1.59-1.42,2.85-1.26,0-1.13.48-1.79,1.29-2.52Z"/>
        <ellipse class="cls-7" cx="872.14" cy="572.4" rx="1.16" ry="1.24" transform="translate(-144.18 337.12) rotate(-20.24)"/>
        <path class="cls-20" d="M858.99,536.92c.44.22.63.56.89.9.11-.42.39-.78.76-1.01,2.11,1.41,3.78,2.73,4.01,5.51,2.32-.67,3.98-.04,5.97,1.2-.09.48-.37.76-.61,1.1.43-.01.86.16,1.18.45-.75,2.37-1.54,4.31-4.03,5.32.1.14.21.28.31.43,1.57,2.36,1.39,4.23.57,6.66-.49.02-.82-.18-1.22-.34.11.42.04.87-.16,1.25-2.31-.17-4.27-.45-5.79-2.27-1.82,1.71-3.61,1.89-5.99,1.65-.13-.47,0-.84.06-1.26-.38.2-.84.23-1.26.12-.33-2.21-.49-4.12.79-5.94-2.38-.51-3.55-1.85-4.72-3.91.31-.38.68-.49,1.06-.68-.39-.19-.68-.55-.82-.95,1.81-1.75,3.45-3.1,6.2-2.75-.02-2.46,1.04-3.89,2.81-5.48Z"/>
        <path class="cls-17" d="M859.76,543.2c.2.1.29.26.41.41.05-.19.18-.36.35-.46.97.65,1.74,1.25,1.84,2.53,1.07-.31,1.83-.02,2.74.55-.04.22-.17.35-.28.51.2,0,.39.07.54.21-.35,1.09-.71,1.98-1.85,2.44.05.06.09.13.14.2.72,1.08.64,1.94.26,3.06-.23,0-.38-.08-.56-.16.05.19.02.4-.07.57-1.06-.08-1.96-.21-2.66-1.04-.84.79-1.66.87-2.75.76-.06-.22,0-.39.03-.58-.18.09-.39.11-.58.05-.15-1.02-.22-1.9.36-2.73-1.09-.23-1.63-.85-2.17-1.79.14-.17.31-.23.49-.31-.18-.09-.31-.25-.38-.44.83-.81,1.59-1.42,2.85-1.26,0-1.13.48-1.79,1.29-2.52Z"/>
        <ellipse class="cls-7" cx="860.14" cy="548.4" rx="1.16" ry="1.24" transform="translate(-136.62 331.49) rotate(-20.24)"/>
      </g>
      <g>
        <path class="cls-22" d="M1431.35,771.42l4.13-5.5c0-1.38-.81-2.24-1.38-2.75l-383.95-334.8c-.56-.51-1.44-.45-1.94.12l-2.78,3.15c-.51.56-.45,1.44.12,1.94l381.66,340.59c1.38,1.38,3.58-2.13,4.13-2.75Z"/>
        <path class="cls-22" d="M1383.48,821.6l4.73-4.99c.15-1.36-.55-2.32-1.06-2.89l-343.35-376.31c-.51-.56-1.38-.61-1.94-.1l-3.12,2.81c-.56.51-.61,1.38-.1,1.94l340.42,381.8c1.21,1.53,3.8-1.71,4.42-2.27h0Z"/>
        <polygon class="cls-23" points="1383.53 735.17 1391.53 726.04 1425.38 755.55 1417.04 765.08 1383.53 735.17"/>
        <polygon class="cls-23" points="1339.25 779.37 1348.58 771.57 1377.18 802.88 1367.99 811.6 1339.25 779.37"/>
      </g>
    </g>
  </g>
</svg>