<svg width="620" height="495" viewBox="0 0 620 495" fill="none" xmlns="http://www.w3.org/2000/svg">
<rect width="620" height="495" fill="black"/>
<path d="M363.2 130.4C363.2 121.82 356.57 114.93 344.35 114.93C330.05 114.93 317.05 119.22 310.55 121.17C306.78 122.34 301.58 124.29 297.94 125.85L293 107.13C297.42 106.87 302.88 105.83 307.17 104.92C316.66 102.84 331.22 99.07 346.56 99.07C367.1 99.07 381.53 110.77 381.53 131.05C381.53 159 355.66 176.16 319.52 181.23L310.29 164.98C342.53 161.34 363.2 150.81 363.2 130.4ZM312.11 68C327.32 71.25 356.83 73.85 370.48 73.85L368.01 89.84C352.8 88.8001 324.59 86.1999 309.64 83.6L312.11 68Z" fill="#FFFEFE"/>
<path d="M474.613 295.884C479.095 298.258 483.754 300.582 486.033 301.567C495.946 305.955 515.53 314.892 537.281 324.751C549.572 330.477 562.366 336.636 570.601 340.824L562.487 355.501C556.37 352.057 546.564 346.686 539.681 344.601C524.047 340.573 505.447 349.496 497.858 362.976C487.398 381.554 501.017 398.173 519.651 409.857L505.59 422.379C482.743 407.577 467.52 382.149 481.36 357.567C490.48 341.367 506.926 333.619 517.769 332.115C506.596 327.317 481.97 316.735 467.348 312.232L474.613 295.884ZM540.038 357.482C540.524 362.978 540.712 372.184 540.313 377.927L529.712 376.882C530.211 369.107 530.383 363.236 529.678 356.275L540.038 357.482ZM555.546 359.351C556.259 364.974 556.801 374.081 556.692 379.838L545.9 379.133C546.285 371.294 546.103 365.522 545.285 358.497L555.546 359.351Z" fill="#FFFEFE"/>
<path d="M21.9998 406.977C26.6439 404.939 31.3591 402.731 33.5472 401.556C43.142 396.512 62.3095 386.713 83.5449 375.788C95.6668 369.711 108.44 363.509 116.836 359.656L123.301 375.13C116.802 377.786 106.502 382.136 100.594 386.235C87.7266 395.987 83.1687 416.107 89.0207 430.427C97.0857 450.163 118.569 449.81 139.299 442.462L140.381 461.259C114.59 469.973 85.2062 466.112 74.5348 439.998C67.5025 422.789 71.6439 405.087 77.1986 395.655C66.4988 401.432 42.9111 414.161 30.3014 422.825L21.9998 406.977ZM110.911 393.956C115.52 396.988 122.852 402.558 127.106 406.437L119.703 414.097C113.919 408.877 109.425 405.096 103.53 401.326L110.911 393.956ZM122.007 382.962C126.857 385.895 134.331 391.126 138.776 394.787L131.521 402.807C125.616 397.637 120.98 394.195 114.965 390.474L122.007 382.962Z" fill="#FFFEFE"/>
<path d="M563.658 71.3263C560.444 74.701 557.106 78.1121 553.143 81.7051C546.534 87.8305 533.081 99.7431 523.747 110.455C515.354 120.215 510.476 129.491 512.987 138.103C515.607 147.088 525.763 149.408 543.11 144.349C555.84 140.637 572.106 133.727 582.449 127.867L587.565 145.875C577.342 150.752 564.638 155.946 548.414 160.678C523.454 167.957 502.57 166.464 496.31 144.997C491.688 129.148 500.055 114.655 512.068 100.59C521.631 89.2699 535.1 76.9464 541.439 70.3583C545.38 66.2296 548.256 63.0889 550.737 59.5218L563.658 71.3263ZM493.095 62.9257C503.926 77.7772 516.156 90.4605 525.078 99.2332L513.253 111.619C503.077 102.264 490.821 88.0987 479.262 74.0011L493.095 62.9257Z" fill="#FFFEFE"/>
<path d="M177.759 103.192C174.248 104.705 168.68 108.014 165.817 109.479C144.894 120.501 118.969 131.922 98.9115 132.869C79.6861 133.779 69.1214 131.959 61.2545 122.951C54.1572 114.824 54.5131 101.396 67.1446 90.3651C80.2658 78.9068 100.852 74.2187 118.201 79.262C134.107 83.8392 145.191 91.5912 154.341 102.069C171.956 122.24 171 148.618 150.633 166.404C129.874 184.532 105.016 180.178 84.0113 162.45L88.8715 145.088C109.544 165.006 127.865 163.85 140.105 153.161C153.422 141.532 154.674 124.387 142.36 110.287C133.467 100.104 122.82 95.4215 111.84 92.9282C99.7852 89.9936 86.2557 93.8692 78.2264 100.881C73.4283 105.071 72.1885 109.778 75.1814 113.205C79.6279 118.297 90.5977 118.21 102.78 116.546C120.429 114.424 143.406 104.369 157.245 95.9078C160.512 93.9176 164.882 90.62 167.146 88.4698L177.759 103.192ZM138.443 64.6922C135.541 68.0891 132.994 71.6943 130.838 74.9574C122.522 87.57 112.072 105.843 108.956 116.504C106.575 124.45 104.425 134.44 104.136 142.804L87.4826 139.743C88.4561 132.162 89.6117 125.975 91.8693 118.48C95.368 104.897 105.904 85.3402 116.463 68.1805C118.95 64.1105 121.057 60.1992 123.043 55.3583L138.443 64.6922Z" fill="#FFFEFE"/>
<path d="M164.992 210.019C165.558 212.479 167.437 217.769 168.685 220.773C172.413 230.365 177.961 243.268 183.043 254.238C189 267.095 199.163 287.173 202.332 294.014C209.054 308.523 205.723 314.938 197.938 318.545C186.496 323.846 165.628 321.48 159.834 308.976C154.533 297.535 163.703 278.672 177.421 265.296C186.17 256.657 197.209 249.25 206.174 245.097C224.339 236.681 243.101 239.45 250.643 255.728C257.146 269.764 254.698 283.651 238.074 296.94C233.195 300.634 228.051 303.447 223.433 306.16L211.02 293.284C216.21 290.88 221.4 288.475 225.028 285.791C233.818 279.713 239.244 271.325 235.309 262.832C231.538 254.693 222.33 253.372 212.067 258.126C202.041 262.772 192.645 269.704 185.139 277.624C176.381 286.553 171.783 296.42 174.133 301.492C175.882 305.266 182.901 305.883 185.968 304.462C188.091 303.478 189.187 301.824 187.275 297.695C184.433 291.562 176.247 275.439 169.634 261.167C163.404 247.72 156.745 233.039 154.231 227.613C153.138 225.254 150.052 219.52 148.714 217.561L164.992 210.019ZM204.566 207.301C215.553 207.512 232.787 208.839 241.234 210.371L239.613 225.736C231.765 223.641 212.332 221.898 203.38 221.748L204.566 207.301ZM135.147 247.344C142.489 244.945 147.561 242.595 151.808 240.628C164.075 234.944 181.438 224.177 191.947 215.01L199.078 229.472C187.17 238.714 169.163 249.636 158.783 254.446C150.998 258.053 146.343 260.066 142.114 261.452L135.147 247.344Z" fill="#FFFEFE"/>
</svg>
