<?xml version="1.0" encoding="UTF-8"?>
<svg id="Layer_2" data-name="Layer 2" xmlns="http://www.w3.org/2000/svg" viewBox="0 0 217.31 82.89">
  <defs>
    <style>
      .cls-1 {
        stroke: #602b4a;
      }

      .cls-1, .cls-2 {
        fill: none;
        stroke-width: .5px;
      }

      .cls-1, .cls-2, .cls-3 {
        stroke-miterlimit: 10;
      }

      .cls-2 {
        stroke: #947085;
      }

      .cls-3 {
        fill: #ed9f2a;
        stroke: #fae4c3;
      }

      .cls-4 {
        fill: #f6ffd6;
      }

      .cls-5 {
        fill: #400026;
      }
    </style>
  </defs>
  <g id="Layer_1-2" data-name="Layer 1">
    <g>
      <ellipse class="cls-3" cx="41.47" cy="40.07" rx="40.97" ry="39.57"/>
      <ellipse class="cls-4" cx="53.05" cy="27.17" rx="16.92" ry="16.34"/>
      <path class="cls-5" d="M38.23,44.32c.21-6.21,8.72-12.02,11.15-12.36,4.56-.64,8.36,4.98,8.36,11.12,0,6.14-1.02,11.79-5.57,11.12-3.46-.51-14.09-5.35-13.94-9.89Z"/>
      <path class="cls-5" d="M74.46,44.32c-.21-6.21-8.72-12.02-11.15-12.36-4.56-.64-8.36,4.98-8.36,11.12,0,6.14-4.81,5.19-1.9,4.72,2.21-.35,21.56,1.04,21.41-3.49Z"/>
      <path class="cls-1" d="M74.46,12.2c-16.72,7.41-18.12,24.61-18.12,24.61,0,0-2.15,10.88.84,10.94"/>
      <path class="cls-5" d="M17.3,34.21c6.17,2.94,19.38,1.93,20.93.24,2.9-3.19-3.97-11.53-9.97-14.6s-12.02-5.11-13.65-1.28c-1.24,2.91-1.81,13.5,2.69,15.64Z"/>
      <path class="cls-5" d="M10.36,46.8c-5.96-3.27-6.46-12.79-5.57-14.83,1.66-3.82,14.11.2,20.11,3.27,6,3.07,16.27-3.96,13.34-.8-2.23,2.4-23.52,14.74-27.87,12.36Z"/>
      <path class="cls-2" d="M74.53,12.33c-16.56,7.48-34.9,20.87-34.9,20.87,0,0-15.23,9.83-24.92-1.53"/>
      <g>
        <ellipse class="cls-3" cx="109.62" cy="40.17" rx="40.97" ry="39.57"/>
        <ellipse class="cls-4" cx="121.2" cy="27.26" rx="16.92" ry="16.34"/>
        <path class="cls-5" d="M106.38,44.42c.21-6.21,8.72-12.02,11.15-12.36,4.56-.64,8.36,4.98,8.36,11.12,0,6.14-1.02,11.79-5.57,11.12-3.46-.51-14.09-5.35-13.94-9.89Z"/>
        <path class="cls-5" d="M142.61,44.42c-.21-6.21-8.72-12.02-11.15-12.36-4.56-.64-8.36,4.98-8.36,11.12,0,6.14-4.81,5.19-1.9,4.72,2.21-.35,21.56,1.04,21.41-3.49Z"/>
        <path class="cls-1" d="M142.61,12.3c-16.72,7.41-18.12,24.61-18.12,24.61,0,0-2.15,10.88.84,10.94"/>
        <path class="cls-5" d="M85.45,34.3c6.17,2.94,19.38,1.93,20.93.24,2.9-3.19-3.97-11.53-9.97-14.6-6-3.07-12.02-5.11-13.65-1.28-1.24,2.91-1.81,13.5,2.69,15.64Z"/>
        <path class="cls-5" d="M78.5,46.89c-5.96-3.27-6.46-12.79-5.57-14.83,1.66-3.82,14.11.2,20.11,3.27,6,3.07,16.27-3.96,13.34-.8-2.23,2.4-23.52,14.74-27.87,12.36Z"/>
        <path class="cls-2" d="M142.67,12.43c-16.56,7.48-34.9,20.87-34.9,20.87,0,0-15.23,9.83-24.92-1.53"/>
      </g>
      <g>
        <ellipse class="cls-3" cx="175.83" cy="42.82" rx="40.97" ry="39.57"/>
        <ellipse class="cls-4" cx="187.41" cy="29.91" rx="16.92" ry="16.34"/>
        <path class="cls-5" d="M172.59,47.07c.21-6.21,8.72-12.02,11.15-12.36,4.56-.64,8.36,4.98,8.36,11.12,0,6.14-1.02,11.79-5.57,11.12-3.46-.51-14.09-5.35-13.94-9.89Z"/>
        <path class="cls-5" d="M208.82,47.07c-.21-6.21-8.72-12.02-11.15-12.36-4.56-.64-8.36,4.98-8.36,11.12s-4.81,5.19-1.9,4.72c2.21-.35,21.56,1.04,21.41-3.49Z"/>
        <path class="cls-1" d="M208.82,14.94c-16.72,7.41-18.12,24.61-18.12,24.61,0,0-2.15,10.88.84,10.94"/>
        <path class="cls-5" d="M151.66,36.95c6.17,2.94,19.38,1.93,20.93.24,2.9-3.19-3.97-11.53-9.97-14.6-6-3.07-12.02-5.11-13.65-1.28-1.24,2.91-1.81,13.5,2.69,15.64Z"/>
        <path class="cls-5" d="M144.72,49.54c-5.96-3.27-6.46-12.79-5.57-14.83,1.66-3.82,14.11.2,20.11,3.27,6,3.07,16.27-3.96,13.34-.8-2.23,2.4-23.52,14.74-27.87,12.36Z"/>
        <path class="cls-2" d="M208.89,15.08c-16.56,7.48-34.9,20.87-34.9,20.87,0,0-15.23,9.83-24.92-1.53"/>
      </g>
    </g>
  </g>
</svg>