<svg width="114" height="103" viewBox="0 0 114 103" fill="none" xmlns="http://www.w3.org/2000/svg">
<g clip-path="url(#clip0_80_53)">
<path d="M0.470703 7.95344C5.5407 7.82344 10.7407 7.56344 13.2107 7.30344C24.0007 6.26344 45.4507 4.44344 69.2407 2.36344C82.7607 1.32344 96.9307 0.41344 106.161 0.0234375L106.291 16.7934C99.2707 16.7934 88.0907 16.9234 81.0707 18.4834C65.4707 22.6434 53.6407 39.5434 53.6407 55.0134C53.6407 76.3334 73.6607 84.1334 95.6307 85.1734L89.5207 102.983C62.3507 101.293 36.6107 86.6034 36.6107 58.3934C36.6107 39.8034 47.1407 24.9834 55.8507 18.3534C43.7607 19.6534 17.1107 22.5134 2.16071 25.7634L0.470703 7.95344ZM87.7007 29.5334C90.8207 34.0834 95.5007 42.0134 97.9707 47.2134L88.2207 51.5034C84.8407 44.4834 82.1107 39.2834 78.0807 33.5634L87.7007 29.5334ZM102.131 23.5534C105.511 28.1034 110.451 35.7734 113.181 40.8434L103.431 45.5234C99.9207 38.5034 96.9307 33.5634 92.7707 27.8434L102.131 23.5534Z" fill="black"/>
</g>
<defs>
<clipPath id="clip0_80_53">
<rect width="114" height="103" fill="white"/>
</clipPath>
</defs>
</svg>
