<svg width="114" height="112" viewBox="0 0 114 112" fill="none" xmlns="http://www.w3.org/2000/svg">
<path d="M83.3692 2.08063C82.1992 5.72063 81.0292 12.0906 80.2492 15.2106C74.7892 38.2206 66.3392 65.2606 53.8592 80.9906C41.8992 96.0706 33.5792 102.831 21.6192 102.831C10.8292 102.831 0.949219 93.7306 0.949219 76.9606C0.949219 59.5406 10.9592 40.9506 26.1692 31.2006C40.0792 22.2306 53.2092 18.9806 67.1192 18.9806C93.8992 18.9806 113.139 37.0506 113.139 64.0906C113.139 91.6506 93.5092 107.511 66.3392 111.671L56.4592 96.5906C85.0592 94.1206 96.2392 79.5606 96.2392 63.3106C96.2392 45.6306 84.1492 33.4106 65.4292 33.4106C51.9092 33.4106 41.3792 38.3506 32.2792 44.9806C22.1392 52.1306 16.1592 64.8706 16.1592 75.5306C16.1592 81.9006 18.8892 85.9306 23.4392 85.9306C30.1992 85.9306 37.3492 77.6106 44.1092 67.3406C54.1192 52.6506 61.6592 28.7306 64.3892 12.7406C65.0392 8.97063 65.4292 3.51062 65.2992 0.390625L83.3692 2.08063ZM28.5092 6.37063C29.1592 10.7906 30.1992 15.0806 31.2392 18.8506C35.2692 33.4106 42.1592 53.3006 48.1392 62.6606C52.5592 69.6806 58.6692 77.8706 64.7792 83.5906L51.5192 94.1206C46.4492 88.4006 42.5492 83.4606 38.3892 76.8306C30.4592 65.2606 22.6592 44.4606 16.6792 25.2206C15.2492 20.6706 13.6892 16.5106 11.3492 11.8306L28.5092 6.37063Z" fill="black"/>
</svg>
