<svg width="730" height="75" viewBox="0 0 730 75" fill="none" xmlns="http://www.w3.org/2000/svg">
<path d="M43.75 34.9629V69.2891C42.2526 70.5911 40.2507 71.6816 37.7441 72.5605C35.2376 73.4395 32.194 73.8789 28.6133 73.8789C25.0326 73.8789 21.9889 73.0814 19.4824 71.4863C16.6504 69.7611 15.2344 67.3197 15.2344 64.1621V32.7168H3.85742C1.51367 29.3639 0.341797 25.7018 0.341797 21.7305C0.341797 19.0286 0.764974 16.6849 1.61133 14.6992C2.49023 12.681 3.56445 11.1185 4.83398 10.0117H55.3223C56.2663 11.4766 57.0475 13.2507 57.666 15.334C58.2845 17.4173 58.5938 19.4844 58.5938 21.5352C58.5938 25.3763 57.7474 28.2083 56.0547 30.0312C54.362 31.8216 52.0833 32.7168 49.2188 32.7168H34.9121C34.8145 32.9447 34.7656 33.1888 34.7656 33.4492C34.7656 34.0352 35.1074 34.4258 35.791 34.6211C36.5072 34.849 38.0371 34.9629 40.3809 34.9629H43.75ZM111.768 48.8301C111.768 51.1738 112.028 53.0618 112.549 54.4941C113.07 55.9264 113.981 57.0495 115.283 57.8633C115.316 58.026 115.332 58.3353 115.332 58.791V59.6699C115.332 64.1621 114.03 67.6615 111.426 70.168C108.854 72.6419 105.518 73.8789 101.416 73.8789C97.347 73.8789 94.043 72.7233 91.5039 70.4121C88.5417 67.7754 87.0605 63.7715 87.0605 58.4004C87.0605 56.1217 87.1582 54.1198 87.3535 52.3945C87.5814 50.6367 87.7279 49.3835 87.793 48.6348C87.8906 47.8861 87.9883 47.1862 88.0859 46.5352C88.1836 45.8841 88.2324 44.9238 88.2324 43.6543C88.2324 42.3848 88.0534 41.4733 87.6953 40.9199C87.3698 40.3665 86.8978 40.0898 86.2793 40.0898C85.6934 40.0898 85.1725 40.2201 84.7168 40.4805L85.3516 48.4395C84.7656 51.7272 84.4727 55.2103 84.4727 58.8887C84.4727 62.5671 85.3027 65.9199 86.9629 68.9473C83.7728 72.235 79.2969 73.8789 73.5352 73.8789C70.2474 73.8789 67.3991 73.0163 64.9902 71.291C62.1908 69.3379 60.791 66.75 60.791 63.5273V6.54492C62.3535 5.63346 64.2253 4.88477 66.4062 4.29883C68.6198 3.71289 70.8496 3.41992 73.0957 3.41992C76.8392 3.41992 79.9316 4.15234 82.373 5.61719C85.14 7.34245 86.5234 9.81641 86.5234 13.0391V17.6777C83.6914 17.8405 80.9733 18.6543 78.3691 20.1191C76.123 21.4212 75 22.6094 75 23.6836C75 24.0417 75.1302 24.3672 75.3906 24.6602C75.651 24.9206 75.9603 25.0833 76.3184 25.1484C77.6855 23.5534 79.6061 22.2188 82.0801 21.1445C84.5866 20.0703 87.5488 19.5332 90.9668 19.5332C94.3848 19.5332 97.4609 20.054 100.195 21.0957C103.646 22.3978 106.364 24.3835 108.35 27.0527C110.726 30.3079 111.914 34.3932 111.914 39.3086L111.768 48.8301ZM145.264 74.5137C136.247 74.5137 129.134 72.0072 123.926 66.9941C118.587 61.9486 115.918 55.0475 115.918 46.291C115.918 37.502 118.669 30.5358 124.17 25.3926C129.248 20.6074 135.677 18.2148 143.457 18.2148C151.237 18.2148 157.471 20.3633 162.158 24.6602C166.878 28.9245 169.238 34.1816 169.238 40.4316C169.238 45.998 167.301 50.1973 163.428 53.0293C159.847 55.6986 154.964 57.0332 148.779 57.0332C144.157 57.0332 140.251 56.0729 137.061 54.1523C136.8 54.3477 136.67 54.7057 136.67 55.2266C136.67 56.2031 137.956 57.0983 140.527 57.9121C143.099 58.791 146.012 59.2305 149.268 59.2305C152.555 59.2305 155.534 58.8236 158.203 58.0098C160.905 57.1634 163.07 56.1706 164.697 55.0312C165.479 55.7148 166.097 56.9844 166.553 58.8398C167.041 60.6628 167.285 62.3392 167.285 63.8691C167.285 65.3665 167.139 66.7012 166.846 67.873C164.307 70.0215 161.702 71.5514 159.033 72.4629C155.257 73.8301 150.667 74.5137 145.264 74.5137ZM144.629 41.457C146.257 41.457 147.07 40.8385 147.07 39.6016C147.07 38.4297 146.208 37.8438 144.482 37.8438C142.757 37.8438 141.764 38.7715 141.504 40.627C142.415 41.1803 143.457 41.457 144.629 41.457ZM221.484 55.2266C222.559 55.0312 223.096 54.4941 223.096 53.6152C223.096 52.7038 222.803 51.6947 222.217 50.5879C221.663 49.4486 220.833 48.3743 219.727 47.3652C216.829 44.7611 212.907 43.459 207.959 43.459C205.518 43.459 203.239 43.8659 201.123 44.6797C198.877 43.5404 197.087 41.7337 195.752 39.2598C194.417 36.7858 193.75 34.1165 193.75 31.252C193.75 23.765 196.875 17.987 203.125 13.918C208.496 10.4349 215.12 8.69336 222.998 8.69336C228.857 8.69336 233.789 9.32812 237.793 10.5977C241.797 11.8346 245.068 13.4297 247.607 15.3828C248.356 17.5312 248.73 19.7611 248.73 22.0723C248.73 24.3835 248.421 26.4831 247.803 28.3711C247.184 30.2591 246.289 31.7728 245.117 32.9121C244.01 32.0983 242.008 31.2682 239.111 30.4219C236.214 29.5755 233.577 29.1523 231.201 29.1523C228.825 29.1523 227.23 29.2988 226.416 29.5918C225.635 29.8848 225.244 30.3405 225.244 30.959C225.244 31.252 225.293 31.5286 225.391 31.7891C226.53 31.4961 227.995 31.3496 229.785 31.3496C236.133 31.3496 241.309 32.847 245.312 35.8418C250.033 39.4225 252.393 44.7936 252.393 51.9551C252.393 58.2702 249.837 63.5111 244.727 67.6777C239.193 72.1374 231.755 74.3672 222.412 74.3672C217.269 74.3672 212.809 73.9766 209.033 73.1953C205.257 72.4466 201.579 71.112 197.998 69.1914C195.557 65.6432 194.336 62.0462 194.336 58.4004C194.336 54.722 195.589 51.6784 198.096 49.2695C200.602 46.8607 203.678 45.6562 207.324 45.6562C211.003 45.6562 213.997 46.4049 216.309 47.9023C218.652 49.3997 220.378 51.8411 221.484 55.2266ZM280.762 51.7109C281.152 51.7109 281.576 51.5482 282.031 51.2227C281.706 50.1484 281.543 48.472 281.543 46.1934V22.0723C284.993 19.9889 289.144 18.9473 293.994 18.9473C296.729 18.9473 299.121 19.3216 301.172 20.0703C303.255 20.7865 304.85 21.7467 305.957 22.9512V48.3906C305.957 53.2409 307.129 56.3984 309.473 57.8633C309.505 58.026 309.521 58.3353 309.521 58.791V59.6699C309.521 64.4225 308.268 68.0195 305.762 70.4609C303.483 72.7396 300.342 73.8789 296.338 73.8789C293.831 73.8789 291.553 73.3092 289.502 72.1699C287.484 71.0306 285.97 69.3704 284.961 67.1895C283.854 67.1895 283.301 67.7266 283.301 68.8008C283.301 69.5495 283.675 70.2982 284.424 71.0469C283.382 71.8932 282.129 72.5768 280.664 73.0977C279.199 73.6185 277.035 73.8789 274.17 73.8789C271.338 73.8789 268.571 73.293 265.869 72.1211C262.516 70.6888 259.945 68.4915 258.154 65.5293C255.973 62.0137 254.883 57.554 254.883 52.1504V39.8945C253.223 36.9974 252.393 33.8073 252.393 30.3242C252.393 28.5339 252.62 26.6784 253.076 24.7578C253.532 22.8372 254.264 21.1283 255.273 19.6309H266.016C270.052 19.6309 273.21 20.5911 275.488 22.5117C277.799 24.3997 278.955 27.2806 278.955 31.1543V46.9746C278.955 50.1322 279.557 51.7109 280.762 51.7109ZM337.646 34.7188C336.8 34.9792 336.377 35.4837 336.377 36.2324V36.4766C336.377 36.6393 336.393 36.737 336.426 36.7695C336.784 36.737 337.256 36.7207 337.842 36.7207H339.014C342.725 36.7207 346.191 37.2904 349.414 38.4297C352.669 39.5365 355.322 41.3268 357.373 43.8008C359.652 46.6003 360.791 50.1322 360.791 54.3965C360.791 61.0371 358.496 66.0501 353.906 69.4355C349.316 72.821 343.18 74.5137 335.498 74.5137C327.816 74.5137 321.794 73.2441 317.432 70.7051C313.102 68.166 310.938 64.4388 310.938 59.5234C310.938 57.7005 311.328 56.0404 312.109 54.543C312.891 53.013 313.77 51.9388 314.746 51.3203C316.536 52.8177 319.124 54.1198 322.51 55.2266C325.928 56.3008 329.541 56.8379 333.35 56.8379C334.88 56.8379 335.645 56.4147 335.645 55.5684C335.645 55.1777 335.596 54.8522 335.498 54.5918C335.27 54.6243 334.993 54.6406 334.668 54.6406H334.131C327.23 54.6406 321.712 53.2734 317.578 50.5391C312.891 47.4466 310.547 43.0846 310.547 37.4531C310.547 31.8216 312.646 27.2643 316.846 23.7812C321.501 19.9401 327.897 18.0195 336.035 18.0195C340.039 18.0195 343.766 18.4427 347.217 19.2891C350.7 20.1354 353.678 21.2585 356.152 22.6582C356.771 23.9928 357.08 25.9622 357.08 28.5664C357.08 32.5378 355.99 35.5814 353.809 37.6973C352.148 36.7858 350.114 36.0371 347.705 35.4512C345.329 34.8327 343.18 34.5234 341.26 34.5234C339.339 34.5234 338.135 34.5885 337.646 34.7188ZM414.502 48.8301C414.502 51.1738 414.762 53.0618 415.283 54.4941C415.804 55.9264 416.715 57.0495 418.018 57.8633C418.05 58.026 418.066 58.3353 418.066 58.791V59.6699C418.066 64.1621 416.764 67.6615 414.16 70.168C411.589 72.6419 408.252 73.8789 404.15 73.8789C400.081 73.8789 396.777 72.7233 394.238 70.4121C391.276 67.7754 389.795 63.7715 389.795 58.4004C389.795 56.1217 389.893 54.1198 390.088 52.3945C390.316 50.6367 390.462 49.3835 390.527 48.6348C390.625 47.8861 390.723 47.1862 390.82 46.5352C390.918 45.8841 390.967 44.9238 390.967 43.6543C390.967 42.3848 390.788 41.4733 390.43 40.9199C390.104 40.3665 389.632 40.0898 389.014 40.0898C388.428 40.0898 387.907 40.2201 387.451 40.4805L388.086 48.4395C387.5 51.7272 387.207 55.2103 387.207 58.8887C387.207 62.5671 388.037 65.9199 389.697 68.9473C386.507 72.235 382.031 73.8789 376.27 73.8789C372.982 73.8789 370.133 73.0163 367.725 71.291C364.925 69.3379 363.525 66.75 363.525 63.5273V6.54492C365.088 5.63346 366.96 4.88477 369.141 4.29883C371.354 3.71289 373.584 3.41992 375.83 3.41992C379.574 3.41992 382.666 4.15234 385.107 5.61719C387.874 7.34245 389.258 9.81641 389.258 13.0391V17.6777C386.426 17.8405 383.708 18.6543 381.104 20.1191C378.857 21.4212 377.734 22.6094 377.734 23.6836C377.734 24.0417 377.865 24.3672 378.125 24.6602C378.385 24.9206 378.695 25.0833 379.053 25.1484C380.42 23.5534 382.34 22.2188 384.814 21.1445C387.321 20.0703 390.283 19.5332 393.701 19.5332C397.119 19.5332 400.195 20.054 402.93 21.0957C406.38 22.3978 409.098 24.3835 411.084 27.0527C413.46 30.3079 414.648 34.3932 414.648 39.3086L414.502 48.8301ZM444.824 29.0547V48.3906C444.824 53.2409 445.996 56.3984 448.34 57.8633C448.372 58.026 448.389 58.3353 448.389 58.791V59.6699C448.389 64.4551 447.087 68.0521 444.482 70.4609C442.074 72.7396 438.851 73.8789 434.814 73.8789C430.811 73.8789 427.507 72.7396 424.902 70.4609C421.615 67.5638 419.971 63.332 419.971 57.7656V26.0273C420.557 25.6042 421.191 25.2624 421.875 25.002C422.559 24.7415 423.275 24.416 424.023 24.0254C422.624 23.3092 421.354 22.0723 420.215 20.3145C419.076 18.5241 418.506 16.4408 418.506 14.0645C418.506 9.96289 419.857 6.61003 422.559 4.00586C425.26 1.40169 428.564 0.0996094 432.471 0.0996094C436.41 0.0996094 439.697 1.43424 442.334 4.10352C445.003 6.74023 446.338 10.0605 446.338 14.0645C446.338 17.2871 445.329 20.1191 443.311 22.5605C441.292 24.9694 438.835 26.4831 435.938 27.1016C435.938 28.3385 436.41 28.957 437.354 28.957C439.014 28.957 440.706 28.306 442.432 27.0039C443.734 28.013 444.531 28.6966 444.824 29.0547ZM505.273 32.3262H534.229C536.084 35.028 537.012 38.3158 537.012 42.1895C537.012 46.0306 536.214 49.1556 534.619 51.5645H532.617V66.2129C526.204 71.7793 517.741 74.5625 507.227 74.5625C500.814 74.5625 495.117 73.4232 490.137 71.1445C484.701 68.7031 480.485 65.1387 477.49 60.4512C474.202 55.3079 472.559 48.9928 472.559 41.5059C472.559 30.8613 475.749 22.6257 482.129 16.7988C488.184 11.2324 496.387 8.44922 506.738 8.44922C511.849 8.44922 516.667 9.21419 521.191 10.7441C525.749 12.2741 529.346 14.1784 531.982 16.457C531.982 18.4102 531.738 20.8027 531.25 23.6348C530.794 26.4668 530.208 28.6315 529.492 30.1289H503.76C502.718 31.2357 501.725 32.8307 500.781 34.9141C499.87 36.9974 499.414 39.39 499.414 42.0918C499.414 45.8027 500.342 48.7161 502.197 50.832C503.825 52.7526 505.908 53.7129 508.447 53.7129C509.489 53.7129 510.01 53.3548 510.01 52.6387V51.5156H509.473C507.324 51.5156 505.534 50.6855 504.102 49.0254C502.702 47.3327 502.002 44.9238 502.002 41.7988C502.002 37.8926 503.092 34.735 505.273 32.3262ZM587.061 48.8301C587.061 51.1738 587.321 53.0618 587.842 54.4941C588.363 55.9264 589.274 57.0495 590.576 57.8633C590.609 58.026 590.625 58.3353 590.625 58.791V59.6699C590.625 64.2923 589.225 67.8893 586.426 70.4609C583.952 72.7396 580.892 73.8789 577.246 73.8789C574.772 73.8789 572.51 73.293 570.459 72.1211C568.408 70.9492 566.943 69.2565 566.064 67.043C564.958 67.043 564.404 67.5801 564.404 68.6543C564.404 69.5658 564.974 70.5911 566.113 71.7305C563.997 73.1628 560.807 73.8789 556.543 73.8789C550.521 73.8789 545.703 72.2513 542.09 68.9961C538.509 65.7083 536.719 61.1348 536.719 55.2754C536.719 49.3835 538.623 44.8262 542.432 41.6035C545.915 38.7064 550.423 37.2578 555.957 37.2578C557.845 37.2578 559.668 37.388 561.426 37.6484C562.598 37.8763 563.232 38.0065 563.33 38.0391C563.428 37.7135 563.477 37.4368 563.477 37.209C563.477 36.3626 562.76 35.793 561.328 35.5C559.896 35.207 558.024 35.0605 555.713 35.0605C550.798 35.0605 546.598 36.0534 543.115 38.0391C541.52 35.3372 540.723 31.9193 540.723 27.7852C540.723 25.4414 541.016 23.6999 541.602 22.5605C543.945 21.4863 546.924 20.5423 550.537 19.7285C554.15 18.8822 557.959 18.459 561.963 18.459C570.231 18.459 576.481 20.2656 580.713 23.8789C584.945 27.4922 587.061 32.6191 587.061 39.2598V48.8301ZM561.719 51.2227C560.352 51.2227 559.668 51.8411 559.668 53.0781C559.668 54.25 560.465 54.8359 562.061 54.8359C563.167 54.8359 563.981 54.5755 564.502 54.0547C565.023 53.5013 565.283 52.5573 565.283 51.2227C565.283 51.2227 564.095 51.2227 561.719 51.2227ZM671.729 48.8301C671.729 51.2064 671.989 53.1432 672.51 54.6406C673.031 56.138 673.942 57.2936 675.244 58.1074C675.277 58.2702 675.293 58.5469 675.293 58.9375V59.6699C675.293 64.1296 673.991 67.6126 671.387 70.1191C668.783 72.6257 665.413 73.8789 661.279 73.8789C657.178 73.8789 653.874 72.7559 651.367 70.5098C648.405 67.9056 646.924 63.918 646.924 58.5469V43.1172C646.924 40.9362 646.208 39.8457 644.775 39.8457C644.222 39.8457 643.783 39.9759 643.457 40.2363L644.336 47.5117V58.5469C644.336 62.974 645.068 66.3268 646.533 68.6055C644.971 70.2656 643.018 71.5677 640.674 72.5117C638.363 73.4232 636.003 73.8789 633.594 73.8789C629.688 73.8789 626.66 72.9349 624.512 71.0469C621.908 68.7682 620.605 65.1712 620.605 60.2559V43.1172C620.605 40.9362 619.889 39.8457 618.457 39.8457C617.904 39.8457 617.464 39.9759 617.139 40.2363L618.018 47.5117V60.4512C618.018 64.097 618.506 66.9128 619.482 68.8984C616.292 72.1862 611.816 73.8301 606.055 73.8301C602.637 73.8301 599.756 72.9674 597.412 71.2422C594.71 69.2565 593.359 66.5872 593.359 63.2344V39.8945C591.439 37.1927 590.479 33.8724 590.479 29.9336C590.479 25.9622 591.439 22.528 593.359 19.6309H605.127C607.438 19.6309 609.408 20.4935 611.035 22.2188C609.603 23.5534 608.887 24.6602 608.887 25.5391C608.887 26.5482 609.456 27.0527 610.596 27.0527C612.028 24.5788 613.997 22.6094 616.504 21.1445C619.434 19.4844 622.868 18.6543 626.807 18.6543C629.801 18.6543 632.422 19.2891 634.668 20.5586C636.947 21.8281 638.639 23.293 639.746 24.9531C641.276 22.8698 643.262 21.3073 645.703 20.2656C648.177 19.1914 650.749 18.6543 653.418 18.6543C659.31 18.6543 663.883 20.4772 667.139 24.123C670.329 27.7689 671.924 32.7656 671.924 39.1133L671.729 48.8301ZM705.225 74.5137C696.208 74.5137 689.095 72.0072 683.887 66.9941C678.548 61.9486 675.879 55.0475 675.879 46.291C675.879 37.502 678.63 30.5358 684.131 25.3926C689.209 20.6074 695.638 18.2148 703.418 18.2148C711.198 18.2148 717.432 20.3633 722.119 24.6602C726.839 28.9245 729.199 34.1816 729.199 40.4316C729.199 45.998 727.262 50.1973 723.389 53.0293C719.808 55.6986 714.925 57.0332 708.74 57.0332C704.118 57.0332 700.212 56.0729 697.021 54.1523C696.761 54.3477 696.631 54.7057 696.631 55.2266C696.631 56.2031 697.917 57.0983 700.488 57.9121C703.06 58.791 705.973 59.2305 709.229 59.2305C712.516 59.2305 715.495 58.8236 718.164 58.0098C720.866 57.1634 723.031 56.1706 724.658 55.0312C725.439 55.7148 726.058 56.9844 726.514 58.8398C727.002 60.6628 727.246 62.3392 727.246 63.8691C727.246 65.3665 727.1 66.7012 726.807 67.873C724.268 70.0215 721.663 71.5514 718.994 72.4629C715.218 73.8301 710.628 74.5137 705.225 74.5137ZM704.59 41.457C706.217 41.457 707.031 40.8385 707.031 39.6016C707.031 38.4297 706.169 37.8438 704.443 37.8438C702.718 37.8438 701.725 38.7715 701.465 40.627C702.376 41.1803 703.418 41.457 704.59 41.457Z" fill="black"/>
</svg>
