<?xml version="1.0" encoding="UTF-8"?>
<svg id="Layer_2" data-name="Layer 2" xmlns="http://www.w3.org/2000/svg" viewBox="0 0 1938 1080">
  <defs>
    <style>
      .cls-1, .cls-2, .cls-3, .cls-4, .cls-5 {
        fill: none;
      }

      .cls-6 {
        fill: #e0b661;
      }

      .cls-7 {
        fill: #402827;
      }

      .cls-2 {
        stroke: #d0992d;
      }

      .cls-2, .cls-4 {
        stroke-width: 3px;
      }

      .cls-2, .cls-4, .cls-5 {
        stroke-miterlimit: 10;
      }

      .cls-8 {
        fill: #dedcdb;
      }

      .cls-9 {
        fill: #ff1523;
      }

      .cls-10 {
        fill: #26050f;
      }

      .cls-10, .cls-3 {
        opacity: .2;
      }

      .cls-11 {
        fill: #c7312c;
      }

      .cls-12 {
        fill: #f0ebd3;
      }

      .cls-13 {
        fill: #eccdd3;
      }

      .cls-14 {
        fill: #fffefe;
      }

      .cls-15 {
        fill: #b0d925;
      }

      .cls-16 {
        fill: #101112;
      }

      .cls-17 {
        fill: #ebf9ff;
      }

      .cls-18 {
        fill: #cf74aa;
      }

      .cls-19 {
        fill: #e9b2cb;
      }

      .cls-20 {
        fill: #ffd969;
      }

      .cls-21 {
        fill: #c1272d;
      }

      .cls-22 {
        fill: #d0cfcb;
      }

      .cls-4 {
        stroke: #fbb03b;
      }

      .cls-23 {
        fill: #080a16;
      }

      .cls-24 {
        fill: #f1ded8;
      }

      .cls-5 {
        stroke: #000;
        stroke-width: 4px;
      }
    </style>
  </defs>
  <g id="Spilscene">
    <g>
      <rect width="1938" height="1080"/>
      <g>
        <rect class="cls-2" x="159.26" y="123.09" width="1561.34" height="841.4"/>
        <line class="cls-2" x1="303.6" y1="123.09" x2="303.81" y2="964.69"/>
        <line class="cls-2" x1="1577.35" y1="123.29" x2="1577.14" y2="964.48"/>
      </g>
      <rect class="cls-6" x="1535.1" y="123.8" width="184.83" height="184.83"/>
      <rect class="cls-6" x="160.34" y="779.49" width="184.83" height="184.83"/>
      <path class="cls-9" d="M231.5,466.74c-.87,2.08-1.82,4.33-3.03,8.05-2.77,8.83-12.81,39.9-16.53,48.64l-7.79.26c4.33-9.95,14.37-41.29,16.96-50.46,1.13-3.98,1.47-5.97,1.73-8.31l8.66,1.82ZM247.95,495.73c6.06,8.83,15.58,26.31,19.13,35.23l-7.18,3.2c-3.46-9.35-12.29-27.35-18.52-35.57l6.58-2.86ZM200.78,521.61c12.46-.61,43.45-4.07,54.62-5.71l1.9,6.75c-12.03,1.56-43.88,5.02-56.09,6.23-2.16.17-4.76.52-7.18.87l-1.38-7.96c2.6.09,5.63,0,8.14-.17Z"/>
      <path class="cls-9" d="M192.64,437.37c2.68.26,7.18.52,12.12.52h47.43c4.33,0,7.36-.35,9.35-.52v8.48c-1.82-.09-5.45-.35-9.26-.35h-47.52c-4.76,0-9.35.17-12.12.35v-8.48Z"/>
      <path class="cls-9" d="M250.73,345.15c2.16,3.12,5.28,8.31,7.01,11.86l-4.67,2.08c-1.64-3.46-4.59-8.74-6.92-11.94l4.59-1.99ZM260.16,341.69c2.34,3.12,5.63,8.57,7.27,11.77l-4.59,2.08c-1.9-3.81-4.76-8.65-7.18-11.94l4.5-1.9ZM219.31,348.27c-.69,1.99-1.56,4.33-2.16,6.15-1.38,3.9-3.29,9.17-5.71,13.94-3.46,6.75-9.78,15.58-15.23,20.08l-6.84-4.15c6.23-4.41,12.46-13.33,15.41-18.61,2.42-4.33,3.89-8.74,4.93-12.12.69-2.16,1.13-4.59,1.3-6.84l8.31,1.56ZM208.49,363.15h46.22c2.16,0,5.63-.09,8.14-.52v7.44c-2.77-.17-6.15-.17-8.14-.17h-47.17l.95-6.75ZM240.25,366.79c-.78,26.66-10.65,41.98-26.14,51.85l-7.36-5.02c2.42-.95,5.11-2.51,7.01-4.07,8.92-6.66,18.7-18.78,19.13-42.76h7.36Z"/>
      <path class="cls-9" d="M192.56,251.83h65.26v6.23h-65.26v-6.23ZM193.08,267.15h52.19v5.8h-52.19v-5.8ZM255.23,251.83h6.49v64.31c0,4.5-.87,6.75-3.89,7.96-3.03,1.13-8.48,1.21-16.19,1.21-.35-1.99-1.3-5.19-2.34-7.1,6.06.17,11.94.17,13.76.09,1.64-.09,2.16-.52,2.16-2.16v-64.31ZM198.62,282.3h6.32v34.1h-6.32v-34.1ZM203.81,282.3h35.49v27.7h-35.49v-5.71h29.08v-16.19h-29.08v-5.8Z"/>
      <path class="cls-9" d="M194.55,156.91h67.68v5.63h-67.68v-5.63ZM198.02,169.64h60.85v5.45h-60.85v-5.45ZM189.45,182.7h77.47v5.71h-77.47v-5.71ZM190.92,197.16h74.61v5.71h-74.61v-5.71ZM244.5,187.64h6.58v33.32c0,3.81-.87,5.71-3.64,6.75-2.94,1.04-7.7,1.04-14.97,1.04-.35-1.82-1.38-4.41-2.25-6.32,5.8.17,10.91.17,12.38.09,1.56,0,1.9-.43,1.9-1.64v-33.24ZM223.46,149.38l7.1.78c-4.67,35.92-13.59,60.24-36.27,75.04-1.04-1.38-3.98-4.07-5.71-5.28,22.5-13.07,30.81-36.53,34.88-70.54ZM212.56,209.71l5.37-3.38c4.24,3.89,9.43,9.43,11.94,12.98l-5.63,3.81c-2.34-3.64-7.44-9.35-11.68-13.42Z"/>
      <path class="cls-15" d="M1604.57,724.28h89.01v7.13h-89.01v-7.13ZM1644.59,714.61h7.94v93.6h-7.94v-93.6ZM1642.25,772.96l6.42,2.85c-9.57,12.83-26.38,24.75-41.25,30.86-1.22-1.94-3.56-4.89-5.4-6.42,14.87-5.19,31.57-16.09,40.23-27.29ZM1655.08,773.07c8.76,11.2,25.77,22.1,40.84,27.19-1.83,1.53-4.18,4.48-5.4,6.62-15.07-6.01-32.08-18.23-41.66-30.96l6.21-2.85ZM1620.96,761.56v9.78h56.63v-9.78h-56.63ZM1620.96,746.08v9.68h56.63v-9.68h-56.63ZM1613.53,740.07h71.8v37.38h-71.8v-37.38ZM1604.46,854.57h88.91v7.33h-88.91v-7.33ZM1644.59,842.76h8.05v15.68h-8.05v-15.68ZM1624.53,877.99v16.7h49.09v-16.7h-49.09ZM1616.99,871.27h64.67v30.25h-64.67v-30.25ZM1667.81,910.89l6.93-3.36c6.82,6.62,15.28,15.99,19.45,22l-7.43,3.87c-3.77-5.91-12.02-15.68-18.94-22.51ZM1644.69,898.67h7.94v28.92c0,4.48-1.02,6.62-4.58,7.74-3.46,1.12-9.27,1.22-18.33,1.12-.41-2.04-1.53-5.09-2.55-7.13,6.93.2,13.34.1,15.18,0,1.83,0,2.34-.41,2.34-1.83v-28.82ZM1621.27,907.43l7.74,2.44c-4.89,8.05-12.73,17.11-20.37,22.81-1.53-1.43-4.28-3.46-6.01-4.48,7.33-5.3,14.87-13.75,18.64-20.78Z"/>
      <path d="M627.85,435.95c0,1.66-.27,3.24-.77,4.71-.19.58-.42,1.15-.68,1.69-2.23,4.61-6.8,7.76-12.06,7.76-.82,0-1.63-.08-2.42-.23-4.56-.85-8.32-4.11-10.04-8.47-.68-1.67-1.06-3.53-1.06-5.46,0-5.39,2.87-10.08,7.12-12.47.72-.41,1.48-.75,2.28-1.02,1.3-.44,2.68-.67,4.12-.67,1.61,0,3.14.3,4.57.84.26.09.51.19.76.31.62.27,1.21.59,1.76.97,1.85,1.2,3.4,2.84,4.52,4.8.06.1.12.22.18.33.36.67.67,1.36.91,2.1.53,1.51.81,3.11.81,4.81Z"/>
      <path d="M669.04,428.23c0,5.35-.58,11.98-2.3,17.62-.09.36-.21.71-.33,1.06-.46,1.38-1,2.69-1.62,3.9-.57,1.08-1.2,2.07-1.89,2.95l-.23.27c-.22-.01-.39-.1-.58-.19.06.24.03.51-.09.75-1.38-.1-2.54-.27-3.42-1.35-1.08,1.02-2.14,1.12-3.55.98-.08-.27,0-.49.04-.75-.22.13-.49.14-.75.08-.19-1.31-.28-2.45.48-3.51-1.42-.31-2.1-1.09-2.79-2.32.03-.03.05-.05.08-.08-.66.22-1.36.22-2.2.14-.08-.27,0-.49.04-.75-.22.13-.49.14-.75.08-.19-1.31-.28-2.45.48-3.51-1.42-.31-2.1-1.09-2.79-2.32.18-.22.4-.28.63-.4-.23-.12-.4-.32-.49-.57.31-.3.6-.57.91-.81.49-.37,1-.67,1.61-.77l-23.38-9.68c.36.67.67,1.36.91,2.1.53,1.51.81,3.11.81,4.81s-.27,3.24-.77,4.71c.26-.03.51-.03.77-.03,8.24,0,12.85,5.11,16.76,14.38-6.26-2.83-13.14-7.56-18.21-12.67-.49-.48-.95-.97-1.39-1.45-2.2-2.41-3.95-4.88-5.02-7.26-.5-1.13-.86-2.25-1.03-3.33-.08-.49-.12-.97-.12-1.43,0-.33.01-.67.03-1,0-.12.01-.22.01-.33.03-.48.08-.97.14-1.43.05-.42.12-.84.18-1.25.13-.64.27-1.29.46-1.92.1-.42.24-.84.39-1.24,2.84-8.2,10.46-14.07,19.38-14.07,11.38,0,29.61,8.87,29.61,20.59Z"/>
      <path class="cls-4" d="M1627.64,171.4c-34.45,0-62.4,11.19-62.7,25.04,0,.28,0,.57.01.85.83,13.66,28.57,24.64,62.69,24.64s61.26-10.74,62.65-24.19c.02-.52.04-1.03.04-1.55-.65-13.73-28.46-24.77-62.69-24.77Z"/>
      <g>
        <path class="cls-12" d="M825.32,534.07c0,.16-.04.31-.09.45l.09-.45Z"/>
        <path class="cls-12" d="M1154.01,644.23c-.03-1.43-.07-2.86-.13-4.29-.03-.67-.06-1.34-.09-2-1.03-21.2-5.06-41.6-11.66-60.82-.19-.03-.38-.07-.57-.1-.09-.02-.19-.03-.28-.05-.57-.1-1.15-.19-1.74-.28-1.2-.18-2.43-.36-3.68-.56-.26-.04-.52-.09-.79-.13-.58-.1-1.16-.2-1.74-.31-.33-.06-.65-.12-.98-.19-.57-.12-1.13-.23-1.7-.37-.32-.07-.63-.15-.95-.23-.4-.1-.81-.21-1.21-.32-.4-.11-.81-.23-1.21-.36-4.99-11.66-7.32-17.09-22.58-14.65-5.25.84-9.61,5.69-14.04,7.93.61-18.92-14.53-26.24-28.99-26.24-18.03,0-32.65,14.62-32.65,32.65,0,2.97.4,5.85,1.15,8.59-3.16-1.01-11.7-2.79-15.18-2.79-17.09,0-23.6,15.02-25.02,31.74-1.93-.35-6.22-1.22-8.24-1.22-11.31,0-21.27,5.75-27.13,14.49l-1.16-.84c-7.31-4.27-16.36-4.35-23.7-.13-5.24,3.01-11.06,7.38-17.01,12.08-3.88-7.82-12.51-13.38-22.54-13.38s-19.54,7.12-23.5,14.65c-.91-11.55-10.44-22.58-23.5-22.58-.96,0-1.82-.09-2.75,0,.04-.55,0-.96,0-1.53,0-12.3-11.07-22.28-24.72-22.28-7.67,0-11.03,4.22-15.56,9.15-.96-.1-5.43-1.22-6.41-1.22-13.32,0-24.17,9.5-24.69,21.38-1.87-.4-3.82-.63-5.82-.63-13.65,0-24.72,9.98-24.72,22.28,0,1.17.1,2.31.29,3.42-.6-.04-1.2-.07-1.81-.07-10.78,0-19.94,6.23-23.33,14.9-.24.13-.47.26-.7.39-.09.05-.18.11-.27.16-.06.04-.12.07-.18.11,0,0,0,0-.01,0,.34,6.54.96,13.02,1.86,19.4h0c.95,6.79,2.99,13.66,4.55,20.22l.61.61c.23,0-.85,0-.61,0,1.65,6.91,3.81,12.88,6.1,19.53.08.24.52.98.61,1.22.38,1.12.81,2.56,1.22,3.66.04.11-.66-.11-.61,0,8.44,22.92,23.94,44.23,39.06,62.86l339.49-.07c14.99-18.47,27.05-39.41,35.48-62.1.12-.3.23-.6.34-.9.49-1.35.98-2.7,1.44-4.06.09-.23.16-.46.24-.7,1.97-5.76,3.7-11.64,5.19-17.61,1.02-4.08,1.93-8.2,2.71-12.35.21-1.08.4-2.16.59-3.25,1.77-10.17,2.84-20.58,3.17-31.18.02-.69.04-1.38.05-2.07.04-1.62.05-3.24.05-4.86s-.02-3.14-.05-4.71Z"/>
        <path class="cls-1" d="M933.99,865.23h-.86c-35.17,0-68.42-8.04-97.94-22.37-.02,0-.04-.02-.05-.02h0s-.02-.01-.02-.01c-.7-.34-1.39-.68-2.08-1.03-1.61.78-1.74,3.18-.02,4.06.76.38,1.46.76,2.1,1.12-28.22-13.99-53.01-33.83-72.79-57.94,12.76,15.36,30.76,28.63,49.44,39.86.02.02.05.04.07.04,7.04,4.61,14.37,8.83,21.95,12.63l-.26.06c-.09.02.76.34,1.37.49.48.24.95.48,1.43.71,0,0,.02,0,.02,0h0s.04.02.05.03c29.42,14.27,62.54,22.31,97.58,22.37Z"/>
        <path class="cls-16" d="M1142.05,720.95c-.46,1.36-.95,2.71-1.44,4.06-.1.3-.22.6-.34.9-3.53,9.51-7.7,18.71-12.46,27.54-6.59,12.26-14.32,23.83-23.03,34.56h-2.46c-13.66,15.93-29.64,29.9-47.43,41.42-2.22,1.44-4.47,2.84-6.74,4.2-33.28,19.91-72.35,31.44-114.17,31.6-35.04-.05-68.16-8.09-97.58-22.37-.02,0-.04-.02-.05-.02h0s-.02-.01-.02-.01c-.48-.23-.96-.46-1.43-.71-.6-.16-1.45-.48-1.37-.49l.26-.06c-7.59-3.8-14.91-8.01-21.95-12.63-.02,0-.05-.02-.07-.04-17.45-11.41-33.15-25.2-46.6-40.88-.83-.96-1.65-1.93-2.46-2.92-15.12-18.24-27.26-38.92-35.7-61.37-.05-.1-.09-.21-.12-.31-.31-.82-.61-1.64-.9-2.47h416.08Z"/>
        <path class="cls-22" d="M1142.12,577.12c-.28-.05-.57-.1-.85-.15-.57-.1-1.15-.19-1.74-.28-1.2-.18-2.43-.36-3.68-.56-.26-.04-.52-.09-.79-.13-.58-.1-1.16-.2-1.74-.31-.33-.06-.65-.12-.98-.19-.57-.12-1.13-.23-1.7-.37-.31-.07-.63-.15-.95-.23-.4-.1-.81-.21-1.21-.32-.4-.11-.81-.23-1.21-.36-4.99-11.66-7.32-17.09-22.58-14.65-5.25.84-9.61,5.69-14.04,7.93.61-18.92-14.53-26.24-28.99-26.24-18.03,0-32.65,14.62-32.65,32.65,0,2.97.4,5.85,1.15,8.59-3.16-1.01-11.7-2.79-15.18-2.79-17.09,0-23.6,15.02-25.02,31.74-1.93-.35-6.22-1.22-8.24-1.22-11.31,0-21.27,5.75-27.13,14.49-.45.67-.87,1.35-1.27,2.05-2.72,4.77-4.26,10.28-4.25,16.17,0,5.8,1.57,11.27,4.28,16.01,5.6,9.79,16.11,16.48,28.08,16.58,6.77.06,13.06-1.95,18.3-5.41,5.44,10.47,16.37,17.62,28.99,17.62,8.39,0,16.04-3.17,21.82-8.37.23-.21.45-.42.67-.62.12.38.24.76.38,1.14.69,2,1.57,3.91,2.62,5.7,5.66,9.69,16.17,16.2,28.21,16.2,4.8,0,9.34-1.04,13.45-2.9.52,2.12,1.24,4.16,2.15,6.09,3.33,7.09,9.14,12.79,16.31,15.98,4.05,1.8,8.53,2.8,13.25,2.8s9.19-1,13.24-2.8c.49-.22.99-.45,1.47-.7,1.97-5.76,3.7-11.64,5.19-17.61,1.02-4.08,1.93-8.2,2.71-12.35.21-1.08.4-2.16.59-3.25,2.15-12.38,3.28-25.11,3.28-38.11,0-25.14-4.2-49.3-11.94-71.81ZM1099.13,639c.15.81.32,1.62.52,2.41-.41-.26-.84-.51-1.27-.75.26-.55.51-1.1.74-1.66Z"/>
        <path class="cls-22" d="M914.9,645.03c0,3.44-.87,6.67-2.41,9.54-3.98,7.41-12.47,12.43-22.31,12.43-2.69,0-5.27-.39-7.68-1.1.03.46.05.93.05,1.4,0,12.3-11.07,22.28-24.72,22.28-3.95,0-7.68-.84-10.99-2.31-2.04,3.57-5.12,6.57-8.88,8.7-1.24.7-2.56,1.31-3.94,1.8-.07.02-.14.05-.21.08-2.77.97-5.79,1.5-8.94,1.5-4.79,0-9.26-1.23-13.05-3.36-.08-.04-.15-.08-.23-.12-.09.07-.19.14-.28.21-.71.53-1.45,1.03-2.22,1.48-3.08,1.82-6.63,3.03-10.45,3.45-1.01.12-2.03.18-3.08.18-5.76,0-11.05-1.78-15.25-4.74-3.22,1.65-6.9,2.67-10.81,2.87-.46.02-.93.04-1.41.04h-.11c-2.42-.01-4.75-.33-6.95-.92-.57-.15-5.14-1.9-6.7-2.84.02.34.03.68.03,1.02,0,.84-.06,1.69-.18,2.54-1.28,9.49-9.56,18.85-19.57,21.82-2.11.63-4.29.97-6.5.97-1.28,0-1.34-.2-2.51-.36-.09-.24-.53-.98-.61-1.22-2.25-6.52-4.4-12.57-6.03-19.35-.05-.19.11-.36.3-.34.92.11,2.35.33.85.16h-.61c-1.56-6.56-4.2-14.04-5.16-20.82h0c-.9-6.39-1.53-12.87-1.86-19.41h0c.06-.04.13-.08.19-.12.09-.05.18-.1.27-.16.23-.13.46-.26.7-.39,3.38-8.67,12.54-14.9,23.33-14.9.61,0,1.21.03,1.81.07-.19-1.12-.29-2.26-.29-3.42,0-12.3,11.06-22.28,24.72-22.28,2,0,3.95.23,5.82.63.52-11.88,11.38-21.38,24.69-21.38.98,0,5.45,1.12,6.41,1.22,4.53-4.94,7.89-9.15,15.56-9.15,13.65,0,24.72,9.98,24.72,22.28,0,.57.04.98,0,1.53.92-.09,1.79,0,2.75,0,13.05,0,22.59,11.03,23.5,22.58,3.96-7.53,13.63-14.65,23.5-14.65s18.67,5.56,22.54,13.38c.54,1.09.98,2.22,1.32,3.39.56,1.86.85,3.81.85,5.81Z"/>
        <path class="cls-8" d="M1147.48,702.65c-1.49,5.97-3.22,11.85-5.19,17.61-.08.23-.16.46-.24.7-.46,1.36-.95,2.71-1.44,4.06l-413.76-.4c-.41-1.1-1.45-3.16-1.83-4.27-.09-.24,1.3-.37,1.22-.61-2.29-6.65-5.67-12-7.32-18.92,8.84.14,20.55-.29,35.29-1.68,1.82-.17,3.67-.36,5.56-.57.43-.05.85-.1,1.29-.15.95-.11,1.91-.22,2.88-.34.84-.1,1.7-.21,2.55-.32,4.64-.6,9.47-1.32,14.44-2.18,32.24-5.56,70.79-16.89,108.18-39.42,8.4-5.06,16.75-10.69,24.94-16.94,1.54-1.18,3.09-2.38,4.62-3.6,0,0,14.37-19.88,34.65-8.84,3.17,1.72,6.48,4.19,9.9,7.62,5.81,5.81,16.73,10.39,21.97,14.04,6.12,4.25,15.73,9.33,22.51,12.35h.01c.88.4,1.73.76,2.5,1.07,11.18,4.58,12.38,4.99,26.24,10.99,5.15,2.23,9.78,4.42,14.09,6.53.35.17.7.34,1.05.51,2.83,1.4,5.52,2.76,8.15,4.08,13.16,6.59,24.66,12.12,42.46,15.49.3.05.6.12.9.16,16.76,3.12,32.19,4.4,44.37,3.03Z"/>
        <path class="cls-10" d="M1122.98,678.68l-15.12-6.46c-5.27-.4-30.36,6.54-48.12,11.74-1.95.57-3.8,1.11-5.53,1.62-6.25,1.86-10.89,3.28-12.27,3.72l-13.96.76c-.29.01-.57.05-.85.12-1.24.3-2.43.76-3.55,1.35l-23.72,9.25c-1.23.48-2.54.76-3.86.84l-8.99.5-6.01,2.51c-.86.35-1.79.49-2.72.4l-15.68-2.91c.09.46.07.87,0,1.22-.48,2.47-3.94,4.29-8.54,4.88l-6.1-2.44-12.57,3.75c-4.84-.24-11.57-1.1-19.16-3.75-7.66-2.67-13.5-6.23-17.45-9.07-2.93,1.19-5.86,2.39-8.79,3.58l-7.36-2.45c-1.17-.39-2.42-.43-3.61-.1l-11.61,3.17c-.78.07-1.6.07-2.44,0-6.49-.57-10.86-5.58-12.5-7.71-.71-.37-2.12-.98-4-1.02-1.37-.03-2.75.24-4.03.83l-6.46,2.96-3.94,1.8-.2.09h-.02s-3.54-2.67-3.54-2.67c-.81-.6-1.89-.68-2.77-.2l-5.27,2.87-6.62-1.65c-1.24-.31-2.53-.38-3.79-.22-.17.02-.34.05-.51.09-.63.12-1.26.29-1.86.52-.07.25-.19.58-.35.95-.37.84-1.02,1.89-2.12,2.75-2.22,1.73-5.42,1.97-8.32.7-.07-.02-.15-.05-.22-.09-5.83-1.78-11.67-3.55-17.51-5.33-2.67-.82-5.35-1.63-8.03-2.45-1.68-.51-3.43-.74-5.19-.69l-9.87.3c-18.31-11.35-40.55-29-43.98-32.74.98,5.68.93,12.6.51,19.98h0c.95,6.79,3.6,14.27,5.16,20.83h3.66c.23,0-4.51,0-4.27,0,1.65,6.91,4.42,12.88,6.71,19.53.08.24-.09.98,0,1.22.38,1.12.2.12.61,1.22.04.11,1.17,1.11,1.22,1.22l41.39,1.39,309.39.43,62.03.09c.12-.3.23-.6.34-.9.49-1.35.98-2.7,1.44-4.06.09-.23.16-.46.24-.7,1.97-5.76,3.7-11.64,5.19-17.61,1.02-4.08,1.93-8.2,2.71-12.35l-27.21-11.62ZM777.33,702.25s-.23-.04-.6-.13c-1.06-.27-2.23-.67-3.51-1.17,2.38.73,3.98,1.23,4.11,1.31Z"/>
        <path class="cls-3" d="M1160.06,694.51c-.09.92-.23,1.84-.4,2.73-.1-.21-.23-.41-.38-.6l-3.27-3.7-.24-.27.27.11,4.03,1.73Z"/>
        <path class="cls-17" d="M1011.74,661.54l-4.03-.75h-.01s-33.49-6.27-33.49-6.27l-20.85,4.44-7.83,1.67-32.35-6.1-.69.05-23.38,1.59-3.49.24c8.1-4.99,17.75-13.18,27.11-20.57,5.94-4.7,11.77-9.06,17.01-12.08,7.34-4.22,16.39-4.14,23.7.13l1.16.84,16.56,12.1,40.58,24.72Z"/>
        <path class="cls-1" d="M1155.76,692.67l-5.57-2.37c.21-1.08.4-2.16.59-3.25l4.97,5.62Z"/>
        <path d="M825.32,534.07c0,.16-.04.31-.09.45l.09-.45Z"/>
        <path class="cls-23" d="M834.89,842.12c-.6-.16-1.45-.48-1.37-.49l.26-.06.53-.12c1.62.84,1.26.85.58.68Z"/>
        <path class="cls-12" d="M965.13,434.89c-10.44-1.48-21.13-2.25-31.99-2.25-70.38,0-133.07,32.22-173.52,82.41-25.82,33.3-42.68,74.13-46.87,118.72-.03.28-.05.57-.08.85,0,.05,0,.09-.01.13-.18,2.94-.31,5.88-.38,8.84-.04,1.78-.06,3.56-.06,5.35,0,1.92.02,3.82.08,5.72.04,1.98.12,3.95.23,5.93h0s0,0,.01,0c.05-.04.12-.07.18-.11.09-.05.18-.1.27-.16.23-.13.46-.26.7-.39,3.38-8.67,12.54-14.9,23.33-14.9.61,0,1.21.03,1.81.07-.19-1.12-.29-2.26-.29-3.42,0-12.3,11.06-22.28,24.72-22.28,2,0,3.95.23,5.82.63.52-11.88,11.38-21.38,24.69-21.38.98,0,5.45,1.12,6.41,1.22,4.53-4.94,7.89-9.15,15.56-9.15,13.65,0,24.72,9.98,24.72,22.28,0,.57.04.98,0,1.53.92-.09,1.79,0,2.75,0,13.05,0,22.59,11.03,23.5,22.58,3.96-7.53,13.63-14.65,23.5-14.65s18.67,5.56,22.54,13.38c5.94-4.7,11.77-9.06,17.01-12.08,7.34-4.22,16.39-4.14,23.7.13l1.16.84c5.86-8.74,15.83-14.49,27.13-14.49,2.02,0,6.31.87,8.24,1.22,1.42-16.72,7.93-31.74,25.02-31.74,3.48,0,12.03,1.78,15.18,2.79-.74-2.73-1.15-5.61-1.15-8.59,0-18.03,14.62-32.65,32.65-32.65,14.46,0,29.6,7.32,28.99,26.24,4.43-2.25,8.79-7.09,14.04-7.93,15.26-2.44,17.59,2.98,22.58,14.65.4.13.81.25,1.21.36.4.12.81.23,1.21.32.32.08.63.16.95.23.57.13,1.13.25,1.7.37.33.07.65.13.98.19.58.11,1.16.21,1.74.31.26.04.52.09.79.13,1.25.2,2.48.38,3.68.56.59.09,1.17.18,1.74.28.09.02.19.03.28.05-26.85-74.61-94.32-130.48-176.42-142.13ZM825.23,534.52l.09-.45c0,.16-.04.31-.09.45Z"/>
        <path class="cls-1" d="M1142.12,577.12c-.19-.03-.38-.07-.57-.1-26.85-74.61-94.32-130.48-176.42-142.13-10.44-1.48-21.13-2.25-31.99-2.25-70.38,0-133.07,32.22-173.52,82.41,40.94-52.83,104.45-86.74,175.74-86.74,10.09,0,20.04.68,29.78,2,82.69,11.99,150.54,69.78,177,146.81Z"/>
        <path class="cls-1" d="M1145.54,577.86c-.32-.09-.65-.16-.98-.24-.33-.07-.67-.15-1.01-.22-.47-.09-.95-.18-1.43-.27-26.46-77.03-94.31-134.82-177-146.81,83.49,11.3,152.42,69.42,180.42,147.55Z"/>
        <path class="cls-1" d="M712.21,648.94c0,3.91.1,7.79.31,11.64h0c-.25.15-.5.29-.74.44-.04-1.78-.06-3.56-.06-5.34,0-7.06.32-14.04.94-20.93-.29,4.69-.45,9.42-.45,14.19Z"/>
        <path class="cls-24" d="M825.32,534.07c0,.16-.04.31-.09.45l.09-.45Z"/>
        <path class="cls-5" d="M1155.28,648.94c0,1.62-.02,3.25-.05,4.86-.02.69-.04,1.38-.05,2.07-.34,10.33-1.4,20.47-3.17,30.38-.04.22-.08.45-.12.67-.15.84-.31,1.68-.47,2.51-.78,4.07-1.69,8.1-2.71,12.09-1.49,5.85-3.22,11.6-5.19,17.24-.08.23-.16.45-.24.68-.18.51-.35,1.01-.54,1.51-.29.82-.6,1.64-.9,2.47-.1.29-.22.59-.34.88-3.83,10.09-8.41,19.83-13.68,29.15-6.32,11.19-13.63,21.78-21.81,31.64-.81.98-1.63,1.95-2.46,2.92-13.66,15.93-29.64,29.9-47.43,41.42-2.22,1.44-4.47,2.84-6.74,4.2-33.51,20.05-72.89,31.6-115.03,31.6h-.36c-35.04-.05-68.16-8.09-97.58-22.37-.02,0-.04-.02-.05-.02h0s-.02-.01-.02-.01c-.48-.23-.96-.46-1.43-.71-.22-.1-.43-.21-.65-.32-.15-.08-.31-.15-.46-.24-7.59-3.8-14.91-8.01-21.95-12.63-.02,0-.05-.02-.07-.04-17.45-11.41-33.15-25.2-46.6-40.88-.83-.96-1.65-1.93-2.46-2.92-15.12-18.24-27.26-38.92-35.7-61.37-.05-.1-.09-.21-.12-.31-.31-.82-.61-1.64-.9-2.47-.1-.27-.2-.53-.29-.8-.09-.24-.17-.47-.25-.71-2.26-6.43-4.22-12.98-5.86-19.66-.02-.09-.04-.18-.07-.27-.05-.19-.1-.38-.14-.58-.01-.05-.03-.12-.04-.17-1.54-6.37-2.78-12.85-3.73-19.42h0c-.88-6.18-1.51-12.44-1.85-18.76,0-.08,0-.16-.01-.24h0c-.1-1.9-.18-3.79-.23-5.69-.05-1.9-.08-3.8-.08-5.72,0-1.79.02-3.57.06-5.35.08-2.86.2-5.71.38-8.54,0-.04,0-.09.01-.13.02-.38.05-.76.08-1.15,3.16-44.67,20.18-85.61,46.87-118.72,40.45-50.19,103.14-82.41,173.52-82.41,10.86,0,21.55.77,31.99,2.25,82.1,11.66,149.57,67.52,176.42,142.13.2.53.38,1.07.57,1.61,6.58,18.74,10.6,38.64,11.66,59.31.03.67.06,1.33.09,2,.05,1.43.1,2.86.13,4.29.03,1.56.05,3.13.05,4.71Z"/>
      </g>
      <circle class="cls-11" cx="1039.17" cy="470.33" r="56.02"/>
      <g>
        <path class="cls-20" d="M1511.79,777.88l4.13-5.5c0-1.38-.81-2.24-1.38-2.75l-383.95-334.8c-.56-.51-1.44-.45-1.94.12l-2.78,3.15c-.51.56-.45,1.44.12,1.94l381.66,340.59c1.38,1.38,3.58-2.13,4.13-2.75Z"/>
        <path class="cls-20" d="M1463.92,828.06l4.73-4.99c.15-1.36-.55-2.32-1.06-2.89l-343.35-376.31c-.51-.56-1.38-.61-1.94-.1l-3.12,2.81c-.56.51-.61,1.38-.1,1.94l340.42,381.8c1.21,1.53,3.8-1.71,4.42-2.27h0Z"/>
        <polygon class="cls-21" points="1463.97 741.63 1471.97 732.5 1505.82 762 1497.48 771.54 1463.97 741.63"/>
        <polygon class="cls-21" points="1419.69 785.83 1429.02 778.03 1457.62 809.34 1448.43 818.06 1419.69 785.83"/>
      </g>
      <path class="cls-14" d="M561.59,214.16c-2.59,0-4.75-.2-6.48-.6-2.4-.51-4.16-1.29-5.28-2.36-2.51-5.31-4.65-11.12-6.44-17.44-2.48-8.75-4.21-17.77-5.2-27.07,1.2-1.76,2.84-3.12,4.92-4.08,2.08-.99,4.4-1.48,6.96-1.48,3.84,0,6.85.73,9.04,2.2,2.21,1.47,3.32,3.56,3.32,6.28-.19,2.03-.36,5-.52,8.92-.13,3.92-.2,7.47-.2,10.64,0,.88.08,1.57.24,2.08.19.48.56.72,1.12.72.21,0,.48-.04.8-.12-.03-.24-.04-.64-.04-1.2v-1.4c0-3.87.13-8.32.4-13.36.27-5.07.59-8.84.96-11.32,2.43-1.49,5.28-2.24,8.56-2.24s5.92.45,7.92,1.36c2.4,1.12,3.67,2.76,3.8,4.92-.13,2.61-.39,5.19-.76,7.72-.35,2.53-.77,5.45-1.28,8.76-.51,3.31-.83,5.49-.96,6.56.21.11.49.16.84.16s.67-.13.96-.4c.29-.27.53-.91.72-1.92.83-4.27,1.51-8.76,2.04-13.48.53-4.75.88-8.88,1.04-12.4,2.45-1.65,5.84-2.48,10.16-2.48,3.49,0,6.28.93,8.36,2.8,2.08,1.84,3.12,4.32,3.12,7.44,0,2.08-.99,7.53-2.96,16.36-1.01,4.64-1.99,8.61-2.92,11.92-.93,3.28-1.69,5.59-2.28,6.92-1.23,2.69-3.07,4.64-5.52,5.84-2.43,1.17-5.53,1.76-9.32,1.76-1.52,0-3.28-.23-5.28-.68-1.97-.45-3.48-.96-4.52-1.52-.53-.83-1.13-2.08-1.8-3.76s-1.08-2.95-1.24-3.8c-1.04.03-1.56.59-1.56,1.68,0,.85.41,2.43,1.24,4.72-2.8,2.24-6.79,3.36-11.96,3.36ZM632.86,214.72c-7.39,0-13.21-2.05-17.48-6.16-4.37-4.13-6.56-9.78-6.56-16.96s2.25-12.9,6.76-17.12c4.16-3.92,9.42-5.88,15.8-5.88s11.48,1.76,15.32,5.28c3.87,3.49,5.8,7.8,5.8,12.92,0,4.56-1.59,8-4.76,10.32-2.93,2.19-6.93,3.28-12,3.28-3.79,0-6.99-.79-9.6-2.36-.21.16-.32.45-.32.88,0,.8,1.05,1.53,3.16,2.2,2.11.72,4.49,1.08,7.16,1.08s5.13-.33,7.32-1c2.21-.69,3.99-1.51,5.32-2.44.64.56,1.15,1.6,1.52,3.12.4,1.49.6,2.87.6,4.12s-.12,2.32-.36,3.28c-2.08,1.76-4.21,3.01-6.4,3.76-3.09,1.12-6.85,1.68-11.28,1.68ZM632.34,187.64c1.33,0,2-.51,2-1.52,0-.96-.71-1.44-2.12-1.44s-2.23.76-2.44,2.28c.75.45,1.6.68,2.56.68ZM675.13,165.21v28.11c0,3.97.96,6.56,2.88,7.76.03.13.04.39.04.76v.72c0,3.81-.97,6.71-2.92,8.68-1.92,1.97-4.65,2.96-8.2,2.96s-6.36-.99-8.44-2.96c-2.48-2.35-3.72-5.89-3.72-10.64v-41.55c2.8-1.71,6-2.56,9.6-2.56s6.32.77,8.08,2.32c1.79,1.52,2.68,3.65,2.68,6.4ZM701.33,214.72c-6.93,0-12.46-2.13-16.6-6.4-4.11-4.29-6.16-10.04-6.16-17.24s2.33-12.89,7-17.08c4.16-3.73,9.36-5.6,15.6-5.6,5.55,0,10.14,1.37,13.8,4.12,3.65,2.72,5.48,6.43,5.48,11.12,0,3.25-1.01,5.91-3.04,7.96-2,2.03-4.64,3.04-7.92,3.04-2.67,0-4.89-.71-6.68-2.12-1.76-1.44-2.8-3.31-3.12-5.6-1.17,0-1.76.43-1.76,1.28,0,1.95.96,3.73,2.88,5.36,2.21,1.92,4.96,2.88,8.24,2.88s6.04-.71,8.2-2.12c1.33,2.05,2,4.55,2,7.48,0,3.41-1.47,6.33-4.4,8.76-3.36,2.77-7.86,4.16-13.52,4.16ZM743.04,191.2v7c.19.19.49.28.92.28s.73-.15.92-.44c.19-.29.28-.8.28-1.52v-5.72c0-2.56-.11-4.25-.32-5.08-.21-.85-.61-1.28-1.2-1.28-.37,0-.69.13-.96.4.24,2.64.36,4.76.36,6.36ZM728.08,208.92c-4.37-4.21-6.56-9.92-6.56-17.12s2.05-12.92,6.16-17.08c4.13-4.19,9.54-6.28,16.24-6.28s12.1,2.17,16.24,6.52c4.11,4.35,6.16,10.01,6.16,17s-1.99,12.49-5.96,16.6c-3.95,4.11-9.32,6.16-16.12,6.16s-12.18-1.93-16.16-5.8ZM833.7,193.68c0,1.95.21,3.53.64,4.76.43,1.23,1.17,2.17,2.24,2.84.03.13.04.36.04.68v.6c0,3.65-1.07,6.51-3.2,8.56-2.13,2.05-4.89,3.08-8.28,3.08s-6.07-.92-8.12-2.76c-2.43-2.13-3.64-5.4-3.64-9.8v-12.64c0-1.79-.59-2.68-1.76-2.68-.45,0-.81.11-1.08.32l.72,5.96v9.04c0,3.63.6,6.37,1.8,8.24-1.28,1.36-2.88,2.43-4.8,3.2-1.89.75-3.83,1.12-5.8,1.12-3.2,0-5.68-.77-7.44-2.32-2.13-1.87-3.2-4.81-3.2-8.84v-14.04c0-1.79-.59-2.68-1.76-2.68-.45,0-.81.11-1.08.32l.72,5.96v10.6c0,2.99.4,5.29,1.2,6.92-2.61,2.69-6.28,4.04-11,4.04-2.8,0-5.16-.71-7.08-2.12-2.21-1.63-3.32-3.81-3.32-6.56v-19.12c-1.57-2.21-2.36-4.93-2.36-8.16s.79-6.07,2.36-8.44h9.64c1.89,0,3.51.71,4.84,2.12-1.17,1.09-1.76,2-1.76,2.72,0,.83.47,1.24,1.4,1.24,1.17-2.03,2.79-3.64,4.84-4.84,2.4-1.36,5.21-2.04,8.44-2.04,2.45,0,4.6.52,6.44,1.56,1.87,1.04,3.25,2.24,4.16,3.6,1.25-1.71,2.88-2.99,4.88-3.84,2.03-.88,4.13-1.32,6.32-1.32,4.83,0,8.57,1.49,11.24,4.48,2.61,2.99,3.92,7.08,3.92,12.28l-.16,7.96ZM861.13,214.72c-7.39,0-13.21-2.05-17.48-6.16-4.37-4.13-6.56-9.78-6.56-16.96s2.25-12.9,6.76-17.12c4.16-3.92,9.42-5.88,15.8-5.88s11.48,1.76,15.32,5.28c3.87,3.49,5.8,7.8,5.8,12.92,0,4.56-1.59,8-4.76,10.32-2.93,2.19-6.93,3.28-12,3.28-3.79,0-6.99-.79-9.6-2.36-.21.16-.32.45-.32.88,0,.8,1.05,1.53,3.16,2.2,2.11.72,4.49,1.08,7.16,1.08s5.13-.33,7.32-1c2.21-.69,3.99-1.51,5.32-2.44.64.56,1.15,1.6,1.52,3.12.4,1.49.6,2.87.6,4.12s-.12,2.32-.36,3.28c-2.08,1.76-4.21,3.01-6.4,3.76-3.09,1.12-6.85,1.68-11.28,1.68ZM860.61,187.64c1.33,0,2-.51,2-1.52,0-.96-.71-1.44-2.12-1.44s-2.23.76-2.44,2.28c.75.45,1.6.68,2.56.68ZM906.69,188.2h2.48c1.33,0,2-.44,2-1.32,0-.11-.03-.27-.08-.48h-8.96c-.59-1.87-.88-3.95-.88-6.24s.17-4.2.52-5.64c1.52-.96,3.61-2.43,6.28-4.4.75-1.81,1.72-4.69,2.92-8.64.16-.53.35-1.05.56-1.56,2.08-.53,4.45-.8,7.12-.8s5.29.28,7.88.84v9.8h6.92c1.55,2.35,2.32,5.11,2.32,8.28,0,1.44-.2,2.92-.6,4.44-.4,1.52-.97,2.81-1.72,3.88h-5.72v6.04c0,3.41,1.43,5.12,4.28,5.12h1.72c.56,2.03.84,3.79.84,5.28,0,3.68-1.16,6.51-3.48,8.48-2.29,1.95-5.64,2.92-10.04,2.92s-7.87-1.21-10.48-3.64c-2.59-2.45-3.88-6.05-3.88-10.8v-11.56ZM957.4,191.2v7c.19.19.49.28.92.28s.73-.15.92-.44c.19-.29.28-.8.28-1.52v-5.72c0-2.56-.11-4.25-.32-5.08-.21-.85-.61-1.28-1.2-1.28-.37,0-.69.13-.96.4.24,2.64.36,4.76.36,6.36ZM942.44,208.92c-4.37-4.21-6.56-9.92-6.56-17.12s2.05-12.92,6.16-17.08c4.13-4.19,9.54-6.28,16.24-6.28s12.1,2.17,16.24,6.52c4.11,4.35,6.16,10.01,6.16,17s-1.99,12.49-5.96,16.6c-3.95,4.11-9.32,6.16-16.12,6.16s-12.18-1.93-16.16-5.8ZM1006.59,188.2h2.48c1.33,0,2-.44,2-1.32,0-.11-.03-.27-.08-.48h-8.96c-.59-1.87-.88-3.95-.88-6.24s.17-4.2.52-5.64c1.52-.96,3.61-2.43,6.28-4.4.75-1.81,1.72-4.69,2.92-8.64.16-.53.35-1.05.56-1.56,2.08-.53,4.45-.8,7.12-.8s5.29.28,7.88.84v9.8h6.92c1.55,2.35,2.32,5.11,2.32,8.28,0,1.44-.2,2.92-.6,4.44-.4,1.52-.97,2.81-1.72,3.88h-5.72v6.04c0,3.41,1.43,5.12,4.28,5.12h1.72c.56,2.03.84,3.79.84,5.28,0,3.68-1.16,6.51-3.48,8.48-2.29,1.95-5.64,2.92-10.04,2.92s-7.87-1.21-10.48-3.64c-2.59-2.45-3.88-6.05-3.88-10.8v-11.56ZM1079.41,193.68c0,1.92.21,3.47.64,4.64.43,1.17,1.17,2.09,2.24,2.76.03.13.04.39.04.76v.72c0,3.68-1.07,6.55-3.2,8.6-2.11,2.03-4.84,3.04-8.2,3.04s-6.04-.95-8.12-2.84c-2.43-2.16-3.64-5.44-3.64-9.84,0-1.87.08-3.51.24-4.92.19-1.44.31-2.47.36-3.08.08-.61.16-1.19.24-1.72s.12-1.32.12-2.36-.15-1.79-.44-2.24c-.27-.45-.65-.68-1.16-.68-.48,0-.91.11-1.28.32l.52,6.52c-.48,2.69-.72,5.55-.72,8.56s.68,5.76,2.04,8.24c-2.61,2.69-6.28,4.04-11,4.04-2.69,0-5.03-.71-7-2.12-2.29-1.6-3.44-3.72-3.44-6.36v-46.67c1.28-.75,2.81-1.36,4.6-1.84,1.81-.48,3.64-.72,5.48-.72,3.07,0,5.6.6,7.6,1.8,2.27,1.41,3.4,3.44,3.4,6.08v3.8c-2.32.13-4.55.8-6.68,2-1.84,1.07-2.76,2.04-2.76,2.92,0,.29.11.56.32.8.21.21.47.35.76.4,1.12-1.31,2.69-2.4,4.72-3.28,2.05-.88,4.48-1.32,7.28-1.32s5.32.43,7.56,1.28c2.83,1.07,5.05,2.69,6.68,4.88,1.95,2.67,2.92,6.01,2.92,10.04l-.12,7.8ZM1106.85,214.72c-7.39,0-13.21-2.05-17.48-6.16-4.37-4.13-6.56-9.78-6.56-16.96s2.25-12.9,6.76-17.12c4.16-3.92,9.42-5.88,15.8-5.88s11.48,1.76,15.32,5.28c3.87,3.49,5.8,7.8,5.8,12.92,0,4.56-1.59,8-4.76,10.32-2.93,2.19-6.93,3.28-12,3.28-3.79,0-6.99-.79-9.6-2.36-.21.16-.32.45-.32.88,0,.8,1.05,1.53,3.16,2.2,2.11.72,4.49,1.08,7.16,1.08s5.13-.33,7.32-1c2.21-.69,3.99-1.51,5.32-2.44.64.56,1.15,1.6,1.52,3.12.4,1.49.6,2.87.6,4.12s-.12,2.32-.36,3.28c-2.08,1.76-4.21,3.01-6.4,3.76-3.09,1.12-6.85,1.68-11.28,1.68ZM1106.33,187.64c1.33,0,2-.51,2-1.52,0-.96-.71-1.44-2.12-1.44s-2.23.76-2.44,2.28c.75.45,1.6.68,2.56.68ZM1170.35,184.8c0-.96-.36-1.44-1.08-1.44-.67,0-1,.4-1,1.2v4.12c.21.19.54.28.96.28s.72-.16.88-.48c.16-.32.24-.91.24-1.76v-1.92ZM1171.83,201c-1.71,0-3.16-.12-4.36-.36-.08.24-.12.47-.12.68,0,.59.41.99,1.24,1.2.85.19,1.93.28,3.24.28,4.16,0,7.71-.61,10.64-1.84,2.88.75,5.12,2.37,6.72,4.88,1.3,2.05,1.96,4.47,1.96,7.24,0,4.93-2.09,8.77-6.28,11.52-4.18,2.75-9.58,4.12-16.19,4.12s-11.68-1.17-15.28-3.52c-3.33-2.13-5-4.91-5-8.32,0-1.31.31-2.56.92-3.76.61-1.23,1.32-2.07,2.12-2.52,1.33,1.12,3.29,2.03,5.88,2.72,2.61.69,5.29,1.04,8.04,1.04s4.51-.11,5.28-.32c.8-.21,1.2-.59,1.2-1.12,0-.27-.08-.53-.24-.8-1.34.29-3,.44-5,.44-5.15,0-9.19-.73-12.12-2.2-3.57-1.76-5.36-4.41-5.36-7.96,0-1.39.28-2.67.84-3.84.56-1.2,1.39-2.09,2.48-2.68-1.47-.91-2.72-2.28-3.76-4.12-1.01-1.84-1.52-4.11-1.52-6.8,0-5.12,1.92-9.16,5.76-12.12,3.84-2.96,8.82-4.44,14.96-4.44,2.95,0,5.81.49,8.56,1.48v-2.8c1.58-.61,3.65-.92,6.24-.92s4.6.44,5.96,1.32c1.65,1.07,2.48,2.95,2.48,5.64,0,1.49-.16,2.69-.48,3.6-.3.91-.74,1.85-1.32,2.84.69,1.76,1.04,3.95,1.04,6.56,0,4.72-1.68,8.39-5.04,11-3.33,2.59-7.82,3.88-13.48,3.88ZM1205.46,214c-3.17,0-5.7-.57-7.6-1.72-2.1-1.2-3.16-2.97-3.16-5.32v-20.6c-1.58-2.21-2.36-4.93-2.36-8.16s.79-6.07,2.36-8.44h6.12c3.15,0,5.4,1.01,6.76,3.04-.67.75-1.25,1.69-1.76,2.84-.51,1.15-.76,1.97-.76,2.48,0,.48.12.84.36,1.08.26.24.64.36,1.12.36.93-3.71,2.7-6.43,5.32-8.16,2.16-1.47,4.83-2.2,8-2.2,3.94,0,7.04.84,9.27,2.52.8,2.13,1.2,4.75,1.2,7.84s-.62,5.85-1.84,8.36c-.91.48-2.16.89-3.76,1.24-1.6.32-3.21.48-4.84.48s-3.09-.11-4.4-.32c-1.28-.24-2.21-.45-2.8-.64-.21.21-.32.52-.32.92s.25.71.76.92c.54.19,1.42.4,2.64.64v20.08c-2.9,1.84-6.34,2.76-10.32,2.76ZM1270.17,193.68c0,1.92.21,3.47.64,4.64.42,1.17,1.17,2.09,2.24,2.76.03.13.04.39.04.76v.72c0,3.79-1.15,6.73-3.44,8.84-2.02,1.87-4.53,2.8-7.52,2.8-2.02,0-3.88-.48-5.56-1.44-1.68-.96-2.88-2.35-3.6-4.16-.91,0-1.36.44-1.36,1.32,0,.75.47,1.59,1.4,2.52-1.73,1.17-4.35,1.76-7.84,1.76-4.93,0-8.88-1.33-11.84-4-2.94-2.69-4.4-6.44-4.4-11.24s1.56-8.56,4.67-11.2c2.85-2.37,6.55-3.56,11.08-3.56,1.54,0,3.04.11,4.47.32.96.19,1.48.29,1.56.32.08-.27.12-.49.12-.68,0-.69-.59-1.16-1.76-1.4s-2.71-.36-4.6-.36c-4.03,0-7.47.81-10.32,2.44-1.3-2.21-1.96-5.01-1.96-8.4,0-1.92.24-3.35.72-4.28,1.92-.88,4.36-1.65,7.32-2.32,2.96-.69,6.08-1.04,9.36-1.04,6.77,0,11.89,1.48,15.36,4.44,3.47,2.96,5.2,7.16,5.2,12.6v7.84ZM1249.42,195.64c-1.12,0-1.68.51-1.68,1.52,0,.96.66,1.44,1.96,1.44.91,0,1.58-.21,2-.64.43-.45.64-1.23.64-2.32h-2.92ZM1317.09,193.68c0,1.92.21,3.47.64,4.64.43,1.17,1.18,2.09,2.24,2.76.03.13.04.39.04.76v.72c0,3.68-1.06,6.55-3.2,8.6-2.1,2.03-4.84,3.04-8.2,3.04s-6.04-.95-8.11-2.84c-2.43-2.16-3.64-5.44-3.64-9.84,0-1.87.08-3.51.24-4.92.19-1.44.31-2.47.36-3.08.08-.61.16-1.19.24-1.72s.12-1.32.12-2.36-.14-1.79-.44-2.24c-.26-.45-.65-.68-1.16-.68-.48,0-.91.11-1.28.32l.52,6.52c-.48,2.69-.72,5.55-.72,8.56s.68,5.76,2.04,8.24c-2.61,2.69-6.28,4.04-10.99,4.04-2.7,0-5.03-.71-7-2.12-2.29-1.6-3.44-3.72-3.44-6.36v-19.36c-1.58-2.21-2.36-4.93-2.36-8.16s.79-6.07,2.36-8.44h7.12c1.89,0,3.5.71,4.84,2.12-1.17,1.09-1.76,2-1.76,2.72,0,.83.47,1.24,1.41,1.24,1.17-2.03,2.95-3.71,5.36-5.04,2.43-1.33,5.17-2,8.24-2,4.61,0,8.36,1.13,11.24,3.4,3.62,2.85,5.44,7.28,5.44,13.28l-.12,8.2ZM1343.8,185.12c-.26-.27-.59-.4-.96-.4-.59,0-.99.43-1.2,1.28-.21.83-.32,2.52-.32,5.08v4.08c0,.72.09,1.23.28,1.52.19.29.49.44.92.44s.73-.09.92-.28v-5.36c0-2.61.12-4.73.36-6.36ZM1340.92,161.49c1.41-1.65,2.97-2.89,4.68-3.72,1.71-.85,3.87-1.28,6.51-1.28,3.2,0,5.8.89,7.8,2.68,2.05,1.92,3.08,4.51,3.08,7.76v26.39c0,3.97.96,6.56,2.88,7.76.03.13.04.39.04.76v.72c0,3.79-1.15,6.73-3.44,8.84-2.02,1.87-4.53,2.8-7.52,2.8-2.08,0-3.88-.44-5.4-1.32-1.78-1.01-3.04-2.4-3.76-4.16-.9,0-1.35.44-1.35,1.32,0,.4.14.87.43,1.4.32.51.75.96,1.29,1.36-1.58.93-3.62,1.4-6.12,1.4-3.38,0-6.56-.77-9.51-2.32-2.94-1.57-5.27-3.93-7-7.08-2-3.6-3-7.96-3-13.08,0-6.83,1.9-12.18,5.71-16.08,3.84-3.89,8.73-5.84,14.68-5.84,3.52,0,6.58.67,9.2,2,.3-.29.44-.6.44-.92,0-.8-.95-1.48-2.84-2.04-1.89-.56-3.8-.84-5.72-.84,0-2.72-.36-4.89-1.08-6.52ZM754.96,293.43c.88-.16,1.32-.6,1.32-1.32s-.24-1.57-.72-2.48c-.45-.93-1.13-1.81-2.04-2.64-2.37-2.13-5.59-3.2-9.64-3.2-2,0-3.87.33-5.6,1-1.84-.93-3.31-2.41-4.4-4.44-1.09-2.03-1.64-4.21-1.64-6.56,0-6.13,2.56-10.86,7.68-14.2,4.4-2.85,9.82-4.28,16.28-4.28,4.8,0,8.84.52,12.12,1.56,3.28,1.01,5.96,2.32,8.04,3.92.61,1.76.92,3.59.92,5.48s-.25,3.61-.76,5.16c-.51,1.55-1.24,2.79-2.2,3.72-.91-.67-2.55-1.35-4.92-2.04-2.37-.69-4.53-1.04-6.48-1.04s-3.25.12-3.92.36c-.64.24-.96.61-.96,1.12,0,.24.04.47.12.68.93-.24,2.13-.36,3.6-.36,5.2,0,9.44,1.23,12.72,3.68,3.87,2.93,5.8,7.33,5.8,13.2,0,5.17-2.09,9.46-6.28,12.88-4.53,3.65-10.62,5.48-18.28,5.48-4.21,0-7.86-.32-10.96-.96-3.09-.61-6.11-1.71-9.04-3.28-2-2.91-3-5.85-3-8.84s1.03-5.51,3.08-7.48c2.05-1.97,4.57-2.96,7.56-2.96s5.47.61,7.36,1.84c1.92,1.23,3.33,3.23,4.24,6ZM803.51,290.55c.32,0,.67-.13,1.04-.4-.27-.88-.4-2.25-.4-4.12v-19.76c2.83-1.71,6.23-2.56,10.2-2.56,2.24,0,4.2.31,5.88.92,1.71.59,3.01,1.37,3.92,2.36v20.84c0,3.97.96,6.56,2.88,7.76.03.13.04.39.04.76v.72c0,3.89-1.03,6.84-3.08,8.84-1.87,1.87-4.44,2.8-7.72,2.8-2.05,0-3.92-.47-5.6-1.4-1.65-.93-2.89-2.29-3.72-4.08-.91,0-1.36.44-1.36,1.32,0,.61.31,1.23.92,1.84-.85.69-1.88,1.25-3.08,1.68s-2.97.64-5.32.64-4.59-.48-6.8-1.44c-2.75-1.17-4.85-2.97-6.32-5.4-1.79-2.88-2.68-6.53-2.68-10.96v-10.04c-1.36-2.37-2.04-4.99-2.04-7.84,0-1.47.19-2.99.56-4.56.37-1.57.97-2.97,1.8-4.2h8.8c3.31,0,5.89.79,7.76,2.36,1.89,1.55,2.84,3.91,2.84,7.08v12.96c0,2.59.49,3.88,1.48,3.88ZM850.1,276.63c-.69.21-1.04.63-1.04,1.24v.2c0,.13.01.21.04.24.29-.03.68-.04,1.16-.04h.96c3.04,0,5.88.47,8.52,1.4,2.67.91,4.84,2.37,6.52,4.4,1.87,2.29,2.8,5.19,2.8,8.68,0,5.44-1.88,9.54-5.64,12.32-3.76,2.77-8.79,4.16-15.08,4.16s-11.22-1.04-14.8-3.12c-3.55-2.08-5.32-5.13-5.32-9.16,0-1.49.32-2.85.96-4.08.64-1.25,1.36-2.13,2.16-2.64,1.47,1.23,3.59,2.29,6.36,3.2,2.8.88,5.76,1.32,8.88,1.32,1.25,0,1.88-.35,1.88-1.04,0-.32-.04-.59-.12-.8-.19.03-.41.04-.68.04h-.44c-5.65,0-10.17-1.12-13.56-3.36-3.84-2.53-5.76-6.11-5.76-10.72s1.72-8.34,5.16-11.2c3.81-3.15,9.05-4.72,15.72-4.72,3.28,0,6.33.35,9.16,1.04,2.85.69,5.29,1.61,7.32,2.76.51,1.09.76,2.71.76,4.84,0,3.25-.89,5.75-2.68,7.48-1.36-.75-3.03-1.36-5-1.84-1.95-.51-3.71-.76-5.28-.76s-2.56.05-2.96.16ZM913.04,288.19c0,1.92.21,3.47.64,4.64.43,1.17,1.17,2.09,2.24,2.76.03.13.04.39.04.76v.72c0,3.68-1.07,6.55-3.2,8.6-2.11,2.03-4.84,3.04-8.2,3.04s-6.04-.95-8.12-2.84c-2.43-2.16-3.64-5.44-3.64-9.84,0-1.87.08-3.51.24-4.92.19-1.44.31-2.47.36-3.08.08-.61.16-1.19.24-1.72.08-.53.12-1.32.12-2.36s-.15-1.79-.44-2.24c-.27-.45-.65-.68-1.16-.68-.48,0-.91.11-1.28.32l.52,6.52c-.48,2.69-.72,5.55-.72,8.56s.68,5.76,2.04,8.24c-2.61,2.69-6.28,4.04-11,4.04-2.69,0-5.03-.71-7-2.12-2.29-1.6-3.44-3.72-3.44-6.36v-46.67c1.28-.75,2.81-1.36,4.6-1.84,1.81-.48,3.64-.72,5.48-.72,3.07,0,5.6.6,7.6,1.8,2.27,1.41,3.4,3.44,3.4,6.08v3.8c-2.32.13-4.55.8-6.68,2-1.84,1.07-2.76,2.04-2.76,2.92,0,.29.11.56.32.8.21.21.47.35.76.4,1.12-1.31,2.69-2.4,4.72-3.28,2.05-.88,4.48-1.32,7.28-1.32s5.32.43,7.56,1.28c2.83,1.07,5.05,2.69,6.68,4.88,1.95,2.67,2.92,6.01,2.92,10.04l-.12,7.8ZM937.88,271.99v15.84c0,3.97.96,6.56,2.88,7.76.03.13.04.39.04.76v.72c0,3.92-1.07,6.87-3.2,8.84-1.97,1.87-4.61,2.8-7.92,2.8s-5.99-.93-8.12-2.8c-2.69-2.37-4.04-5.84-4.04-10.4v-25.99c.48-.35,1-.63,1.56-.84.56-.21,1.15-.48,1.76-.8-1.15-.59-2.19-1.6-3.12-3.04-.93-1.47-1.4-3.17-1.4-5.12,0-3.36,1.11-6.11,3.32-8.24,2.21-2.13,4.92-3.2,8.12-3.2s5.92,1.09,8.08,3.28c2.19,2.16,3.28,4.88,3.28,8.16,0,2.64-.83,4.96-2.48,6.96-1.65,1.97-3.67,3.21-6.04,3.72,0,1.01.39,1.52,1.16,1.52,1.36,0,2.75-.53,4.16-1.6,1.07.83,1.72,1.39,1.96,1.68ZM987.39,274.67h23.72c1.52,2.21,2.28,4.91,2.28,8.08s-.65,5.71-1.96,7.68h-1.64v12c-5.25,4.56-12.18,6.84-20.8,6.84-5.25,0-9.92-.93-14-2.8-4.45-2-7.9-4.92-10.36-8.76-2.69-4.21-4.04-9.38-4.04-15.52,0-8.72,2.61-15.46,7.84-20.24,4.96-4.56,11.68-6.84,20.16-6.84,4.19,0,8.13.63,11.84,1.88,3.73,1.25,6.68,2.81,8.84,4.68,0,1.6-.2,3.56-.6,5.88-.37,2.32-.85,4.09-1.44,5.32h-21.08c-.85.91-1.67,2.21-2.44,3.92-.75,1.71-1.12,3.67-1.12,5.88,0,3.04.76,5.43,2.28,7.16,1.33,1.57,3.04,2.36,5.12,2.36.85,0,1.28-.29,1.28-.88v-.92h-.44c-1.76,0-3.23-.68-4.4-2.04-1.15-1.39-1.72-3.36-1.72-5.92,0-3.2.89-5.78,2.68-7.76ZM1054.38,288.19c0,1.92.21,3.47.64,4.64s1.17,2.09,2.24,2.76c.03.13.04.39.04.76v.72c0,3.79-1.15,6.73-3.44,8.84-2.03,1.87-4.53,2.8-7.52,2.8-2.03,0-3.88-.48-5.56-1.44-1.68-.96-2.88-2.35-3.6-4.16-.91,0-1.36.44-1.36,1.32,0,.75.47,1.59,1.4,2.52-1.73,1.17-4.35,1.76-7.84,1.76-4.93,0-8.88-1.33-11.84-4-2.93-2.69-4.4-6.44-4.4-11.24s1.56-8.56,4.68-11.2c2.85-2.37,6.55-3.56,11.08-3.56,1.55,0,3.04.11,4.48.32.96.19,1.48.29,1.56.32.08-.27.12-.49.12-.68,0-.69-.59-1.16-1.76-1.4-1.17-.24-2.71-.36-4.6-.36-4.03,0-7.46.81-10.32,2.44-1.31-2.21-1.96-5.01-1.96-8.4,0-1.92.24-3.35.72-4.28,1.92-.88,4.36-1.65,7.32-2.32,2.96-.69,6.08-1.04,9.36-1.04,6.77,0,11.89,1.48,15.36,4.44,3.47,2.96,5.2,7.16,5.2,12.6v7.84ZM1033.62,290.15c-1.12,0-1.68.51-1.68,1.52,0,.96.65,1.44,1.96,1.44.91,0,1.57-.21,2-.64.43-.45.64-1.23.64-2.32h-2.92ZM1123.72,288.19c0,1.95.21,3.53.64,4.76.43,1.23,1.17,2.17,2.24,2.84.03.13.04.36.04.68v.6c0,3.65-1.07,6.51-3.2,8.56-2.13,2.05-4.89,3.08-8.28,3.08s-6.07-.92-8.12-2.76c-2.43-2.13-3.64-5.4-3.64-9.8v-12.64c0-1.79-.59-2.68-1.76-2.68-.45,0-.81.11-1.08.32l.72,5.96v9.04c0,3.63.6,6.37,1.8,8.24-1.28,1.36-2.88,2.43-4.8,3.2-1.89.75-3.83,1.12-5.8,1.12-3.2,0-5.68-.77-7.44-2.32-2.13-1.87-3.2-4.81-3.2-8.84v-14.04c0-1.79-.59-2.68-1.76-2.68-.45,0-.81.11-1.08.32l.72,5.96v10.6c0,2.99.4,5.29,1.2,6.92-2.61,2.69-6.28,4.04-11,4.04-2.8,0-5.16-.71-7.08-2.12-2.21-1.63-3.32-3.81-3.32-6.56v-19.12c-1.57-2.21-2.36-4.93-2.36-8.16s.79-6.07,2.36-8.44h9.64c1.89,0,3.51.71,4.84,2.12-1.17,1.09-1.76,2-1.76,2.72,0,.83.47,1.24,1.4,1.24,1.17-2.03,2.79-3.64,4.84-4.84,2.4-1.36,5.21-2.04,8.44-2.04,2.45,0,4.6.52,6.44,1.56,1.87,1.04,3.25,2.24,4.16,3.6,1.25-1.71,2.88-2.99,4.88-3.84,2.03-.88,4.13-1.32,6.32-1.32,4.83,0,8.57,1.49,11.24,4.48,2.61,2.99,3.92,7.08,3.92,12.28l-.16,7.96ZM1151.16,309.22c-7.39,0-13.21-2.05-17.48-6.16-4.37-4.13-6.56-9.78-6.56-16.96s2.25-12.9,6.76-17.12c4.16-3.92,9.42-5.88,15.8-5.88s11.48,1.76,15.32,5.28c3.86,3.49,5.8,7.8,5.8,12.92,0,4.56-1.59,8-4.76,10.32-2.93,2.19-6.93,3.28-12,3.28-3.79,0-6.99-.79-9.6-2.36-.21.16-.32.45-.32.88,0,.8,1.05,1.53,3.16,2.2,2.11.72,4.49,1.08,7.16,1.08s5.13-.33,7.32-1c2.21-.69,3.99-1.51,5.32-2.44.64.56,1.15,1.6,1.52,3.12.4,1.49.6,2.87.6,4.12s-.12,2.32-.36,3.28c-2.08,1.76-4.21,3.01-6.4,3.76-3.09,1.12-6.85,1.68-11.28,1.68ZM1150.64,282.15c1.33,0,2-.51,2-1.52,0-.96-.71-1.44-2.12-1.44s-2.23.76-2.44,2.28c.75.45,1.6.68,2.56.68Z"/>
      <g>
        <ellipse class="cls-7" cx="948.58" cy="575.77" rx="1.16" ry="1.24" transform="translate(-140.63 363.78) rotate(-20.24)"/>
        <path class="cls-19" d="M960.43,556.29c.44.22.63.56.89.9.11-.42.39-.78.76-1.01,2.11,1.41,3.78,2.73,4.01,5.51,2.32-.67,3.98-.04,5.97,1.2-.09.48-.37.76-.61,1.1.43-.01.86.16,1.18.45-.75,2.37-1.54,4.31-4.03,5.32.1.14.21.28.31.43,1.57,2.36,1.39,4.23.57,6.66-.49.02-.82-.18-1.22-.34.11.42.04.87-.16,1.25-2.31-.17-4.27-.45-5.79-2.27-1.82,1.71-3.61,1.89-5.99,1.65-.13-.47,0-.84.06-1.26-.38.2-.84.23-1.26.12-.33-2.21-.49-4.12.79-5.94-2.38-.51-3.55-1.85-4.72-3.91.31-.38.68-.49,1.06-.68-.39-.19-.68-.55-.82-.95,1.81-1.75,3.45-3.1,6.2-2.75-.02-2.46,1.04-3.89,2.81-5.48Z"/>
        <path class="cls-13" d="M961.2,562.57c.2.1.29.26.41.41.05-.19.18-.36.35-.46.97.65,1.74,1.25,1.84,2.53,1.07-.31,1.83-.02,2.74.55-.04.22-.17.35-.28.51.2,0,.39.07.54.21-.35,1.09-.71,1.98-1.85,2.44.05.06.09.13.14.2.72,1.08.64,1.94.26,3.06-.23,0-.38-.08-.56-.16.05.19.02.4-.07.57-1.06-.08-1.96-.21-2.66-1.04-.84.79-1.66.87-2.75.76-.06-.22,0-.39.03-.58-.18.09-.39.11-.58.05-.15-1.02-.22-1.9.36-2.73-1.09-.23-1.63-.85-2.17-1.79.14-.17.31-.23.49-.31-.18-.09-.31-.25-.38-.44.83-.81,1.59-1.42,2.85-1.26,0-1.13.48-1.79,1.29-2.52Z"/>
        <path class="cls-13" d="M955.2,557.22c.2.1.29.26.41.41.05-.19.18-.36.35-.46.97.65,1.74,1.25,1.84,2.53,1.07-.31,1.83-.02,2.74.55-.04.22-.17.35-.28.51.2,0,.39.07.54.21-.35,1.09-.71,1.98-1.85,2.44.05.06.09.13.14.2.72,1.08.64,1.94.26,3.06-.23,0-.38-.08-.56-.16.05.19.02.4-.07.57-1.06-.08-1.96-.21-2.66-1.04-.84.79-1.66.87-2.75.76-.06-.22,0-.39.03-.58-.18.09-.39.11-.58.05-.15-1.02-.22-1.9.36-2.73-1.09-.23-1.63-.85-2.17-1.79.14-.17.31-.23.49-.31-.18-.09-.31-.25-.38-.44.83-.81,1.59-1.42,2.85-1.26,0-1.13.48-1.79,1.29-2.52Z"/>
        <ellipse class="cls-7" cx="955.59" cy="562.42" rx="1.16" ry="1.24" transform="translate(-135.58 365.38) rotate(-20.24)"/>
        <path d="M719.01,400.53s4.35,1.91,8.95,5.29c-2.66-3.46-5.8-6.08-8.95-5.29Z"/>
        <path d="M772.01,440.53l-1.83-1.47c-2.26-.36,1.83,1.47,1.83,1.47Z"/>
        <path d="M866.86,536.27c.1-.24.15-.48.15-.74l-.15.74Z"/>
        <path d="M860.51,653.03s-1.18,1.66-2.51,3.59c1.51-1.36,2.51-2.62,2.51-3.59Z"/>
        <path class="cls-23" d="M726.81,403.6c.62.65,1.23,1.37,1.82,2.13-.6-.44-1.19-.85-1.76-1.23-.08-.06-.17-.12-.25-.17h0c-3.78-2.51-6.95-3.9-6.95-3.9.04-.01.08-.02.12-.03,2.42-.54,4.83.92,7.02,3.2Z"/>
        <path class="cls-23" d="M770.85,438.97l1.82,1.46s-1.39-.62-2.11-1.07c0,0-.01,0-.02-.01-.18-.11-.32-.22-.36-.29-.1-.14.07-.19.67-.09Z"/>
        <path class="cls-23" d="M858.66,656.52c1.33-1.93,2.51-3.59,2.51-3.59,0,.97-1,2.23-2.51,3.59Z"/>
        <path class="cls-23" d="M867.67,535.43c0,.27-.05.52-.15.76l.15-.76Z"/>
        <path class="cls-23" d="M966.17,570.93l-.59.15-3.05.76-.26.07-.1.02-.45.45-2.55,2.55-.74.37-2.16,1.08-1.1.55s-1.49.75-2.54,1.6c-.17.13-.32.26-.46.4-.55.55-1.7.8-2.63.91-.57.07-1.05.08-1.26.09h-.11s-.07.07-.19.12c-.03.01-.06.02-.09.02-.36.09-1.04-.11-1.72-2.14,0,0-.14-.14-.39-.36-.91-.8-3.26-2.64-5.61-2.64h-4.94c-.68,0-1.33.27-1.81.75l-.96.96c-.19.19-.42.36-.66.48l-5.63,2.81c-2,1-2,2-6,3-.1.03-.21.05-.31.08-2.38.64-4.05,1.61-5.93,1.76-.99.08-2.05-.07-3.3-.63h0c-.15-.06-.3-.13-.45-.21-.15-.08-.3-.15-.44-.25-1.77-1.01-3.12-2.6-4.04-3.98-.48-.71-.85-1.37-1.09-1.86-.29-.56-.43-.91-.43-.91,0,0-.17,0-.47-.02-.62-.03-1.8-.12-3.26-.41-1.53-.3-3.36-.82-5.17-1.7-.66-.32-1.31-.7-1.95-1.13,0,0,0,0,0,0,0,0,0,0,0-.01-.16-.11-.32-.2-.48-.32-.01,0-.02-.02-.02-.02-.38-.26-.74-.56-1.09-.88-.19-.16-.37-.33-.55-.51h-5l.59.74,2.9,3.62.51.64s.33.46.94,1.07c.32.31.71.67,1.18,1.03.29.21.6.43.94.64.02.01.03.02.05.03.18.11.36.21.55.31.42.23.88.44,1.38.61.37.14.76.25,1.16.33.31.07.63.12.97.16,1,.11,2.1.06,3.27-.23.81-.19,1.64-.5,2.52-.93-.16.11-.93.57-2.4,1.12-.9.35-2.06.73-3.5,1.08-.1.03-.2.05-.31.08-.14.03-.29.07-.44.1-.6.13-1.24.26-1.93.38-.44.08-.9.15-1.38.22,0,0-.01,0-.02-.01-.04-.03-.15-.11-.32-.23-.36-.26-.98-.74-1.73-1.4-.22-.2-.46-.41-.7-.64-.8-.76-1.69-1.71-2.54-2.8-.17-.24-.35-.48-.53-.73-.64-.92-1.24-1.93-1.71-3.03-.11-.24-.21-.48-.3-.73-.05-.14-.1-.29-.15-.43l-17.92-5.97c-.05-.02-.1-.03-.16-.05-.88-.23-9.62-2.57-16.74-7.29-3.14-2.08-5.97-4.62-7.66-7.65-.4-.72-1.14-1.17-1.95-1.26s-1.99-.15-3.27-.06c-2.81.2-6.23,1.16-8.31,4.27-2.01,3.01-4.01,6.27-6.53,9.03-1.66,1.83-3.55,3.44-5.82,4.59-1.12.58-2.33,1.05-3.65,1.38,0,0-1.53.42-3.77.74-.88.12-1.87.23-2.92.29-3.41.2-7.43-.11-10.31-2.03-4.72-3.15-6.96,1.75-7.71,3.98-.25.76-.83,1.38-1.6,1.63-1.05.36-2.54.54-3.7-.62-1.41-1.41-.83-2.32-2.12-2.74-1.46-.47-2.98.56-3.21,2.07-.83,5.45-3.34,19.58-8.64,32.86-1.74,4.37-4.26,8.38-7.46,11.84-4.65,5.04-12.09,12.37-17.82,14.69-.53.22-.96.63-1.23,1.13-1.33,2.52-4.82,10.03-1.53,14.15,4,5-2,33,12,30,12.07-2.59,19.68-6.66,21.55-7.73.31-.18.64-.29,1-.33l26.02-2.89.43-.05,5.92.66,6.37.71,3.31.36,1.57.18c.54.06,1.09-.05,1.56-.32l.4-.23,5.21-2.97c.43-.25.92-.36,1.42-.33l3.32.2,4.16.24,1.6.1,6.44.38c.48.03.95-.08,1.37-.31,1.54-.84,5.57-3.09,9.23-5.56,1.71-1.16,3.35-2.36,4.61-3.5-.42.6-.85,1.24-1.26,1.85-1.08,1.6-.05,3.78,1.87,3.97l5.9.59.14-.1,3.86-2.9-3.77,3.77-.23.23-9.09-.91c-.59-.06-1.18.09-1.67.42l-.86.57-.68.46-5.99,3.99c-.46.31-1.01.46-1.56.42l-6.92-.38-3.32-.19-5.03-.28-1.88-.1-.22.13-6.27,3.58c-.34.2-.73.31-1.12.33-.36.02-.88.05-1.5.07-3.83.14-11.8.14-14.83-2.07-.02-.01-.04-.03-.06-.04-3.83-2.87-16.8,6.16-25.8,4.32-.77-.16-1.56.03-2.15.54-2.08,1.76-7.59,5.9-16.51,8.96-.35.12-.68.31-.94.57-4.16,4.02-38.4,37.81-18.77,40.18,1.85.22,2.84,2.31,1.84,3.89-8.07,12.82,26.77,64.84,4.08,64.6-2.3-.02-36.61-75.52-36-76l21.16-32.09c.43-.34.74-.8.89-1.34.93-3.35,2.91-16.43-13.29-39.76,0,0-7.2-10.01,13.9-21.19,19.47-10.31,15.87-35.79,15.19-39.68-.06-.33-.18-.64-.36-.92l-11.42-18.08c-.21-.33-.34-.71-.38-1.09l-4.07-38.22c-.55-5.22,1.1-10.44,4.56-14.39l6.78-7.76c1.05-1.2,2.33-2.19,3.76-2.89,2.75-1.36,8.97-4.81,22.04-13.49.65-.43,1.24-.98,1.73-1.6l7.23-9.2c1.96-2.5,3.03-5.58,3.03-8.75v-8.45s.09-.18.28-.5c.79-1.3,3.34-4.85,8.72-7.16,0,0,4.21-2.81-3.83-6.65-1.56-.75-3.57-1.54-6.17-2.35-.93-.29-1.77-.55-2.54-.78-.81-.25-1.53-.46-2.17-.64-2.14-.62-3.42-.93-4.11-1.04l-.09-.07-5.29-4.23-.07-.06-2.34-1.87c-.26-.2-.55-.36-.86-.45l-4.93-1.48-2.3-.69-.09-.03-3.97-1.19-7.53-2.26c-.46-.14-.87-.4-1.19-.77l-6.24-7.13c-.18-.21-.32-.43-.43-.69-.41-.98-1.62-3.75-3.34-6.83-.92-1.64-1.98-3.37-3.15-4.96-.13-.18-.27-.36-.4-.54.2.15.4.3.6.45,2.12,1.62,4.26,3.55,6,5.76,1.39,1.74,2.52,3.65,3.21,5.72.17.5.46.95.87,1.27l4.92,3.81c.32.25.7.42,1.1.49l6.53,1.21,1.39.26,4.62.85,1.03.19,2.24.42.73.13s.02,0,.02,0l.78.15,2.94,2.2,1.06.8-.32-4.54-.16-2.23-.38-5.27-.14-1.96s-2.6-1.23,12.25-14.35c.56-.49.87-1.19.87-1.93,0-1.33.05-3.7.43-6.4.34-2.49.96-5.27,2.06-7.78,3.23-7.43,10.61-12.5,27.35-.98,1.11.76,2.62.56,3.46-.48,2.76-3.44,9.23-10.13,16.88-8.55.56.12,1.12.27,1.69.48,0,0-2.02-6.02-1.1-10.78.22-1.12.6-2.17,1.21-3.06.77-1.1,1.88-1.95,3.47-2.34.09-.04.18-.06.27-.07.07-.02.13-.04.2-.05.85-.16,1.62-.32,2.33-.46,1.07-.22,1.98-.43,2.77-.62,3.02-.74,4.2-1.24,4.62-1.47.07-.04.12-.07.15-.09.03-.02.05-.04.07-.04-.02.03-.04.07-.07.13h0c-.33.63-1.16,2.71,4.57-1.62.37-.28.76-.58,1.19-.91.06-.05.12-.1.19-.15.33-.26.68-.54,1.05-.84.1-.08.21-.17.33-.27.52-.42,1.08-.88,1.67-1.38.36-.3.78-.49,1.24-.56.7-.11,1.89-.33,3.29-.75.99-.29,2.08-.69,3.18-1.22.7-.34,1.41-.73,2.1-1.19.41-.27.81-.57,1.2-.89.74-.61,1.43-1.31,2.03-2.11.88-1.18,1.56-2.58,1.93-4.24.02-.11.04-.21.06-.32.25-1.35.3-2.86.07-4.56l.98,5.84v.02l-.19.39-1.66,3.36-.02.03-2.32,2.14-.7.63c-.14.12-.28.23-.44.32l-.73.42-1.88,1.09-.84.48c-.15.09-.3.16-.47.21l-2.1.7-3.27,1.09c-.26.09-.5.21-.72.38l-1.96,1.46-5.92,4.41c-.4.3-.88.47-1.38.5l-6.41.38s-.07.02-.2.07c-.22.08-.6.24-1.07.46-.17.08-.36.17-.56.27-.96.51-2.11,1.26-2.96,2.24-.71.82-1.21,1.81-1.21,2.96v8.59h0c0,1.47-1.24,2.67-2.7,2.55-.33-.03-.7-.04-1.11-.03-1.3.03-3,.26-5.19.89-6.41,1.83-8.63,7.85-8.96,8.86-.04.11-.08.22-.13.32l-.56,1.11c-.69,1.39-2.45,1.85-3.72.97-4.22-2.91-13.25-8.26-20.04-6.29-2.6.75-4.87,2.56-6.42,5.99-.42.91-.78,1.95-1.08,3.11-.64,2.4-1.02,5.34-1.08,8.92-.01.33-.01.67-.01,1.01l-10.25,10.25c-.48.48-.75,1.13-.75,1.81v16.12c0,.46-.13.91-.36,1.31-.06.09-.11.2-.16.31-.18.37-.3.84-.18,1.37.17.81.91,1.74,2.91,2.54.24.1.51.2.79.29,1.83.61,3.67.66,5.33.44,3.78-.51,6.67-2.44,6.67-2.44,0,0,5-4,9,5,2.61,5.87,3.51,9.61,3.83,11.5.18,1.09,1.01,1.94,2.1,2.13,1.86.32,4.96.18,8.75-2.58.75-.54,1.14-1.47,1-2.38-.4-2.78.11-9.21,12.3-12.42.65-.17,1.21-.57,1.56-1.15,1.54-2.54,6-9.83,8.46-13.1,3-4,4,1,9-5s19.72-12.56,19.72-12.56l5.42-2.11c.56-.22,1.17-.23,1.73-.04l5.12,1.71,6.72,2.44-11.92-2.29c-.53-.1-1.07-.04-1.55.19-3.99,1.84-22.53,10.64-22.53,15.1,0,1.31-.27,2.14-.74,2.7-1.98,2.36-4.73,1.78-7.26,3.3-5.39,3.24-2.08,13.47-7,16-.72.38-1.8.68-3.41.41-1.02-.17-2.07.26-2.63,1.13-3.57,5.56-3.6,8.91-2.68,11.03.82,1.87-1.94,3.46-2.77,3.89-.14.07-.29.13-.44.17-1.19.33-7.14,2-12.22,3.49-4.78,1.41-8.99,4.28-12.05,8.22l-2.45,3.14c-.05.06-.09.12-.13.19l-18.21,28.23c-1.28,1.99-3,3.66-5.03,4.89-4.95,3-14.34,9.09-15.33,12.76-1.37,5.02-3.11,3.89,4.76,3.95,7.09.06,6.17,7.37,5.92,8.82-.03.16-.07.31-.13.46l-9.22,23.96c-.4,1.04-.08,2.23.8,2.92,1.08.84,2.57,2.11,3.86,3.57,1.13,1.29,3.23,1.08,4.08-.41,1.28-2.26,3.35-3.97,6.56-3.26,5.89,1.31,9.64,3.47,11.52,4.81.9.64,2.09.65,2.99,0,2.51-1.81,7.6-4.88,11.25-2.95.08.04.16.08.24.13,1.05.63,2.1,1.26,3.15,1.86.01.01.02.01.03.02.96.55,1.91,1.07,2.86,1.54.03.02.06.03.08.04.15.08.3.15.44.22.24.12.47.23.7.33h0c.48.23.96.44,1.44.62,2.09.84,4.19,1.37,6.29,1.37.31,0,.64-.06.99-.17.43-.13.88-.35,1.35-.63.44-.25.89-.56,1.35-.92,1.02-.79,2.08-1.79,3.12-2.89,3.46-3.64,6.78-8.34,7.84-9.88.24-.35.57-.63.95-.82,2.13-1.06,9.48-4.38,15.4-2.69,5.85,1.67,12.4-4.34,14.39-6.36.41-.41.93-.66,1.51-.73,2.57-.3,9.81-1.38,10.95-4.15l-.19.93c-.11.55-.39,1.04-.81,1.41-.67.59-1.71,1.4-2.35,1.4-.78,0-5.26.62-7.15.88-.55.08-1.06.33-1.45.72l-3.15,3.15c-.16.16-.34.3-.54.41l-4.88,2.79c-1.06.6-1.54,1.87-1.16,3.03l.12.36c.14.43.39.81.73,1.11l1.68,1.49,2.28,2.03.66.59s.01.01.02.01l.24.22,3.28,2.91c.23.21.5.37.79.48,1.17.43,4.46,1.42,8.84.89.6-.07,1.2.04,1.71.36l8.83,5.47c.11.07.22.13.34.18l2.69,1.15,3.52,1.51c.39.17.82.24,1.24.2.5-.05,1.28-.11,2.2-.14.46-.02.95-.04,1.47-.04,1.06-.01,2.23.03,3.37.16,1.39.14,2.76.41,3.87.88.1.04.19.08.27.12.07.03.13.06.19.09,1.97.98,3.7,1.73,4.94,2.23,1.02.4,1.72.65,1.96.74.07.02.13.04.2.06l.96.24,1.08.27.86.21.07.02.93.23,2.93-.73.66-.17,4.41-1.1.52.05,2.16.22,7.32.73h-9.68c-.21,0-.42.03-.62.08l-3.88.97-1.52.38-2.29.57s.03.06.07.18c.06.12.14.3.26.52.29.58.78,1.45,1.47,2.32.99,1.26,2.39,2.53,4.2,2.98.11.03.22.05.33.07,3.57.75,7.8-.74,8.55-1.02.08-.03.12-.05.12-.05l5.87-3.91c.09-.06.18-.11.27-.16l5.41-2.71c.25-.12.47-.28.67-.48.58-.6,2.36-1.96,6.07-1.2.53.1,1.1.26,1.71.46,1.73.58,3.05,1.15,4.04,1.68,0,0,0,.01.01.01,1.14.61,1.86,1.15,2.3,1.56.33.3.59.68.7,1.11.19.73,1.06,2.2,4.94.64.12-.05.23-.09.34-.14,1.48-.61,2.59-1.22,3.41-1.77,1.8-1.19,2.25-2.09,2.25-2.09l1.27-.95.98-.74.12-.09h.01l1.09-.82.53-.4h4Z"/>
        <path class="cls-19" d="M901.93,563.6c.44.22.63.56.89.9.11-.42.39-.78.76-1.01,2.11,1.41,3.78,2.73,4.01,5.51,2.32-.67,3.98-.04,5.97,1.2-.09.48-.37.76-.61,1.1.43-.01.86.16,1.18.45-.75,2.37-1.54,4.31-4.03,5.32.1.14.21.28.31.43,1.57,2.36,1.39,4.23.57,6.66-.49.02-.82-.18-1.22-.34.11.42.04.87-.16,1.25-2.31-.17-4.27-.45-5.79-2.27-1.82,1.71-3.61,1.89-5.99,1.65-.13-.47,0-.84.06-1.26-.38.2-.84.23-1.26.12-.33-2.21-.49-4.12.79-5.94-2.38-.51-3.55-1.85-4.72-3.91.31-.38.68-.49,1.06-.68-.39-.19-.68-.55-.82-.95,1.81-1.75,3.45-3.1,6.2-2.75-.02-2.46,1.04-3.89,2.81-5.48Z"/>
        <path class="cls-13" d="M902.7,569.89c.2.1.29.26.41.41.05-.19.18-.36.35-.46.97.65,1.74,1.25,1.84,2.53,1.07-.31,1.83-.02,2.74.55-.04.22-.17.35-.28.51.2,0,.39.07.54.21-.35,1.09-.71,1.98-1.85,2.44.05.06.09.13.14.2.72,1.08.64,1.94.26,3.06-.23,0-.38-.08-.56-.16.05.19.02.4-.07.57-1.06-.08-1.96-.21-2.66-1.04-.84.79-1.66.87-2.75.76-.06-.22,0-.39.03-.58-.18.09-.39.11-.58.05-.15-1.02-.22-1.9.36-2.73-1.09-.23-1.63-.85-2.17-1.79.14-.17.31-.23.49-.31-.18-.09-.31-.25-.38-.44.83-.81,1.59-1.42,2.85-1.26,0-1.13.48-1.79,1.29-2.52Z"/>
        <ellipse class="cls-7" cx="903.09" cy="575.09" rx="1.16" ry="1.24" transform="translate(-143.2 348) rotate(-20.24)"/>
        <path class="cls-19" d="M824.8,675.55c.44.22.63.56.89.9.11-.42.39-.78.76-1.01,2.11,1.41,3.78,2.73,4.01,5.51,2.32-.67,3.98-.04,5.97,1.2-.09.48-.37.76-.61,1.1.43-.01.86.16,1.18.45-.75,2.37-1.54,4.31-4.03,5.32.1.14.21.28.31.43,1.57,2.36,1.39,4.23.57,6.66-.49.02-.82-.18-1.22-.34.11.42.04.87-.16,1.25-2.31-.17-4.27-.45-5.79-2.27-1.82,1.71-3.61,1.89-5.99,1.65-.13-.47,0-.84.06-1.26-.38.2-.84.23-1.26.12-.33-2.21-.49-4.12.79-5.94-2.38-.51-3.55-1.85-4.72-3.91.31-.38.68-.49,1.06-.68-.39-.19-.68-.55-.82-.95,1.81-1.75,3.45-3.1,6.2-2.75-.02-2.46,1.04-3.89,2.81-5.48Z"/>
        <path class="cls-13" d="M825.57,681.84c.2.1.29.26.41.41.05-.19.18-.36.35-.46.97.65,1.74,1.25,1.84,2.53,1.07-.31,1.83-.02,2.74.55-.04.22-.17.35-.28.51.2,0,.39.07.54.21-.35,1.09-.71,1.98-1.85,2.44.05.06.09.13.14.2.72,1.08.64,1.94.26,3.06-.23,0-.38-.08-.56-.16.05.19.02.4-.07.57-1.06-.08-1.96-.21-2.66-1.04-.84.79-1.66.87-2.75.76-.06-.22,0-.39.03-.58-.18.09-.39.11-.58.05-.15-1.02-.22-1.9.36-2.73-1.09-.23-1.63-.85-2.17-1.79.14-.17.31-.23.49-.31-.18-.09-.31-.25-.38-.44.83-.81,1.59-1.42,2.85-1.26,0-1.13.48-1.79,1.29-2.52Z"/>
        <ellipse class="cls-7" cx="825.96" cy="687.04" rx="1.16" ry="1.24" transform="translate(-186.7 328.22) rotate(-20.24)"/>
        <path class="cls-19" d="M825.8,648.55c.44.22.63.56.89.9.11-.42.39-.78.76-1.01,2.11,1.41,3.78,2.73,4.01,5.51,2.32-.67,3.98-.04,5.97,1.2-.09.48-.37.76-.61,1.1.43-.01.86.16,1.18.45-.75,2.37-1.54,4.31-4.03,5.32.1.14.21.28.31.43,1.57,2.36,1.39,4.23.57,6.66-.49.02-.82-.18-1.22-.34.11.42.04.87-.16,1.25-2.31-.17-4.27-.45-5.79-2.27-1.82,1.71-3.61,1.89-5.99,1.65-.13-.47,0-.84.06-1.26-.38.2-.84.23-1.26.12-.33-2.21-.49-4.12.79-5.94-2.38-.51-3.55-1.85-4.72-3.91.31-.38.68-.49,1.06-.68-.39-.19-.68-.55-.82-.95,1.81-1.75,3.45-3.1,6.2-2.75-.02-2.46,1.04-3.89,2.81-5.48Z"/>
        <path class="cls-13" d="M826.57,654.84c.2.1.29.26.41.41.05-.19.18-.36.35-.46.97.65,1.74,1.25,1.84,2.53,1.07-.31,1.83-.02,2.74.55-.04.22-.17.35-.28.51.2,0,.39.07.54.21-.35,1.09-.71,1.98-1.85,2.44.05.06.09.13.14.2.72,1.08.64,1.94.26,3.06-.23,0-.38-.08-.56-.16.05.19.02.4-.07.57-1.06-.08-1.96-.21-2.66-1.04-.84.79-1.66.87-2.75.76-.06-.22,0-.39.03-.58-.18.09-.39.11-.58.05-.15-1.02-.22-1.9.36-2.73-1.09-.23-1.63-.85-2.17-1.79.14-.17.31-.23.49-.31-.18-.09-.31-.25-.38-.44.83-.81,1.59-1.42,2.85-1.26,0-1.13.48-1.79,1.29-2.52Z"/>
        <ellipse class="cls-7" cx="826.96" cy="660.04" rx="1.16" ry="1.24" transform="translate(-177.3 326.9) rotate(-20.24)"/>
        <path class="cls-19" d="M832.8,663.55c.44.22.63.56.89.9.11-.42.39-.78.76-1.01,2.11,1.41,3.78,2.73,4.01,5.51,2.32-.67,3.98-.04,5.97,1.2-.09.48-.37.76-.61,1.1.43-.01.86.16,1.18.45-.75,2.37-1.54,4.31-4.03,5.32.1.14.21.28.31.43,1.57,2.36,1.39,4.23.57,6.66-.49.02-.82-.18-1.22-.34.11.42.04.87-.16,1.25-2.31-.17-4.27-.45-5.79-2.27-1.82,1.71-3.61,1.89-5.99,1.65-.13-.47,0-.84.06-1.26-.38.2-.84.23-1.26.12-.33-2.21-.49-4.12.79-5.94-2.38-.51-3.55-1.85-4.72-3.91.31-.38.68-.49,1.06-.68-.39-.19-.68-.55-.82-.95,1.81-1.75,3.45-3.1,6.2-2.75-.02-2.46,1.04-3.89,2.81-5.48Z"/>
        <path class="cls-13" d="M833.57,669.84c.2.1.29.26.41.41.05-.19.18-.36.35-.46.97.65,1.74,1.25,1.84,2.53,1.07-.31,1.83-.02,2.74.55-.04.22-.17.35-.28.51.2,0,.39.07.54.21-.35,1.09-.71,1.98-1.85,2.44.05.06.09.13.14.2.72,1.08.64,1.94.26,3.06-.23,0-.38-.08-.56-.16.05.19.02.4-.07.57-1.06-.08-1.96-.21-2.66-1.04-.84.79-1.66.87-2.75.76-.06-.22,0-.39.03-.58-.18.09-.39.11-.58.05-.15-1.02-.22-1.9.36-2.73-1.09-.23-1.63-.85-2.17-1.79.14-.17.31-.23.49-.31-.18-.09-.31-.25-.38-.44.83-.81,1.59-1.42,2.85-1.26,0-1.13.48-1.79,1.29-2.52Z"/>
        <ellipse class="cls-7" cx="833.96" cy="675.04" rx="1.16" ry="1.24" transform="translate(-182.06 330.25) rotate(-20.24)"/>
        <path class="cls-19" d="M870.8,644.55c.44.22.63.56.89.9.11-.42.39-.78.76-1.01,2.11,1.41,3.78,2.73,4.01,5.51,2.32-.67,3.98-.04,5.97,1.2-.09.48-.37.76-.61,1.1.43-.01.86.16,1.18.45-.75,2.37-1.54,4.31-4.03,5.32.1.14.21.28.31.43,1.57,2.36,1.39,4.23.57,6.66-.49.02-.82-.18-1.22-.34.11.42.04.87-.16,1.25-2.31-.17-4.27-.45-5.79-2.27-1.82,1.71-3.61,1.89-5.99,1.65-.13-.47,0-.84.06-1.26-.38.2-.84.23-1.26.12-.33-2.21-.49-4.12.79-5.94-2.38-.51-3.55-1.85-4.72-3.91.31-.38.68-.49,1.06-.68-.39-.19-.68-.55-.82-.95,1.81-1.75,3.45-3.1,6.2-2.75-.02-2.46,1.04-3.89,2.81-5.48Z"/>
        <path class="cls-13" d="M871.57,650.84c.2.1.29.26.41.41.05-.19.18-.36.35-.46.97.65,1.74,1.25,1.84,2.53,1.07-.31,1.83-.02,2.74.55-.04.22-.17.35-.28.51.2,0,.39.07.54.21-.35,1.09-.71,1.98-1.85,2.44.05.06.09.13.14.2.72,1.08.64,1.94.26,3.06-.23,0-.38-.08-.56-.16.05.19.02.4-.07.57-1.06-.08-1.96-.21-2.66-1.04-.84.79-1.66.87-2.75.76-.06-.22,0-.39.03-.58-.18.09-.39.11-.58.05-.15-1.02-.22-1.9.36-2.73-1.09-.23-1.63-.85-2.17-1.79.14-.17.31-.23.49-.31-.18-.09-.31-.25-.38-.44.83-.81,1.59-1.42,2.85-1.26,0-1.13.48-1.79,1.29-2.52Z"/>
        <ellipse class="cls-7" cx="871.96" cy="656.04" rx="1.16" ry="1.24" transform="translate(-173.13 342.23) rotate(-20.24)"/>
        <path class="cls-19" d="M881.8,572.55c.44.22.63.56.89.9.11-.42.39-.78.76-1.01,2.11,1.41,3.78,2.73,4.01,5.51,2.32-.67,3.98-.04,5.97,1.2-.09.48-.37.76-.61,1.1.43-.01.86.16,1.18.45-.75,2.37-1.54,4.31-4.03,5.32.1.14.21.28.31.43,1.57,2.36,1.39,4.23.57,6.66-.49.02-.82-.18-1.22-.34.11.42.04.87-.16,1.25-2.31-.17-4.27-.45-5.79-2.27-1.82,1.71-3.61,1.89-5.99,1.65-.13-.47,0-.84.06-1.26-.38.2-.84.23-1.26.12-.33-2.21-.49-4.12.79-5.94-2.38-.51-3.55-1.85-4.72-3.91.31-.38.68-.49,1.06-.68-.39-.19-.68-.55-.82-.95,1.81-1.75,3.45-3.1,6.2-2.75-.02-2.46,1.04-3.89,2.81-5.48Z"/>
        <path class="cls-13" d="M882.57,578.84c.2.1.29.26.41.41.05-.19.18-.36.35-.46.97.65,1.74,1.25,1.84,2.53,1.07-.31,1.83-.02,2.74.55-.04.22-.17.35-.28.51.2,0,.39.07.54.21-.35,1.09-.71,1.98-1.85,2.44.05.06.09.13.14.2.72,1.08.64,1.94.26,3.06-.23,0-.38-.08-.56-.16.05.19.02.4-.07.57-1.06-.08-1.96-.21-2.66-1.04-.84.79-1.66.87-2.75.76-.06-.22,0-.39.03-.58-.18.09-.39.11-.58.05-.15-1.02-.22-1.9.36-2.73-1.09-.23-1.63-.85-2.17-1.79.14-.17.31-.23.49-.31-.18-.09-.31-.25-.38-.44.83-.81,1.59-1.42,2.85-1.26,0-1.13.48-1.79,1.29-2.52Z"/>
        <ellipse class="cls-7" cx="882.96" cy="584.04" rx="1.16" ry="1.24" transform="translate(-147.54 341.59) rotate(-20.24)"/>
        <path class="cls-19" d="M934.99,592.74c-.19.45-.52.66-.83.95.43.08.8.34,1.06.68-1.25,2.2-2.46,3.96-5.22,4.38.83,2.27.32,3.97-.78,6.04-.49-.06-.78-.31-1.14-.54.04.43-.1.87-.36,1.21-2.42-.58-4.41-1.24-5.58-3.65-.13.11-.26.22-.41.34-2.24,1.73-4.12,1.68-6.6,1.03-.06-.49.12-.83.25-1.24-.41.14-.87.1-1.26-.07,0-2.32.15-4.29,1.86-5.93-1.83-1.7-2.14-3.47-2.07-5.86.46-.16.84-.06,1.26-.02-.23-.37-.29-.82-.21-1.24,2.18-.49,4.08-.77,5.98.37.34-2.41,1.6-3.67,3.57-4.98.4.28.54.65.75,1.01.17-.4.5-.71.89-.89,1.88,1.69,3.33,3.23,3.17,5.99,2.45-.19,3.95.77,5.66,2.42Z"/>
        <path class="cls-13" d="M928.78,593.95c-.09.21-.24.3-.38.44.2.04.37.15.49.31-.58,1.01-1.13,1.82-2.4,2.01.38,1.04.15,1.82-.36,2.78-.22-.03-.36-.14-.53-.25.02.2-.05.4-.17.55-1.11-.27-2.03-.57-2.57-1.68-.06.05-.12.1-.19.16-1.03.8-1.89.77-3.03.48-.03-.22.06-.38.12-.57-.19.07-.4.05-.58-.03,0-1.07.07-1.97.85-2.73-.84-.78-.98-1.59-.95-2.69.21-.07.38-.03.58-.01-.11-.17-.13-.38-.09-.57,1-.22,1.87-.36,2.75.17.16-1.11.73-1.69,1.64-2.29.18.13.25.3.35.47.08-.18.23-.33.41-.41.86.78,1.53,1.48,1.46,2.75,1.13-.09,1.82.35,2.6,1.11Z"/>
        <ellipse class="cls-7" cx="923.61" cy="594.7" rx="1.24" ry="1.16" transform="translate(-162.75 431.81) rotate(-24.25)"/>
        <path class="cls-19" d="M924.66,573.29c-.19.45-.52.66-.83.95.43.08.8.34,1.06.68-1.25,2.2-2.46,3.96-5.22,4.38.83,2.27.32,3.97-.78,6.04-.49-.06-.78-.31-1.14-.54.04.43-.1.87-.36,1.21-2.42-.58-4.41-1.24-5.58-3.65-.13.11-.26.22-.41.34-2.24,1.73-4.12,1.68-6.6,1.03-.06-.49.12-.83.25-1.24-.41.14-.87.1-1.26-.07,0-2.32.15-4.29,1.86-5.93-1.83-1.7-2.14-3.47-2.07-5.86.46-.16.84-.06,1.26-.02-.23-.37-.29-.82-.21-1.24,2.18-.49,4.08-.77,5.98.37.34-2.41,1.6-3.67,3.57-4.98.4.28.54.65.75,1.01.17-.4.5-.71.89-.89,1.88,1.69,3.33,3.23,3.17,5.99,2.45-.19,3.95.77,5.66,2.42Z"/>
        <path class="cls-13" d="M918.44,574.5c-.09.21-.24.3-.38.44.2.04.37.15.49.31-.58,1.01-1.13,1.82-2.4,2.01.38,1.04.15,1.82-.36,2.78-.22-.03-.36-.14-.53-.25.02.2-.05.4-.17.55-1.11-.27-2.03-.57-2.57-1.68-.06.05-.12.1-.19.16-1.03.8-1.89.77-3.03.48-.03-.22.06-.38.12-.57-.19.07-.4.05-.58-.03,0-1.07.07-1.97.85-2.73-.84-.78-.98-1.59-.95-2.69.21-.07.38-.03.58-.01-.11-.17-.13-.38-.09-.57,1-.22,1.87-.36,2.75.17.16-1.11.73-1.69,1.64-2.29.18.13.25.3.35.47.08-.18.23-.33.41-.41.86.78,1.53,1.48,1.46,2.75,1.13-.09,1.82.35,2.6,1.11Z"/>
        <ellipse class="cls-7" cx="913.28" cy="575.25" rx="1.24" ry="1.16" transform="translate(-155.68 425.85) rotate(-24.25)"/>
        <path class="cls-19" d="M898.91,559.86c-.19.45-.52.66-.83.95.43.08.8.34,1.06.68-1.25,2.2-2.46,3.96-5.22,4.38.83,2.27.32,3.97-.78,6.04-.49-.06-.78-.31-1.14-.54.04.43-.1.87-.36,1.21-2.42-.58-4.41-1.24-5.58-3.65-.13.11-.26.22-.41.34-2.24,1.73-4.12,1.68-6.6,1.03-.06-.49.12-.83.25-1.24-.41.14-.87.1-1.26-.07,0-2.32.15-4.29,1.86-5.93-1.83-1.7-2.14-3.47-2.07-5.86.46-.16.84-.06,1.26-.02-.23-.37-.29-.82-.21-1.24,2.18-.49,4.08-.77,5.98.37.34-2.41,1.6-3.67,3.57-4.98.4.28.54.65.75,1.01.17-.4.5-.71.89-.89,1.88,1.69,3.33,3.23,3.17,5.99,2.45-.19,3.95.77,5.66,2.42Z"/>
        <path class="cls-13" d="M892.69,561.07c-.09.21-.24.3-.38.44.2.04.37.15.49.31-.58,1.01-1.13,1.82-2.4,2.01.38,1.04.15,1.82-.36,2.78-.22-.03-.36-.14-.53-.25.02.2-.05.4-.17.55-1.11-.27-2.03-.57-2.57-1.68-.06.05-.12.1-.19.16-1.03.8-1.89.77-3.03.48-.03-.22.06-.38.12-.57-.19.07-.4.05-.58-.03,0-1.07.07-1.97.85-2.73-.84-.78-.98-1.59-.95-2.69.21-.07.38-.03.58-.01-.11-.17-.13-.38-.09-.57,1-.22,1.87-.36,2.75.17.16-1.11.73-1.69,1.64-2.29.18.13.25.3.35.47.08-.18.23-.33.41-.41.86.78,1.53,1.48,1.46,2.75,1.13-.09,1.82.35,2.6,1.11Z"/>
        <ellipse class="cls-7" cx="887.53" cy="561.81" rx="1.24" ry="1.16" transform="translate(-152.43 414.09) rotate(-24.25)"/>
        <path class="cls-19" d="M888.58,540.41c-.19.45-.52.66-.83.95.43.08.8.34,1.06.68-1.25,2.2-2.46,3.96-5.22,4.38.83,2.27.32,3.97-.78,6.04-.49-.06-.78-.31-1.14-.54.04.43-.1.87-.36,1.21-2.42-.58-4.41-1.24-5.58-3.65-.13.11-.26.22-.41.34-2.24,1.73-4.12,1.68-6.6,1.03-.06-.49.12-.83.25-1.24-.41.14-.87.1-1.26-.07,0-2.32.15-4.29,1.86-5.93-1.83-1.7-2.14-3.47-2.07-5.86.46-.16.84-.06,1.26-.02-.23-.37-.29-.82-.21-1.24,2.18-.49,4.08-.77,5.98.37.34-2.41,1.6-3.67,3.57-4.98.4.28.54.65.75,1.01.17-.4.5-.71.89-.89,1.88,1.69,3.33,3.23,3.17,5.99,2.45-.19,3.95.77,5.66,2.42Z"/>
        <path class="cls-13" d="M882.36,541.62c-.09.21-.24.3-.38.44.2.04.37.15.49.31-.58,1.01-1.13,1.82-2.4,2.01.38,1.04.15,1.82-.36,2.78-.22-.03-.36-.14-.53-.25.02.2-.05.4-.17.55-1.11-.27-2.03-.57-2.57-1.68-.06.05-.12.1-.19.16-1.03.8-1.89.77-3.03.48-.03-.22.06-.38.12-.57-.19.07-.4.05-.58-.03,0-1.07.07-1.97.85-2.73-.84-.78-.98-1.59-.95-2.69.21-.07.38-.03.58-.01-.11-.17-.13-.38-.09-.57,1-.22,1.87-.36,2.75.17.16-1.11.73-1.69,1.64-2.29.18.13.25.3.35.47.08-.18.23-.33.41-.41.86.78,1.53,1.48,1.46,2.75,1.13-.09,1.82.35,2.6,1.11Z"/>
        <ellipse class="cls-7" cx="877.2" cy="542.36" rx="1.24" ry="1.16" transform="translate(-145.36 408.13) rotate(-24.25)"/>
        <path class="cls-19" d="M947.43,564.29c.44.22.63.56.89.9.11-.42.39-.78.76-1.01,2.11,1.41,3.78,2.73,4.01,5.51,2.32-.67,3.98-.04,5.97,1.2-.09.48-.37.76-.61,1.1.43-.01.86.16,1.18.45-.75,2.37-1.54,4.31-4.03,5.32.1.14.21.28.31.43,1.57,2.36,1.39,4.23.57,6.66-.49.02-.82-.18-1.22-.34.11.42.04.87-.16,1.25-2.31-.17-4.27-.45-5.79-2.27-1.82,1.71-3.61,1.89-5.99,1.65-.13-.47,0-.84.06-1.26-.38.2-.84.23-1.26.12-.33-2.21-.49-4.12.79-5.94-2.38-.51-3.55-1.85-4.72-3.91.31-.38.68-.49,1.06-.68-.39-.19-.68-.55-.82-.95,1.81-1.75,3.45-3.1,6.2-2.75-.02-2.46,1.04-3.89,2.81-5.48Z"/>
        <path class="cls-13" d="M948.2,570.57c.2.1.29.26.41.41.05-.19.18-.36.35-.46.97.65,1.74,1.25,1.84,2.53,1.07-.31,1.83-.02,2.74.55-.04.22-.17.35-.28.51.2,0,.39.07.54.21-.35,1.09-.71,1.98-1.85,2.44.05.06.09.13.14.2.72,1.08.64,1.94.26,3.06-.23,0-.38-.08-.56-.16.05.19.02.4-.07.57-1.06-.08-1.96-.21-2.66-1.04-.84.79-1.66.87-2.75.76-.06-.22,0-.39.03-.58-.18.09-.39.11-.58.05-.15-1.02-.22-1.9.36-2.73-1.09-.23-1.63-.85-2.17-1.79.14-.17.31-.23.49-.31-.18-.09-.31-.25-.38-.44.83-.81,1.59-1.42,2.85-1.26,0-1.13.48-1.79,1.29-2.52Z"/>
        <path class="cls-19" d="M940.43,546.29c.44.22.63.56.89.9.11-.42.39-.78.76-1.01,2.11,1.41,3.78,2.73,4.01,5.51,2.32-.67,3.98-.04,5.97,1.2-.09.48-.37.76-.61,1.1.43-.01.86.16,1.18.45-.75,2.37-1.54,4.31-4.03,5.32.1.14.21.28.31.43,1.57,2.36,1.39,4.23.57,6.66-.49.02-.82-.18-1.22-.34.11.42.04.87-.16,1.25-2.31-.17-4.27-.45-5.79-2.27-1.82,1.71-3.61,1.89-5.99,1.65-.13-.47,0-.84.06-1.26-.38.2-.84.23-1.26.12-.33-2.21-.49-4.12.79-5.94-2.38-.51-3.55-1.85-4.72-3.91.31-.38.68-.49,1.06-.68-.39-.19-.68-.55-.82-.95,1.81-1.75,3.45-3.1,6.2-2.75-.02-2.46,1.04-3.89,2.81-5.48Z"/>
        <path class="cls-13" d="M941.2,552.57c.2.1.29.26.41.41.05-.19.18-.36.35-.46.97.65,1.74,1.25,1.84,2.53,1.07-.31,1.83-.02,2.74.55-.04.22-.17.35-.28.51.2,0,.39.07.54.21-.35,1.09-.71,1.98-1.85,2.44.05.06.09.13.14.2.72,1.08.64,1.94.26,3.06-.23,0-.38-.08-.56-.16.05.19.02.4-.07.57-1.06-.08-1.96-.21-2.66-1.04-.84.79-1.66.87-2.75.76-.06-.22,0-.39.03-.58-.18.09-.39.11-.58.05-.15-1.02-.22-1.9.36-2.73-1.09-.23-1.63-.85-2.17-1.79.14-.17.31-.23.49-.31-.18-.09-.31-.25-.38-.44.83-.81,1.59-1.42,2.85-1.26,0-1.13.48-1.79,1.29-2.52Z"/>
        <ellipse class="cls-7" cx="941.58" cy="557.77" rx="1.16" ry="1.24" transform="translate(-134.83 360.25) rotate(-20.24)"/>
        <path class="cls-19" d="M761.45,441.49c.44.22.63.56.89.9.11-.42.39-.78.76-1.01,2.11,1.41,3.78,2.73,4.01,5.51,2.32-.67,3.98-.04,5.97,1.2-.09.48-.37.76-.61,1.1.43-.01.86.16,1.18.45-.75,2.37-1.54,4.31-4.03,5.32.1.14.21.28.31.43,1.57,2.36,1.39,4.23.57,6.66-.49.02-.82-.18-1.22-.34.11.42.04.87-.16,1.25-2.31-.17-4.27-.45-5.79-2.27-1.82,1.71-3.61,1.89-5.99,1.65-.13-.47,0-.84.06-1.26-.38.2-.84.23-1.26.12-.33-2.21-.49-4.12.79-5.94-2.38-.51-3.55-1.85-4.72-3.91.31-.38.68-.49,1.06-.68-.39-.19-.68-.55-.82-.95,1.81-1.75,3.45-3.1,6.2-2.75-.02-2.46,1.04-3.89,2.81-5.48Z"/>
        <path class="cls-13" d="M762.22,447.77c.2.1.29.26.41.41.05-.19.18-.36.35-.46.97.65,1.74,1.25,1.84,2.53,1.07-.31,1.83-.02,2.74.55-.04.22-.17.35-.28.51.2,0,.39.07.54.21-.35,1.09-.71,1.98-1.85,2.44.05.06.09.13.14.2.72,1.08.64,1.94.26,3.06-.23,0-.38-.08-.56-.16.05.19.02.4-.07.57-1.06-.08-1.96-.21-2.66-1.04-.84.79-1.66.87-2.75.76-.06-.22,0-.39.03-.58-.18.09-.39.11-.58.05-.15-1.02-.22-1.9.36-2.73-1.09-.23-1.63-.85-2.17-1.79.14-.17.31-.23.49-.31-.18-.09-.31-.25-.38-.44.83-.81,1.59-1.42,2.85-1.26,0-1.13.48-1.79,1.29-2.52Z"/>
        <ellipse class="cls-7" cx="762.61" cy="452.97" rx="1.16" ry="1.24" transform="translate(-109.63 291.85) rotate(-20.24)"/>
        <path class="cls-19" d="M754.45,423.49c.44.22.63.56.89.9.11-.42.39-.78.76-1.01,2.11,1.41,3.78,2.73,4.01,5.51,2.32-.67,3.98-.04,5.97,1.2-.09.48-.37.76-.61,1.1.43-.01.86.16,1.18.45-.75,2.37-1.54,4.31-4.03,5.32.1.14.21.28.31.43,1.57,2.36,1.39,4.23.57,6.66-.49.02-.82-.18-1.22-.34.11.42.04.87-.16,1.25-2.31-.17-4.27-.45-5.79-2.27-1.82,1.71-3.61,1.89-5.99,1.65-.13-.47,0-.84.06-1.26-.38.2-.84.23-1.26.12-.33-2.21-.49-4.12.79-5.94-2.38-.51-3.55-1.85-4.72-3.91.31-.38.68-.49,1.06-.68-.39-.19-.68-.55-.82-.95,1.81-1.75,3.45-3.1,6.2-2.75-.02-2.46,1.04-3.89,2.81-5.48Z"/>
        <path class="cls-13" d="M755.22,429.77c.2.1.29.26.41.41.05-.19.18-.36.35-.46.97.65,1.74,1.25,1.84,2.53,1.07-.31,1.83-.02,2.74.55-.04.22-.17.35-.28.51.2,0,.39.07.54.21-.35,1.09-.71,1.98-1.85,2.44.05.06.09.13.14.2.72,1.08.64,1.94.26,3.06-.23,0-.38-.08-.56-.16.05.19.02.4-.07.57-1.06-.08-1.96-.21-2.66-1.04-.84.79-1.66.87-2.75.76-.06-.22,0-.39.03-.58-.18.09-.39.11-.58.05-.15-1.02-.22-1.9.36-2.73-1.09-.23-1.63-.85-2.17-1.79.14-.17.31-.23.49-.31-.18-.09-.31-.25-.38-.44.83-.81,1.59-1.42,2.85-1.26,0-1.13.48-1.79,1.29-2.52Z"/>
        <ellipse class="cls-7" cx="755.61" cy="434.97" rx="1.16" ry="1.24" transform="translate(-103.83 288.31) rotate(-20.24)"/>
        <path class="cls-19" d="M774.45,433.49c.44.22.63.56.89.9.11-.42.39-.78.76-1.01,2.11,1.41,3.78,2.73,4.01,5.51,2.32-.67,3.98-.04,5.97,1.2-.09.48-.37.76-.61,1.1.43-.01.86.16,1.18.45-.75,2.37-1.54,4.31-4.03,5.32.1.14.21.28.31.43,1.57,2.36,1.39,4.23.57,6.66-.49.02-.82-.18-1.22-.34.11.42.04.87-.16,1.25-2.31-.17-4.27-.45-5.79-2.27-1.82,1.71-3.61,1.89-5.99,1.65-.13-.47,0-.84.06-1.26-.38.2-.84.23-1.26.12-.33-2.21-.49-4.12.79-5.94-2.38-.51-3.55-1.85-4.72-3.91.31-.38.68-.49,1.06-.68-.39-.19-.68-.55-.82-.95,1.81-1.75,3.45-3.1,6.2-2.75-.02-2.46,1.04-3.89,2.81-5.48Z"/>
        <path class="cls-13" d="M775.22,439.77c.2.1.29.26.41.41.05-.19.18-.36.35-.46.97.65,1.74,1.25,1.84,2.53,1.07-.31,1.83-.02,2.74.55-.04.22-.17.35-.28.51.2,0,.39.07.54.21-.35,1.09-.71,1.98-1.85,2.44.05.06.09.13.14.2.72,1.08.64,1.94.26,3.06-.23,0-.38-.08-.56-.16.05.19.02.4-.07.57-1.06-.08-1.96-.21-2.66-1.04-.84.79-1.66.87-2.75.76-.06-.22,0-.39.03-.58-.18.09-.39.11-.58.05-.15-1.02-.22-1.9.36-2.73-1.09-.23-1.63-.85-2.17-1.79.14-.17.31-.23.49-.31-.18-.09-.31-.25-.38-.44.83-.81,1.59-1.42,2.85-1.26,0-1.13.48-1.79,1.29-2.52Z"/>
        <ellipse class="cls-7" cx="775.61" cy="444.97" rx="1.16" ry="1.24" transform="translate(-106.06 295.85) rotate(-20.24)"/>
        <path class="cls-19" d="M834.4,359.12c.44.22.63.56.89.9.11-.42.39-.78.76-1.01,2.11,1.41,3.78,2.73,4.01,5.51,2.32-.67,3.98-.04,5.97,1.2-.09.48-.37.76-.61,1.1.43-.01.86.16,1.18.45-.75,2.37-1.54,4.31-4.03,5.32.1.14.21.28.31.43,1.57,2.36,1.39,4.23.57,6.66-.49.02-.82-.18-1.22-.34.11.42.04.87-.16,1.25-2.31-.17-4.27-.45-5.79-2.27-1.82,1.71-3.61,1.89-5.99,1.65-.13-.47,0-.84.06-1.26-.38.2-.84.23-1.26.12-.33-2.21-.49-4.12.79-5.94-2.38-.51-3.55-1.85-4.72-3.91.31-.38.68-.49,1.06-.68-.39-.19-.68-.55-.82-.95,1.81-1.75,3.45-3.1,6.2-2.75-.02-2.46,1.04-3.89,2.81-5.48Z"/>
        <path class="cls-13" d="M835.17,365.4c.2.1.29.26.41.41.05-.19.18-.36.35-.46.97.65,1.74,1.25,1.84,2.53,1.07-.31,1.83-.02,2.74.55-.04.22-.17.35-.28.51.2,0,.39.07.54.21-.35,1.09-.71,1.98-1.85,2.44.05.06.09.13.14.2.72,1.08.64,1.94.26,3.06-.23,0-.38-.08-.56-.16.05.19.02.4-.07.57-1.06-.08-1.96-.21-2.66-1.04-.84.79-1.66.87-2.75.76-.06-.22,0-.39.03-.58-.18.09-.39.11-.58.05-.15-1.02-.22-1.9.36-2.73-1.09-.23-1.63-.85-2.17-1.79.14-.17.31-.23.49-.31-.18-.09-.31-.25-.38-.44.83-.81,1.59-1.42,2.85-1.26,0-1.13.48-1.79,1.29-2.52Z"/>
        <ellipse class="cls-7" cx="835.56" cy="370.6" rx="1.16" ry="1.24" transform="translate(-76.62 312) rotate(-20.24)"/>
        <path class="cls-19" d="M827.4,341.12c.44.22.63.56.89.9.11-.42.39-.78.76-1.01,2.11,1.41,3.78,2.73,4.01,5.51,2.32-.67,3.98-.04,5.97,1.2-.09.48-.37.76-.61,1.1.43-.01.86.16,1.18.45-.75,2.37-1.54,4.31-4.03,5.32.1.14.21.28.31.43,1.57,2.36,1.39,4.23.57,6.66-.49.02-.82-.18-1.22-.34.11.42.04.87-.16,1.25-2.31-.17-4.27-.45-5.79-2.27-1.82,1.71-3.61,1.89-5.99,1.65-.13-.47,0-.84.06-1.26-.38.2-.84.23-1.26.12-.33-2.21-.49-4.12.79-5.94-2.38-.51-3.55-1.85-4.72-3.91.31-.38.68-.49,1.06-.68-.39-.19-.68-.55-.82-.95,1.81-1.75,3.45-3.1,6.2-2.75-.02-2.46,1.04-3.89,2.81-5.48Z"/>
        <path class="cls-13" d="M828.17,347.4c.2.1.29.26.41.41.05-.19.18-.36.35-.46.97.65,1.74,1.25,1.84,2.53,1.07-.31,1.83-.02,2.74.55-.04.22-.17.35-.28.51.2,0,.39.07.54.21-.35,1.09-.71,1.98-1.85,2.44.05.06.09.13.14.2.72,1.08.64,1.94.26,3.06-.23,0-.38-.08-.56-.16.05.19.02.4-.07.57-1.06-.08-1.96-.21-2.66-1.04-.84.79-1.66.87-2.75.76-.06-.22,0-.39.03-.58-.18.09-.39.11-.58.05-.15-1.02-.22-1.9.36-2.73-1.09-.23-1.63-.85-2.17-1.79.14-.17.31-.23.49-.31-.18-.09-.31-.25-.38-.44.83-.81,1.59-1.42,2.85-1.26,0-1.13.48-1.79,1.29-2.52Z"/>
        <ellipse class="cls-7" cx="828.56" cy="352.6" rx="1.16" ry="1.24" transform="translate(-70.82 308.47) rotate(-20.24)"/>
        <path class="cls-19" d="M847.4,351.12c.44.22.63.56.89.9.11-.42.39-.78.76-1.01,2.11,1.41,3.78,2.73,4.01,5.51,2.32-.67,3.98-.04,5.97,1.2-.09.48-.37.76-.61,1.1.43-.01.86.16,1.18.45-.75,2.37-1.54,4.31-4.03,5.32.1.14.21.28.31.43,1.57,2.36,1.39,4.23.57,6.66-.49.02-.82-.18-1.22-.34.11.42.04.87-.16,1.25-2.31-.17-4.27-.45-5.79-2.27-1.82,1.71-3.61,1.89-5.99,1.65-.13-.47,0-.84.06-1.26-.38.2-.84.23-1.26.12-.33-2.21-.49-4.12.79-5.94-2.38-.51-3.55-1.85-4.72-3.91.31-.38.68-.49,1.06-.68-.39-.19-.68-.55-.82-.95,1.81-1.75,3.45-3.1,6.2-2.75-.02-2.46,1.04-3.89,2.81-5.48Z"/>
        <path class="cls-13" d="M848.17,357.4c.2.1.29.26.41.41.05-.19.18-.36.35-.46.97.65,1.74,1.25,1.84,2.53,1.07-.31,1.83-.02,2.74.55-.04.22-.17.35-.28.51.2,0,.39.07.54.21-.35,1.09-.71,1.98-1.85,2.44.05.06.09.13.14.2.72,1.08.64,1.94.26,3.06-.23,0-.38-.08-.56-.16.05.19.02.4-.07.57-1.06-.08-1.96-.21-2.66-1.04-.84.79-1.66.87-2.75.76-.06-.22,0-.39.03-.58-.18.09-.39.11-.58.05-.15-1.02-.22-1.9.36-2.73-1.09-.23-1.63-.85-2.17-1.79.14-.17.31-.23.49-.31-.18-.09-.31-.25-.38-.44.83-.81,1.59-1.42,2.85-1.26,0-1.13.48-1.79,1.29-2.52Z"/>
        <ellipse class="cls-7" cx="848.56" cy="362.6" rx="1.16" ry="1.24" transform="translate(-73.05 316) rotate(-20.24)"/>
        <path class="cls-19" d="M863.38,336.54c.44.22.63.56.89.9.11-.42.39-.78.76-1.01,2.11,1.41,3.78,2.73,4.01,5.51,2.32-.67,3.98-.04,5.97,1.2-.09.48-.37.76-.61,1.1.43-.01.86.16,1.18.45-.75,2.37-1.54,4.31-4.03,5.32.1.14.21.28.31.43,1.57,2.36,1.39,4.23.57,6.66-.49.02-.82-.18-1.22-.34.11.42.04.87-.16,1.25-2.31-.17-4.27-.45-5.79-2.27-1.82,1.71-3.61,1.89-5.99,1.65-.13-.47,0-.84.06-1.26-.38.2-.84.23-1.26.12-.33-2.21-.49-4.12.79-5.94-2.38-.51-3.55-1.85-4.72-3.91.31-.38.68-.49,1.06-.68-.39-.19-.68-.55-.82-.95,1.81-1.75,3.45-3.1,6.2-2.75-.02-2.46,1.04-3.89,2.81-5.48Z"/>
        <path class="cls-13" d="M864.15,342.82c.2.1.29.26.41.41.05-.19.18-.36.35-.46.97.65,1.74,1.25,1.84,2.53,1.07-.31,1.83-.02,2.74.55-.04.22-.17.35-.28.51.2,0,.39.07.54.21-.35,1.09-.71,1.98-1.85,2.44.05.06.09.13.14.2.72,1.08.64,1.94.26,3.06-.23,0-.38-.08-.56-.16.05.19.02.4-.07.57-1.06-.08-1.96-.21-2.66-1.04-.84.79-1.66.87-2.75.76-.06-.22,0-.39.03-.58-.18.09-.39.11-.58.05-.15-1.02-.22-1.9.36-2.73-1.09-.23-1.63-.85-2.17-1.79.14-.17.31-.23.49-.31-.18-.09-.31-.25-.38-.44.83-.81,1.59-1.42,2.85-1.26,0-1.13.48-1.79,1.29-2.52Z"/>
        <ellipse class="cls-7" cx="864.54" cy="348.02" rx="1.16" ry="1.24" transform="translate(-67.02 320.63) rotate(-20.24)"/>
        <path class="cls-19" d="M856.38,318.54c.44.22.63.56.89.9.11-.42.39-.78.76-1.01,2.11,1.41,3.78,2.73,4.01,5.51,2.32-.67,3.98-.04,5.97,1.2-.09.48-.37.76-.61,1.1.43-.01.86.16,1.18.45-.75,2.37-1.54,4.31-4.03,5.32.1.14.21.28.31.43,1.57,2.36,1.39,4.23.57,6.66-.49.02-.82-.18-1.22-.34.11.42.04.87-.16,1.25-2.31-.17-4.27-.45-5.79-2.27-1.82,1.71-3.61,1.89-5.99,1.65-.13-.47,0-.84.06-1.26-.38.2-.84.23-1.26.12-.33-2.21-.49-4.12.79-5.94-2.38-.51-3.55-1.85-4.72-3.91.31-.38.68-.49,1.06-.68-.39-.19-.68-.55-.82-.95,1.81-1.75,3.45-3.1,6.2-2.75-.02-2.46,1.04-3.89,2.81-5.48Z"/>
        <path class="cls-13" d="M857.15,324.82c.2.1.29.26.41.41.05-.19.18-.36.35-.46.97.65,1.74,1.25,1.84,2.53,1.07-.31,1.83-.02,2.74.55-.04.22-.17.35-.28.51.2,0,.39.07.54.21-.35,1.09-.71,1.98-1.85,2.44.05.06.09.13.14.2.72,1.08.64,1.94.26,3.06-.23,0-.38-.08-.56-.16.05.19.02.4-.07.57-1.06-.08-1.96-.21-2.66-1.04-.84.79-1.66.87-2.75.76-.06-.22,0-.39.03-.58-.18.09-.39.11-.58.05-.15-1.02-.22-1.9.36-2.73-1.09-.23-1.63-.85-2.17-1.79.14-.17.31-.23.49-.31-.18-.09-.31-.25-.38-.44.83-.81,1.59-1.42,2.85-1.26,0-1.13.48-1.79,1.29-2.52Z"/>
        <ellipse class="cls-7" cx="857.54" cy="330.02" rx="1.16" ry="1.24" transform="translate(-61.22 317.1) rotate(-20.24)"/>
        <path class="cls-19" d="M876.38,328.54c.44.22.63.56.89.9.11-.42.39-.78.76-1.01,2.11,1.41,3.78,2.73,4.01,5.51,2.32-.67,3.98-.04,5.97,1.2-.09.48-.37.76-.61,1.1.43-.01.86.16,1.18.45-.75,2.37-1.54,4.31-4.03,5.32.1.14.21.28.31.43,1.57,2.36,1.39,4.23.57,6.66-.49.02-.82-.18-1.22-.34.11.42.04.87-.16,1.25-2.31-.17-4.27-.45-5.79-2.27-1.82,1.71-3.61,1.89-5.99,1.65-.13-.47,0-.84.06-1.26-.38.2-.84.23-1.26.12-.33-2.21-.49-4.12.79-5.94-2.38-.51-3.55-1.85-4.72-3.91.31-.38.68-.49,1.06-.68-.39-.19-.68-.55-.82-.95,1.81-1.75,3.45-3.1,6.2-2.75-.02-2.46,1.04-3.89,2.81-5.48Z"/>
        <path class="cls-13" d="M877.15,334.82c.2.1.29.26.41.41.05-.19.18-.36.35-.46.97.65,1.74,1.25,1.84,2.53,1.07-.31,1.83-.02,2.74.55-.04.22-.17.35-.28.51.2,0,.39.07.54.21-.35,1.09-.71,1.98-1.85,2.44.05.06.09.13.14.2.72,1.08.64,1.94.26,3.06-.23,0-.38-.08-.56-.16.05.19.02.4-.07.57-1.06-.08-1.96-.21-2.66-1.04-.84.79-1.66.87-2.75.76-.06-.22,0-.39.03-.58-.18.09-.39.11-.58.05-.15-1.02-.22-1.9.36-2.73-1.09-.23-1.63-.85-2.17-1.79.14-.17.31-.23.49-.31-.18-.09-.31-.25-.38-.44.83-.81,1.59-1.42,2.85-1.26,0-1.13.48-1.79,1.29-2.52Z"/>
        <ellipse class="cls-7" cx="877.54" cy="340.02" rx="1.16" ry="1.24" transform="translate(-63.45 324.64) rotate(-20.24)"/>
        <path class="cls-19" d="M855.38,359.54c.44.22.63.56.89.9.11-.42.39-.78.76-1.01,2.11,1.41,3.78,2.73,4.01,5.51,2.32-.67,3.98-.04,5.97,1.2-.09.48-.37.76-.61,1.1.43-.01.86.16,1.18.45-.75,2.37-1.54,4.31-4.03,5.32.1.14.21.28.31.43,1.57,2.36,1.39,4.23.57,6.66-.49.02-.82-.18-1.22-.34.11.42.04.87-.16,1.25-2.31-.17-4.27-.45-5.79-2.27-1.82,1.71-3.61,1.89-5.99,1.65-.13-.47,0-.84.06-1.26-.38.2-.84.23-1.26.12-.33-2.21-.49-4.12.79-5.94-2.38-.51-3.55-1.85-4.72-3.91.31-.38.68-.49,1.06-.68-.39-.19-.68-.55-.82-.95,1.81-1.75,3.45-3.1,6.2-2.75-.02-2.46,1.04-3.89,2.81-5.48Z"/>
        <path class="cls-13" d="M856.15,365.82c.2.1.29.26.41.41.05-.19.18-.36.35-.46.97.65,1.74,1.25,1.84,2.53,1.07-.31,1.83-.02,2.74.55-.04.22-.17.35-.28.51.2,0,.39.07.54.21-.35,1.09-.71,1.98-1.85,2.44.05.06.09.13.14.2.72,1.08.64,1.94.26,3.06-.23,0-.38-.08-.56-.16.05.19.02.4-.07.57-1.06-.08-1.96-.21-2.66-1.04-.84.79-1.66.87-2.75.76-.06-.22,0-.39.03-.58-.18.09-.39.11-.58.05-.15-1.02-.22-1.9.36-2.73-1.09-.23-1.63-.85-2.17-1.79.14-.17.31-.23.49-.31-.18-.09-.31-.25-.38-.44.83-.81,1.59-1.42,2.85-1.26,0-1.13.48-1.79,1.29-2.52Z"/>
        <ellipse class="cls-7" cx="856.54" cy="371.02" rx="1.16" ry="1.24" transform="translate(-75.47 319.29) rotate(-20.24)"/>
        <path class="cls-18" d="M868.38,351.54c.44.22.63.56.89.9.11-.42.39-.78.76-1.01,2.11,1.41,3.78,2.73,4.01,5.51,2.32-.67,3.98-.04,5.97,1.2-.09.48-.37.76-.61,1.1.43-.01.86.16,1.18.45-.75,2.37-1.54,4.31-4.03,5.32.1.14.21.28.31.43,1.57,2.36,1.39,4.23.57,6.66-.49.02-.82-.18-1.22-.34.11.42.04.87-.16,1.25-2.31-.17-4.27-.45-5.79-2.27-1.82,1.71-3.61,1.89-5.99,1.65-.13-.47,0-.84.06-1.26-.38.2-.84.23-1.26.12-.33-2.21-.49-4.12.79-5.94-2.38-.51-3.55-1.85-4.72-3.91.31-.38.68-.49,1.06-.68-.39-.19-.68-.55-.82-.95,1.81-1.75,3.45-3.1,6.2-2.75-.02-2.46,1.04-3.89,2.81-5.48Z"/>
        <path class="cls-13" d="M869.15,357.82c.2.1.29.26.41.41.05-.19.18-.36.35-.46.97.65,1.74,1.25,1.84,2.53,1.07-.31,1.83-.02,2.74.55-.04.22-.17.35-.28.51.2,0,.39.07.54.21-.35,1.09-.71,1.98-1.85,2.44.05.06.09.13.14.2.72,1.08.64,1.94.26,3.06-.23,0-.38-.08-.56-.16.05.19.02.4-.07.57-1.06-.08-1.96-.21-2.66-1.04-.84.79-1.66.87-2.75.76-.06-.22,0-.39.03-.58-.18.09-.39.11-.58.05-.15-1.02-.22-1.9.36-2.73-1.09-.23-1.63-.85-2.17-1.79.14-.17.31-.23.49-.31-.18-.09-.31-.25-.38-.44.83-.81,1.59-1.42,2.85-1.26,0-1.13.48-1.79,1.29-2.52Z"/>
        <ellipse class="cls-7" cx="869.54" cy="363.02" rx="1.16" ry="1.24" transform="translate(-71.9 323.29) rotate(-20.24)"/>
        <path class="cls-19" d="M725.38,424.54c.44.22.63.56.89.9.11-.42.39-.78.76-1.01,2.11,1.41,3.78,2.73,4.01,5.51,2.32-.67,3.98-.04,5.97,1.2-.09.48-.37.76-.61,1.1.43-.01.86.16,1.18.45-.75,2.37-1.54,4.31-4.03,5.32.1.14.21.28.31.43,1.57,2.36,1.39,4.23.57,6.66-.49.02-.82-.18-1.22-.34.11.42.04.87-.16,1.25-2.31-.17-4.27-.45-5.79-2.27-1.82,1.71-3.61,1.89-5.99,1.65-.13-.47,0-.84.06-1.26-.38.2-.84.23-1.26.12-.33-2.21-.49-4.12.79-5.94-2.38-.51-3.55-1.85-4.72-3.91.31-.38.68-.49,1.06-.68-.39-.19-.68-.55-.82-.95,1.81-1.75,3.45-3.1,6.2-2.75-.02-2.46,1.04-3.89,2.81-5.48Z"/>
        <path class="cls-13" d="M726.15,430.82c.2.1.29.26.41.41.05-.19.18-.36.35-.46.97.65,1.74,1.25,1.84,2.53,1.07-.31,1.83-.02,2.74.55-.04.22-.17.35-.28.51.2,0,.39.07.54.21-.35,1.09-.71,1.98-1.85,2.44.05.06.09.13.14.2.72,1.08.64,1.94.26,3.06-.23,0-.38-.08-.56-.16.05.19.02.4-.07.57-1.06-.08-1.96-.21-2.66-1.04-.84.79-1.66.87-2.75.76-.06-.22,0-.39.03-.58-.18.09-.39.11-.58.05-.15-1.02-.22-1.9.36-2.73-1.09-.23-1.63-.85-2.17-1.79.14-.17.31-.23.49-.31-.18-.09-.31-.25-.38-.44.83-.81,1.59-1.42,2.85-1.26,0-1.13.48-1.79,1.29-2.52Z"/>
        <ellipse class="cls-7" cx="726.54" cy="436.02" rx="1.16" ry="1.24" transform="translate(-105.99 278.32) rotate(-20.24)"/>
        <path class="cls-19" d="M728.38,390.54c.44.22.63.56.89.9.11-.42.39-.78.76-1.01,2.11,1.41,3.78,2.73,4.01,5.51,2.32-.67,3.98-.04,5.97,1.2-.09.48-.37.76-.61,1.1.43-.01.86.16,1.18.45-.75,2.37-1.54,4.31-4.03,5.32.1.14.21.28.31.43,1.57,2.36,1.39,4.23.57,6.66-.49.02-.82-.18-1.22-.34.11.42.04.87-.16,1.25-2.31-.17-4.27-.45-5.79-2.27-1.82,1.71-3.61,1.89-5.99,1.65-.13-.47,0-.84.06-1.26-.38.2-.84.23-1.26.12-.33-2.21-.49-4.12.79-5.94-2.38-.51-3.55-1.85-4.72-3.91.31-.38.68-.49,1.06-.68-.39-.19-.68-.55-.82-.95,1.81-1.75,3.45-3.1,6.2-2.75-.02-2.46,1.04-3.89,2.81-5.48Z"/>
        <path class="cls-13" d="M729.15,396.82c.2.1.29.26.41.41.05-.19.18-.36.35-.46.97.65,1.74,1.25,1.84,2.53,1.07-.31,1.83-.02,2.74.55-.04.22-.17.35-.28.51.2,0,.39.07.54.21-.35,1.09-.71,1.98-1.85,2.44.05.06.09.13.14.2.72,1.08.64,1.94.26,3.06-.23,0-.38-.08-.56-.16.05.19.02.4-.07.57-1.06-.08-1.96-.21-2.66-1.04-.84.79-1.66.87-2.75.76-.06-.22,0-.39.03-.58-.18.09-.39.11-.58.05-.15-1.02-.22-1.9.36-2.73-1.09-.23-1.63-.85-2.17-1.79.14-.17.31-.23.49-.31-.18-.09-.31-.25-.38-.44.83-.81,1.59-1.42,2.85-1.26,0-1.13.48-1.79,1.29-2.52Z"/>
        <ellipse class="cls-7" cx="729.54" cy="402.02" rx="1.16" ry="1.24" transform="translate(-94.04 277.26) rotate(-20.24)"/>
        <path class="cls-19" d="M749.38,401.54c.44.22.63.56.89.9.11-.42.39-.78.76-1.01,2.11,1.41,3.78,2.73,4.01,5.51,2.32-.67,3.98-.04,5.97,1.2-.09.48-.37.76-.61,1.1.43-.01.86.16,1.18.45-.75,2.37-1.54,4.31-4.03,5.32.1.14.21.28.31.43,1.57,2.36,1.39,4.23.57,6.66-.49.02-.82-.18-1.22-.34.11.42.04.87-.16,1.25-2.31-.17-4.27-.45-5.79-2.27-1.82,1.71-3.61,1.89-5.99,1.65-.13-.47,0-.84.06-1.26-.38.2-.84.23-1.26.12-.33-2.21-.49-4.12.79-5.94-2.38-.51-3.55-1.85-4.72-3.91.31-.38.68-.49,1.06-.68-.39-.19-.68-.55-.82-.95,1.81-1.75,3.45-3.1,6.2-2.75-.02-2.46,1.04-3.89,2.81-5.48Z"/>
        <path class="cls-13" d="M750.15,407.82c.2.1.29.26.41.41.05-.19.18-.36.35-.46.97.65,1.74,1.25,1.84,2.53,1.07-.31,1.83-.02,2.74.55-.04.22-.17.35-.28.51.2,0,.39.07.54.21-.35,1.09-.71,1.98-1.85,2.44.05.06.09.13.14.2.72,1.08.64,1.94.26,3.06-.23,0-.38-.08-.56-.16.05.19.02.4-.07.57-1.06-.08-1.96-.21-2.66-1.04-.84.79-1.66.87-2.75.76-.06-.22,0-.39.03-.58-.18.09-.39.11-.58.05-.15-1.02-.22-1.9.36-2.73-1.09-.23-1.63-.85-2.17-1.79.14-.17.31-.23.49-.31-.18-.09-.31-.25-.38-.44.83-.81,1.59-1.42,2.85-1.26,0-1.13.48-1.79,1.29-2.52Z"/>
        <ellipse class="cls-7" cx="750.54" cy="413.02" rx="1.16" ry="1.24" transform="translate(-96.55 285.2) rotate(-20.24)"/>
        <path class="cls-19" d="M785.38,379.54c.44.22.63.56.89.9.11-.42.39-.78.76-1.01,2.11,1.41,3.78,2.73,4.01,5.51,2.32-.67,3.98-.04,5.97,1.2-.09.48-.37.76-.61,1.1.43-.01.86.16,1.18.45-.75,2.37-1.54,4.31-4.03,5.32.1.14.21.28.31.43,1.57,2.36,1.39,4.23.57,6.66-.49.02-.82-.18-1.22-.34.11.42.04.87-.16,1.25-2.31-.17-4.27-.45-5.79-2.27-1.82,1.71-3.61,1.89-5.99,1.65-.13-.47,0-.84.06-1.26-.38.2-.84.23-1.26.12-.33-2.21-.49-4.12.79-5.94-2.38-.51-3.55-1.85-4.72-3.91.31-.38.68-.49,1.06-.68-.39-.19-.68-.55-.82-.95,1.81-1.75,3.45-3.1,6.2-2.75-.02-2.46,1.04-3.89,2.81-5.48Z"/>
        <path class="cls-13" d="M786.15,385.82c.2.1.29.26.41.41.05-.19.18-.36.35-.46.97.65,1.74,1.25,1.84,2.53,1.07-.31,1.83-.02,2.74.55-.04.22-.17.35-.28.51.2,0,.39.07.54.21-.35,1.09-.71,1.98-1.85,2.44.05.06.09.13.14.2.72,1.08.64,1.94.26,3.06-.23,0-.38-.08-.56-.16.05.19.02.4-.07.57-1.06-.08-1.96-.21-2.66-1.04-.84.79-1.66.87-2.75.76-.06-.22,0-.39.03-.58-.18.09-.39.11-.58.05-.15-1.02-.22-1.9.36-2.73-1.09-.23-1.63-.85-2.17-1.79.14-.17.31-.23.49-.31-.18-.09-.31-.25-.38-.44.83-.81,1.59-1.42,2.85-1.26,0-1.13.48-1.79,1.29-2.52Z"/>
        <ellipse class="cls-7" cx="786.54" cy="391.02" rx="1.16" ry="1.24" transform="translate(-86.71 296.3) rotate(-20.24)"/>
        <path class="cls-19" d="M802.38,547.54c.44.22.63.56.89.9.11-.42.39-.78.76-1.01,2.11,1.41,3.78,2.73,4.01,5.51,2.32-.67,3.98-.04,5.97,1.2-.09.48-.37.76-.61,1.1.43-.01.86.16,1.18.45-.75,2.37-1.54,4.31-4.03,5.32.1.14.21.28.31.43,1.57,2.36,1.39,4.23.57,6.66-.49.02-.82-.18-1.22-.34.11.42.04.87-.16,1.25-2.31-.17-4.27-.45-5.79-2.27-1.82,1.71-3.61,1.89-5.99,1.65-.13-.47,0-.84.06-1.26-.38.2-.84.23-1.26.12-.33-2.21-.49-4.12.79-5.94-2.38-.51-3.55-1.85-4.72-3.91.31-.38.68-.49,1.06-.68-.39-.19-.68-.55-.82-.95,1.81-1.75,3.45-3.1,6.2-2.75-.02-2.46,1.04-3.89,2.81-5.48Z"/>
        <path class="cls-13" d="M803.15,553.82c.2.1.29.26.41.41.05-.19.18-.36.35-.46.97.65,1.74,1.25,1.84,2.53,1.07-.31,1.83-.02,2.74.55-.04.22-.17.35-.28.51.2,0,.39.07.54.21-.35,1.09-.71,1.98-1.85,2.44.05.06.09.13.14.2.72,1.08.64,1.94.26,3.06-.23,0-.38-.08-.56-.16.05.19.02.4-.07.57-1.06-.08-1.96-.21-2.66-1.04-.84.79-1.66.87-2.75.76-.06-.22,0-.39.03-.58-.18.09-.39.11-.58.05-.15-1.02-.22-1.9.36-2.73-1.09-.23-1.63-.85-2.17-1.79.14-.17.31-.23.49-.31-.18-.09-.31-.25-.38-.44.83-.81,1.59-1.42,2.85-1.26,0-1.13.48-1.79,1.29-2.52Z"/>
        <ellipse class="cls-7" cx="803.54" cy="559.02" rx="1.16" ry="1.24" transform="translate(-143.79 312.56) rotate(-20.24)"/>
        <path class="cls-19" d="M839.38,548.54c.44.22.63.56.89.9.11-.42.39-.78.76-1.01,2.11,1.41,3.78,2.73,4.01,5.51,2.32-.67,3.98-.04,5.97,1.2-.09.48-.37.76-.61,1.1.43-.01.86.16,1.18.45-.75,2.37-1.54,4.31-4.03,5.32.1.14.21.28.31.43,1.57,2.36,1.39,4.23.57,6.66-.49.02-.82-.18-1.22-.34.11.42.04.87-.16,1.25-2.31-.17-4.27-.45-5.79-2.27-1.82,1.71-3.61,1.89-5.99,1.65-.13-.47,0-.84.06-1.26-.38.2-.84.23-1.26.12-.33-2.21-.49-4.12.79-5.94-2.38-.51-3.55-1.85-4.72-3.91.31-.38.68-.49,1.06-.68-.39-.19-.68-.55-.82-.95,1.81-1.75,3.45-3.1,6.2-2.75-.02-2.46,1.04-3.89,2.81-5.48Z"/>
        <path class="cls-13" d="M840.15,554.82c.2.1.29.26.41.41.05-.19.18-.36.35-.46.97.65,1.74,1.25,1.84,2.53,1.07-.31,1.83-.02,2.74.55-.04.22-.17.35-.28.51.2,0,.39.07.54.21-.35,1.09-.71,1.98-1.85,2.44.05.06.09.13.14.2.72,1.08.64,1.94.26,3.06-.23,0-.38-.08-.56-.16.05.19.02.4-.07.57-1.06-.08-1.96-.21-2.66-1.04-.84.79-1.66.87-2.75.76-.06-.22,0-.39.03-.58-.18.09-.39.11-.58.05-.15-1.02-.22-1.9.36-2.73-1.09-.23-1.63-.85-2.17-1.79.14-.17.31-.23.49-.31-.18-.09-.31-.25-.38-.44.83-.81,1.59-1.42,2.85-1.26,0-1.13.48-1.79,1.29-2.52Z"/>
        <ellipse class="cls-7" cx="840.54" cy="560.02" rx="1.16" ry="1.24" transform="translate(-141.85 325.42) rotate(-20.24)"/>
        <path class="cls-18" d="M842.5,333.58c.44.22.63.56.89.9.11-.42.39-.78.76-1.01,2.11,1.41,3.78,2.73,4.01,5.51,2.32-.67,3.98-.04,5.97,1.2-.09.48-.37.76-.61,1.1.43-.01.86.16,1.18.45-.75,2.37-1.54,4.31-4.03,5.32.1.14.21.28.31.43,1.57,2.36,1.39,4.23.57,6.66-.49.02-.82-.18-1.22-.34.11.42.04.87-.16,1.25-2.31-.17-4.27-.45-5.79-2.27-1.82,1.71-3.61,1.89-5.99,1.65-.13-.47,0-.84.06-1.26-.38.2-.84.23-1.26.12-.33-2.21-.49-4.12.79-5.94-2.38-.51-3.55-1.85-4.72-3.91.31-.38.68-.49,1.06-.68-.39-.19-.68-.55-.82-.95,1.81-1.75,3.45-3.1,6.2-2.75-.02-2.46,1.04-3.89,2.81-5.48Z"/>
        <path class="cls-13" d="M843.27,339.86c.2.1.29.26.41.41.05-.19.18-.36.35-.46.97.65,1.74,1.25,1.84,2.53,1.07-.31,1.83-.02,2.74.55-.04.22-.17.35-.28.51.2,0,.39.07.54.21-.35,1.09-.71,1.98-1.85,2.44.05.06.09.13.14.2.72,1.08.64,1.94.26,3.06-.23,0-.38-.08-.56-.16.05.19.02.4-.07.57-1.06-.08-1.96-.21-2.66-1.04-.84.79-1.66.87-2.75.76-.06-.22,0-.39.03-.58-.18.09-.39.11-.58.05-.15-1.02-.22-1.9.36-2.73-1.09-.23-1.63-.85-2.17-1.79.14-.17.31-.23.49-.31-.18-.09-.31-.25-.38-.44.83-.81,1.59-1.42,2.85-1.26,0-1.13.48-1.79,1.29-2.52Z"/>
        <ellipse class="cls-7" cx="843.66" cy="345.07" rx="1.16" ry="1.24" transform="translate(-67.28 313.22) rotate(-20.24)"/>
        <path class="cls-18" d="M760.5,413.58c.44.22.63.56.89.9.11-.42.39-.78.76-1.01,2.11,1.41,3.78,2.73,4.01,5.51,2.32-.67,3.98-.04,5.97,1.2-.09.48-.37.76-.61,1.1.43-.01.86.16,1.18.45-.75,2.37-1.54,4.31-4.03,5.32.1.14.21.28.31.43,1.57,2.36,1.39,4.23.57,6.66-.49.02-.82-.18-1.22-.34.11.42.04.87-.16,1.25-2.31-.17-4.27-.45-5.79-2.27-1.82,1.71-3.61,1.89-5.99,1.65-.13-.47,0-.84.06-1.26-.38.2-.84.23-1.26.12-.33-2.21-.49-4.12.79-5.94-2.38-.51-3.55-1.85-4.72-3.91.31-.38.68-.49,1.06-.68-.39-.19-.68-.55-.82-.95,1.81-1.75,3.45-3.1,6.2-2.75-.02-2.46,1.04-3.89,2.81-5.48Z"/>
        <path class="cls-13" d="M761.27,419.86c.2.1.29.26.41.41.05-.19.18-.36.35-.46.97.65,1.74,1.25,1.84,2.53,1.07-.31,1.83-.02,2.74.55-.04.22-.17.35-.28.51.2,0,.39.07.54.21-.35,1.09-.71,1.98-1.85,2.44.05.06.09.13.14.2.72,1.08.64,1.94.26,3.06-.23,0-.38-.08-.56-.16.05.19.02.4-.07.57-1.06-.08-1.96-.21-2.66-1.04-.84.79-1.66.87-2.75.76-.06-.22,0-.39.03-.58-.18.09-.39.11-.58.05-.15-1.02-.22-1.9.36-2.73-1.09-.23-1.63-.85-2.17-1.79.14-.17.31-.23.49-.31-.18-.09-.31-.25-.38-.44.83-.81,1.59-1.42,2.85-1.26,0-1.13.48-1.79,1.29-2.52Z"/>
        <ellipse class="cls-7" cx="761.66" cy="425.07" rx="1.16" ry="1.24" transform="translate(-100.03 289.79) rotate(-20.24)"/>
        <path class="cls-18" d="M735.5,423.58c.44.22.63.56.89.9.11-.42.39-.78.76-1.01,2.11,1.41,3.78,2.73,4.01,5.51,2.32-.67,3.98-.04,5.97,1.2-.09.48-.37.76-.61,1.1.43-.01.86.16,1.18.45-.75,2.37-1.54,4.31-4.03,5.32.1.14.21.28.31.43,1.57,2.36,1.39,4.23.57,6.66-.49.02-.82-.18-1.22-.34.11.42.04.87-.16,1.25-2.31-.17-4.27-.45-5.79-2.27-1.82,1.71-3.61,1.89-5.99,1.65-.13-.47,0-.84.06-1.26-.38.2-.84.23-1.26.12-.33-2.21-.49-4.12.79-5.94-2.38-.51-3.55-1.85-4.72-3.91.31-.38.68-.49,1.06-.68-.39-.19-.68-.55-.82-.95,1.81-1.75,3.45-3.1,6.2-2.75-.02-2.46,1.04-3.89,2.81-5.48Z"/>
        <path class="cls-13" d="M736.27,429.86c.2.1.29.26.41.41.05-.19.18-.36.35-.46.97.65,1.74,1.25,1.84,2.53,1.07-.31,1.83-.02,2.74.55-.04.22-.17.35-.28.51.2,0,.39.07.54.21-.35,1.09-.71,1.98-1.85,2.44.05.06.09.13.14.2.72,1.08.64,1.94.26,3.06-.23,0-.38-.08-.56-.16.05.19.02.4-.07.57-1.06-.08-1.96-.21-2.66-1.04-.84.79-1.66.87-2.75.76-.06-.22,0-.39.03-.58-.18.09-.39.11-.58.05-.15-1.02-.22-1.9.36-2.73-1.09-.23-1.63-.85-2.17-1.79.14-.17.31-.23.49-.31-.18-.09-.31-.25-.38-.44.83-.81,1.59-1.42,2.85-1.26,0-1.13.48-1.79,1.29-2.52Z"/>
        <ellipse class="cls-7" cx="736.66" cy="435.07" rx="1.16" ry="1.24" transform="translate(-105.03 281.76) rotate(-20.24)"/>
        <path class="cls-18" d="M771.5,441.58c.44.22.63.56.89.9.11-.42.39-.78.76-1.01,2.11,1.41,3.78,2.73,4.01,5.51,2.32-.67,3.98-.04,5.97,1.2-.09.48-.37.76-.61,1.1.43-.01.86.16,1.18.45-.75,2.37-1.54,4.31-4.03,5.32.1.14.21.28.31.43,1.57,2.36,1.39,4.23.57,6.66-.49.02-.82-.18-1.22-.34.11.42.04.87-.16,1.25-2.31-.17-4.27-.45-5.79-2.27-1.82,1.71-3.61,1.89-5.99,1.65-.13-.47,0-.84.06-1.26-.38.2-.84.23-1.26.12-.33-2.21-.49-4.12.79-5.94-2.38-.51-3.55-1.85-4.72-3.91.31-.38.68-.49,1.06-.68-.39-.19-.68-.55-.82-.95,1.81-1.75,3.45-3.1,6.2-2.75-.02-2.46,1.04-3.89,2.81-5.48Z"/>
        <path class="cls-13" d="M772.27,447.86c.2.1.29.26.41.41.05-.19.18-.36.35-.46.97.65,1.74,1.25,1.84,2.53,1.07-.31,1.83-.02,2.74.55-.04.22-.17.35-.28.51.2,0,.39.07.54.21-.35,1.09-.71,1.98-1.85,2.44.05.06.09.13.14.2.72,1.08.64,1.94.26,3.06-.23,0-.38-.08-.56-.16.05.19.02.4-.07.57-1.06-.08-1.96-.21-2.66-1.04-.84.79-1.66.87-2.75.76-.06-.22,0-.39.03-.58-.18.09-.39.11-.58.05-.15-1.02-.22-1.9.36-2.73-1.09-.23-1.63-.85-2.17-1.79.14-.17.31-.23.49-.31-.18-.09-.31-.25-.38-.44.83-.81,1.59-1.42,2.85-1.26,0-1.13.48-1.79,1.29-2.52Z"/>
        <ellipse class="cls-7" cx="772.66" cy="453.07" rx="1.16" ry="1.24" transform="translate(-109.04 295.33) rotate(-20.24)"/>
        <path class="cls-18" d="M889.5,530.58c.44.22.63.56.89.9.11-.42.39-.78.76-1.01,2.11,1.41,3.78,2.73,4.01,5.51,2.32-.67,3.98-.04,5.97,1.2-.09.48-.37.76-.61,1.1.43-.01.86.16,1.18.45-.75,2.37-1.54,4.31-4.03,5.32.1.14.21.28.31.43,1.57,2.36,1.39,4.23.57,6.66-.49.02-.82-.18-1.22-.34.11.42.04.87-.16,1.25-2.31-.17-4.27-.45-5.79-2.27-1.82,1.71-3.61,1.89-5.99,1.65-.13-.47,0-.84.06-1.26-.38.2-.84.23-1.26.12-.33-2.21-.49-4.12.79-5.94-2.38-.51-3.55-1.85-4.72-3.91.31-.38.68-.49,1.06-.68-.39-.19-.68-.55-.82-.95,1.81-1.75,3.45-3.1,6.2-2.75-.02-2.46,1.04-3.89,2.81-5.48Z"/>
        <path class="cls-13" d="M890.27,536.86c.2.1.29.26.41.41.05-.19.18-.36.35-.46.97.65,1.74,1.25,1.84,2.53,1.07-.31,1.83-.02,2.74.55-.04.22-.17.35-.28.51.2,0,.39.07.54.21-.35,1.09-.71,1.98-1.85,2.44.05.06.09.13.14.2.72,1.08.64,1.94.26,3.06-.23,0-.38-.08-.56-.16.05.19.02.4-.07.57-1.06-.08-1.96-.21-2.66-1.04-.84.79-1.66.87-2.75.76-.06-.22,0-.39.03-.58-.18.09-.39.11-.58.05-.15-1.02-.22-1.9.36-2.73-1.09-.23-1.63-.85-2.17-1.79.14-.17.31-.23.49-.31-.18-.09-.31-.25-.38-.44.83-.81,1.59-1.42,2.85-1.26,0-1.13.48-1.79,1.29-2.52Z"/>
        <ellipse class="cls-7" cx="890.66" cy="542.07" rx="1.16" ry="1.24" transform="translate(-132.54 341.66) rotate(-20.24)"/>
        <path class="cls-18" d="M892.15,566.98c.44.22.63.56.89.9.11-.42.39-.78.76-1.01,2.11,1.41,3.78,2.73,4.01,5.51,2.32-.67,3.98-.04,5.97,1.2-.09.48-.37.76-.61,1.1.43-.01.86.16,1.18.45-.75,2.37-1.54,4.31-4.03,5.32.1.14.21.28.31.43,1.57,2.36,1.39,4.23.57,6.66-.49.02-.82-.18-1.22-.34.11.42.04.87-.16,1.25-2.31-.17-4.27-.45-5.79-2.27-1.82,1.71-3.61,1.89-5.99,1.65-.13-.47,0-.84.06-1.26-.38.2-.84.23-1.26.12-.33-2.21-.49-4.12.79-5.94-2.38-.51-3.55-1.85-4.72-3.91.31-.38.68-.49,1.06-.68-.39-.19-.68-.55-.82-.95,1.81-1.75,3.45-3.1,6.2-2.75-.02-2.46,1.04-3.89,2.81-5.48Z"/>
        <path class="cls-13" d="M892.92,573.26c.2.1.29.26.41.41.05-.19.18-.36.35-.46.97.65,1.74,1.25,1.84,2.53,1.07-.31,1.83-.02,2.74.55-.04.22-.17.35-.28.51.2,0,.39.07.54.21-.35,1.09-.71,1.98-1.85,2.44.05.06.09.13.14.2.72,1.08.64,1.94.26,3.06-.23,0-.38-.08-.56-.16.05.19.02.4-.07.57-1.06-.08-1.96-.21-2.66-1.04-.84.79-1.66.87-2.75.76-.06-.22,0-.39.03-.58-.18.09-.39.11-.58.05-.15-1.02-.22-1.9.36-2.73-1.09-.23-1.63-.85-2.17-1.79.14-.17.31-.23.49-.31-.18-.09-.31-.25-.38-.44.83-.81,1.59-1.42,2.85-1.26,0-1.13.48-1.79,1.29-2.52Z"/>
        <ellipse class="cls-7" cx="893.3" cy="578.46" rx="1.16" ry="1.24" transform="translate(-144.98 344.82) rotate(-20.24)"/>
        <path class="cls-18" d="M811.15,556.98c.44.22.63.56.89.9.11-.42.39-.78.76-1.01,2.11,1.41,3.78,2.73,4.01,5.51,2.32-.67,3.98-.04,5.97,1.2-.09.48-.37.76-.61,1.1.43-.01.86.16,1.18.45-.75,2.37-1.54,4.31-4.03,5.32.1.14.21.28.31.43,1.57,2.36,1.39,4.23.57,6.66-.49.02-.82-.18-1.22-.34.11.42.04.87-.16,1.25-2.31-.17-4.27-.45-5.79-2.27-1.82,1.71-3.61,1.89-5.99,1.65-.13-.47,0-.84.06-1.26-.38.2-.84.23-1.26.12-.33-2.21-.49-4.12.79-5.94-2.38-.51-3.55-1.85-4.72-3.91.31-.38.68-.49,1.06-.68-.39-.19-.68-.55-.82-.95,1.81-1.75,3.45-3.1,6.2-2.75-.02-2.46,1.04-3.89,2.81-5.48Z"/>
        <path class="cls-13" d="M811.92,563.26c.2.1.29.26.41.41.05-.19.18-.36.35-.46.97.65,1.74,1.25,1.84,2.53,1.07-.31,1.83-.02,2.74.55-.04.22-.17.35-.28.51.2,0,.39.07.54.21-.35,1.09-.71,1.98-1.85,2.44.05.06.09.13.14.2.72,1.08.64,1.94.26,3.06-.23,0-.38-.08-.56-.16.05.19.02.4-.07.57-1.06-.08-1.96-.21-2.66-1.04-.84.79-1.66.87-2.75.76-.06-.22,0-.39.03-.58-.18.09-.39.11-.58.05-.15-1.02-.22-1.9.36-2.73-1.09-.23-1.63-.85-2.17-1.79.14-.17.31-.23.49-.31-.18-.09-.31-.25-.38-.44.83-.81,1.59-1.42,2.85-1.26,0-1.13.48-1.79,1.29-2.52Z"/>
        <ellipse class="cls-7" cx="812.3" cy="568.46" rx="1.16" ry="1.24" transform="translate(-146.52 316.18) rotate(-20.24)"/>
        <path class="cls-18" d="M954.43,550.94c.44.22.63.56.89.9.11-.42.39-.78.76-1.01,2.11,1.41,3.78,2.73,4.01,5.51,2.32-.67,3.98-.04,5.97,1.2-.09.48-.37.76-.61,1.1.43-.01.86.16,1.18.45-.75,2.37-1.54,4.31-4.03,5.32.1.14.21.28.31.43,1.57,2.36,1.39,4.23.57,6.66-.49.02-.82-.18-1.22-.34.11.42.04.87-.16,1.25-2.31-.17-4.27-.45-5.79-2.27-1.82,1.71-3.61,1.89-5.99,1.65-.13-.47,0-.84.06-1.26-.38.2-.84.23-1.26.12-.33-2.21-.49-4.12.79-5.94-2.38-.51-3.55-1.85-4.72-3.91.31-.38.68-.49,1.06-.68-.39-.19-.68-.55-.82-.95,1.81-1.75,3.45-3.1,6.2-2.75-.02-2.46,1.04-3.89,2.81-5.48Z"/>
        <path class="cls-18" d="M929.43,586.94c.44.22.63.56.89.9.11-.42.39-.78.76-1.01,2.11,1.41,3.78,2.73,4.01,5.51,2.32-.67,3.98-.04,5.97,1.2-.09.48-.37.76-.61,1.1.43-.01.86.16,1.18.45-.75,2.37-1.54,4.31-4.03,5.32.1.14.21.28.31.43,1.57,2.36,1.39,4.23.57,6.66-.49.02-.82-.18-1.22-.34.11.42.04.87-.16,1.25-2.31-.17-4.27-.45-5.79-2.27-1.82,1.71-3.61,1.89-5.99,1.65-.13-.47,0-.84.06-1.26-.38.2-.84.23-1.26.12-.33-2.21-.49-4.12.79-5.94-2.38-.51-3.55-1.85-4.72-3.91.31-.38.68-.49,1.06-.68-.39-.19-.68-.55-.82-.95,1.81-1.75,3.45-3.1,6.2-2.75-.02-2.46,1.04-3.89,2.81-5.48Z"/>
        <path class="cls-13" d="M930.2,593.22c.2.1.29.26.41.41.05-.19.18-.36.35-.46.97.65,1.74,1.25,1.84,2.53,1.07-.31,1.83-.02,2.74.55-.04.22-.17.35-.28.51.2,0,.39.07.54.21-.35,1.09-.71,1.98-1.85,2.44.05.06.09.13.14.2.72,1.08.64,1.94.26,3.06-.23,0-.38-.08-.56-.16.05.19.02.4-.07.57-1.06-.08-1.96-.21-2.66-1.04-.84.79-1.66.87-2.75.76-.06-.22,0-.39.03-.58-.18.09-.39.11-.58.05-.15-1.02-.22-1.9.36-2.73-1.09-.23-1.63-.85-2.17-1.79.14-.17.31-.23.49-.31-.18-.09-.31-.25-.38-.44.83-.81,1.59-1.42,2.85-1.26,0-1.13.48-1.79,1.29-2.52Z"/>
        <ellipse class="cls-7" cx="930.59" cy="598.42" rx="1.16" ry="1.24" transform="translate(-149.58 358.95) rotate(-20.24)"/>
        <path class="cls-18" d="M809.43,654.94c.44.22.63.56.89.9.11-.42.39-.78.76-1.01,2.11,1.41,3.78,2.73,4.01,5.51,2.32-.67,3.98-.04,5.97,1.2-.09.48-.37.76-.61,1.1.43-.01.86.16,1.18.45-.75,2.37-1.54,4.31-4.03,5.32.1.14.21.28.31.43,1.57,2.36,1.39,4.23.57,6.66-.49.02-.82-.18-1.22-.34.11.42.04.87-.16,1.25-2.31-.17-4.27-.45-5.79-2.27-1.82,1.71-3.61,1.89-5.99,1.65-.13-.47,0-.84.06-1.26-.38.2-.84.23-1.26.12-.33-2.21-.49-4.12.79-5.94-2.38-.51-3.55-1.85-4.72-3.91.31-.38.68-.49,1.06-.68-.39-.19-.68-.55-.82-.95,1.81-1.75,3.45-3.1,6.2-2.75-.02-2.46,1.04-3.89,2.81-5.48Z"/>
        <path class="cls-13" d="M810.2,661.22c.2.1.29.26.41.41.05-.19.18-.36.35-.46.97.65,1.74,1.25,1.84,2.53,1.07-.31,1.83-.02,2.74.55-.04.22-.17.35-.28.51.2,0,.39.07.54.21-.35,1.09-.71,1.98-1.85,2.44.05.06.09.13.14.2.72,1.08.64,1.94.26,3.06-.23,0-.38-.08-.56-.16.05.19.02.4-.07.57-1.06-.08-1.96-.21-2.66-1.04-.84.79-1.66.87-2.75.76-.06-.22,0-.39.03-.58-.18.09-.39.11-.58.05-.15-1.02-.22-1.9.36-2.73-1.09-.23-1.63-.85-2.17-1.79.14-.17.31-.23.49-.31-.18-.09-.31-.25-.38-.44.83-.81,1.59-1.42,2.85-1.26,0-1.13.48-1.79,1.29-2.52Z"/>
        <ellipse class="cls-7" cx="810.59" cy="666.42" rx="1.16" ry="1.24" transform="translate(-180.52 321.63) rotate(-20.24)"/>
        <path class="cls-18" d="M892.43,579.94c.44.22.63.56.89.9.11-.42.39-.78.76-1.01,2.11,1.41,3.78,2.73,4.01,5.51,2.32-.67,3.98-.04,5.97,1.2-.09.48-.37.76-.61,1.1.43-.01.86.16,1.18.45-.75,2.37-1.54,4.31-4.03,5.32.1.14.21.28.31.43,1.57,2.36,1.39,4.23.57,6.66-.49.02-.82-.18-1.22-.34.11.42.04.87-.16,1.25-2.31-.17-4.27-.45-5.79-2.27-1.82,1.71-3.61,1.89-5.99,1.65-.13-.47,0-.84.06-1.26-.38.2-.84.23-1.26.12-.33-2.21-.49-4.12.79-5.94-2.38-.51-3.55-1.85-4.72-3.91.31-.38.68-.49,1.06-.68-.39-.19-.68-.55-.82-.95,1.81-1.75,3.45-3.1,6.2-2.75-.02-2.46,1.04-3.89,2.81-5.48Z"/>
        <path class="cls-13" d="M893.2,586.22c.2.1.29.26.41.41.05-.19.18-.36.35-.46.97.65,1.74,1.25,1.84,2.53,1.07-.31,1.83-.02,2.74.55-.04.22-.17.35-.28.51.2,0,.39.07.54.21-.35,1.09-.71,1.98-1.85,2.44.05.06.09.13.14.2.72,1.08.64,1.94.26,3.06-.23,0-.38-.08-.56-.16.05.19.02.4-.07.57-1.06-.08-1.96-.21-2.66-1.04-.84.79-1.66.87-2.75.76-.06-.22,0-.39.03-.58-.18.09-.39.11-.58.05-.15-1.02-.22-1.9.36-2.73-1.09-.23-1.63-.85-2.17-1.79.14-.17.31-.23.49-.31-.18-.09-.31-.25-.38-.44.83-.81,1.59-1.42,2.85-1.26,0-1.13.48-1.79,1.29-2.52Z"/>
        <ellipse class="cls-7" cx="893.59" cy="591.42" rx="1.16" ry="1.24" transform="translate(-149.44 345.72) rotate(-20.24)"/>
        <path class="cls-18" d="M853.43,663.94c.44.22.63.56.89.9.11-.42.39-.78.76-1.01,2.11,1.41,3.78,2.73,4.01,5.51,2.32-.67,3.98-.04,5.97,1.2-.09.48-.37.76-.61,1.1.43-.01.86.16,1.18.45-.75,2.37-1.54,4.31-4.03,5.32.1.14.21.28.31.43,1.57,2.36,1.39,4.23.57,6.66-.49.02-.82-.18-1.22-.34.11.42.04.87-.16,1.25-2.31-.17-4.27-.45-5.79-2.27-1.82,1.71-3.61,1.89-5.99,1.65-.13-.47,0-.84.06-1.26-.38.2-.84.23-1.26.12-.33-2.21-.49-4.12.79-5.94-2.38-.51-3.55-1.85-4.72-3.91.31-.38.68-.49,1.06-.68-.39-.19-.68-.55-.82-.95,1.81-1.75,3.45-3.1,6.2-2.75-.02-2.46,1.04-3.89,2.81-5.48Z"/>
        <path class="cls-13" d="M854.2,670.22c.2.1.29.26.41.41.05-.19.18-.36.35-.46.97.65,1.74,1.25,1.84,2.53,1.07-.31,1.83-.02,2.74.55-.04.22-.17.35-.28.51.2,0,.39.07.54.21-.35,1.09-.71,1.98-1.85,2.44.05.06.09.13.14.2.72,1.08.64,1.94.26,3.06-.23,0-.38-.08-.56-.16.05.19.02.4-.07.57-1.06-.08-1.96-.21-2.66-1.04-.84.79-1.66.87-2.75.76-.06-.22,0-.39.03-.58-.18.09-.39.11-.58.05-.15-1.02-.22-1.9.36-2.73-1.09-.23-1.63-.85-2.17-1.79.14-.17.31-.23.49-.31-.18-.09-.31-.25-.38-.44.83-.81,1.59-1.42,2.85-1.26,0-1.13.48-1.79,1.29-2.52Z"/>
        <ellipse class="cls-7" cx="854.59" cy="675.42" rx="1.16" ry="1.24" transform="translate(-180.92 337.41) rotate(-20.24)"/>
        <path class="cls-18" d="M841.43,639.94c.44.22.63.56.89.9.11-.42.39-.78.76-1.01,2.11,1.41,3.78,2.73,4.01,5.51,2.32-.67,3.98-.04,5.97,1.2-.09.48-.37.76-.61,1.1.43-.01.86.16,1.18.45-.75,2.37-1.54,4.31-4.03,5.32.1.14.21.28.31.43,1.57,2.36,1.39,4.23.57,6.66-.49.02-.82-.18-1.22-.34.11.42.04.87-.16,1.25-2.31-.17-4.27-.45-5.79-2.27-1.82,1.71-3.61,1.89-5.99,1.65-.13-.47,0-.84.06-1.26-.38.2-.84.23-1.26.12-.33-2.21-.49-4.12.79-5.94-2.38-.51-3.55-1.85-4.72-3.91.31-.38.68-.49,1.06-.68-.39-.19-.68-.55-.82-.95,1.81-1.75,3.45-3.1,6.2-2.75-.02-2.46,1.04-3.89,2.81-5.48Z"/>
        <path class="cls-13" d="M842.2,646.22c.2.1.29.26.41.41.05-.19.18-.36.35-.46.97.65,1.74,1.25,1.84,2.53,1.07-.31,1.83-.02,2.74.55-.04.22-.17.35-.28.51.2,0,.39.07.54.21-.35,1.09-.71,1.98-1.85,2.44.05.06.09.13.14.2.72,1.08.64,1.94.26,3.06-.23,0-.38-.08-.56-.16.05.19.02.4-.07.57-1.06-.08-1.96-.21-2.66-1.04-.84.79-1.66.87-2.75.76-.06-.22,0-.39.03-.58-.18.09-.39.11-.58.05-.15-1.02-.22-1.9.36-2.73-1.09-.23-1.63-.85-2.17-1.79.14-.17.31-.23.49-.31-.18-.09-.31-.25-.38-.44.83-.81,1.59-1.42,2.85-1.26,0-1.13.48-1.79,1.29-2.52Z"/>
        <ellipse class="cls-7" cx="842.59" cy="651.42" rx="1.16" ry="1.24" transform="translate(-173.35 331.78) rotate(-20.24)"/>
      </g>
    </g>
  </g>
</svg>