<svg width="203" height="188" viewBox="0 0 203 188" fill="none" xmlns="http://www.w3.org/2000/svg">
<path d="M187.966 172.184C191.025 161.832 195.934 138.653 183.11 115.778C181.063 112.13 178.776 108.866 176.399 105.954C179.032 100.514 180.46 94.7065 180.46 88.6691C180.46 58.0238 143.772 33.1758 98.5188 33.1758C53.265 33.1758 16.577 58.0185 16.577 88.6691C16.577 92.7278 17.2273 96.6851 18.4479 100.498C15.8681 104.221 13.4429 108.493 11.476 113.33C1.68437 137.416 9.6477 160.008 14.0292 169.944L0 178.914C0 182.616 3.44333 185.64 7.65421 185.64H24.8708C29.0817 185.64 32.5251 182.61 32.5251 178.914V176.674C32.5251 172.973 42.6899 151.976 46.5543 135.757C46.8581 134.493 47.1193 133.245 47.3485 132.008C61.3723 139.613 79.1593 144.162 98.5241 144.162C117.889 144.162 134.588 139.885 148.404 132.696C149.129 135.57 150.041 138.541 151.192 141.581C157.082 157.149 169.624 176.781 169.624 178.914V181.154C169.624 184.856 173.067 187.88 177.278 187.88H194.495C198.706 187.88 202.149 184.85 202.149 181.154L187.976 172.184H187.966Z" fill="#FFDAC2"/>
<path d="M174.8 70.2584L145.398 45.3784C142.365 42.8131 137.499 42.8931 134.578 45.5597L121.753 57.2718C118.832 59.9384 118.928 64.2157 121.961 66.7811L151.363 91.6611C151.597 91.8637 151.853 92.0398 152.109 92.2104C143.948 111.501 138.938 137.832 143.186 140.045C148.49 142.808 158.036 130.861 169.709 113.554C178.073 101.154 177.214 72.3011 174.805 70.2637L174.8 70.2584Z" stroke="white" stroke-miterlimit="10"/>
<path d="M52.2898 94.835C52.2898 94.835 94.6278 169.944 143.602 94.835C143.602 94.835 137.739 118.376 126.897 126.787L126.257 148.648C126.257 148.648 100.646 160.979 69.1333 148.648L68.8668 126.227C68.8668 126.227 49.7366 109.971 52.2898 94.8403V94.835Z" fill="#0000FF"/>
<path d="M51.5113 95.1067L75.7745 66.264C78.2744 63.288 77.5548 59.0587 74.1701 56.856L59.2988 47.192C55.9141 44.9947 51.1008 45.6294 48.5956 48.6L28.8311 72.0934C27.7438 72.7227 22.5521 81.1334 23.0532 82.9947C21.0383 91.3734 21.081 103.149 26.4379 113.901C35.6272 132.333 43.4466 145.208 49.0914 143.037C53.3929 141.379 52.3961 117.117 47.6095 97.5174C49.118 97.112 50.4986 96.3014 51.506 95.1067H51.5113Z" stroke="white" stroke-miterlimit="10"/>
<path d="M63.5687 131.037H45.9629C42.7247 131.037 40.0996 133.664 40.0996 136.904V137.501C40.0996 140.741 42.7247 143.368 45.9629 143.368H63.5687C66.8068 143.368 69.4319 140.741 69.4319 137.501V136.904C69.4319 133.664 66.8068 131.037 63.5687 131.037Z" fill="#FFDAC2" stroke="white" stroke-miterlimit="10"/>
<path d="M103.817 9.62933C103.844 9.45333 103.865 9.27734 103.865 9.10134V4.67466C103.865 3.66133 103.396 2.74399 102.639 2.07733C101.445 1.02666 99.9634 1 99.6862 1H94.6545C92.3465 1 90.4756 2.64266 90.4756 4.67466V9.10134C90.4756 9.22934 90.4863 9.35734 90.4969 9.48534C84.607 9.912 78.5838 12.3653 76.537 20.9573C75.6042 24.8667 77.4324 28.8933 81.1743 31.16L113.193 31.5547C116.444 29.8 118.571 23.9173 117.889 20.616C115.336 8.28533 109.84 10.5787 103.812 9.62399L103.817 9.62933Z" fill="black" stroke="white" stroke-width="0.25" stroke-miterlimit="10"/>
<path d="M90.4756 8.84558C90.4756 8.84558 96.7546 6.48292 103.817 9.06425Z" fill="black"/>
<path d="M90.4756 8.84558C90.4756 8.84558 96.7546 6.48292 103.817 9.06425" stroke="#FBB03B" stroke-width="2" stroke-miterlimit="10"/>
<path d="M96.0084 19.5117C85.7104 19.5117 77.3633 27.6611 77.3633 37.7144C77.3633 38.8077 77.4698 39.8797 77.6564 40.9197H114.36C114.552 39.8797 114.654 38.8077 114.654 37.7144C114.654 27.6611 106.306 19.5117 96.0084 19.5117Z" fill="#FFDAC2"/>
<path d="M148.074 132.339H130.468C127.23 132.339 124.605 134.965 124.605 138.206V138.803C124.605 142.043 127.23 144.67 130.468 144.67H148.074C151.312 144.67 153.937 142.043 153.937 138.803V138.206C153.937 134.965 151.312 132.339 148.074 132.339Z" fill="#FFDAC2" stroke="white" stroke-miterlimit="10"/>
</svg>
