<?xml version="1.0" encoding="UTF-8"?>
<svg id="Layer_2" data-name="Layer 2" xmlns="http://www.w3.org/2000/svg" viewBox="0 0 1938 1080">
  <defs>
    <style>
      .cls-1 {
        fill: #e0b661;
      }

      .cls-2 {
        fill: #df0038;
      }

      .cls-3 {
        fill: #ffe7e0;
      }

      .cls-4 {
        fill: #f5c153;
      }

      .cls-5, .cls-6, .cls-7, .cls-8, .cls-9, .cls-10, .cls-11, .cls-12, .cls-13 {
        stroke-miterlimit: 10;
      }

      .cls-5, .cls-6, .cls-12 {
        fill: none;
      }

      .cls-5, .cls-8, .cls-9 {
        stroke: #fff;
      }

      .cls-6 {
        stroke: #d0992d;
      }

      .cls-6, .cls-12 {
        stroke-width: 3px;
      }

      .cls-14 {
        fill: #ff1523;
      }

      .cls-7, .cls-15 {
        opacity: .6;
      }

      .cls-7, .cls-11, .cls-12, .cls-13 {
        stroke: #fbb03b;
      }

      .cls-7, .cls-13 {
        fill: #ff7bac;
      }

      .cls-16 {
        fill: blue;
      }

      .cls-17 {
        fill: #ed1c24;
      }

      .cls-8 {
        stroke-width: .25px;
      }

      .cls-18 {
        fill: #ffe975;
      }

      .cls-19 {
        fill: #fff;
      }

      .cls-20, .cls-9 {
        fill: #ffdac2;
      }

      .cls-21 {
        fill: #b0d925;
      }

      .cls-22 {
        fill: #f5f5f5;
        stroke: #b3b3b3;
        stroke-width: .5px;
      }

      .cls-23 {
        fill: #c1272d;
      }

      .cls-10 {
        stroke: #000;
      }

      .cls-11 {
        stroke-width: 2px;
      }

      .cls-24 {
        fill: #ffdb70;
      }

      .cls-25 {
        fill: #333;
      }
    </style>
  </defs>
  <g id="Spilscene">
    <polyline class="cls-3" points="1938 1080 0 1080 0 0 1938 0"/>
    <g>
      <rect class="cls-6" x="159.26" y="123.09" width="1561.34" height="841.4"/>
      <line class="cls-6" x1="303.6" y1="123.09" x2="303.81" y2="964.69"/>
      <line class="cls-6" x1="1577.35" y1="123.29" x2="1577.14" y2="964.48"/>
    </g>
    <rect class="cls-1" x="1535.1" y="123.8" width="184.83" height="184.83"/>
    <rect class="cls-1" x="160.34" y="779.49" width="184.83" height="184.83"/>
    <path class="cls-14" d="M231.5,466.74c-.87,2.08-1.82,4.33-3.03,8.05-2.77,8.83-12.81,39.9-16.53,48.64l-7.79.26c4.33-9.95,14.37-41.29,16.96-50.46,1.13-3.98,1.47-5.97,1.73-8.31l8.66,1.82ZM247.95,495.73c6.06,8.83,15.58,26.31,19.13,35.23l-7.18,3.2c-3.46-9.35-12.29-27.35-18.52-35.57l6.58-2.86ZM200.78,521.61c12.46-.61,43.45-4.07,54.62-5.71l1.9,6.75c-12.03,1.56-43.88,5.02-56.09,6.23-2.16.17-4.76.52-7.18.87l-1.38-7.96c2.6.09,5.63,0,8.14-.17Z"/>
    <path class="cls-14" d="M192.64,437.37c2.68.26,7.18.52,12.12.52h47.43c4.33,0,7.36-.35,9.35-.52v8.48c-1.82-.09-5.45-.35-9.26-.35h-47.52c-4.76,0-9.35.17-12.12.35v-8.48Z"/>
    <path class="cls-14" d="M250.73,345.15c2.16,3.12,5.28,8.31,7.01,11.86l-4.67,2.08c-1.64-3.46-4.59-8.74-6.92-11.94l4.59-1.99ZM260.16,341.69c2.34,3.12,5.63,8.57,7.27,11.77l-4.59,2.08c-1.9-3.81-4.76-8.65-7.18-11.94l4.5-1.9ZM219.31,348.27c-.69,1.99-1.56,4.33-2.16,6.15-1.38,3.9-3.29,9.17-5.71,13.94-3.46,6.75-9.78,15.58-15.23,20.08l-6.84-4.15c6.23-4.41,12.46-13.33,15.41-18.61,2.42-4.33,3.89-8.74,4.93-12.12.69-2.16,1.13-4.59,1.3-6.84l8.31,1.56ZM208.49,363.15h46.22c2.16,0,5.63-.09,8.14-.52v7.44c-2.77-.17-6.15-.17-8.14-.17h-47.17l.95-6.75ZM240.25,366.79c-.78,26.66-10.65,41.98-26.14,51.85l-7.36-5.02c2.42-.95,5.11-2.51,7.01-4.07,8.92-6.66,18.7-18.78,19.13-42.76h7.36Z"/>
    <path class="cls-14" d="M192.56,251.83h65.26v6.23h-65.26v-6.23ZM193.08,267.15h52.19v5.8h-52.19v-5.8ZM255.23,251.83h6.49v64.31c0,4.5-.87,6.75-3.89,7.96-3.03,1.13-8.48,1.21-16.19,1.21-.35-1.99-1.3-5.19-2.34-7.1,6.06.17,11.94.17,13.76.09,1.64-.09,2.16-.52,2.16-2.16v-64.31ZM198.62,282.3h6.32v34.1h-6.32v-34.1ZM203.81,282.3h35.49v27.7h-35.49v-5.71h29.08v-16.19h-29.08v-5.8Z"/>
    <path class="cls-14" d="M194.55,156.91h67.68v5.63h-67.68v-5.63ZM198.02,169.64h60.85v5.45h-60.85v-5.45ZM189.45,182.7h77.47v5.71h-77.47v-5.71ZM190.92,197.16h74.61v5.71h-74.61v-5.71ZM244.5,187.64h6.58v33.32c0,3.81-.87,5.71-3.64,6.75-2.94,1.04-7.7,1.04-14.97,1.04-.35-1.82-1.38-4.41-2.25-6.32,5.8.17,10.91.17,12.38.09,1.56,0,1.9-.43,1.9-1.64v-33.24ZM223.46,149.38l7.1.78c-4.67,35.92-13.59,60.24-36.27,75.04-1.04-1.38-3.98-4.07-5.71-5.28,22.5-13.07,30.81-36.53,34.88-70.54ZM212.56,209.71l5.37-3.38c4.24,3.89,9.43,9.43,11.94,12.98l-5.63,3.81c-2.34-3.64-7.44-9.35-11.68-13.42Z"/>
    <path class="cls-21" d="M1604.57,724.28h89.01v7.13h-89.01v-7.13ZM1644.59,714.61h7.94v93.6h-7.94v-93.6ZM1642.25,772.96l6.42,2.85c-9.57,12.83-26.38,24.75-41.25,30.86-1.22-1.94-3.56-4.89-5.4-6.42,14.87-5.19,31.57-16.09,40.23-27.29ZM1655.08,773.07c8.76,11.2,25.77,22.1,40.84,27.19-1.83,1.53-4.18,4.48-5.4,6.62-15.07-6.01-32.08-18.23-41.66-30.96l6.21-2.85ZM1620.96,761.56v9.78h56.63v-9.78h-56.63ZM1620.96,746.08v9.68h56.63v-9.68h-56.63ZM1613.53,740.07h71.8v37.38h-71.8v-37.38ZM1604.46,854.57h88.91v7.33h-88.91v-7.33ZM1644.59,842.76h8.05v15.68h-8.05v-15.68ZM1624.53,877.99v16.7h49.09v-16.7h-49.09ZM1616.99,871.27h64.67v30.25h-64.67v-30.25ZM1667.81,910.89l6.93-3.36c6.82,6.62,15.28,15.99,19.45,22l-7.43,3.87c-3.77-5.91-12.02-15.68-18.94-22.51ZM1644.69,898.67h7.94v28.92c0,4.48-1.02,6.62-4.58,7.74-3.46,1.12-9.27,1.22-18.33,1.12-.41-2.04-1.53-5.09-2.55-7.13,6.93.2,13.34.1,15.18,0,1.83,0,2.34-.41,2.34-1.83v-28.82ZM1621.27,907.43l7.74,2.44c-4.89,8.05-12.73,17.11-20.37,22.81-1.53-1.43-4.28-3.46-6.01-4.48,7.33-5.3,14.87-13.75,18.64-20.78Z"/>
    <ellipse class="cls-20" cx="651.67" cy="475.21" rx="7.08" ry="3.22" transform="translate(-2.76 946.61) rotate(-71.87)"/>
    <g>
      <path class="cls-25" d="M227.27,899.74l1.71,6.06c.97,3.41,1.91,5.42,5.23,7,6.43,3.04,19.56,6.08,33.89,1,5.35-1.89,6.36-4.69,7.31-8.41l1.37-5.34"/>
      <path class="cls-10" d="M252.03,880.89c-34.11,0-61.86-11.01-62.69-24.72.82,29.84,29.66,53.49,63.4,53.49s60.69-23.57,61.93-53.05c-1.39,13.5-28.9,24.28-62.65,24.28Z"/>
      <path class="cls-13" d="M251.08,831.25c-34.45,0-62.4,11.23-62.7,25.13,0,.28,0,.57.01.85.83,13.71,28.57,24.72,62.69,24.72s61.26-10.77,62.65-24.28c.02-.52.04-1.04.04-1.56-.65-13.77-28.46-24.86-62.69-24.86Z"/>
    </g>
    <path class="cls-12" d="M252.01,830.61c-34.45,0-62.4,11.19-62.7,25.04,0,.28,0,.57.01.85.83,13.66,28.57,24.64,62.69,24.64s61.26-10.74,62.65-24.19c.02-.52.04-1.03.04-1.55-.65-13.73-28.46-24.77-62.69-24.77Z"/>
    <g>
      <path class="cls-25" d="M1602.9,240.52l1.71,6.06c.97,3.41,1.91,5.42,5.23,7,6.43,3.04,19.56,6.08,33.89,1,5.35-1.89,6.36-4.69,7.31-8.41l1.37-5.34"/>
      <path class="cls-10" d="M1627.67,221.67c-34.11,0-61.86-11.01-62.69-24.72.82,29.84,29.66,53.49,63.4,53.49s60.69-23.57,61.93-53.05c-1.39,13.5-28.9,24.28-62.65,24.28Z"/>
      <path class="cls-13" d="M1626.71,172.03c-34.45,0-62.4,11.23-62.7,25.13,0,.28,0,.57.01.85.83,13.71,28.57,24.72,62.69,24.72s61.26-10.77,62.65-24.28c.02-.52.04-1.04.04-1.56-.65-13.77-28.46-24.86-62.69-24.86Z"/>
    </g>
    <path class="cls-12" d="M1627.64,171.4c-34.45,0-62.4,11.19-62.7,25.04,0,.28,0,.57.01.85.83,13.66,28.57,24.64,62.69,24.64s61.26-10.74,62.65-24.19c.02-.52.04-1.03.04-1.55-.65-13.73-28.46-24.77-62.69-24.77Z"/>
    <path d="M359.87,170.77v24.94c-1.09.95-2.54,1.74-4.36,2.38-1.82.64-4.03.96-6.63.96s-4.81-.58-6.64-1.74c-2.06-1.25-3.09-3.03-3.09-5.32v-22.85h-8.27c-1.7-2.44-2.56-5.1-2.56-7.98,0-1.96.31-3.67.92-5.11.64-1.47,1.42-2.6,2.34-3.41h36.69c.69,1.06,1.25,2.35,1.7,3.87.45,1.51.67,3.02.67,4.51,0,2.79-.61,4.85-1.84,6.17-1.23,1.3-2.89,1.95-4.97,1.95h-10.4c-.07.17-.11.34-.11.53,0,.43.25.71.75.85.52.17,1.63.25,3.34.25h2.45ZM415.4,160.8v35.27c-2.65,1.99-6.04,2.98-10.18,2.98-3.19,0-5.72-.65-7.59-1.95-1.96-1.32-2.94-3.24-2.94-5.75v-7.03h2.52c.97,0,1.57-.12,1.81-.35.26-.26.39-.67.39-1.24h-11.14c0,.57.11.98.32,1.24.21.24.72.35,1.53.35h2.7v11.74c-1.82,1.18-3.55,1.98-5.18,2.38-1.63.4-3.3.6-5,.6-3.19,0-5.72-.65-7.59-1.95-1.96-1.32-2.94-3.24-2.94-5.75v-35.3c1.23-1.3,2.74-2.29,4.54-2.98,1.82-.71,3.71-1.06,5.68-1.06,2.86,0,5.29.71,7.27,2.13,2.15,1.61,3.23,3.83,3.23,6.67v6.32h4.51c0-.62-.12-1.03-.36-1.24-.21-.24-.57-.35-1.06-.35h-1.21v-9.47c1.23-1.3,2.74-2.29,4.54-2.98,1.82-.71,3.71-1.06,5.68-1.06,2.86,0,5.29.71,7.27,2.13,2.15,1.61,3.23,3.83,3.23,6.67ZM434.03,152.64h20.47c.69,1.14,1.19,2.38,1.53,3.73.33,1.32.5,2.52.5,3.58,0,2.39-.47,4.19-1.42,5.39-.92,1.21-2.22,1.81-3.9,1.81h-14.3c-.88,0-1.31.34-1.31,1.03v.28c0,.14.02.24.07.28h16.96c.43.73.79,1.66,1.1,2.77.28,1.21.43,2.28.43,3.23,0,2.81-.52,5.01-1.56,6.6h-7.7c-3.6,0-6.03.14-7.31.43-1.28.26-2.07.48-2.38.67-.31.21-.46.48-.46.82s.17.59.5.78c1.23-.4,2.52-.69,3.87-.85,1.77-.17,3.7-.25,5.78-.25h9.97c1.44,2.03,2.16,4.48,2.16,7.34,0,1.61-.2,3.15-.6,4.61-.4,1.47-1.01,2.65-1.81,3.55h-26.58c-2.93,0-5.29-.71-7.06-2.13-1.94-1.51-2.91-3.74-2.91-6.67v-33.74c0-1.14,1.3-1.96,3.9-2.48,2.6-.52,6.62-.78,12.06-.78ZM493.64,185.5c.78-.14,1.17-.53,1.17-1.17s-.21-1.4-.64-2.2c-.4-.83-1.01-1.61-1.81-2.34-2.1-1.89-4.95-2.84-8.55-2.84-1.77,0-3.43.3-4.97.89-1.63-.83-2.93-2.14-3.9-3.94-.97-1.8-1.46-3.74-1.46-5.82,0-5.44,2.27-9.64,6.81-12.6,3.9-2.53,8.72-3.8,14.44-3.8,4.26,0,7.84.46,10.75,1.38,2.91.9,5.29,2.06,7.13,3.48.54,1.56.82,3.18.82,4.86s-.22,3.21-.67,4.58c-.45,1.37-1.1,2.47-1.95,3.3-.8-.59-2.26-1.19-4.36-1.81-2.11-.62-4.02-.92-5.75-.92s-2.89.11-3.48.32c-.57.21-.85.54-.85.99,0,.21.04.41.11.6.83-.21,1.89-.32,3.19-.32,4.61,0,8.37,1.09,11.28,3.26,3.43,2.6,5.14,6.51,5.14,11.71,0,4.59-1.86,8.4-5.57,11.43-4.02,3.24-9.43,4.86-16.21,4.86-3.74,0-6.98-.28-9.72-.85-2.74-.54-5.42-1.51-8.02-2.91-1.77-2.58-2.66-5.19-2.66-7.84s.91-4.88,2.73-6.64c1.82-1.75,4.06-2.63,6.71-2.63s4.85.54,6.53,1.63c1.7,1.09,2.96,2.86,3.76,5.32ZM548.49,152c2.84,0,5.3.77,7.38,2.31,2.08,1.54,3.12,3.73,3.12,6.56v19.73c0,6.01-1.83,10.64-5.5,13.91-3.67,3.24-8.74,4.86-15.22,4.86s-11.48-1.6-15.08-4.79c-3.67-3.19-5.5-7.85-5.5-13.98v-25.3c2.79-2.22,6.02-3.34,9.69-3.34,3.07,0,5.51.82,7.31,2.45,1.8,1.61,2.7,4.06,2.7,7.34v20.69c.26.19.56.28.89.28.36,0,.6-.08.75-.25.17-.19.25-.53.25-1.03v-19.73c0-1.49-.07-2.67-.21-3.55-.14-.88-.43-1.75-.85-2.63,2.84-2.37,6.27-3.55,10.29-3.55ZM580.71,185.5c.78-.14,1.17-.53,1.17-1.17s-.21-1.4-.64-2.2c-.4-.83-1.01-1.61-1.81-2.34-2.11-1.89-4.96-2.84-8.55-2.84-1.77,0-3.43.3-4.97.89-1.63-.83-2.93-2.14-3.9-3.94-.97-1.8-1.45-3.74-1.45-5.82,0-5.44,2.27-9.64,6.81-12.6,3.9-2.53,8.72-3.8,14.44-3.8,4.26,0,7.84.46,10.75,1.38,2.91.9,5.29,2.06,7.13,3.48.54,1.56.82,3.18.82,4.86s-.23,3.21-.67,4.58c-.45,1.37-1.1,2.47-1.95,3.3-.8-.59-2.26-1.19-4.36-1.81-2.11-.62-4.02-.92-5.75-.92s-2.89.11-3.48.32c-.57.21-.85.54-.85.99,0,.21.04.41.11.6.83-.21,1.89-.32,3.19-.32,4.61,0,8.37,1.09,11.28,3.26,3.43,2.6,5.14,6.51,5.14,11.71,0,4.59-1.86,8.4-5.57,11.43-4.02,3.24-9.43,4.86-16.22,4.86-3.74,0-6.98-.28-9.72-.85-2.74-.54-5.42-1.51-8.02-2.91-1.77-2.58-2.66-5.19-2.66-7.84s.91-4.88,2.73-6.64c1.82-1.75,4.06-2.63,6.71-2.63s4.85.54,6.53,1.63c1.7,1.09,2.96,2.86,3.76,5.32ZM648.3,160.8v35.27c-2.65,1.99-6.04,2.98-10.18,2.98-3.19,0-5.72-.65-7.59-1.95-1.96-1.32-2.94-3.24-2.94-5.75v-7.03h2.52c.97,0,1.57-.12,1.81-.35.26-.26.39-.67.39-1.24h-11.14c0,.57.11.98.32,1.24.21.24.72.35,1.53.35h2.7v11.74c-1.82,1.18-3.55,1.98-5.18,2.38-1.63.4-3.3.6-5,.6-3.19,0-5.72-.65-7.59-1.95-1.96-1.32-2.94-3.24-2.94-5.75v-35.3c1.23-1.3,2.74-2.29,4.54-2.98,1.82-.71,3.71-1.06,5.68-1.06,2.86,0,5.29.71,7.27,2.13,2.15,1.61,3.23,3.83,3.23,6.67v6.32h4.51c0-.62-.12-1.03-.35-1.24-.21-.24-.57-.35-1.06-.35h-1.21v-9.47c1.23-1.3,2.74-2.29,4.54-2.98,1.82-.71,3.71-1.06,5.68-1.06,2.86,0,5.29.71,7.27,2.13,2.15,1.61,3.23,3.83,3.23,6.67ZM671.68,159.06v36.65c-1.09.95-2.54,1.74-4.36,2.38-1.82.64-4.03.96-6.64.96s-4.81-.58-6.64-1.74c-2.06-1.25-3.09-3.03-3.09-5.32v-36.65c1.09-.95,2.54-1.74,4.36-2.38,1.82-.64,4.02-.96,6.6-.96s4.81.57,6.71,1.7c2.03,1.3,3.05,3.09,3.05,5.36ZM714.4,168.85h21.04c1.35,1.96,2.02,4.35,2.02,7.17s-.58,5.06-1.74,6.81h-1.45v10.64c-4.66,4.04-10.81,6.07-18.45,6.07-4.66,0-8.8-.83-12.42-2.48-3.95-1.77-7.01-4.36-9.19-7.77-2.39-3.74-3.58-8.33-3.58-13.77,0-7.74,2.32-13.72,6.95-17.95,4.4-4.04,10.36-6.07,17.88-6.07,3.71,0,7.21.56,10.5,1.67,3.31,1.11,5.93,2.5,7.84,4.15,0,1.42-.18,3.16-.53,5.22-.33,2.06-.76,3.63-1.28,4.72h-18.7c-.76.8-1.48,1.96-2.16,3.48-.66,1.51-.99,3.25-.99,5.22,0,2.7.67,4.81,2.02,6.35,1.18,1.4,2.7,2.09,4.54,2.09.76,0,1.14-.26,1.14-.78v-.82h-.39c-1.56,0-2.86-.6-3.9-1.81-1.02-1.23-1.53-2.98-1.53-5.25,0-2.84.79-5.13,2.38-6.88ZM759.64,175.1c.19.19.49.28.89.28s.74-.08,1.03-.25c-.62-3.6-1.03-5.72-1.24-6.39-.26-.69-.65-1.03-1.17-1.03-.24,0-.52.07-.85.21l1.35,7.17ZM752.62,185.74c-.24.33-.36.64-.36.92,0,.69.64,1.27,1.92,1.74,1.3.45,2.87.73,4.72.85.31,3.41.64,5.35.99,5.82-.45.88-1.69,1.76-3.73,2.66-2.03.88-4.33,1.31-6.88,1.31-3.38,0-6.28-.72-8.69-2.16-2.41-1.47-3.62-3.35-3.62-5.64,0-.62.06-1.16.18-1.63l7.56-33.78c1.89-1.21,4.15-2.15,6.78-2.84,2.63-.69,5.36-1.03,8.2-1.03,4.07,0,7.55.69,10.43,2.06,3.29,1.56,5.29,3.82,6,6.78l8.09,33.46c-2.46,3.19-6.47,4.79-12.03,4.79-2.7,0-4.98-.48-6.85-1.45-1.87-.97-2.96-2.35-3.26-4.15l-.78-4.33c1.42-.02,2.79-.3,4.12-.82,1.33-.52,1.99-1.06,1.99-1.63,0-.38-.15-.69-.46-.92-.9.64-2,1.12-3.3,1.45-1.3.33-2.51.5-3.62.5-3.19,0-5.65-.65-7.38-1.95ZM825.25,199.05c-3.24,0-5.78-.53-7.63-1.6-1.99-1.11-3.06-2.68-3.23-4.72l-.32-3.34c2.18-.52,4.01-1.87,5.5-4.04.4-.62.6-1.15.6-1.6,0-.62-.31-.92-.92-.92h-.11s-.07.04-.14.04c-1.66,3.48-4.34,5.22-8.05,5.22-1.89,0-3.51-.41-4.86-1.24-1.32-.83-2.54-2.26-3.65-4.29h-.21c-.64,0-.96.27-.96.82,0,.38.14.8.43,1.28.95,1.58,2.13,2.83,3.55,3.73,1.11.76,2.28,1.21,3.51,1.35l-.28,6.71c-1.42.92-2.92,1.58-4.51,1.99-1.56.43-3.8.64-6.71.64s-5.46-.57-7.73-1.7c-2.79-1.4-4.19-3.34-4.19-5.82,0-3.1.62-10.75,1.85-22.96.66-6.36,1.19-10.81,1.6-13.34,2.44-2.18,6.03-3.26,10.79-3.26,3.45,0,6.32.64,8.59,1.92l1.95,6.53-1.24,5.22c-.09.35-.14.7-.14,1.03,0,.83.47,1.25,1.42,1.28l3.37-14.02c.97-.52,2.24-.97,3.8-1.35,1.56-.4,3.26-.6,5.11-.6,3.45,0,6.01.59,7.66,1.77,1.68,1.16,2.67,3.12,2.98,5.89.07.52.18,1.38.32,2.59,2.15,18.5,3.23,29.39,3.23,32.68-2.63,2.77-6.41,4.15-11.35,4.15ZM854.34,152.64h20.47c.69,1.14,1.19,2.38,1.53,3.73.33,1.32.5,2.52.5,3.58,0,2.39-.47,4.19-1.42,5.39-.92,1.21-2.22,1.81-3.9,1.81h-14.3c-.87,0-1.31.34-1.31,1.03v.28c0,.14.02.24.07.28h16.96c.43.73.79,1.66,1.1,2.77.28,1.21.43,2.28.43,3.23,0,2.81-.52,5.01-1.56,6.6h-7.7c-3.6,0-6.03.14-7.31.43-1.28.26-2.07.48-2.38.67-.31.21-.46.48-.46.82s.17.59.5.78c1.23-.4,2.52-.69,3.87-.85,1.77-.17,3.7-.25,5.78-.25h9.97c1.44,2.03,2.16,4.48,2.16,7.34,0,1.61-.2,3.15-.6,4.61-.4,1.47-1,2.65-1.81,3.55h-26.58c-2.93,0-5.29-.71-7.06-2.13-1.94-1.51-2.91-3.74-2.91-6.67v-33.74c0-1.14,1.3-1.96,3.9-2.48,2.6-.52,6.62-.78,12.06-.78Z"/>
    <path d="M1126.14,918.72c.24,0,.45-.06.64-.18v-3.23c1.61-1.09,3.86-1.97,6.74-2.66,2.91-.69,5.74-1.03,8.48-1.03,1.25,1.28,2.29,3.19,3.12,5.75.85,2.53,1.3,4.83,1.35,6.88-.47.95-1.28,1.96-2.41,3.05-1.11,1.09-2.46,2.09-4.04,3.02-3.93,2.32-8.43,3.48-13.52,3.48-7.29,0-13.02-2.12-17.21-6.35-4.33-4.28-6.49-10.21-6.49-17.78s2.37-13.55,7.1-17.88c2.08-1.94,4.51-3.39,7.27-4.36,2.77-.99,5.68-1.49,8.73-1.49,5.96,0,10.85,1.44,14.65,4.33,3.81,2.89,5.71,6.45,5.71,10.68,0,3.19-.98,5.56-2.94,7.1-1.96,1.51-4.62,2.27-7.98,2.27-1.85,0-3.7-.45-5.57-1.35-1.87-.92-2.98-1.79-3.34-2.59,0-1.94.04-3.47.11-4.58-.05-.02-.13-.04-.25-.04h-.25c-.35,0-.64.11-.85.32-.19.19-.37.6-.53,1.24-.14.64-.21,2.38-.21,5.22,0,6.79.57,10.18,1.7,10.18ZM1171.8,908.36c0-2.37-.11-3.99-.32-4.86-.21-.9-.6-1.35-1.17-1.35-.35,0-.67.12-.96.36.05.43.12.99.21,1.7.09.71.14,2.22.14,4.54v2.31c0,1.61-.04,2.78-.11,3.51-.07.73-.13,1.36-.18,1.88-.02.28-.05.57-.07.85.28.24.6.35.96.35.57,0,.96-.44,1.17-1.31.21-.9.32-2.53.32-4.9v-3.09ZM1170.38,933.98c-4.21,0-8.08-.86-11.6-2.59-3.5-1.75-6.33-4.41-8.48-7.98-2.15-3.6-3.23-8.08-3.23-13.45,0-7.78,2.34-13.86,7.03-18.24,4.16-3.86,9.52-5.78,16.07-5.78,7.12,0,12.75,2.21,16.89,6.64,4.16,4.4,6.24,10.2,6.24,17.39,0,8-2.22,14.1-6.67,18.31-4.04,3.81-9.46,5.71-16.25,5.71ZM1215.09,909.03c.09.07.37.11.82.11s.79-.18,1.03-.53c.24-.35.36-.93.36-1.74v-2.7c0-.85-.11-1.46-.32-1.81-.19-.38-.52-.57-.99-.57s-.76.05-.92.14c.02.12.04.32.04.6v6.49ZM1215.98,925.07v5.43c-1.04.87-2.51,1.6-4.4,2.16-1.89.54-3.87.82-5.93.82-2.93,0-5.33-.57-7.2-1.7-2.13-1.3-3.19-3.18-3.19-5.64v-33.71c0-.76.51-1.51,1.53-2.27,1.04-.76,2.47-1.44,4.29-2.06,3.9-1.32,8.36-1.99,13.38-1.99,6.93,0,12.45,1.73,16.57,5.18,4.12,3.45,6.17,8.1,6.17,13.94s-1.86,10.35-5.57,13.59c-3.57,3.08-8.53,4.61-14.87,4.61-1.44,0-2.99-.17-4.65-.5-1.63-.36-2.73-.66-3.3-.92-.19.19-.28.45-.28.78,0,1.21,2.48,1.96,7.45,2.27ZM1254.73,887.07h20.47c.69,1.14,1.19,2.38,1.53,3.73.33,1.32.5,2.52.5,3.58,0,2.39-.47,4.19-1.42,5.39-.92,1.21-2.22,1.81-3.9,1.81h-14.3c-.88,0-1.31.34-1.31,1.03v.28c0,.14.02.24.07.28h16.96c.43.73.79,1.66,1.1,2.77.28,1.21.43,2.28.43,3.23,0,2.81-.52,5.01-1.56,6.6h-7.7c-3.6,0-6.03.14-7.31.43-1.28.26-2.07.49-2.38.67-.31.21-.46.49-.46.82s.17.59.5.78c1.23-.4,2.52-.69,3.87-.85,1.77-.17,3.7-.25,5.78-.25h9.97c1.44,2.03,2.16,4.48,2.16,7.34,0,1.61-.2,3.15-.6,4.61-.4,1.47-1,2.65-1.81,3.55h-26.58c-2.93,0-5.29-.71-7.06-2.13-1.94-1.51-2.91-3.74-2.91-6.67v-33.74c0-1.14,1.3-1.96,3.9-2.48,2.6-.52,6.62-.78,12.06-.78ZM1279.49,926.28v-35.55c0-1.23.98-2.25,2.95-3.05,1.99-.83,4.32-1.24,6.99-1.24,1.51,0,2.93.19,4.26.57,1.35.36,2.38.82,3.09,1.38.97,1.23,1.86,2.48,2.66,3.76.8,1.28,2.61,4.26,5.43,8.94.26,0,.5-.08.71-.25.21-.17.32-.41.32-.75,0-.35-.3-1.03-.89-2.02l-3.83-6.6v-1.95c1.21-.99,2.67-1.76,4.4-2.31,1.73-.54,3.51-.82,5.36-.82,3,0,5.43.54,7.27,1.63,2.15,1.3,3.23,3.34,3.23,6.1v33.6c0,2.03-.97,3.51-2.91,4.44-1.66.83-3.87,1.24-6.63,1.24-1.54,0-3.04-.17-4.51-.5-1.44-.33-2.58-.76-3.41-1.28-1.68-2.15-3.35-4.57-5-7.24l-3.62-6.03c-.69.1-1.03.46-1.03,1.1,0,.4.34,1.17,1.03,2.31l4.44,7.17v1.88c-2.74,1.77-5.84,2.66-9.3,2.66s-6.13-.63-8.09-1.88c-1.94-1.25-2.91-3.03-2.91-5.32ZM1367.38,895.23v35.27c-2.65,1.99-6.04,2.98-10.18,2.98-3.19,0-5.72-.65-7.59-1.95-1.96-1.33-2.94-3.24-2.94-5.75v-7.03h2.52c.97,0,1.57-.12,1.81-.35.26-.26.39-.67.39-1.24h-11.14c0,.57.11.98.32,1.24.21.24.72.35,1.53.35h2.7v11.74c-1.82,1.18-3.55,1.97-5.18,2.38-1.63.4-3.3.6-5,.6-3.19,0-5.73-.65-7.59-1.95-1.96-1.33-2.94-3.24-2.94-5.75v-35.31c1.23-1.3,2.74-2.29,4.54-2.98,1.82-.71,3.71-1.06,5.68-1.06,2.86,0,5.29.71,7.27,2.13,2.15,1.61,3.23,3.83,3.23,6.67v6.32h4.51c0-.61-.12-1.03-.35-1.24-.21-.24-.57-.36-1.06-.36h-1.21v-9.47c1.23-1.3,2.74-2.29,4.54-2.98,1.82-.71,3.71-1.06,5.68-1.06,2.86,0,5.29.71,7.27,2.13,2.15,1.61,3.23,3.83,3.23,6.67ZM1391.72,909.53c.19.19.49.28.89.28s.74-.08,1.03-.25c-.62-3.6-1.03-5.72-1.24-6.39-.26-.69-.65-1.03-1.17-1.03-.24,0-.52.07-.85.21l1.35,7.17ZM1384.7,920.17c-.24.33-.36.64-.36.92,0,.69.64,1.27,1.92,1.74,1.3.45,2.87.73,4.72.85.31,3.41.64,5.35.99,5.82-.45.88-1.69,1.76-3.73,2.66-2.03.87-4.33,1.31-6.88,1.31-3.38,0-6.28-.72-8.69-2.16-2.41-1.47-3.62-3.35-3.62-5.64,0-.61.06-1.16.18-1.63l7.56-33.78c1.89-1.21,4.15-2.15,6.78-2.84,2.63-.69,5.36-1.03,8.2-1.03,4.07,0,7.55.69,10.43,2.06,3.29,1.56,5.29,3.82,6,6.78l8.09,33.46c-2.46,3.19-6.47,4.79-12.03,4.79-2.7,0-4.98-.49-6.85-1.45-1.87-.97-2.96-2.35-3.26-4.15l-.78-4.33c1.42-.02,2.79-.3,4.12-.82,1.33-.52,1.99-1.06,1.99-1.63,0-.38-.15-.69-.46-.92-.9.64-2,1.12-3.3,1.45-1.3.33-2.51.5-3.62.5-3.19,0-5.65-.65-7.38-1.95ZM1438.88,903.29h21.04c1.35,1.96,2.02,4.35,2.02,7.17s-.58,5.06-1.74,6.81h-1.46v10.64c-4.66,4.04-10.81,6.07-18.45,6.07-4.66,0-8.8-.83-12.42-2.48-3.95-1.77-7.01-4.36-9.19-7.77-2.39-3.74-3.58-8.33-3.58-13.77,0-7.74,2.32-13.72,6.96-17.95,4.4-4.04,10.36-6.07,17.88-6.07,3.71,0,7.21.56,10.5,1.67,3.31,1.11,5.93,2.5,7.84,4.15,0,1.42-.18,3.16-.53,5.22-.33,2.06-.76,3.63-1.28,4.72h-18.7c-.76.8-1.48,1.96-2.16,3.48-.66,1.51-.99,3.25-.99,5.22,0,2.7.67,4.81,2.02,6.35,1.18,1.4,2.7,2.09,4.54,2.09.76,0,1.14-.26,1.14-.78v-.82h-.39c-1.56,0-2.86-.6-3.9-1.81-1.02-1.23-1.53-2.98-1.53-5.25,0-2.84.79-5.13,2.38-6.88ZM1479.32,887.07h20.47c.69,1.14,1.19,2.38,1.53,3.73.33,1.32.5,2.52.5,3.58,0,2.39-.47,4.19-1.42,5.39-.92,1.21-2.22,1.81-3.9,1.81h-14.3c-.88,0-1.31.34-1.31,1.03v.28c0,.14.02.24.07.28h16.96c.43.73.79,1.66,1.1,2.77.28,1.21.43,2.28.43,3.23,0,2.81-.52,5.01-1.56,6.6h-7.7c-3.6,0-6.03.14-7.31.43-1.28.26-2.07.49-2.38.67-.31.21-.46.49-.46.82s.17.59.5.78c1.23-.4,2.52-.69,3.87-.85,1.77-.17,3.7-.25,5.78-.25h9.97c1.44,2.03,2.16,4.48,2.16,7.34,0,1.61-.2,3.15-.6,4.61-.4,1.47-1.01,2.65-1.81,3.55h-26.58c-2.93,0-5.29-.71-7.06-2.13-1.94-1.51-2.91-3.74-2.91-6.67v-33.74c0-1.14,1.3-1.96,3.9-2.48,2.6-.52,6.62-.78,12.06-.78ZM1504.09,926.28v-35.55c0-1.23.98-2.25,2.94-3.05,1.99-.83,4.32-1.24,6.99-1.24,1.51,0,2.93.19,4.26.57,1.35.36,2.38.82,3.09,1.38.97,1.23,1.86,2.48,2.66,3.76.8,1.28,2.61,4.26,5.43,8.94.26,0,.5-.08.71-.25.21-.17.32-.41.32-.75,0-.35-.3-1.03-.89-2.02l-3.83-6.6v-1.95c1.21-.99,2.67-1.76,4.4-2.31,1.73-.54,3.51-.82,5.36-.82,3,0,5.43.54,7.27,1.63,2.15,1.3,3.23,3.34,3.23,6.1v33.6c0,2.03-.97,3.51-2.91,4.44-1.66.83-3.87,1.24-6.64,1.24-1.54,0-3.04-.17-4.51-.5-1.44-.33-2.58-.76-3.41-1.28-1.68-2.15-3.35-4.57-5-7.24l-3.62-6.03c-.69.1-1.03.46-1.03,1.1,0,.4.34,1.17,1.03,2.31l4.44,7.17v1.88c-2.74,1.77-5.84,2.66-9.3,2.66s-6.13-.63-8.09-1.88c-1.94-1.25-2.91-3.03-2.91-5.32Z"/>
    <g>
      <path class="cls-20" d="M646.31,543.95l-10.3,2.57c-8.14,0-18.02-17.6-18.02-25.74l-.43-23.68c0-8.14,6.66-14.8,14.8-14.8h0c8.14,0,14.8,6.66,14.8,14.8v23.17c0,8.14,7.29,23.68-.85,23.68Z"/>
      <path class="cls-2" d="M715.9,758.9c-12.25-2.08-33.49-30.46-50.99-29.51-27.17,1.47-49.2,8.15-64.36,14.16,2.15-30.03,4.29-60.07,6.44-90.1,9.04-4.63,25.65-11.68,47.63-12.87,22.08-1.2,39.42,4.07,48.91,7.72,2.15,27.89,10.23,82.71,12.38,110.6Z"/>
      <g>
        <rect class="cls-20" x="693.8" y="442.87" width="33.47" height="14.16" rx="5.18" ry="5.18" transform="translate(36.63 -53.21) rotate(4.4)"/>
        <rect class="cls-20" x="432.2" y="523.48" width="33.47" height="14.16" rx="5.18" ry="5.18" transform="translate(-85.06 85.71) rotate(-9.97)"/>
        <g>
          <g>
            <polygon class="cls-7" points="418.95 460.47 414.18 465.56 454.51 520.21 427.06 457.84 418.95 460.47"/>
            <polygon class="cls-7" points="406.04 469.24 401.31 475.86 454.51 520.21 414.18 465.56 406.04 469.24"/>
          </g>
          <polyline class="cls-7" points="454.56 521.82 456.66 453.97 449.24 452.51 441.22 455.26 454.56 521.82"/>
          <polyline class="cls-7" points="454.56 521.82 441.22 455.26 433.77 454.63 427.06 457.84 454.56 521.82"/>
          <g>
            <polygon class="cls-7" points="383.14 510.79 384.58 518.33 453.44 522.84 387.15 504.17 383.14 510.79"/>
            <polygon class="cls-7" points="382.46 526.4 384.38 534.31 453.44 522.84 384.58 518.33 382.46 526.4"/>
          </g>
          <polyline class="cls-7" points="453.62 518.86 401.31 475.86 394.83 481.75 393.59 490.01 453.62 518.86"/>
          <polyline class="cls-7" points="453.44 518.98 393.59 490.01 387.3 495.43 387.15 504.17 453.44 522.84"/>
          <g class="cls-15">
            <polygon class="cls-13" points="517.8 507.23 512.01 500.31 456.02 522.84 517.16 514.47 517.8 507.23"/>
            <polygon class="cls-13" points="512.95 492.39 506.86 486.15 454.73 522.84 512.57 500.52 512.95 492.39"/>
          </g>
          <polyline class="cls-7" points="448.94 522.19 519.47 545.79 517.03 538.54 515.87 529.92 457.95 524.77"/>
          <polyline class="cls-7" points="454.73 524.12 515.87 529.92 519.29 523.08 517.16 514.47 454.73 522.84"/>
          <g class="cls-15">
            <polygon class="cls-13" points="479.4 458.84 470.82 459.12 454.73 521.55 486.27 464.27 479.4 458.84"/>
            <polygon class="cls-13" points="465.67 453.97 456.66 453.97 454.73 521.55 470.82 459.12 465.67 453.97"/>
          </g>
          <polyline class="cls-7" points="453.44 522.84 506.86 486.15 504.05 478.15 497.85 473.28 453.44 522.84"/>
          <polyline class="cls-7" points="453.44 522.84 497.85 473.28 493 467.11 486.27 464.27 453.44 522.84"/>
        </g>
        <path class="cls-8" d="M664.78,450.8c.62-1.21,1.16-2.52,1.62-3.9.13-.35.24-.7.33-1.06,1.72-5.64,2.3-12.27,2.3-17.62,0-11.73-18.23-20.6-29.61-20.6-8.92,0-16.54,5.87-19.38,14.07-.14.4-.28.81-.39,1.24h0c-.24-.12-.5-.22-.76-.31-1.43-.54-2.96-.84-4.57-.84-1.44,0-2.82.23-4.12.67-.8.27-1.56.6-2.28,1.02-4.25,2.39-7.12,7.08-7.12,12.47,0,1.93.37,3.78,1.06,5.46h0c-9.99,12.81-4.89,28.09-2.34,37.02,1.47,5.15,4.51,8.73,8.53,11.22,9.82,6.1,25.5,5.69,38.56,5.55,1.51-.03,2.97-.04,4.39-.04,18.84,0,20.6-4.54,20.6-24.46,0-6.23-2.64-13.23-6.83-19.9ZM654.88,457.83c-2.81,0-6.42-1.06-10.27-2.82-3.91-9.27-8.52-14.38-16.76-14.38-.26,0-.51,0-.77.03h0c.5-1.47.77-3.05.77-4.71,0-.41-.02-.8-.05-1.2-.08-1.04-.28-2.04-.57-3-.06-.2-.12-.41-.19-.61-.03-.09-.07-.18-.11-.28-.23-.63-.49-1.23-.8-1.81,0,0,0,0,0-.01h0l23.38,9.68c-.6.1-1.12.4-1.61.77-.31.24-.6.51-.91.81.09.24.26.45.49.57-.23.12-.45.18-.63.4.7,1.22,1.38,2.01,2.79,2.32-.76,1.07-.67,2.2-.48,3.51.26.06.53.05.75-.08-.04.26-.12.48-.04.75.84.08,1.54.08,2.2-.14-.03.03-.05.05-.08.08.7,1.22,1.38,2.01,2.79,2.32-.76,1.07-.67,2.2-.48,3.51.26.06.53.05.75-.08-.04.26-.12.48-.04.75,1.42.14,2.47.04,3.55-.98.89,1.08,2.05,1.25,3.42,1.35.12-.23.15-.5.09-.75.19.09.36.18.58.19-1.98,2.36-4.53,3.81-7.77,3.81Z"/>
        <path class="cls-20" d="M651.72,481.22c-.23,5.23-2.18,10.03-5.08,13.98-4.78,6.51-12.15,10.74-18.78,10.74-8.44,0-15.83-6.55-19.78-16.28-1.96-4.81-3.08-10.41-3.08-16.37,0-9.19,2.65-17.48,6.93-23.4,3.49-4.83,8.03-8.1,13.09-8.98.68-.13,1.36-.21,2.07-.23.26-.03.51-.03.77-.03,8.24,0,12.85,5.11,16.76,14.38,1.87,4.44,3.58,9.82,5.46,16.05.21.72.44,1.47.66,2.21.81,2.72,1.11,5.38.99,7.94Z"/>
        <path d="M662.66,454.02c-1.98,2.36-4.53,3.81-7.77,3.81-2.81,0-6.42-1.06-10.27-2.82-3.91-9.27-8.52-14.38-16.76-14.38-.26,0-.51,0-.77.03.5-1.47.77-3.05.77-4.71s-.28-3.31-.81-4.81c-.24-.73-.55-1.43-.91-2.1l23.38,9.68c-.6.1-1.12.4-1.61.77-.31.24-.6.51-.91.81.09.24.26.45.49.57-.23.12-.45.18-.63.4.7,1.22,1.38,2.01,2.79,2.32-.76,1.07-.67,2.2-.48,3.51.26.06.53.05.75-.08-.04.26-.12.48-.04.75.84.08,1.54.08,2.2-.14-.03.03-.05.05-.08.08.7,1.22,1.38,2.01,2.79,2.32-.76,1.07-.67,2.2-.48,3.51.26.06.53.05.75-.08-.04.26-.12.48-.04.75,1.42.14,2.47.04,3.55-.98.89,1.08,2.05,1.25,3.42,1.35.12-.23.15-.5.09-.75.19.09.36.18.58.19Z"/>
        <path class="cls-4" d="M630.39,429.11c.55,1.02,1.02,2.08,1.39,3.2l-2.74-1.1-9.18-3.69-.51-.2-3.6-1.45-.63-.25-.63-.25-1.33-.53-5.11-2.06-5.32-2.14-9.85-3.94c-.16-.08-.39-.2-.49-.49l.49-1.47c.08-.18.31-1.08.7-.88l12.61,5.23,9.49,3.92,2.09.88,1.8.75,10.26,4.23.55.24Z"/>
        <path class="cls-4" d="M676.45,452.25l-.33.95c-.07.17-.23.26-.37.19l-6.98-3.42-2.96-1.44-3.76-1.85-1.02-.5-.69-.34-3.91-1.92-1.25-.6-11.72-5.75c.67-.62,1.37-1.12,2.2-1.29l10.73,5.43.6.3.33.17.62.32.18.09,1.81.93,9.29,4.69,7.09,3.6c.14.06.21.28.14.45Z"/>
        <path class="cls-2" d="M674.71,859.3c-8.53,7.11-38.76,30.5-82.38,29.61-26.22-.54-46.13-9.63-56.64-15.45,20.59-75.94,41.19-151.89,61.78-227.83h66.93c3.43,71.22,6.87,142.45,10.3,213.67Z"/>
        <path class="cls-2" d="M764.81,869.6c-14.05,1.38-32.12,1.78-52.77-1.29-14.4-2.14-26.93-5.5-37.33-9.01-20.17-78.95-49.34-157.89-69.51-236.84l24.46-6.44c20.97,33.41,52.58,76.74,73.37,117.13,24.71,48.02,45.03,93.88,61.78,136.44Z"/>
        <path class="cls-18" d="M624.51,788.51c-4.5-1.31-12.91-3.11-23.17-1.29-13.46,2.39-22.23,9.62-25.74,12.87,7.29-57.07,14.59-114.13,21.88-171.2l16.73-6.44c-2.14,30.39-2.41,65.52,1.29,104.26,2.12,22.22,5.29,42.87,9.01,61.78Z"/>
        <path class="cls-18" d="M703.03,652.07c-12.25-2.08-27.55-3.52-45.05-2.57-27.17,1.47-49.2,8.15-64.36,14.16,2.15-30.03,4.29-60.07,6.44-90.1,9.04-4.63,25.65-11.68,47.63-12.87,22.08-1.2,39.42,4.07,48.91,7.72,2.15,27.89,4.29,55.78,6.44,83.67Z"/>
        <path class="cls-17" d="M619.88,421.59c.26.13.37.33.53.53.06-.25.23-.46.45-.6,1.25.83,2.24,1.61,2.37,3.26,1.37-.39,2.35-.03,3.53.71-.06.28-.22.45-.36.65.26,0,.51.09.7.26-.44,1.4-.91,2.55-2.39,3.14.06.08.12.17.18.26.93,1.39.82,2.5.34,3.94-.29.01-.49-.11-.72-.2.07.25.03.51-.1.74-1.37-.1-2.53-.27-3.42-1.34-1.08,1.01-2.13,1.12-3.55.98-.08-.28,0-.5.04-.75-.23.12-.5.14-.74.07-.2-1.31-.29-2.44.47-3.52-1.41-.3-2.1-1.09-2.79-2.31.18-.22.4-.29.63-.4-.23-.11-.4-.32-.49-.56,1.07-1.04,2.04-1.83,3.67-1.62-.01-1.45.62-2.3,1.66-3.24Z"/>
        <path class="cls-17" d="M659.52,440.26c-.21.66-.42,1.26-.73,1.78-.09.13-.17.24-.26.35-.01.03-.03.04-.04.05-.28.35-.64.63-1.11.85-.08.05-.15.08-.24.12.05.08.12.17.18.26.93,1.39.81,2.5.33,3.94-.28.01-.49-.1-.72-.21.06.24.03.51-.09.75-1.38-.1-2.54-.27-3.42-1.35-.44.41-.89.68-1.35.84-.66.22-1.36.22-2.2.14-.08-.27,0-.49.04-.75-.22.13-.49.14-.75.08-.19-1.31-.28-2.45.48-3.51-1.42-.31-2.1-1.09-2.79-2.32.18-.22.4-.28.63-.4-.23-.12-.4-.32-.49-.57.31-.3.6-.57.91-.81.49-.37,1-.67,1.61-.77.35-.08.72-.09,1.15-.04-.01-1.3.49-2.12,1.35-2.96.1-.09.21-.19.31-.28.26.14.37.33.53.53.06-.24.23-.45.45-.59,1.25.84,2.23,1.61,2.37,3.26,1.36-.39,2.34-.03,3.53.72-.05.28-.22.44-.36.64.26,0,.5.1.7.27Z"/>
        <path class="cls-19" d="M663.57,448.95c-.32.36-.73.67-1.29.89.05.08.12.17.18.26.86,1.3.82,2.34.42,3.66-.03.09-.06.18-.09.28-.05,0-.1,0-.14-.01-.22-.01-.39-.1-.58-.19.06.24.03.51-.09.75-1.38-.1-2.54-.27-3.42-1.35-1.08,1.02-2.14,1.12-3.55.98-.08-.27,0-.49.04-.75-.22.13-.49.14-.75.08-.19-1.31-.28-2.45.48-3.51-1.42-.31-2.1-1.09-2.79-2.32.03-.03.05-.05.08-.08.17-.15.35-.22.55-.32-.23-.12-.4-.32-.49-.57,1.07-1.03,2.05-1.83,3.67-1.62-.01-.91.23-1.58.67-2.19.24-.33.54-.64.89-.97.04-.03.06-.06.1-.09.14.08.24.17.33.27.06.08.13.17.19.26.01-.05.04-.1.05-.15.04-.08.1-.17.17-.23.06-.08.14-.14.23-.21.12.08.24.15.35.23.45.32.85.63,1.16,1,.4.42.68.94.8,1.6.03.13.05.27.06.42.23-.06.46-.12.68-.13,1.03-.12,1.87.23,2.84.85-.01.1-.05.18-.09.26-.08.14-.18.26-.27.39.26,0,.5.1.7.27-.27.88-.57,1.65-1.09,2.25Z"/>
        <path class="cls-19" d="M612.4,423.85c.26.13.37.33.53.53.06-.25.23-.46.45-.6,1.25.83,2.24,1.61,2.37,3.26,1.37-.39,2.35-.03,3.53.71-.06.28-.22.45-.36.65.26,0,.51.09.7.26-.44,1.4-.91,2.55-2.39,3.14.06.08.12.17.18.26.93,1.39.82,2.5.34,3.94-.29.01-.49-.11-.72-.2.07.25.03.51-.1.74-1.37-.1-2.53-.27-3.42-1.34-1.08,1.01-2.13,1.12-3.55.98-.08-.28,0-.5.04-.75-.23.12-.5.14-.74.07-.2-1.31-.29-2.44.47-3.52-1.41-.3-2.1-1.09-2.79-2.31.18-.22.4-.29.63-.4-.23-.11-.4-.32-.49-.56,1.07-1.04,2.04-1.83,3.67-1.62-.01-1.45.62-2.3,1.66-3.24Z"/>
        <path class="cls-2" d="M744.99,495.16c-.8-18.4-14.25-47.19-19.31-46.34-2.66.45,1.53,5.05-3.43,6.3-4.68,1.18-12.43-1.57-15.88-1.16-4.08.49-8.3,10.99-9.98,51.36l-48.8,6.43-10.73,24.59-18.87-20.73-54.39,15.91c-.03-.54-8.64,3.94-8.68,3.4-11,3.95-19.63,9.75-39.05,3.99-32.85-9.73-39.13-7.96-49.61-11.01.24-.86-.09-1.77-1.87-.58-2.86,1.9-13.08,9.27-12.87,10.3,2.42,11.85,15.45,45.05,23.17,50.2-3.02,72.2-5.24,214.06,29.56,221.52,1.34.29,2.74.38,4.22.25,12.79-2.76,30.32-8.22,48.6-19.68,8.75-5.49,16-11.31,21.88-16.73-4.05-63.86-8.11-127.73-12.16-191.59,22.35-7.14,47.83-14.6,75.24-16.94,16.32-1.39,31.77,2.3,46.2,5.06-5.21,43.58-10.95,95.41-16.59,148.11,1.75,3.78,8.85,17.95,25.74,25.74,17.51,8.08,33.47,3.74,37.33,2.57-3.56-81.95,13.86-169.05,10.3-251Z"/>
      </g>
    </g>
    <rect class="cls-22" x="709.76" y="278.09" width="449.59" height="378.43" rx="29.5" ry="29.5"/>
    <g>
      <g>
        <path class="cls-20" d="M1391.17,757.54c5.74-19.41,14.95-62.87-9.11-105.76-3.84-6.84-8.13-12.96-12.59-18.42,4.94-10.2,7.62-21.09,7.62-32.41,0-57.46-68.83-104.05-153.73-104.05s-153.73,46.58-153.73,104.05c0,7.61,1.22,15.03,3.51,22.18-4.84,6.98-9.39,14.99-13.08,24.06-18.37,45.16-3.43,87.52,4.79,106.15l-26.32,16.82c0,6.94,6.46,12.61,14.36,12.61h32.3c7.9,0,14.36-5.68,14.36-12.61v-4.2c0-6.94,19.07-46.31,26.32-76.72.57-2.37,1.06-4.71,1.49-7.03,26.31,14.26,59.68,22.79,96.01,22.79s67.66-8.02,93.58-21.5c1.36,5.39,3.07,10.96,5.23,16.66,11.05,29.19,34.58,66,34.58,70v4.2c0,6.94,6.46,12.61,14.36,12.61h32.3c7.9,0,14.36-5.68,14.36-12.61l-26.59-16.82Z"/>
        <path class="cls-5" d="M1366.47,566.43l-55.16-46.65c-5.69-4.81-14.82-4.66-20.3.34l-24.06,21.96c-5.48,5-5.3,13.02.39,17.83l55.16,46.65c.44.38.92.71,1.4,1.03-15.31,36.17-24.71,85.54-16.74,89.69,9.95,5.18,27.86-17.22,49.76-49.67,15.69-23.25,14.08-77.35,9.56-81.17Z"/>
        <path class="cls-16" d="M1136.63,612.51s79.43,140.83,171.31,0c0,0-11,44.14-31.34,59.91l-1.2,40.99s-48.05,23.12-107.17,0l-.5-42.04s-35.89-30.48-31.1-58.85Z"/>
        <path class="cls-5" d="M1135.17,613.02l45.52-54.08c4.69-5.58,3.34-13.51-3.01-17.64l-27.9-18.12c-6.35-4.12-15.38-2.93-20.08,2.64l-37.08,44.05c-2.04,1.18-11.78,16.95-10.84,20.44-3.78,15.71-3.7,37.79,6.35,57.95,17.24,34.56,31.91,58.7,42.5,54.63,8.07-3.11,6.2-48.6-2.78-85.35,2.83-.76,5.42-2.28,7.31-4.52Z"/>
        <rect class="cls-9" x="1113.76" y="680.39" width="55.03" height="23.12" rx="11" ry="11"/>
        <path class="cls-8" d="M1233.3,452.75c.05-.33.09-.66.09-.99v-8.3c0-1.9-.88-3.62-2.3-4.87-2.24-1.97-5.02-2.02-5.54-2.02h-9.44c-4.33,0-7.84,3.08-7.84,6.89v8.3c0,.24.02.48.04.72-11.05.8-22.35,5.4-26.19,21.51-1.75,7.33,1.68,14.88,8.7,19.13l60.07.74c6.1-3.29,10.09-14.32,8.81-20.51-4.79-23.12-15.1-18.82-26.41-20.61Z"/>
        <path class="cls-11" d="M1208.27,451.28s11.78-4.43,25.03.41"/>
        <path class="cls-20" d="M1218.65,471.28c-19.32,0-34.98,15.28-34.98,34.13,0,2.05.2,4.06.55,6.01h68.86c.36-1.95.55-3.96.55-6.01,0-18.85-15.66-34.13-34.98-34.13Z"/>
      </g>
      <rect class="cls-9" x="1272.3" y="682.83" width="55.03" height="23.12" rx="11" ry="11"/>
    </g>
    <path d="M810.88,343.39h16.89c1.08,1.58,1.62,3.49,1.62,5.75s-.47,4.06-1.4,5.47h-1.17v8.54c-3.74,3.25-8.68,4.87-14.81,4.87-3.74,0-7.06-.66-9.97-1.99-3.17-1.42-5.63-3.5-7.38-6.24-1.92-3-2.88-6.68-2.88-11.05,0-6.21,1.86-11.01,5.58-14.41,3.53-3.25,8.32-4.87,14.35-4.87,2.98,0,5.79.45,8.43,1.34,2.66.89,4.76,2,6.29,3.33,0,1.14-.14,2.53-.43,4.19-.27,1.65-.61,2.91-1.03,3.79h-15.01c-.61.65-1.19,1.58-1.74,2.79-.53,1.22-.8,2.61-.8,4.19,0,2.16.54,3.86,1.62,5.1.95,1.12,2.16,1.68,3.64,1.68.61,0,.91-.21.91-.63v-.65h-.31c-1.25,0-2.3-.48-3.13-1.45-.82-.99-1.22-2.39-1.22-4.21,0-2.28.64-4.12,1.91-5.52ZM858.58,353.01c0,1.37.15,2.47.46,3.3s.84,1.49,1.59,1.96c.02.1.03.28.03.54v.51c0,2.7-.82,4.79-2.45,6.29-1.44,1.33-3.23,1.99-5.35,1.99-1.44,0-2.76-.34-3.96-1.03-1.2-.68-2.05-1.67-2.56-2.96-.65,0-.97.31-.97.94,0,.53.33,1.13,1,1.79-1.23.84-3.09,1.25-5.58,1.25-3.51,0-6.32-.95-8.43-2.85-2.09-1.92-3.13-4.58-3.13-8s1.11-6.09,3.33-7.97c2.03-1.69,4.66-2.53,7.89-2.53,1.1,0,2.16.08,3.19.23.68.13,1.05.21,1.11.23.06-.19.09-.35.09-.48,0-.49-.42-.83-1.25-1-.84-.17-1.93-.26-3.27-.26-2.87,0-5.32.58-7.35,1.74-.93-1.58-1.4-3.57-1.4-5.98,0-1.37.17-2.38.51-3.05,1.37-.63,3.1-1.18,5.21-1.65,2.11-.49,4.33-.74,6.66-.74,4.82,0,8.47,1.05,10.93,3.16,2.47,2.11,3.7,5.1,3.7,8.97v5.58ZM843.8,354.41c-.8,0-1.2.36-1.2,1.08,0,.68.47,1.03,1.4,1.03.65,0,1.12-.15,1.42-.46.3-.32.46-.87.46-1.65h-2.08ZM907.95,353.01c0,1.39.15,2.52.46,3.39.3.87.83,1.55,1.59,2.02.02.09.03.26.03.48v.43c0,2.6-.76,4.63-2.28,6.09-1.52,1.46-3.48,2.19-5.89,2.19s-4.32-.65-5.78-1.96c-1.73-1.52-2.59-3.84-2.59-6.98v-9c0-1.27-.42-1.91-1.25-1.91-.32,0-.58.08-.77.23l.51,4.24v6.44c0,2.58.43,4.54,1.28,5.87-.91.97-2.05,1.73-3.42,2.28-1.35.53-2.72.8-4.13.8-2.28,0-4.04-.55-5.3-1.65-1.52-1.33-2.28-3.43-2.28-6.29v-10c0-1.27-.42-1.91-1.25-1.91-.32,0-.58.08-.77.23l.51,4.24v7.55c0,2.13.28,3.77.85,4.93-1.86,1.92-4.47,2.88-7.83,2.88-1.99,0-3.67-.5-5.04-1.51-1.58-1.16-2.36-2.71-2.36-4.67v-13.61c-1.12-1.58-1.68-3.51-1.68-5.81s.56-4.32,1.68-6.01h6.86c1.35,0,2.5.5,3.45,1.51-.84.78-1.25,1.42-1.25,1.94,0,.59.33.88,1,.88.84-1.44,1.98-2.59,3.45-3.45,1.71-.97,3.71-1.45,6.01-1.45,1.75,0,3.27.37,4.58,1.11,1.33.74,2.32,1.59,2.96,2.56.89-1.21,2.05-2.13,3.47-2.73,1.44-.63,2.94-.94,4.5-.94,3.44,0,6.1,1.06,8,3.19,1.86,2.13,2.79,5.04,2.79,8.74l-.11,5.67ZM927.49,367.99c-5.26,0-9.41-1.46-12.44-4.39-3.11-2.94-4.67-6.97-4.67-12.07s1.6-9.19,4.81-12.19c2.96-2.79,6.71-4.19,11.25-4.19s8.17,1.25,10.91,3.76c2.75,2.49,4.13,5.55,4.13,9.2,0,3.25-1.13,5.7-3.39,7.35-2.09,1.56-4.94,2.34-8.54,2.34-2.7,0-4.97-.56-6.83-1.68-.15.11-.23.32-.23.63,0,.57.75,1.09,2.25,1.57,1.5.51,3.2.77,5.1.77s3.65-.24,5.21-.71c1.58-.49,2.84-1.07,3.79-1.74.46.4.82,1.14,1.08,2.22.28,1.06.43,2.04.43,2.93s-.09,1.65-.26,2.33c-1.48,1.25-3,2.15-4.56,2.68-2.2.8-4.88,1.2-8.03,1.2ZM927.12,348.71c.95,0,1.42-.36,1.42-1.08,0-.68-.5-1.03-1.51-1.03s-1.58.54-1.74,1.62c.53.32,1.14.48,1.82.48ZM971.6,351.25v4.98c.13.13.35.2.65.2s.52-.1.65-.31c.13-.21.2-.57.2-1.08v-4.07c0-1.82-.08-3.03-.23-3.62-.15-.61-.44-.91-.85-.91-.27,0-.49.1-.68.28.17,1.88.26,3.39.26,4.53ZM960.95,363.86c-3.11-3-4.67-7.06-4.67-12.19s1.46-9.2,4.39-12.16c2.94-2.98,6.8-4.47,11.56-4.47s8.62,1.55,11.56,4.64c2.92,3.09,4.39,7.13,4.39,12.1s-1.41,8.89-4.24,11.82c-2.81,2.92-6.63,4.39-11.48,4.39s-8.68-1.38-11.5-4.13ZM1003.21,353.18v.68c0,.32,0,.55.03.68.23.09.45.14.65.14.55,0,.83-.37.83-1.11,0-1.94.23-5.58.68-10.93.25-2.9.4-4.61.46-5.13,1.78-1.2,3.92-1.79,6.41-1.79s4.44.66,5.81,1.99c1.21,1.22,1.82,2.79,1.82,4.73,0,1.31-.18,2.67-.54,4.07-1.77,6.82-3.52,12.18-5.27,16.09-.93,2.03-2.34,3.42-4.24,4.16-1.4.57-3.41.85-6.01.85-1.39,0-2.76-.11-4.13-.34-1.35-.23-2.38-.49-3.1-.8-2.75-5.62-5.02-11.84-6.81-18.65-.59-.59-1.09-1.41-1.51-2.48-.42-1.06-.63-2.16-.63-3.3,0-2.35.57-4.38,1.71-6.07h7.09c2.49,0,4.34.7,5.55,2.11.91,1.06,1.5,2.61,1.77,4.64-.38,3.53-.57,7.01-.57,10.45ZM1037.23,367.99c-5.26,0-9.41-1.46-12.44-4.39-3.11-2.94-4.67-6.97-4.67-12.07s1.6-9.19,4.81-12.19c2.96-2.79,6.71-4.19,11.25-4.19s8.17,1.25,10.91,3.76c2.75,2.49,4.13,5.55,4.13,9.2,0,3.25-1.13,5.7-3.39,7.35-2.09,1.56-4.94,2.34-8.54,2.34-2.7,0-4.97-.56-6.83-1.68-.15.11-.23.32-.23.63,0,.57.75,1.09,2.25,1.57,1.5.51,3.2.77,5.1.77s3.65-.24,5.21-.71c1.58-.49,2.84-1.07,3.79-1.74.46.4.82,1.14,1.08,2.22.28,1.06.43,2.04.43,2.93s-.09,1.65-.26,2.33c-1.48,1.25-3,2.15-4.56,2.68-2.2.8-4.88,1.2-8.03,1.2ZM1036.86,348.71c.95,0,1.42-.36,1.42-1.08,0-.68-.5-1.03-1.51-1.03s-1.59.54-1.74,1.62c.53.32,1.14.48,1.82.48ZM1061.04,367.48c-2.26,0-4.06-.41-5.41-1.22-1.5-.85-2.25-2.12-2.25-3.79v-14.66c-1.12-1.58-1.68-3.51-1.68-5.81s.56-4.32,1.68-6.01h4.36c2.24,0,3.85.72,4.81,2.16-.47.53-.89,1.21-1.25,2.02-.36.82-.54,1.41-.54,1.77,0,.34.09.6.26.77.19.17.45.26.8.26.66-2.64,1.93-4.58,3.79-5.81,1.53-1.04,3.44-1.57,5.69-1.57,2.81,0,5.01.6,6.61,1.79.57,1.52.85,3.38.85,5.58s-.44,4.17-1.31,5.95c-.65.34-1.54.64-2.67.88-1.14.23-2.29.34-3.45.34s-2.2-.08-3.13-.23c-.91-.17-1.57-.32-1.99-.46-.15.15-.23.37-.23.65s.18.5.54.65c.38.13,1,.28,1.88.46v14.29c-2.07,1.31-4.52,1.96-7.35,1.96ZM777.16,396.25c1.46,2.16,3.56,5.83,4.61,7.99l-4.67,1.98c-1.17-2.33-2.97-5.83-4.55-8.05l4.61-1.92ZM784.05,393.63c1.57,2.16,3.67,5.89,4.72,7.93l-4.61,1.98c-1.22-2.45-3.09-5.83-4.72-8.05l4.61-1.87ZM757.8,399.05c-.64,1.52-1.46,3.56-1.92,4.78-1.05,2.92-2.8,7.23-4.32,10.21-2.33,4.61-6.3,10.26-10.15,13.65l-7.35-4.43c4.14-3.09,7.93-8.34,10.15-12.01,1.57-2.68,2.62-5.72,3.38-7.99.64-1.92,1.11-4.14,1.22-5.95l8.98,1.75ZM748.59,408.09h30.85c1.46,0,4.14-.12,6.07-.41v7.93c-2.22-.17-4.72-.17-6.07-.17h-31.49l.64-7.35ZM771.39,412.29c-.41,17.2-6.53,28.58-17.79,35.69l-7.87-5.31c2.1-.87,4.14-2.04,5.48-3.21,6.65-5.07,11.84-13.12,12.07-27.18h8.11ZM795.83,416.37c2.16.17,6.36.41,9.39.41h31.32c2.74,0,5.31-.29,6.88-.41v9.21c-1.4-.06-4.37-.35-6.82-.35h-31.38c-3.27,0-7.17.17-9.39.35v-9.21ZM879.38,399.4c-.76,1.75-1.57,3.91-2.45,6.53-2.16,6.53-8.22,25.31-10.73,31.38l-8.57.29c3.15-7.46,9.21-26.59,11.14-33.36.82-2.92,1.11-4.78,1.34-6.71l9.27,1.87ZM889.82,418.24c4.2,6.3,10.15,17.79,12.83,24.26l-7.87,3.5c-2.62-7.06-8.05-19.13-12.19-24.73l7.23-3.03ZM857.04,434.97c8.11-.29,27.18-2.45,35.34-3.56l1.69,7.46c-8.63,1.11-28.69,3.21-36.57,4.02-1.46.17-3.67.47-5.48.7l-1.4-8.57c1.98.06,4.55,0,6.42-.06ZM937.52,402.61c-.17-2.51-.29-4.37-.58-5.95h8.34c-.29,1.87-.41,4.08-.35,5.95.17,9.62.58,25.66.7,37.44.06,3.73-2.1,5.89-6.53,5.89-3.56,0-6.76-.12-10.09-.35l-.7-7.58c2.68.41,5.83.64,7.81.64M911.98,406.4c1.63.17,4.43.41,6.42.41h33.88c1.87,0,4.61-.29,6.01-.47v7.7c-1.81-.06-4.08-.12-5.66-.12h-34c-2.16,0-4.61.12-6.65.23v-7.76ZM908.83,434.16c12.19-5.83,22.39-14.81,26.59-21.69h3.79l.06,6.24c-4.72,7.06-15.05,16.21-25.08,21.52l-5.37-6.07ZM969.02,416.37c2.16.17,6.36.41,9.39.41h31.32c2.74,0,5.31-.29,6.88-.41v9.21c-1.4-.06-4.37-.35-6.82-.35h-31.38c-3.27,0-7.17.17-9.39.35v-9.21ZM1066.89,396.89c1.46,2.1,3.56,5.83,4.67,7.99l-4.72,1.98c-1.17-2.39-2.97-5.83-4.55-8.11l4.61-1.87ZM1073.83,394.27c1.52,2.16,3.67,5.89,4.67,7.93l-4.61,1.98c-1.22-2.45-3.09-5.83-4.72-8.05l4.67-1.87ZM1032.66,425.23c2.57-6.47,4.78-14.7,5.54-22.16l8.46,1.81c-.47,1.63-1.17,4.49-1.4,5.83-.82,4.08-2.92,12.07-4.96,17.5-2.1,5.66-5.54,12.31-8.57,16.68l-8.16-3.44c3.62-4.78,7.06-11.02,9.1-16.21ZM1061.41,424.07c-2.22-6.12-5.95-14.75-8.46-19.19l7.76-2.51c2.45,4.49,6.42,13.47,8.63,19.07,2.1,5.31,5.19,14.58,6.76,20.35l-8.63,2.8c-1.57-6.88-3.73-14.23-6.07-20.53ZM1085.09,416.37c2.16.17,6.36.41,9.39.41h31.32c2.74,0,5.31-.29,6.88-.41v9.21c-1.4-.06-4.37-.35-6.82-.35h-31.38c-3.27,0-7.17.17-9.39.35v-9.21Z"/>
    <path class="cls-1" d="M450.23,523.48l16.73,5.15c2.61-3.1,2.57-5.99,2.57-10.3,0-9.95-8.36-18.02-18.66-18.02s-18.66,8.07-18.66,18.02c0,2.84.7,5.51,1.91,7.9l16.11-2.75Z"/>
    <g id="Layer_1-2" data-name="Layer 1-2">
      <g>
        <g>
          <path class="cls-24" d="M1028.43,471.27l-2.26-2.32c-.64-.1-1.1.22-1.38.44l-183.41,154.54c-.28.23-.32.64-.08.91l1.27,1.52c.23.28.64.32.91.08l185.94-153.06c.74-.54-.73-1.82-.98-2.12Z"/>
          <path class="cls-24" d="M1048.33,497.16l-1.98-2.56c-.62-.17-1.12.09-1.42.28l-199.8,132.67c-.3.2-.38.6-.18.9l1.08,1.65c.2.3.6.38.9.18l202.14-130.91c.8-.45-.52-1.89-.74-2.22h0Z"/>
        </g>
        <polygon class="cls-23" points="1008.12 490.91 1004.45 486.54 1020.62 472.91 1024.45 477.47 1008.12 490.91"/>
        <polygon class="cls-23" points="1025.5 514.7 1022.54 509.79 1039.17 498.74 1042.57 503.65 1025.5 514.7"/>
      </g>
    </g>
  </g>
</svg>