<?xml version="1.0" encoding="UTF-8"?>
<svg id="Layer_2" data-name="Layer 2" xmlns="http://www.w3.org/2000/svg" viewBox="0 0 184.83 184.83">
  <defs>
    <style>
      .cls-1 {
        fill: #e0b661;
      }

      .cls-2 {
        fill: #ff1523;
      }

      .cls-3 {
        stroke-width: .5px;
      }

      .cls-3, .cls-4, .cls-5, .cls-6, .cls-7 {
        fill: none;
        stroke: #000;
        stroke-miterlimit: 10;
      }

      .cls-4 {
        stroke-width: .75px;
      }

      .cls-5 {
        stroke-width: 2px;
      }

      .cls-6 {
        stroke-width: 4px;
      }

      .cls-7 {
        stroke-width: 3px;
      }
    </style>
  </defs>
  <g id="Spilscene">
    <g>
      <rect class="cls-1" width="184.83" height="184.83"/>
      <g>
        <path class="cls-7" d="M55.9,52.9c0,2.03-.83,3.87-2.17,5.21-1.34,1.34-3.19,2.17-5.21,2.17h-1.63l-12.12,28.39c-.04-.14-.09-.29-.14-.43-3.47-10.99-4.37-30.34.59-37.75,4.57-6.82,13.34-5.08,16.41-4.21.43.12.74.23.92.29-.03.03-.04.06-.07.09.06.04.11.08.17.12,1.96,1.33,3.25,3.57,3.25,6.1Z"/>
        <path class="cls-7" d="M52.72,46.64l-.07.16c-.06-.04-.11-.08-.17-.12.03-.03.04-.06.07-.09h0c.11.04.16.06.16.06Z"/>
        <path class="cls-7" d="M155.31,92.89c0,15.32-6.48,39.82-22.04,49.76-15.72,10.05-40.58,5.45-53.74,5.45-26.16,0-45.1-24.86-45.1-55.67,0-1.37.07-2.77.21-4.19.04.14.09.29.14.43l12.12-28.39h1.63c2.03,0,3.87-.83,5.21-2.17,1.34-1.34,2.17-3.18,2.17-5.21,0-2.54-1.29-4.78-3.25-6.1-.06-.04-.11-.08-.17-.12.03-.03.04-.06.07-.09h0c2.18-2.97,4.51-5.82,6.94-8.48,3.44-3.8,9-4.9,13.6-2.65,5.61,2.75,12.56,4.38,20.07,4.38,8.61,0,16.46-2.13,22.43-5.65,4.39-2.59,9.99-1.84,13.46,1.9,14.77,15.91,26.25,38.8,26.25,56.81Z"/>
        <path class="cls-2" d="M73.15,42.04l-4.25-2.81c-.92-.61-2.16-.35-2.77.56l-6.33,9.55c-.21.32-.32.69-.33,1.05l14.55-6.88c-.06-.58-.36-1.13-.88-1.48Z"/>
        <path class="cls-2" d="M115.91,42.85c-.15-.65.03-1.36.53-1.86l3.6-3.61c.78-.78,2.05-.78,2.82,0l8.11,8.09c.34.33.53.76.57,1.2l-15.63-3.82Z"/>
        <path class="cls-4" d="M72.72,67.1s7.27-5.23,12.95,1.36"/>
        <path class="cls-4" d="M108.12,67.77s2.54-8.17,12.62-3.2"/>
        <rect class="cls-5" x="94.76" y="70.05" width="5.68" height="2.04" rx=".52" ry=".52"/>
        <path class="cls-4" d="M97.6,72.29s2.84,15.03-7.84,6.39"/>
        <path class="cls-4" d="M98.17,78.23s7.04,6.82,8.18-.91"/>
        <line class="cls-3" x1="110.58" y1="72.52" x2="120.62" y2="70.04"/>
        <path class="cls-3" d="M110.87,76.48h10.33"/>
        <path class="cls-3" d="M110.6,79.07l10,2.24"/>
        <line class="cls-3" x1="85.73" y1="79.67" x2="76.2" y2="83.68"/>
        <path class="cls-3" d="M84.83,75.8l-10.2,1.61"/>
        <path class="cls-3" d="M84.69,73.2l-10.22-.66"/>
        <path class="cls-7" d="M56.36,53.01c0,2.03-.83,3.88-2.17,5.22-1.34,1.34-3.19,2.17-5.22,2.17h-6.13c-4.06,0-7.38-3.32-7.38-7.38,0-2.03.83-3.88,2.17-5.22,1.34-1.34,3.19-2.17,5.22-2.17h6.13c1.45,0,2.82.43,3.96,1.16,2.05,1.31,3.42,3.61,3.42,6.22Z"/>
        <path class="cls-6" d="M151.13,93.41c-1.51,1.36-3.43,1.99-5.32,1.9-1.89-.1-3.75-.91-5.11-2.41l-4.12-4.55c-2.73-3.01-2.5-7.7.52-10.43,1.51-1.36,3.43-1.99,5.32-1.9,1.89.1,3.75.91,5.11,2.41l4.12,4.55c.98,1.08,1.57,2.37,1.8,3.72.41,2.4-.38,4.96-2.32,6.71Z"/>
      </g>
    </g>
  </g>
</svg>