<?xml version="1.0" encoding="UTF-8"?>
<svg id="Layer_2" data-name="Layer 2" xmlns="http://www.w3.org/2000/svg" viewBox="0 0 271.42 204.49">
  <defs>
    <style>
      .cls-1 {
        fill: #d41322;
      }

      .cls-1, .cls-2, .cls-3, .cls-4, .cls-5, .cls-6, .cls-7, .cls-8 {
        stroke-miterlimit: 10;
      }

      .cls-1, .cls-3, .cls-6 {
        stroke: #ed5d3c;
        stroke-width: .25px;
      }

      .cls-2 {
        fill: #f2f2f2;
        stroke: #e6e6e6;
      }

      .cls-3 {
        fill: #ff1729;
      }

      .cls-9 {
        fill: #fff;
      }

      .cls-10 {
        fill: #ffe8ed;
      }

      .cls-4 {
        stroke: #000;
      }

      .cls-5 {
        stroke: #006837;
        stroke-width: 2px;
      }

      .cls-5, .cls-7 {
        fill: none;
      }

      .cls-6 {
        fill: #9f0e1a;
      }

      .cls-7 {
        stroke-width: 3px;
      }

      .cls-7, .cls-8 {
        stroke: #fbb03b;
      }

      .cls-11 {
        fill: #333;
      }

      .cls-8 {
        fill: #ff7bac;
      }
    </style>
  </defs>
  <g id="Layer_1-2" data-name="Layer 1">
    <g>
      <g>
        <path class="cls-11" d="M82.76,166.78l3.67,13.62c2.07,7.67,4.09,12.19,11.2,15.72,13.77,6.84,41.87,13.67,72.56,2.26,11.44-4.26,13.61-10.53,15.65-18.9l2.92-12.01"/>
        <path class="cls-4" d="M135.77,124.42C62.74,124.42,3.34,99.69,1.57,68.88c1.77,67.05,63.49,120.19,135.73,120.19s129.91-52.95,132.57-119.2c-2.97,30.34-61.87,54.55-134.11,54.55Z"/>
        <path class="cls-8" d="M269.83,68.25c.08-.8.13-1.6.13-2.41,0-.37-.02-.73-.03-1.1-.01,1.17-.05,2.34-.09,3.51Z"/>
        <path class="cls-8" d="M1.49,65.84c0,.47.02.94.04,1.41-.02-.63-.02-1.27-.03-1.91,0,.17-.01.33-.01.5Z"/>
        <path class="cls-8" d="M135.72,8.89C61.98,8.89,2.13,34.12,1.5,65.34c0,.64.01,1.27.03,1.91,1.77,30.8,61.17,55.54,134.19,55.54s131.13-24.21,134.11-54.55c.05-1.16.08-2.33.09-3.51-1.38-30.95-60.93-55.85-134.2-55.85Z"/>
        <path class="cls-2" d="M4.63,71.33c.86-1.11,2.1-.8,4.64-1.53,3.69-1.06,5.38-2.96,9.28-6.14,4.85-3.95,7.42-6.05,10.82-7.67,8.04-3.83,11.19-.46,17.01-4.6,3.56-2.53,2.94,1.5,7.7-1.96,1.46-1.06,4.8-9.14,9.3-10.32,8.45-2.21,10.97,2.4,17.01,0,3.48-1.38,3.89,4.44,12.34-1.96,3.66-2.77,4.01-11.41,6.21-11.85,5.15-1.04,8.23,1.95,10.82,0,2.24-1.68.74-4.5,3.09-6.14.72-.5,1.34-.57,9.28,0,3.11.22,4.34.33,6.18,0,2.18-.39,1.62,4.69,3.07,4.18,3.25-1.15,7.62-6.46,12.39-5.71,7.94,1.24,11.1-1.71,12.37,3.07,1.52,5.71,5.17-.45,12.37-1.53,4.99-.75,7.01-1.16,9.28,0,2.74,1.41,2.11,3.21,4.64,4.6,3.93,2.16,6.74-1.5,12.37,0,.85.23,3.15,1.69,7.73,4.6,5.25,3.34,5.65,3.9,7.73,4.6,3.69,1.24,4.49.15,7.73,1.53,1.35.57,2.98,1.92,6.18,4.6,6.9,5.76,7.05,5.9,7.73,6.14,2.95,1.04,3.57,11.57,10.8,11.85,4.16.16,9.36.26,10.82,1.53,2.27,1.97,5.61-1.98,7.73,1.53,1.33,2.21-4.24-2.2.03.42,6.25,3.84,7.01,3.43,7.7,5.71.68,2.25-.11,5.65-1.55,9.2-1.23,3.06-2.59,5.17-2.75,5.43-3.24,5.26-6.8,8.72-8.07,9.91-4.77,4.45-9.22,6.79-13.91,9.2-5.95,3.06-24.89,9.83-18.55,7.67h0s-9.66,3.6-17.01,6.14c-6.72,2.32-11.64,2.2-21.65,4.6-7.65,1.84-12.61,1.86-21.65,3.07-7.89,1.05-15.51-.2-20.1,0-9.57.42-15.28.17-20.1,0-8.63-.31-14.98-.9-21.65-1.53-11.7-1.11-16-1.67-23.19-3.07-5.15-1-5.34-.92-24.74-6.14-14.31-3.84-14.58-5.24-18.53-7.25-2.24-1.14-.99-.69-15.46-10.74-6.44-4.47-9.47-6.49-12.37-10.74-.95-1.39-5.24-7.94-3.09-10.74Z"/>
        <path class="cls-7" d="M135.72,9.45C61.98,9.45,2.13,34.6,1.5,65.72c0,.64.01,1.27.03,1.9,1.77,30.7,61.17,55.36,134.19,55.36s131.13-24.13,134.11-54.36c.05-1.16.08-2.32.09-3.49-1.38-30.84-60.93-55.67-134.2-55.67Z"/>
        <ellipse class="cls-9" cx="58.46" cy="64.7" rx="8" ry="3" transform="translate(-22.17 97.91) rotate(-70.29)"/>
        <ellipse class="cls-9" cx="40.32" cy="71.72" rx="3" ry="8" transform="translate(-26.77 24.09) rotate(-25.29)"/>
        <ellipse class="cls-9" cx="45.52" cy="91.63" rx="8" ry="3" transform="translate(-55.32 74.31) rotate(-53.84)"/>
        <ellipse class="cls-9" cx="20.52" cy="75.63" rx="3" ry="8" transform="translate(-57.25 85.24) rotate(-81.87)"/>
        <ellipse class="cls-9" cx="115.5" cy="76.95" rx="3" ry="8" transform="translate(4.1 159.73) rotate(-70.29)"/>
        <ellipse class="cls-9" cx="108.49" cy="58.81" rx="8" ry="3" transform="translate(-14.73 51.97) rotate(-25.29)"/>
        <ellipse class="cls-9" cx="88.58" cy="64.01" rx="3" ry="8" transform="translate(-15.37 97.75) rotate(-53.84)"/>
        <ellipse class="cls-9" cx="104.58" cy="39.01" rx="8" ry="3" transform="translate(51.17 137.02) rotate(-81.87)"/>
        <ellipse class="cls-9" cx="93.31" cy="103.76" rx="3" ry="8" transform="translate(-35.38 49.8) rotate(-25.29)"/>
        <ellipse class="cls-9" cx="69.18" cy="99.97" rx="8" ry="3" transform="translate(-36.07 39.13) rotate(-25.29)"/>
        <ellipse class="cls-9" cx="68.42" cy="81.57" rx="8" ry="3" transform="translate(-37.81 88.68) rotate(-53.84)"/>
        <ellipse class="cls-9" cx="93.42" cy="83.2" rx="8" ry="3" transform="translate(-31.24 72.69) rotate(-36.87)"/>
        <ellipse class="cls-9" cx="73.56" cy="48.6" rx="3" ry="8" transform="translate(10.15 109.85) rotate(-77.46)"/>
        <ellipse class="cls-9" cx="166.61" cy="42.26" rx="8" ry="3" transform="translate(70.63 184.85) rotate(-70.29)"/>
        <ellipse class="cls-9" cx="150.47" cy="32.27" rx="3" ry="8" transform="translate(.63 67.36) rotate(-25.29)"/>
        <ellipse class="cls-9" cx="158.67" cy="79.18" rx="8" ry="3" transform="translate(1.12 160.56) rotate(-53.84)"/>
        <ellipse class="cls-9" cx="127.67" cy="39.18" rx="3" ry="8" transform="translate(70.83 160.03) rotate(-81.87)"/>
        <ellipse class="cls-9" cx="228.66" cy="64.51" rx="3" ry="8" transform="translate(90.8 258) rotate(-70.29)"/>
        <ellipse class="cls-9" cx="201.73" cy="51.57" rx="3" ry="8" transform="translate(41.06 184.01) rotate(-53.84)"/>
        <ellipse class="cls-9" cx="177.73" cy="73.57" rx="3" ry="8" transform="translate(5.35 158.91) rotate(-48.83)"/>
        <ellipse class="cls-9" cx="206.47" cy="91.31" rx="3" ry="8" transform="translate(-19.22 96.94) rotate(-25.29)"/>
        <ellipse class="cls-9" cx="207.57" cy="72.76" rx="8" ry="3" transform="translate(-2.14 139.09) rotate(-36.87)"/>
        <ellipse class="cls-9" cx="186.72" cy="36.15" rx="3" ry="8" transform="translate(110.88 210.56) rotate(-77.46)"/>
        <ellipse class="cls-9" cx="183.94" cy="58.53" rx="3" ry="8" transform="translate(1.67 122.06) rotate(-36.87)"/>
        <ellipse class="cls-9" cx="180.94" cy="91.53" rx="3" ry="8" transform="translate(43.36 240.49) rotate(-74.11)"/>
        <ellipse class="cls-9" cx="129.03" cy="57.45" rx="8" ry="3" transform="translate(38.44 165.82) rotate(-74.11)"/>
        <ellipse class="cls-9" cx="138.84" cy="75.86" rx="3" ry="8" transform="translate(-9.67 130.42) rotate(-48.83)"/>
        <ellipse class="cls-9" cx="251.88" cy="70.18" rx="8" ry="3" transform="translate(162.97 316.08) rotate(-85.69)"/>
        <ellipse class="cls-9" cx="215.69" cy="45.89" rx="8" ry="3" transform="translate(153.72 257.52) rotate(-85.69)"/>
        <ellipse class="cls-9" cx="146.2" cy="57.55" rx="3" ry="8" transform="translate(-3.86 10.98) rotate(-4.25)"/>
        <ellipse class="cls-9" cx="112.5" cy="93.36" rx="8" ry="3" transform="translate(-31.61 68.76) rotate(-30)"/>
        <ellipse class="cls-9" cx="143.92" cy="108.94" rx="3" ry="8" transform="translate(-35.19 86.56) rotate(-30)"/>
        <ellipse class="cls-9" cx="123.83" cy="111.2" rx="8" ry="3" transform="translate(-41.95 96.53) rotate(-36.87)"/>
        <ellipse class="cls-9" cx="132.86" cy="93.42" rx="8" ry="3" transform="translate(-20.96 145.55) rotate(-53.84)"/>
        <ellipse class="cls-9" cx="165.32" cy="107.05" rx="8" ry="3" transform="translate(-10.04 196.7) rotate(-60)"/>
        <ellipse class="cls-9" cx="231.32" cy="90.05" rx="8" ry="3" transform="translate(37.68 245.36) rotate(-60)"/>
        <ellipse class="cls-9" cx="191.32" cy="109.05" rx="8" ry="3" transform="translate(-19.86 46.61) rotate(-13.21)"/>
        <line class="cls-5" x1="46.47" y1="81.41" x2="35.5" y2="82.22"/>
        <line class="cls-5" x1="117.73" y1="36.51" x2="115.21" y2="25.8"/>
        <line class="cls-5" x1="91.22" y1="74.44" x2="95.61" y2="64.35"/>
        <line class="cls-5" x1="82.8" y1="102.95" x2="73.27" y2="97.45"/>
        <line class="cls-5" x1="126.78" y1="60.89" x2="124.27" y2="50.18"/>
        <line class="cls-5" x1="125.27" y1="98.82" x2="129.66" y2="88.73"/>
        <line class="cls-5" x1="172.62" y1="100.28" x2="163.1" y2="94.78"/>
        <line class="cls-5" x1="230.6" y1="55.22" x2="225.49" y2="46.82"/>
        <line class="cls-5" x1="215.1" y1="96.15" x2="219.48" y2="86.06"/>
        <line class="cls-5" x1="196.2" y1="70.58" x2="185.2" y2="70.93"/>
        <line class="cls-5" x1="162.05" y1="44.07" x2="153.44" y2="50.92"/>
        <line class="cls-5" x1="205.69" y1="40.61" x2="194.69" y2="40.95"/>
        <line class="cls-5" x1="67.33" y1="56.11" x2="62.63" y2="46.16"/>
        <line class="cls-5" x1="260.57" y1="68.92" x2="251.96" y2="75.77"/>
      </g>
      <g>
        <circle class="cls-3" cx="140.06" cy="6.73" r="6.6"/>
        <circle class="cls-3" cx="143.93" cy="13.75" r="6.6"/>
        <circle class="cls-3" cx="133.45" cy="17.28" r="6.6"/>
        <circle class="cls-1" cx="123.8" cy="13.38" r="6.6"/>
        <circle class="cls-3" cx="115.66" cy="33.66" r="6.6"/>
        <circle class="cls-6" cx="133.31" cy="31.87" r="6.6"/>
        <circle class="cls-3" cx="114.6" cy="19.22" r="6.6"/>
        <circle class="cls-3" cx="166.05" cy="16.57" r="6.6"/>
        <circle class="cls-1" cx="152.75" cy="20.19" r="6.6"/>
        <circle class="cls-3" cx="105.05" cy="28.89" r="6.6"/>
        <circle class="cls-1" cx="124.36" cy="24.46" r="6.6"/>
        <circle class="cls-3" cx="135.09" cy="21.99" r="6.6"/>
        <circle class="cls-3" cx="144.66" cy="24.32" r="6.6"/>
        <circle class="cls-3" cx="153.51" cy="8.73" r="6.6"/>
        <circle class="cls-3" cx="161.18" cy="12.61" r="6.6"/>
        <circle class="cls-3" cx="122.51" cy="34.95" r="6.6"/>
        <circle class="cls-1" cx="108.96" cy="38.13" r="6.6"/>
        <circle class="cls-3" cx="121.3" cy="30.8" r="6.6"/>
        <circle class="cls-3" cx="113.83" cy="26.76" r="6.6"/>
        <circle class="cls-3" cx="103.99" cy="21.79" r="6.6"/>
        <circle class="cls-1" cx="141.96" cy="37.1" r="6.6"/>
        <circle class="cls-3" cx="146.3" cy="29.01" r="6.6"/>
        <circle class="cls-3" cx="154.55" cy="27.39" r="6.6"/>
        <ellipse class="cls-10" cx="111.29" cy="28.65" rx="1.15" ry="1.61" transform="translate(12.28 86.99) rotate(-44.95)"/>
        <ellipse class="cls-10" cx="101.53" cy="23.45" rx="1.15" ry="1.61" transform="translate(13.11 78.58) rotate(-44.95)"/>
        <ellipse class="cls-10" cx="107.11" cy="36.1" rx="1.61" ry="1.15" transform="translate(12.3 97.64) rotate(-51.61)"/>
        <ellipse class="cls-10" cx="113.34" cy="15.59" rx="1.61" ry="1.15" transform="translate(30.73 94.74) rotate(-51.61)"/>
        <ellipse class="cls-10" cx="120.85" cy="10.55" rx="1.61" ry="1.15" transform="translate(37.53 98.73) rotate(-51.61)"/>
        <ellipse class="cls-10" cx="122.97" cy="21.84" rx="1.61" ry="1.15" transform="translate(29.49 104.67) rotate(-51.61)"/>
        <ellipse class="cls-10" cx="119.78" cy="33.97" rx="1.15" ry="1.61" transform="translate(75.3 150.26) rotate(-84.9)"/>
        <ellipse class="cls-10" cx="133.14" cy="23.06" rx="1.15" ry="1.61" transform="translate(98.34 153.62) rotate(-84.9)"/>
        <ellipse class="cls-10" cx="131.36" cy="35.38" rx="1.15" ry="1.61" transform="translate(63.93 153.53) rotate(-75.36)"/>
        <ellipse class="cls-10" cx="153.36" cy="24.03" rx="1.61" ry="1.15" transform="translate(2.06 58.74) rotate(-21.83)"/>
        <ellipse class="cls-10" cx="140.81" cy="11.35" rx="1.61" ry="1.15" transform="translate(8.06 59.65) rotate(-24.6)"/>
        <ellipse class="cls-10" cx="143.88" cy="25.27" rx="1.61" ry="1.15" transform="translate(2.54 62.19) rotate(-24.6)"/>
        <ellipse class="cls-10" cx="139.49" cy="37.45" rx="1.15" ry="1.61" transform="translate(11 103.39) rotate(-42.19)"/>
        <ellipse class="cls-10" cx="137.96" cy="3.94" rx="1.61" ry="1.15" transform="translate(8.43 51.58) rotate(-21.83)"/>
        <ellipse class="cls-10" cx="151.66" cy="4.72" rx="1.61" ry="1.15" transform="translate(11.8 63.57) rotate(-24.6)"/>
        <ellipse class="cls-10" cx="159.61" cy="8.46" rx="1.61" ry="1.15" transform="translate(10.97 67.22) rotate(-24.6)"/>
      </g>
    </g>
  </g>
</svg>