<svg width="205" height="258" viewBox="0 0 205 258" fill="none" xmlns="http://www.w3.org/2000/svg">
<path d="M141.638 73.7091L136.148 75.0798C131.809 75.0798 126.543 65.6931 126.543 61.3518L126.313 48.7224C126.313 44.3811 129.863 40.8291 134.202 40.8291C138.541 40.8291 142.091 44.3811 142.091 48.7224V61.0798C142.091 65.4211 145.977 73.7091 141.638 73.7091Z" fill="#FFDAC2"/>
<path d="M178.731 188.349C172.202 187.24 160.88 172.104 151.552 172.61C137.07 173.394 125.328 176.957 117.247 180.162C118.393 164.146 119.534 148.125 120.68 132.109C125.498 129.64 134.352 125.88 146.068 125.245C157.837 124.605 167.079 127.416 172.138 129.362C173.284 144.237 177.591 173.474 178.737 188.349H178.731Z" fill="#DF0038"/>
<path opacity="0.6" d="M20.4507 29.2454L17.9082 31.9601L39.4051 61.1068L24.7736 27.8428L20.4507 29.2454Z" fill="#FF7BAC" stroke="#FBB03B" stroke-miterlimit="10"/>
<path opacity="0.6" d="M13.5691 33.9226L11.0479 37.4533L39.4047 61.1066L17.9079 31.96L13.5691 33.9226Z" fill="#FF7BAC" stroke="#FBB03B" stroke-miterlimit="10"/>
<path opacity="0.6" d="M39.4308 61.9653L40.5502 25.7787L36.5952 25L32.3203 26.4667L39.4308 61.9653Z" fill="#FF7BAC" stroke="#FBB03B" stroke-miterlimit="10"/>
<path opacity="0.6" d="M39.4306 61.9655L32.3201 26.4669L28.349 26.1309L24.7725 27.8429L39.4306 61.9655Z" fill="#FF7BAC" stroke="#FBB03B" stroke-miterlimit="10"/>
<path opacity="0.6" d="M1.3623 56.0824L2.12984 60.1038L38.8339 62.5091L3.49972 52.5518L1.3623 56.0824Z" fill="#FF7BAC" stroke="#FBB03B" stroke-miterlimit="10"/>
<path opacity="0.6" d="M1 64.4075L2.02341 68.6262L38.834 62.5089L2.13001 60.1035L1 64.4075Z" fill="#FF7BAC" stroke="#FBB03B" stroke-miterlimit="10"/>
<path opacity="0.6" d="M38.93 60.3865L11.0476 37.4531L7.59356 40.5945L6.93262 44.9998L38.93 60.3865Z" fill="#FF7BAC" stroke="#FBB03B" stroke-miterlimit="10"/>
<g opacity="0.6">
<path d="M38.8341 60.4507L6.93267 45L3.57995 47.8907L3.5 52.552L38.8341 62.5093" fill="#FF7BAC"/>
<path d="M38.8341 60.4507L6.93267 45L3.57995 47.8907L3.5 52.552L38.8341 62.5093" stroke="#FBB03B" stroke-miterlimit="10"/>
</g>
<g opacity="0.6">
<path d="M73.1392 54.1838L70.053 50.4932L40.209 62.5092L72.798 58.0452L73.1392 54.1838Z" fill="#FF7BAC" stroke="#FBB03B" stroke-miterlimit="10"/>
<path d="M70.5541 46.2694L67.308 42.9414L39.5215 62.5094L70.3516 50.6054L70.5541 46.2694Z" fill="#FF7BAC" stroke="#FBB03B" stroke-miterlimit="10"/>
</g>
<g opacity="0.6">
<path d="M36.4355 62.1631L74.0297 74.7497L72.7291 70.8831L72.1108 66.2857L41.2381 63.5391" fill="#FF7BAC"/>
<path d="M36.4355 62.1631L74.0297 74.7497L72.7291 70.8831L72.1108 66.2857L41.2381 63.5391" stroke="#FBB03B" stroke-miterlimit="10"/>
</g>
<g opacity="0.6">
<path d="M39.5215 63.1916L72.1105 66.2849L73.9335 62.6369L72.7981 58.0449L39.5215 62.509" fill="#FF7BAC"/>
<path d="M39.5215 63.1916L72.1105 66.2849L73.9335 62.6369L72.7981 58.0449L39.5215 62.509" stroke="#FBB03B" stroke-miterlimit="10"/>
</g>
<g opacity="0.6">
<path d="M52.6712 28.376L48.0978 28.5253L39.5215 61.8213L56.333 31.272L52.6712 28.376Z" fill="#FF7BAC" stroke="#FBB03B" stroke-miterlimit="10"/>
<path d="M45.3528 25.7783H40.5502L39.5215 61.821L48.0978 28.525L45.3528 25.7783Z" fill="#FF7BAC" stroke="#FBB03B" stroke-miterlimit="10"/>
</g>
<path opacity="0.6" d="M38.834 62.5092L67.3081 42.9411L65.8103 38.6745L62.5056 36.0771L38.834 62.5092Z" fill="#FF7BAC" stroke="#FBB03B" stroke-miterlimit="10"/>
<path opacity="0.6" d="M38.834 62.5098L62.5056 36.0778L59.9204 32.7871L56.3331 31.2725L38.834 62.5098Z" fill="#FF7BAC" stroke="#FBB03B" stroke-miterlimit="10"/>
<path d="M182.311 20.2708L170.029 19.3252C168.509 19.2082 167.182 20.3465 167.065 21.8678L166.909 23.8885C166.792 25.4098 167.93 26.7379 169.45 26.855L181.732 27.8006C183.253 27.9176 184.58 26.7793 184.697 25.258L184.852 23.2373C184.969 21.716 183.832 20.3879 182.311 20.2708Z" fill="#FFDAC2"/>
<path d="M41.8544 61.7677L29.7223 63.9016C28.2204 64.1657 27.217 65.5981 27.481 67.1008L27.8316 69.0969C28.0956 70.5996 29.5272 71.6037 31.029 71.3395L43.1612 69.2056C44.663 68.9415 45.6665 67.5091 45.4025 66.0064L45.0518 64.0103C44.7878 62.5076 43.3563 61.5035 41.8544 61.7677Z" fill="#FFDAC2"/>
<path d="M151.483 24.0293C151.814 23.384 152.101 22.6853 152.347 21.9493C152.416 21.7627 152.475 21.576 152.523 21.384C153.439 18.376 153.748 14.84 153.748 11.9867C153.748 5.73067 144.031 1 137.966 1C133.211 1 129.149 4.13067 127.636 8.504C127.561 8.71734 127.486 8.936 127.428 9.16533C127.3 9.10133 127.161 9.048 127.023 9C126.26 8.712 125.445 8.552 124.587 8.552C123.819 8.552 123.084 8.67468 122.391 8.90934C121.964 9.05334 121.559 9.22934 121.175 9.45334C118.91 10.728 117.38 13.2293 117.38 16.104C117.38 17.1333 117.577 18.12 117.945 19.016C112.62 25.848 115.339 33.9973 116.698 38.76C117.482 41.5067 119.102 43.416 121.245 44.744C126.479 47.9973 134.837 47.7787 141.798 47.704C142.603 47.688 143.381 47.6827 144.138 47.6827C154.18 47.6827 155.118 45.2613 155.118 34.6373C155.118 31.3147 153.711 27.5813 151.478 24.024L151.483 24.0293ZM146.206 27.7787C144.708 27.7787 142.784 27.2133 140.732 26.2747C138.648 21.3307 136.191 18.6053 131.799 18.6053C131.66 18.6053 131.527 18.6053 131.388 18.6213C131.655 17.8373 131.799 16.9947 131.799 16.1093C131.799 15.8907 131.788 15.6827 131.772 15.4693C131.729 14.9147 131.623 14.3813 131.468 13.8693C131.436 13.7627 131.404 13.6507 131.367 13.544C131.351 13.496 131.329 13.448 131.308 13.3947C131.186 13.0587 131.047 12.7387 130.882 12.4293C130.882 12.4293 130.882 12.4293 130.882 12.424L143.344 17.5867C143.024 17.64 142.747 17.8 142.486 17.9973C142.32 18.1253 142.166 18.2693 142.001 18.4293C142.049 18.5573 142.139 18.6693 142.262 18.7333C142.139 18.7973 142.022 18.8293 141.926 18.9467C142.299 19.5973 142.662 20.0187 143.413 20.184C143.008 20.7547 143.056 21.3573 143.157 22.056C143.296 22.088 143.44 22.0827 143.557 22.0133C143.536 22.152 143.493 22.2693 143.536 22.4133C143.983 22.456 144.357 22.456 144.708 22.3387C144.692 22.3547 144.682 22.3653 144.666 22.3813C145.039 23.032 145.401 23.4533 146.153 23.6187C145.748 24.1893 145.796 24.792 145.897 25.4907C146.036 25.5227 146.18 25.5173 146.297 25.448C146.275 25.5867 146.233 25.704 146.275 25.848C147.032 25.9227 147.592 25.8693 148.168 25.3253C148.642 25.9013 149.26 25.992 149.991 26.0453C150.055 25.9227 150.071 25.7787 150.039 25.6453C150.14 25.6933 150.231 25.7413 150.348 25.7467C149.292 27.0053 147.933 27.7787 146.206 27.7787Z" fill="black" stroke="white" stroke-width="0.25" stroke-miterlimit="10"/>
<path d="M144.522 40.2535C144.399 43.0429 143.36 45.6029 141.814 47.7096C139.266 51.1816 135.338 53.4376 131.804 53.4376C127.305 53.4376 123.366 49.9442 121.261 44.7549C120.216 42.1896 119.619 39.2029 119.619 36.0242C119.619 31.1229 121.032 26.7016 123.313 23.5442C125.173 20.9682 127.593 19.2242 130.29 18.7549C130.653 18.6855 131.015 18.6429 131.394 18.6322C131.532 18.6162 131.665 18.6162 131.804 18.6162C136.196 18.6162 138.653 21.3415 140.738 26.2855C141.734 28.6535 142.646 31.5229 143.648 34.8455C143.76 35.2295 143.882 35.6296 144 36.0242C144.431 37.4749 144.591 38.8936 144.527 40.2589L144.522 40.2535Z" fill="#FFDAC2"/>
<path d="M150.354 25.7465C149.298 27.0052 147.939 27.7785 146.212 27.7785C144.714 27.7785 142.79 27.2132 140.738 26.2745C138.654 21.3305 136.197 18.6052 131.804 18.6052C131.666 18.6052 131.533 18.6052 131.394 18.6212C131.661 17.8372 131.804 16.9945 131.804 16.1092C131.804 15.2238 131.655 14.3438 131.373 13.5438C131.245 13.1545 131.08 12.7812 130.888 12.4238L143.35 17.5865C143.03 17.6398 142.753 17.7998 142.492 17.9972C142.326 18.1252 142.172 18.2692 142.007 18.4292C142.055 18.5572 142.145 18.6692 142.268 18.7332C142.145 18.7972 142.028 18.8292 141.932 18.9465C142.305 19.5972 142.668 20.0185 143.419 20.1838C143.014 20.7545 143.062 21.3572 143.163 22.0558C143.302 22.0878 143.446 22.0825 143.563 22.0132C143.542 22.1518 143.499 22.2692 143.542 22.4132C143.989 22.4558 144.363 22.4558 144.714 22.3385C144.698 22.3545 144.688 22.3652 144.672 22.3812C145.045 23.0318 145.407 23.4532 146.159 23.6185C145.754 24.1892 145.802 24.7918 145.903 25.4905C146.042 25.5225 146.185 25.5172 146.303 25.4478C146.281 25.5865 146.239 25.7038 146.281 25.8478C147.038 25.9225 147.598 25.8692 148.174 25.3252C148.648 25.9012 149.266 25.9918 149.997 26.0451C150.061 25.9225 150.077 25.7785 150.045 25.6451C150.146 25.6931 150.236 25.7412 150.354 25.7465Z" fill="black"/>
<path d="M133.152 12.4612C133.446 13.0052 133.696 13.5705 133.893 14.1679L132.433 13.5812L127.54 11.6132L127.268 11.5066L125.349 10.7332L125.013 10.5999L124.677 10.4665L123.968 10.1839L121.245 9.08521L118.409 7.94389L113.159 5.84255C113.073 5.79989 112.951 5.73588 112.897 5.58121L113.159 4.79721C113.201 4.70121 113.324 4.22121 113.532 4.32787L120.253 7.11721L125.312 9.20788L126.426 9.67722L127.385 10.0772L132.854 12.3332L133.147 12.4612H133.152Z" fill="#F5C153"/>
<path d="M157.704 24.8025L157.528 25.3092C157.49 25.3998 157.405 25.4478 157.33 25.4105L153.61 23.5865L152.032 22.8185L150.028 21.8318L149.484 21.5652L149.117 21.3838L147.032 20.3598L146.366 20.0398L140.119 16.9732C140.476 16.6425 140.849 16.3758 141.292 16.2852L147.011 19.1812L147.331 19.3412L147.507 19.4318L147.837 19.6025L147.933 19.6505L148.898 20.1465L153.85 22.6478L157.629 24.5678C157.704 24.5998 157.741 24.7172 157.704 24.8078V24.8025Z" fill="#F5C153"/>
<path d="M156.776 241.896C152.229 245.688 136.116 258.162 112.865 257.688C98.8894 257.4 88.2769 252.552 82.6748 249.448C93.6498 208.946 104.63 168.44 115.605 127.938H151.28C153.109 165.922 154.942 203.912 156.77 241.896H156.776Z" fill="#DF0038"/>
<path d="M204.802 247.389C197.313 248.125 187.681 248.338 176.674 246.701C168.998 245.56 162.32 243.768 156.776 241.896C146.025 199.789 130.477 157.688 119.726 115.581L132.763 112.146C143.941 129.965 160.79 153.074 171.871 174.616C185.042 200.226 195.873 224.685 204.802 247.384V247.389Z" fill="#DF0038"/>
<path d="M130.018 204.141C127.62 203.443 123.137 202.483 117.668 203.453C110.494 204.728 105.819 208.584 103.948 210.318C107.834 179.88 111.725 149.448 115.611 119.011L124.528 115.576C123.388 131.784 123.244 150.52 125.216 171.182C126.346 183.032 128.036 194.045 130.018 204.131V204.141Z" fill="#FFE975"/>
<path d="M171.872 131.374C165.342 130.264 157.187 129.496 147.859 130.003C133.377 130.787 121.634 134.35 113.554 137.555C114.7 121.539 115.84 105.518 116.986 89.5017C121.805 87.0324 130.658 83.2724 142.374 82.6377C154.143 81.9977 163.386 84.8084 168.444 86.755C169.59 101.63 170.731 116.504 171.877 131.379L171.872 131.374Z" fill="#FFE975"/>
<path d="M127.551 8.45042C127.69 8.51976 127.748 8.62642 127.833 8.73309C127.865 8.59976 127.956 8.48775 128.073 8.41309C128.74 8.85575 129.267 9.27176 129.337 10.1518C130.067 9.94376 130.589 10.1358 131.218 10.5304C131.186 10.6798 131.101 10.7704 131.026 10.8771C131.165 10.8771 131.298 10.9251 131.399 11.0158C131.165 11.7624 130.914 12.3758 130.125 12.6904C130.157 12.7331 130.189 12.7811 130.221 12.8291C130.717 13.5704 130.658 14.1624 130.403 14.9304C130.248 14.9358 130.141 14.8718 130.019 14.8238C130.056 14.9571 130.035 15.0958 129.966 15.2184C129.235 15.1651 128.617 15.0744 128.143 14.5038C127.567 15.0424 127.007 15.1011 126.25 15.0264C126.208 14.8771 126.25 14.7598 126.272 14.6264C126.149 14.6904 126.005 14.7011 125.877 14.6638C125.771 13.9651 125.723 13.3624 126.128 12.7864C125.376 12.6264 125.008 12.2051 124.641 11.5544C124.737 11.4371 124.854 11.3998 124.976 11.3411C124.854 11.2824 124.763 11.1704 124.715 11.0424C125.286 10.4878 125.803 10.0664 126.671 10.1784C126.666 9.40508 127.002 8.95176 127.556 8.45042H127.551Z" fill="#ED1C24"/>
<path d="M148.679 18.4079C148.567 18.7599 148.455 19.0799 148.29 19.3572C148.242 19.4265 148.199 19.4852 148.152 19.5439C148.146 19.5599 148.136 19.5652 148.13 19.5705C147.981 19.7572 147.789 19.9065 147.539 20.0239C147.496 20.0505 147.459 20.0665 147.411 20.0879C147.437 20.1305 147.475 20.1785 147.507 20.2265C148.002 20.9679 147.938 21.5599 147.682 22.3279C147.533 22.3332 147.421 22.2745 147.299 22.2159C147.331 22.3439 147.315 22.4879 147.251 22.6159C146.515 22.5625 145.897 22.4719 145.428 21.8959C145.193 22.1145 144.953 22.2585 144.708 22.3439C144.356 22.4612 143.983 22.4612 143.536 22.4185C143.493 22.2745 143.536 22.1572 143.557 22.0185C143.44 22.0879 143.296 22.0932 143.157 22.0612C143.056 21.3625 143.008 20.7545 143.413 20.1892C142.656 20.0239 142.294 19.6079 141.926 18.9519C142.022 18.8345 142.139 18.8025 142.262 18.7385C142.139 18.6745 142.048 18.5679 142 18.4345C142.166 18.2745 142.32 18.1305 142.485 18.0025C142.747 17.8052 143.018 17.6452 143.344 17.5919C143.53 17.5492 143.727 17.5439 143.957 17.5705C143.951 16.8772 144.218 16.4399 144.676 15.9919C144.73 15.9439 144.788 15.8905 144.841 15.8425C144.98 15.9172 145.039 16.0185 145.124 16.1252C145.156 15.9972 145.247 15.8852 145.364 15.8105C146.03 16.2585 146.552 16.6692 146.627 17.5492C147.352 17.3412 147.874 17.5332 148.509 17.9332C148.482 18.0825 148.391 18.1679 148.317 18.2745C148.455 18.2745 148.583 18.3279 148.69 18.4185L148.679 18.4079Z" fill="#ED1C24"/>
<path d="M150.838 23.0429C150.668 23.2349 150.449 23.4002 150.151 23.5176C150.178 23.5602 150.215 23.6082 150.247 23.6562C150.705 24.3496 150.684 24.9042 150.471 25.6082C150.455 25.6562 150.439 25.7042 150.423 25.7576C150.396 25.7576 150.369 25.7576 150.348 25.7522C150.231 25.7469 150.14 25.6989 150.039 25.6509C150.071 25.7789 150.055 25.9229 149.991 26.0509C149.255 25.9976 148.637 25.9069 148.168 25.3309C147.592 25.8749 147.027 25.9282 146.276 25.8536C146.233 25.7096 146.276 25.5922 146.297 25.4536C146.18 25.5229 146.036 25.5282 145.897 25.4962C145.796 24.7976 145.748 24.1896 146.153 23.6242C145.396 23.4589 145.034 23.0429 144.666 22.3869C144.682 22.3709 144.693 22.3602 144.709 22.3442C144.799 22.2642 144.895 22.2269 145.002 22.1736C144.879 22.1096 144.789 22.0029 144.741 21.8696C145.311 21.3202 145.833 20.8936 146.697 21.0056C146.692 20.5202 146.819 20.1629 147.054 19.8376C147.182 19.6616 147.342 19.4962 147.528 19.3202C147.55 19.3042 147.56 19.2882 147.582 19.2722C147.656 19.3149 147.71 19.3629 147.758 19.4162C147.79 19.4589 147.827 19.5069 147.859 19.5549C147.864 19.5282 147.88 19.5016 147.886 19.4749C147.907 19.4322 147.939 19.3842 147.976 19.3522C148.008 19.3096 148.051 19.2776 148.099 19.2402C148.163 19.2829 148.227 19.3202 148.285 19.3629C148.525 19.5336 148.738 19.6989 148.904 19.8962C149.117 20.1202 149.266 20.3976 149.33 20.7496C149.346 20.8189 149.357 20.8936 149.362 20.9736C149.485 20.9416 149.607 20.9096 149.724 20.9042C150.273 20.8402 150.721 21.0269 151.238 21.3576C151.233 21.4109 151.212 21.4536 151.19 21.4962C151.148 21.5709 151.094 21.6349 151.046 21.7042C151.185 21.7042 151.313 21.7576 151.419 21.8482C151.276 22.3176 151.116 22.7282 150.838 23.0482V23.0429Z" fill="white"/>
<path d="M123.564 9.65648C123.702 9.72581 123.761 9.83248 123.846 9.93914C123.878 9.80581 123.969 9.69381 124.086 9.61914C124.752 10.0618 125.28 10.4778 125.349 11.3578C126.08 11.1498 126.602 11.3418 127.231 11.7365C127.199 11.8858 127.114 11.9765 127.039 12.0831C127.178 12.0831 127.311 12.1311 127.412 12.2218C127.178 12.9685 126.927 13.5818 126.138 13.8965C126.17 13.9391 126.202 13.9871 126.234 14.0351C126.73 14.7765 126.671 15.3685 126.415 16.1365C126.261 16.1418 126.154 16.0778 126.032 16.0298C126.069 16.1631 126.048 16.3018 125.978 16.4245C125.248 16.3711 124.63 16.2805 124.155 15.7098C123.58 16.2485 123.02 16.3071 122.263 16.2325C122.22 16.0831 122.263 15.9658 122.284 15.8325C122.162 15.8965 122.018 15.9071 121.89 15.8698C121.783 15.1711 121.735 14.5685 122.14 13.9925C121.389 13.8325 121.021 13.4111 120.653 12.7605C120.749 12.6431 120.867 12.6058 120.989 12.5471C120.867 12.4885 120.776 12.3765 120.728 12.2485C121.298 11.6938 121.815 11.2725 122.684 11.3845C122.679 10.6111 123.015 10.1578 123.569 9.65648H123.564Z" fill="white"/>
<path d="M194.237 47.6883C193.81 37.875 186.641 22.5203 183.944 22.9737C182.526 23.2137 184.76 25.667 182.116 26.3337C179.621 26.963 175.49 25.4963 173.651 25.715C171.477 25.9763 169.227 31.5763 168.332 53.107L142.32 56.5363L136.601 69.651L126.543 58.595L97.5516 67.0804C97.5356 66.7924 92.9463 69.1817 92.9249 68.8937C87.0617 71.0003 82.4617 74.0937 72.1104 71.0217C54.6005 65.8323 51.2532 66.7764 45.6671 65.1497C45.795 64.691 45.6191 64.2057 44.6703 64.8404C43.1459 65.8537 37.6984 69.7843 37.8103 70.3337C39.1002 76.6537 46.0455 94.3604 50.1605 97.107C48.5507 135.614 47.3674 211.272 65.9166 215.251C66.6309 215.406 67.3771 215.454 68.166 215.384C74.9834 213.912 84.3273 211 94.071 204.888C98.7349 201.96 102.599 198.856 105.734 195.966C103.575 161.907 101.411 127.843 99.2519 93.7844C111.165 89.9764 124.746 85.9977 139.357 84.7497C148.056 84.0084 156.291 85.9764 163.982 87.4484C161.205 110.691 158.146 138.334 155.139 166.44C156.072 168.456 159.857 176.014 168.86 180.168C178.193 184.478 186.7 182.163 188.757 181.539C186.86 137.832 196.145 91.379 194.247 47.6723L194.237 47.6883Z" fill="#DF0038"/>
<path d="M37.6588 62.5517L46.5763 65.2983C47.9675 63.645 47.9462 62.1037 47.9462 59.805C47.9462 54.4984 43.4901 50.1943 37.9999 50.1943C32.5098 50.1943 28.0537 54.4984 28.0537 59.805C28.0537 61.3197 28.4268 62.7437 29.0718 64.0183L37.6588 62.5517Z" fill="#E0B661"/>
</svg>
