<svg width="1548" height="195" viewBox="0 0 1548 195" fill="none" xmlns="http://www.w3.org/2000/svg">
<path d="M202.2 15.4V19.4C199.267 20.7333 196.133 23.3333 192.8 27.2C189.467 31.0667 186.6 37.0667 184.2 45.2L149.6 157.2C148.267 157.067 146.867 157 145.4 157C143.933 156.867 142.4 156.8 140.8 156.8C139.467 156.8 138 156.867 136.4 157C134.933 157 133.533 157.067 132.2 157.2L90.2 29.4C89 25.6667 87.4667 23.1333 85.6 21.8C83.8667 20.3333 81.8667 19.5333 79.6 19.4V15.4C83.7333 15.5333 88.6 15.6667 94.2 15.8C99.8 15.9333 105.467 16 111.2 16C117.2 16 122.867 15.9333 128.2 15.8C133.533 15.6667 137.867 15.5333 141.2 15.4V19.4C137.067 19.5333 133.867 20 131.6 20.8C129.333 21.6 128 23.2 127.6 25.6C127.333 27.8667 128 31.4 129.6 36.2L157.4 121.2L152.2 131.4L173.6 63.2C177.067 52.2667 178.733 43.6667 178.6 37.4C178.467 31 176.867 26.4667 173.8 23.8C170.867 21 166.667 19.5333 161.2 19.4V15.4C166.133 15.5333 170.533 15.6667 174.4 15.8C178.4 15.9333 182.533 16 186.8 16C189.6 16 192.333 15.9333 195 15.8C197.8 15.6667 200.2 15.5333 202.2 15.4ZM58.6 15.4V19.4C56.0667 19.8 54.3333 20.8667 53.4 22.6C52.4667 24.3333 52.1333 26.4667 52.4 29C52.8 31.4 53.4 33.8 54.2 36.2L84.4 123.2L79 131L103.8 61.2L106.6 66.8L75.6 157.2C74.2667 157.067 72.8 157 71.2 157C69.7333 156.867 68.2667 156.8 66.8 156.8C65.3333 156.8 63.8667 156.867 62.4 157C60.9333 157 59.5333 157.067 58.2 157.2L12.6 32.2C10.8667 27.4 8.86667 24.1333 6.6 22.4C4.33333 20.5333 2.26667 19.5333 0.4 19.4V15.4C4.66667 15.5333 9.8 15.6667 15.8 15.8C21.8 15.9333 27.5333 16 33 16C38.4667 16 43.4 15.9333 47.8 15.8C52.2 15.6667 55.8 15.5333 58.6 15.4ZM243.789 50.6C255.522 50.6 264.722 54.0667 271.389 61C278.056 67.9333 281.389 79.3333 281.389 95.2H217.189L216.989 91.4H254.189C254.456 84.8667 254.189 78.8667 253.389 73.4C252.589 67.8 251.256 63.3333 249.389 60C247.656 56.6667 245.322 55 242.389 55C238.389 55 234.989 57.8667 232.189 63.6C229.389 69.3333 227.656 79.0667 226.989 92.8L227.789 94.2C227.522 95.6667 227.389 97.2 227.389 98.8C227.389 100.267 227.389 101.867 227.389 103.6C227.389 112.8 228.589 120.133 230.989 125.6C233.522 131.067 236.656 134.933 240.389 137.2C244.122 139.467 247.989 140.6 251.989 140.6C254.256 140.6 256.789 140.267 259.589 139.6C262.389 138.933 265.322 137.533 268.389 135.4C271.456 133.267 274.389 130.133 277.189 126L280.589 127.2C279.122 132.4 276.589 137.533 272.989 142.6C269.522 147.533 265.056 151.667 259.589 155C254.122 158.2 247.522 159.8 239.789 159.8C230.989 159.8 223.122 158 216.189 154.4C209.256 150.667 203.722 144.867 199.589 137C195.589 129 193.589 118.6 193.589 105.8C193.589 93.1333 195.789 82.7333 200.189 74.6C204.589 66.4667 210.589 60.4667 218.189 56.6C225.789 52.6 234.322 50.6 243.789 50.6ZM363.77 50.6C373.904 50.6 382.304 54.8 388.97 63.2C395.77 71.4667 399.17 84.2667 399.17 101.6C399.17 116 397.037 127.533 392.77 136.2C388.637 144.733 383.037 150.8 375.97 154.4C369.037 158 361.37 159.8 352.97 159.8C348.037 159.8 343.437 159.2 339.17 158C335.037 156.8 331.237 154.6 327.77 151.4L330.37 149.4C332.504 151.533 334.904 153.133 337.57 154.2C340.237 155.133 342.837 155.6 345.37 155.6C352.17 155.6 357.17 151.467 360.37 143.2C363.704 134.8 365.37 122.133 365.37 105.2C365.37 93.6 364.704 84.5333 363.37 78C362.17 71.4667 360.37 66.8667 357.97 64.2C355.704 61.4 352.97 60 349.77 60C345.637 60 341.837 61.6667 338.37 65C335.037 68.2 333.237 72.6 332.97 78.2L332.57 69.8C335.237 63.4 339.304 58.6 344.77 55.4C350.237 52.2 356.57 50.6 363.77 50.6ZM333.17 0.599987V155.2C329.304 154 325.37 153.533 321.37 153.8C317.37 153.933 313.704 154.6 310.37 155.8C307.037 156.867 304.37 158.333 302.37 160.2L299.37 158.4C300.037 156.533 300.437 154.667 300.57 152.8C300.704 150.933 300.77 149.067 300.77 147.2V24.6C300.77 18.6 299.904 14.2 298.17 11.4C296.57 8.46666 293.437 6.99999 288.77 6.99999V2.79999C293.037 3.2 297.17 3.4 301.17 3.4C307.304 3.4 313.037 3.2 318.37 2.79999C323.704 2.26666 328.637 1.53332 333.17 0.599987ZM451.325 50.6C457.192 50.6 462.258 51.2667 466.525 52.6C470.792 53.9333 473.925 55.2 475.925 56.4C480.592 59.3333 483.392 57.4667 484.325 50.8H488.525C488.258 54.6667 488.058 59.3333 487.925 64.8C487.792 70.1333 487.725 77.3333 487.725 86.4H483.525C482.992 81.4667 481.792 76.6 479.925 71.8C478.192 67 475.592 63.0667 472.125 60C468.658 56.8 464.125 55.2 458.525 55.2C454.925 55.2 451.858 56.2667 449.325 58.4C446.925 60.5333 445.725 63.4667 445.725 67.2C445.725 71.2 446.925 74.7333 449.325 77.8C451.725 80.8667 454.792 83.8 458.525 86.6C462.392 89.4 466.258 92.4 470.125 95.6C474.392 98.8 478.192 102.067 481.525 105.4C484.992 108.6 487.725 112.133 489.725 116C491.858 119.733 492.925 124.267 492.925 129.6C492.925 135.6 491.125 140.867 487.525 145.4C483.925 149.933 479.192 153.467 473.325 156C467.458 158.533 460.925 159.8 453.725 159.8C449.325 159.8 445.458 159.333 442.125 158.4C438.925 157.6 436.258 156.533 434.125 155.2C432.125 154.267 430.325 153.467 428.725 152.8C427.258 152.133 425.792 151.667 424.325 151.4C422.992 151.267 421.858 151.867 420.925 153.2C419.992 154.533 419.258 156.267 418.725 158.4H414.525C414.792 154.133 414.992 148.933 415.125 142.8C415.258 136.667 415.325 128.533 415.325 118.4H419.525C420.325 125.6 421.792 131.933 423.925 137.4C426.192 142.867 429.192 147.2 432.925 150.4C436.658 153.467 441.058 155 446.125 155C448.392 155 450.458 154.6 452.325 153.8C454.325 152.867 455.925 151.467 457.125 149.6C458.458 147.733 459.125 145.333 459.125 142.4C459.125 136.533 457.258 131.667 453.525 127.8C449.792 123.8 445.192 119.467 439.725 114.8C435.458 111.2 431.458 107.667 427.725 104.2C424.125 100.733 421.125 96.9333 418.725 92.8C416.458 88.6667 415.325 84 415.325 78.8C415.325 72.8 416.992 67.7333 420.325 63.6C423.792 59.3333 428.258 56.1333 433.725 54C439.192 51.7333 445.058 50.6 451.325 50.6ZM530.884 1.19999C537.151 1.19999 542.018 2.59999 545.484 5.4C549.084 8.19999 550.884 12.2667 550.884 17.6C550.884 22.9333 549.084 27 545.484 29.8C542.018 32.6 537.151 34 530.884 34C524.618 34 519.684 32.6 516.084 29.8C512.618 27 510.884 22.9333 510.884 17.6C510.884 12.2667 512.618 8.19999 516.084 5.4C519.684 2.59999 524.618 1.19999 530.884 1.19999ZM548.484 51.2V138.4C548.484 144 549.351 147.8 551.084 149.8C552.951 151.8 556.084 152.8 560.484 152.8V157C557.818 156.867 553.884 156.733 548.684 156.6C543.484 156.333 538.218 156.2 532.884 156.2C527.551 156.2 522.084 156.333 516.484 156.6C511.018 156.733 506.884 156.867 504.084 157V152.8C508.484 152.8 511.551 151.8 513.284 149.8C515.151 147.8 516.084 144 516.084 138.4V75.2C516.084 69.2 515.218 64.8 513.484 62C511.751 59.0667 508.618 57.6 504.084 57.6V53.4C508.351 53.8 512.484 54 516.484 54C522.484 54 528.151 53.8 533.484 53.4C538.951 52.8667 543.951 52.1333 548.484 51.2ZM612.133 20.8V53.4H633.733V57.4H612.133V139.2C612.133 142.533 612.733 144.933 613.933 146.4C615.133 147.733 616.933 148.4 619.333 148.4C621.333 148.4 623.399 147.733 625.533 146.4C627.799 145.067 629.866 142.8 631.733 139.6L634.933 141.6C632.399 147.067 628.866 151.467 624.333 154.8C619.933 158.133 614.133 159.8 606.933 159.8C602.533 159.8 598.599 159.2 595.133 158C591.799 156.933 588.999 155.267 586.733 153C583.799 150.067 581.866 146.467 580.933 142.2C580.133 137.8 579.733 132.133 579.733 125.2V57.4H563.733V53.4H579.733V28.4C585.999 28.4 591.733 27.8 596.933 26.6C602.266 25.4 607.333 23.4667 612.133 20.8ZM690.273 50.6C702.007 50.6 711.207 54.0667 717.873 61C724.54 67.9333 727.873 79.3333 727.873 95.2H663.673L663.473 91.4H700.673C700.94 84.8667 700.673 78.8667 699.873 73.4C699.073 67.8 697.74 63.3333 695.873 60C694.14 56.6667 691.807 55 688.873 55C684.873 55 681.473 57.8667 678.673 63.6C675.873 69.3333 674.14 79.0667 673.473 92.8L674.273 94.2C674.007 95.6667 673.873 97.2 673.873 98.8C673.873 100.267 673.873 101.867 673.873 103.6C673.873 112.8 675.073 120.133 677.473 125.6C680.007 131.067 683.14 134.933 686.873 137.2C690.607 139.467 694.473 140.6 698.473 140.6C700.74 140.6 703.273 140.267 706.073 139.6C708.873 138.933 711.807 137.533 714.873 135.4C717.94 133.267 720.873 130.133 723.673 126L727.073 127.2C725.607 132.4 723.073 137.533 719.473 142.6C716.007 147.533 711.54 151.667 706.073 155C700.607 158.2 694.007 159.8 686.273 159.8C677.473 159.8 669.607 158 662.673 154.4C655.74 150.667 650.207 144.867 646.073 137C642.073 129 640.073 118.6 640.073 105.8C640.073 93.1333 642.273 82.7333 646.673 74.6C651.073 66.4667 657.073 60.4667 664.673 56.6C672.273 52.6 680.807 50.6 690.273 50.6ZM847.959 15.2L896.359 140.2C898.359 144.867 900.426 148.133 902.559 150C904.826 151.867 906.826 152.867 908.559 153V157C904.293 156.733 899.159 156.6 893.159 156.6C887.293 156.467 881.293 156.4 875.159 156.4C868.759 156.4 862.693 156.467 856.959 156.6C851.226 156.6 846.626 156.733 843.159 157V153C849.959 152.733 854.293 151.6 856.159 149.6C858.026 147.467 857.626 143 854.959 136.2L821.759 45.4L825.759 39.4L796.559 114.8C793.493 122.8 791.626 129.267 790.959 134.2C790.293 139.133 790.626 142.933 791.959 145.6C793.293 148.267 795.359 150.133 798.159 151.2C801.093 152.267 804.559 152.867 808.559 153V157C803.893 156.733 799.559 156.6 795.559 156.6C791.693 156.467 787.493 156.4 782.959 156.4C780.293 156.4 777.559 156.467 774.759 156.6C772.093 156.6 769.759 156.733 767.759 157V153C770.693 152.467 773.626 150.6 776.559 147.4C779.626 144.2 782.626 138.667 785.559 130.8L830.559 15.2C833.226 15.4667 836.093 15.6 839.159 15.6C842.359 15.6 845.293 15.4667 847.959 15.2ZM858.359 99.4V103.4H798.759L800.759 99.4H858.359ZM988.497 50.6C994.364 50.6 999.03 51.3333 1002.5 52.8C1006.1 54.2667 1008.83 56.1333 1010.7 58.4C1012.83 60.9333 1014.36 64.2 1015.3 68.2C1016.36 72.2 1016.9 77.6 1016.9 84.4V138.4C1016.9 144 1017.76 147.8 1019.5 149.8C1021.36 151.8 1024.5 152.8 1028.9 152.8V157C1026.23 156.867 1022.23 156.733 1016.9 156.6C1011.7 156.333 1006.63 156.2 1001.7 156.2C996.23 156.2 990.964 156.333 985.897 156.6C980.83 156.733 977.03 156.867 974.497 157V152.8C978.23 152.8 980.83 151.8 982.297 149.8C983.764 147.8 984.497 144 984.497 138.4V74.8C984.497 71.7333 984.164 69.1333 983.497 67C982.83 64.7333 981.697 63.0667 980.097 62C978.497 60.8 976.23 60.2 973.297 60.2C970.23 60.2 967.364 61 964.697 62.6C962.164 64.2 960.097 66.4667 958.497 69.4C957.03 72.2 956.297 75.4 956.297 79V138.4C956.297 144 957.03 147.8 958.497 149.8C959.964 151.8 962.564 152.8 966.297 152.8V157C963.764 156.867 960.097 156.733 955.297 156.6C950.497 156.333 945.63 156.2 940.697 156.2C935.23 156.2 929.764 156.333 924.297 156.6C918.83 156.733 914.697 156.867 911.897 157V152.8C916.297 152.8 919.364 151.8 921.097 149.8C922.964 147.8 923.897 144 923.897 138.4V75.2C923.897 69.2 923.03 64.8 921.297 62C919.564 59.0667 916.43 57.6 911.897 57.6V53.4C916.164 53.8 920.297 54 924.297 54C930.297 54 935.964 53.8 941.297 53.4C946.764 52.8667 951.764 52.1333 956.297 51.2V67.4C959.497 61.2667 963.83 56.9333 969.297 54.4C974.897 51.8667 981.297 50.6 988.497 50.6ZM1062.93 158.4C1056.79 158.4 1051.73 157.267 1047.73 155C1043.73 152.6 1040.79 149.467 1038.93 145.6C1037.06 141.733 1036.13 137.6 1036.13 133.2C1036.13 127.6 1037.39 123 1039.93 119.4C1042.59 115.8 1045.99 112.933 1050.13 110.8C1054.26 108.533 1058.59 106.667 1063.13 105.2C1067.66 103.733 1071.99 102.333 1076.13 101C1080.26 99.5333 1083.59 97.8667 1086.13 96C1088.66 94 1089.92 91.4667 1089.92 88.4V71.8C1089.92 68.8667 1089.46 66.1333 1088.53 63.6C1087.73 60.9333 1086.19 58.8 1083.92 57.2C1081.79 55.4667 1078.79 54.6 1074.93 54.6C1072.53 54.6 1070.19 54.9333 1067.93 55.6C1065.66 56.2667 1063.66 57.3333 1061.93 58.8C1066.19 60.2667 1069.33 62.4667 1071.33 65.4C1073.46 68.3333 1074.53 71.6 1074.53 75.2C1074.53 80.1333 1072.79 84.0667 1069.33 87C1065.99 89.8 1061.99 91.2 1057.33 91.2C1052.26 91.2 1048.33 89.6 1045.53 86.4C1042.86 83.2 1041.53 79.3333 1041.53 74.8C1041.53 70.8 1042.53 67.4667 1044.53 64.8C1046.53 62 1049.46 59.4667 1053.33 57.2C1057.19 54.9333 1061.86 53.2667 1067.33 52.2C1072.79 51.1333 1078.59 50.6 1084.73 50.6C1090.99 50.6 1096.73 51.2667 1101.93 52.6C1107.26 53.8 1111.79 56.2667 1115.53 60C1118.46 63.0667 1120.33 66.8 1121.13 71.2C1121.93 75.6 1122.33 81.2 1122.33 88V142C1122.33 145.333 1122.59 147.667 1123.13 149C1123.79 150.2 1124.79 150.8 1126.13 150.8C1127.33 150.8 1128.46 150.467 1129.53 149.8C1130.59 149.133 1131.66 148.4 1132.73 147.6L1134.93 151C1131.99 153.4 1128.53 155.267 1124.53 156.6C1120.53 157.8 1116.19 158.4 1111.53 158.4C1106.19 158.4 1101.99 157.733 1098.93 156.4C1095.99 154.933 1093.86 153 1092.53 150.6C1091.33 148.2 1090.66 145.533 1090.53 142.6C1087.59 147.4 1083.93 151.267 1079.53 154.2C1075.13 157 1069.59 158.4 1062.93 158.4ZM1079.53 144C1081.66 144 1083.53 143.6 1085.13 142.8C1086.86 141.867 1088.46 140.333 1089.92 138.2V96.6C1088.86 98.4667 1087.39 100.267 1085.53 102C1083.79 103.6 1081.93 105.267 1079.93 107C1077.93 108.6 1075.99 110.4 1074.13 112.4C1072.39 114.4 1070.93 116.8 1069.73 119.6C1068.66 122.267 1068.13 125.533 1068.13 129.4C1068.13 134.6 1069.19 138.333 1071.33 140.6C1073.46 142.867 1076.19 144 1079.53 144ZM1184.21 0.599987V138.4C1184.21 144 1185.07 147.8 1186.81 149.8C1188.67 151.8 1191.81 152.8 1196.21 152.8V157C1193.67 156.867 1189.81 156.733 1184.61 156.6C1179.41 156.333 1174.07 156.2 1168.61 156.2C1163.27 156.2 1157.81 156.333 1152.21 156.6C1146.74 156.733 1142.61 156.867 1139.81 157V152.8C1144.21 152.8 1147.27 151.8 1149.01 149.8C1150.87 147.8 1151.81 144 1151.81 138.4V24.4C1151.81 18.5333 1150.94 14.2 1149.21 11.4C1147.61 8.46666 1144.47 6.99999 1139.81 6.99999V2.79999C1144.07 3.2 1148.21 3.4 1152.21 3.4C1158.34 3.4 1164.07 3.2 1169.41 2.79999C1174.74 2.26666 1179.67 1.53332 1184.21 0.599987ZM1303.87 53.4V57.6C1301.34 58.4 1298.87 60.0667 1296.47 62.6C1294.2 65.1333 1292 69.5333 1289.87 75.8L1263.27 152.6L1254.47 171.2L1208.67 68.8C1206.4 63.7333 1204.2 60.6 1202.07 59.4C1199.94 58.2 1198.14 57.6 1196.67 57.6V53.4C1201.6 53.8 1206.67 54.1333 1211.87 54.4C1217.07 54.5333 1222 54.6 1226.67 54.6C1232.54 54.6 1237.74 54.4667 1242.27 54.2C1246.8 53.9333 1251.07 53.6667 1255.07 53.4V57.6C1252.54 57.6 1250.14 57.7333 1247.87 58C1245.6 58.2667 1244 59.0667 1243.07 60.4C1242.27 61.6 1242.54 63.8 1243.87 67L1269.27 127.8L1267.27 129.2L1279.47 93.8C1282.27 85.6667 1283.47 79 1283.07 73.8C1282.67 68.6 1281.14 64.6667 1278.47 62C1275.8 59.3333 1272.4 57.8667 1268.27 57.6V53.4C1270.27 53.5333 1272.47 53.6667 1274.87 53.8C1277.4 53.9333 1279.87 54.0667 1282.27 54.2C1284.67 54.2 1286.74 54.2 1288.47 54.2C1291 54.2 1293.8 54.1333 1296.87 54C1299.94 53.8667 1302.27 53.6667 1303.87 53.4ZM1263.27 152.6L1255.27 175.4C1254.07 178.733 1252.74 181.6 1251.27 184C1249.94 186.4 1248.34 188.333 1246.47 189.8C1244.6 191.267 1242.2 192.4 1239.27 193.2C1236.47 194.133 1232.87 194.6 1228.47 194.6C1225 194.6 1221.34 194 1217.47 192.8C1213.74 191.733 1210.54 189.933 1207.87 187.4C1205.34 184.867 1204.07 181.467 1204.07 177.2C1204.07 172.8 1205.67 169.267 1208.87 166.6C1212.07 164.067 1216.4 162.8 1221.87 162.8C1226.8 162.8 1230.74 163.933 1233.67 166.2C1236.74 168.467 1238.27 171.867 1238.27 176.4C1238.27 179.2 1237.34 181.933 1235.47 184.6C1233.6 187.267 1230.67 189.267 1226.67 190.6C1227.6 190.733 1228.6 190.8 1229.67 190.8C1230.87 190.933 1231.8 191 1232.47 191C1236.6 191 1240.27 189.667 1243.47 187C1246.67 184.467 1249.2 180.467 1251.07 175L1258.07 153.8L1263.27 152.6ZM1347.42 50.6C1353.29 50.6 1358.35 51.2667 1362.62 52.6C1366.89 53.9333 1370.02 55.2 1372.02 56.4C1376.69 59.3333 1379.49 57.4667 1380.42 50.8H1384.62C1384.35 54.6667 1384.15 59.3333 1384.02 64.8C1383.89 70.1333 1383.82 77.3333 1383.82 86.4H1379.62C1379.09 81.4667 1377.89 76.6 1376.02 71.8C1374.29 67 1371.69 63.0667 1368.22 60C1364.75 56.8 1360.22 55.2 1354.62 55.2C1351.02 55.2 1347.95 56.2667 1345.42 58.4C1343.02 60.5333 1341.82 63.4667 1341.82 67.2C1341.82 71.2 1343.02 74.7333 1345.42 77.8C1347.82 80.8667 1350.89 83.8 1354.62 86.6C1358.49 89.4 1362.35 92.4 1366.22 95.6C1370.49 98.8 1374.29 102.067 1377.62 105.4C1381.09 108.6 1383.82 112.133 1385.82 116C1387.95 119.733 1389.02 124.267 1389.02 129.6C1389.02 135.6 1387.22 140.867 1383.62 145.4C1380.02 149.933 1375.29 153.467 1369.42 156C1363.55 158.533 1357.02 159.8 1349.82 159.8C1345.42 159.8 1341.55 159.333 1338.22 158.4C1335.02 157.6 1332.35 156.533 1330.22 155.2C1328.22 154.267 1326.42 153.467 1324.82 152.8C1323.35 152.133 1321.89 151.667 1320.42 151.4C1319.09 151.267 1317.95 151.867 1317.02 153.2C1316.09 154.533 1315.35 156.267 1314.82 158.4H1310.62C1310.89 154.133 1311.09 148.933 1311.22 142.8C1311.35 136.667 1311.42 128.533 1311.42 118.4H1315.62C1316.42 125.6 1317.89 131.933 1320.02 137.4C1322.29 142.867 1325.29 147.2 1329.02 150.4C1332.75 153.467 1337.15 155 1342.22 155C1344.49 155 1346.55 154.6 1348.42 153.8C1350.42 152.867 1352.02 151.467 1353.22 149.6C1354.55 147.733 1355.22 145.333 1355.22 142.4C1355.22 136.533 1353.35 131.667 1349.62 127.8C1345.89 123.8 1341.29 119.467 1335.82 114.8C1331.55 111.2 1327.55 107.667 1323.82 104.2C1320.22 100.733 1317.22 96.9333 1314.82 92.8C1312.55 88.6667 1311.42 84 1311.42 78.8C1311.42 72.8 1313.09 67.7333 1316.42 63.6C1319.89 59.3333 1324.35 56.1333 1329.82 54C1335.29 51.7333 1341.15 50.6 1347.42 50.6ZM1426.98 1.19999C1433.24 1.19999 1438.11 2.59999 1441.58 5.4C1445.18 8.19999 1446.98 12.2667 1446.98 17.6C1446.98 22.9333 1445.18 27 1441.58 29.8C1438.11 32.6 1433.24 34 1426.98 34C1420.71 34 1415.78 32.6 1412.18 29.8C1408.71 27 1406.98 22.9333 1406.98 17.6C1406.98 12.2667 1408.71 8.19999 1412.18 5.4C1415.78 2.59999 1420.71 1.19999 1426.98 1.19999ZM1444.58 51.2V138.4C1444.58 144 1445.44 147.8 1447.18 149.8C1449.04 151.8 1452.18 152.8 1456.58 152.8V157C1453.91 156.867 1449.98 156.733 1444.78 156.6C1439.58 156.333 1434.31 156.2 1428.98 156.2C1423.64 156.2 1418.18 156.333 1412.58 156.6C1407.11 156.733 1402.98 156.867 1400.18 157V152.8C1404.58 152.8 1407.64 151.8 1409.38 149.8C1411.24 147.8 1412.18 144 1412.18 138.4V75.2C1412.18 69.2 1411.31 64.8 1409.58 62C1407.84 59.0667 1404.71 57.6 1400.18 57.6V53.4C1404.44 53.8 1408.58 54 1412.58 54C1418.58 54 1424.24 53.8 1429.58 53.4C1435.04 52.8667 1440.04 52.1333 1444.58 51.2ZM1505.43 50.6C1511.29 50.6 1516.36 51.2667 1520.63 52.6C1524.89 53.9333 1528.03 55.2 1530.03 56.4C1534.69 59.3333 1537.49 57.4667 1538.43 50.8H1542.63C1542.36 54.6667 1542.16 59.3333 1542.03 64.8C1541.89 70.1333 1541.83 77.3333 1541.83 86.4H1537.63C1537.09 81.4667 1535.89 76.6 1534.03 71.8C1532.29 67 1529.69 63.0667 1526.23 60C1522.76 56.8 1518.23 55.2 1512.63 55.2C1509.03 55.2 1505.96 56.2667 1503.43 58.4C1501.03 60.5333 1499.83 63.4667 1499.83 67.2C1499.83 71.2 1501.03 74.7333 1503.43 77.8C1505.83 80.8667 1508.89 83.8 1512.63 86.6C1516.49 89.4 1520.36 92.4 1524.23 95.6C1528.49 98.8 1532.29 102.067 1535.63 105.4C1539.09 108.6 1541.83 112.133 1543.83 116C1545.96 119.733 1547.03 124.267 1547.03 129.6C1547.03 135.6 1545.23 140.867 1541.63 145.4C1538.03 149.933 1533.29 153.467 1527.43 156C1521.56 158.533 1515.03 159.8 1507.83 159.8C1503.43 159.8 1499.56 159.333 1496.23 158.4C1493.03 157.6 1490.36 156.533 1488.23 155.2C1486.23 154.267 1484.43 153.467 1482.83 152.8C1481.36 152.133 1479.89 151.667 1478.43 151.4C1477.09 151.267 1475.96 151.867 1475.03 153.2C1474.09 154.533 1473.36 156.267 1472.83 158.4H1468.63C1468.89 154.133 1469.09 148.933 1469.23 142.8C1469.36 136.667 1469.43 128.533 1469.43 118.4H1473.63C1474.43 125.6 1475.89 131.933 1478.03 137.4C1480.29 142.867 1483.29 147.2 1487.03 150.4C1490.76 153.467 1495.16 155 1500.23 155C1502.49 155 1504.56 154.6 1506.43 153.8C1508.43 152.867 1510.03 151.467 1511.23 149.6C1512.56 147.733 1513.23 145.333 1513.23 142.4C1513.23 136.533 1511.36 131.667 1507.63 127.8C1503.89 123.8 1499.29 119.467 1493.83 114.8C1489.56 111.2 1485.56 107.667 1481.83 104.2C1478.23 100.733 1475.23 96.9333 1472.83 92.8C1470.56 88.6667 1469.43 84 1469.43 78.8C1469.43 72.8 1471.09 67.7333 1474.43 63.6C1477.89 59.3333 1482.36 56.1333 1487.83 54C1493.29 51.7333 1499.16 50.6 1505.43 50.6Z" fill="#FA54D9"/>
</svg>
